<svg width="159" height="160" viewBox="0 0 159 160" fill="none" xmlns="http://www.w3.org/2000/svg">
<g clip-path="url(#clip0)">
<path d="M148.884 47.2535H148.241V48.5335L148.884 49.1735C149.347 55.6468 143.146 59.4201 143.146 59.4201C143.047 55.4001 139.966 54.9401 139.966 54.9401C132.467 53.0001 130.406 61.9868 130.406 61.9868C129.565 69.5201 134.865 69.6735 134.865 69.6735C137.846 70.5068 140.596 67.1135 140.596 67.1135V68.3935L139.96 74.1601C138.462 79.2668 131.678 77.3601 131.678 77.3601C128.737 76.1468 128.498 78.0068 128.498 78.0068C128.83 86.9268 132.957 90.1735 132.957 90.1735C137.813 92.5601 137.416 93.3735 137.416 93.3735C138.456 95.3868 136.137 96.5801 136.137 96.5801C133.991 97.7001 133.593 99.1468 133.593 99.1468C132.745 101.04 136.137 104.907 136.137 104.907C137.409 105.04 138.052 107.473 138.052 107.473C137.74 110.593 134.865 110.673 134.865 110.673C133.977 111.247 132.321 116.44 132.321 116.44C125.742 137.907 103.41 140.96 98.7853 141.367C99.2557 146.52 99.2955 153.287 96.6521 155.513C96.6521 155.513 93.8563 159.047 87.1055 156.793C87.1055 156.793 94.1147 150.953 92.8295 135.013C92.8295 135.013 90.7956 134.693 89.6495 134.373C89.6495 134.373 88.1058 159.307 75.0016 160C75.0016 160 69.1318 160.2 67.3563 156.8C67.3563 156.8 81.5073 152.233 85.8268 133.093L83.2828 131.813C83.2828 131.813 74.0873 156.36 58.4391 156.793C58.4391 156.793 52.5627 157.633 48.8858 150.393C48.8858 150.393 67.2371 149.027 80.0896 129.247L77.5456 127.327C77.5456 127.327 58.5385 149.433 42.5192 145.9C42.5192 145.9 31.4091 143.46 31.694 133.733C31.694 133.733 53.5366 141.053 75.0016 123.487L73.0936 120.287C73.0936 120.287 49.8862 132.22 32.3366 129.253C32.3366 129.253 9.23521 124.807 16.4101 108.113C16.4101 108.113 40.0746 123.847 70.543 115.8V111.953C70.543 111.953 11.7593 116.993 10.0435 85.0468C10.0435 85.0468 10.7921 76.5201 14.4955 76.0801C14.4955 76.0801 30.0377 100.06 70.543 107.473V104.273C70.543 104.273 13.4752 84.5401 13.2235 49.1735C13.2235 49.1735 13.7137 34.4401 25.3273 36.3601C25.3273 36.3601 26.4072 70.2668 71.8216 99.7868L73.087 97.2201C73.087 97.2201 30.3557 70.1135 31.058 19.0668C31.058 19.0668 33.549 -6.89319 52.7085 1.76681C52.7085 1.76681 40.1408 55.7868 76.2736 92.1001C76.2736 92.1001 81.514 82.1335 96.6587 82.4868C96.6587 82.4868 120.111 81.5201 122.761 107.473C122.761 107.473 124.802 132.52 97.9241 135.02C97.9241 135.02 98.1692 136.28 98.4276 138.18C121.377 136.533 125.312 113.88 125.312 113.88C128.73 89.0135 106.212 81.2068 106.212 81.2068C88.4901 74.4335 75.6376 87.6068 75.6376 87.6068C58.3993 73.4868 56.5377 45.3335 56.5377 45.3335L60.9963 43.4135C55.3916 39.7068 57.8097 31.8801 57.8097 31.8801C60.7247 34.3135 71.1856 29.9668 71.1856 29.9668C69.6817 24.0001 73.0936 22.9135 73.0936 22.9135C76.1411 22.4935 90.9215 22.9135 90.9215 22.9135C90.9215 16.7201 95.3801 17.1535 95.3801 17.1535C96.8575 18.8135 102.389 19.7135 102.389 19.7135C111.439 23.5868 110.671 24.1935 110.671 24.1935C111.134 25.2868 111.943 24.8401 111.943 24.8401C111.843 19.4068 117.673 21.6401 117.673 21.6401C118.256 27.4335 134.229 35.0868 134.229 35.0868C136.568 36.6735 134.229 39.5735 134.229 39.5735L136.773 41.4935H139.324L140.596 42.1335L146.962 42.7735C149.539 43.3935 148.884 47.2601 148.884 47.2601V47.2535ZM101.753 33.1601C101.753 33.1601 98.2156 34.8668 100.475 38.9268C100.475 38.9268 101.468 40.3535 103.661 41.4868C103.661 41.4868 99.1563 33.5001 109.392 35.7201C109.392 35.7201 107.126 31.3201 101.753 33.1601ZM131.685 42.1268H127.226V43.4068L130.406 46.6068L132.957 41.4868L131.685 42.1268Z" fill="url(#paint0_radial)"/>
</g>
<defs>
<radialGradient id="paint0_radial" cx="0" cy="0" r="1" gradientUnits="userSpaceOnUse" gradientTransform="translate(96.9999 110) rotate(-72.646) scale(50.2892 43.6608)">
<stop offset="0.053167" stop-color="#9A0000"/>
<stop offset="0.310815" stop-color="#6F0000"/>
<stop offset="0.527016" stop-color="#680000"/>
<stop offset="0.728432" stop-color="#CADC00"/>
<stop offset="0.941219" stop-color="#929E00"/>
</radialGradient>
<clipPath id="clip0">
<rect width="159" height="160" fill="white"/>
</clipPath>
</defs>
</svg>
