<svg width="134" height="134" viewBox="0 0 134 134" fill="none" xmlns="http://www.w3.org/2000/svg">
<path d="M97.8043 70.1014C97.752 61.1768 101.796 54.4506 109.961 49.491C105.394 42.948 98.4848 39.3494 89.377 38.6559C80.7533 37.9754 71.3184 43.6809 67.8637 43.6809C64.2127 43.6809 55.8639 38.8914 49.2947 38.8914C35.7377 39.1008 21.3301 49.7004 21.3301 71.266C21.3301 77.6389 22.4947 84.2211 24.824 90.9996C27.9385 99.9242 39.1662 121.791 50.8781 121.438C57.0023 121.294 61.3338 117.093 69.3031 117.093C77.0369 117.093 81.0412 121.438 87.8721 121.438C99.6887 121.267 109.843 101.39 112.801 92.4391C96.9537 84.967 97.8043 70.5594 97.8043 70.1014ZM84.051 30.1893C90.6855 22.3115 90.0836 15.1404 89.8873 12.5625C84.0248 12.9027 77.2463 16.5537 73.3859 21.0422C69.133 25.8578 66.6336 31.8119 67.1701 38.525C73.5037 39.0092 79.2877 35.7508 84.051 30.1893Z" fill="#BCBCBC"/>
</svg>
