<svg width="685" height="696" viewBox="0 0 685 696" fill="none" xmlns="http://www.w3.org/2000/svg">
<g opacity="0.7" filter="url(#filter0_d)">
<path d="M441.531 433.856C458.28 372.29 433.639 302.092 389.138 261.782C344.638 221.47 283.919 208.679 227.363 217.208C178.719 224.544 130.278 248.175 99.6729 291.48C85.612 311.38 77.2288 344.167 95.1505 359.618C116.687 378.182 148.988 349.505 174.179 360.779C196.398 370.723 199.802 404.82 195.212 431.301C190.622 457.781 181.903 486.309 192.406 510.547C202.29 533.352 226.936 544.028 249.388 542.517C274.326 540.84 297.509 526.447 322.287 522.08C334.699 519.893 346.938 520.82 359.371 518.347C373.07 515.619 386.076 510.121 397.537 501.13C418.128 484.976 434.153 460.975 441.531 433.856Z" fill="url(#paint0_linear)"/>
</g>
<path d="M392.91 334.927L364.089 343.777L363.507 343.956L280.452 369.461L279.872 369.639L196.814 395.145L196.234 395.323L178.608 400.735C178.855 401.001 179.11 401.254 179.355 401.521L196.461 396.268L197.041 396.09L280.099 370.584L280.679 370.406L363.734 344.901L364.316 344.722L393.451 335.776C393.271 335.494 393.093 335.21 392.91 334.927Z" fill="url(#paint1_linear)"/>
<path d="M359.546 324.867L358.964 325.046L275.908 350.55L275.329 350.728L192.271 376.234L191.691 376.412L162.079 385.505C162.389 385.744 162.689 385.996 162.997 386.238L191.916 377.358L192.496 377.18L275.553 351.674L276.133 351.496L359.189 325.991L359.771 325.813L381.609 319.107C381.393 318.834 381.171 318.565 380.956 318.292L359.546 324.867Z" fill="url(#paint2_linear)"/>
<path d="M355.003 305.955L354.421 306.134L271.365 331.639L270.786 331.817L187.728 357.322L187.148 357.5L126.072 376.255C126.213 376.551 126.352 376.848 126.496 377.143L187.376 358.448L187.955 358.27L271.013 332.764L271.593 332.586L354.649 307.081L355.231 306.903L367.776 303.05C367.529 302.784 367.28 302.524 367.029 302.262L355.003 305.955Z" fill="url(#paint3_linear)"/>
<path d="M350.46 287.044L349.878 287.223L266.822 312.728L266.242 312.906L183.184 338.411L182.605 338.589L118.66 358.225C118.769 358.531 118.88 358.836 118.988 359.142L182.832 339.537L183.412 339.359L266.47 313.853L267.05 313.675L350.105 288.17L350.687 287.992L352.252 287.511C351.98 287.255 351.709 286.999 351.438 286.744L350.46 287.044Z" fill="url(#paint4_linear)"/>
<path d="M361.819 334.324L361.237 334.503L278.181 360.008L277.601 360.186L194.543 385.692L193.964 385.87L170.887 392.956C171.157 393.207 171.414 393.475 171.682 393.727L194.191 386.815L194.77 386.637L277.828 361.131L278.408 360.953L361.464 335.448L362.046 335.27L387.791 327.364C387.594 327.085 387.399 326.806 387.2 326.53L361.819 334.324Z" fill="url(#paint5_linear)"/>
<path d="M357.275 315.411L356.693 315.589L273.637 341.094L273.057 341.272L190 366.778L189.42 366.956L151.837 378.497C152.202 378.715 152.556 378.957 152.919 379.179L189.647 367.901L190.227 367.723L273.284 342.217L273.864 342.039L356.92 316.534L357.502 316.356L374.918 311.008C374.686 310.74 374.459 310.47 374.225 310.205L357.275 315.411Z" fill="url(#paint6_linear)"/>
<path d="M352.731 296.5L352.149 296.679L269.094 322.183L268.514 322.361L185.456 347.867L184.876 348.045L122.119 367.316C122.244 367.617 122.364 367.92 122.489 368.22L185.104 348.993L185.684 348.815L268.741 323.309L269.321 323.131L352.377 297.626L352.959 297.447L360.193 295.226C359.933 294.967 359.676 294.706 359.416 294.447L352.731 296.5Z" fill="url(#paint7_linear)"/>
<path d="M425.109 426.574L386.807 438.336L386.225 438.514L303.169 464.019L302.589 464.197L232.144 485.83C232.302 486.12 232.459 486.411 232.613 486.7L302.816 465.142L303.396 464.964L386.452 439.459L387.034 439.281L425.224 427.553C425.186 427.228 425.147 426.901 425.109 426.574Z" fill="url(#paint8_linear)"/>
<path d="M382.264 419.425L381.682 419.603L298.626 445.108L298.046 445.286L222.851 468.377C223.006 468.669 223.161 468.96 223.316 469.252L298.274 446.234L298.854 446.056L381.909 420.551L382.491 420.372L422.186 408.183C422.121 407.863 422.057 407.544 421.993 407.225L382.264 419.425Z" fill="url(#paint9_linear)"/>
<path d="M377.72 400.513L377.138 400.692L294.083 426.197L293.503 426.375L213.411 450.969C213.573 451.259 213.733 451.549 213.895 451.839L293.73 427.323L294.31 427.145L377.366 401.64L377.948 401.461L417.526 389.307C417.436 388.996 417.348 388.683 417.256 388.373L377.72 400.513Z" fill="url(#paint10_linear)"/>
<path d="M373.177 381.602L372.595 381.781L289.539 407.286L288.96 407.464L205.902 432.969L205.322 433.147L203.285 433.773C203.461 434.058 203.637 434.343 203.813 434.628L205.55 434.095L206.129 433.917L289.187 408.411L289.767 408.233L372.823 382.729L373.405 382.55L411.245 370.93C411.128 370.627 411.014 370.322 410.892 370.021L373.177 381.602Z" fill="url(#paint11_linear)"/>
<path d="M368.634 362.691L368.052 362.87L284.996 388.375L284.416 388.553L201.358 414.059L200.779 414.237L191.931 416.954C192.132 417.228 192.327 417.51 192.528 417.785L201.006 415.182L201.585 415.004L284.643 389.498L285.223 389.32L368.279 363.815L368.861 363.636L403.274 353.069C403.126 352.775 402.971 352.483 402.821 352.193L368.634 362.691Z" fill="url(#paint12_linear)"/>
<path d="M384.535 428.88L383.953 429.059L300.897 454.563L300.318 454.741L227.484 477.107C227.639 477.399 227.794 477.691 227.949 477.982L300.545 455.689L301.125 455.511L384.181 430.006L384.763 429.827L423.91 417.806C423.859 417.482 423.807 417.159 423.757 416.836L384.535 428.88Z" fill="url(#paint13_linear)"/>
<path d="M379.992 409.969L379.41 410.147L296.354 435.652L295.775 435.83L218.184 459.657C218.341 459.948 218.5 460.235 218.658 460.529L296.002 436.778L296.582 436.6L379.638 411.095L380.22 410.916L420.058 398.683C419.98 398.367 419.904 398.052 419.826 397.736L379.992 409.969Z" fill="url(#paint14_linear)"/>
<path d="M375.449 391.058L374.867 391.236L291.811 416.741L291.231 416.919L208.469 442.334C208.638 442.621 208.811 442.904 208.981 443.194L291.459 417.867L292.039 417.689L375.094 392.184L375.677 392.005L414.591 380.055C414.487 379.748 414.388 379.439 414.279 379.134L375.449 391.058Z" fill="url(#paint15_linear)"/>
<path d="M370.905 372.146L370.323 372.325L287.268 397.83L286.688 398.008L203.63 423.514L203.05 423.692L197.793 425.306C197.98 425.588 198.177 425.864 198.365 426.148L203.278 424.639L203.858 424.461L286.915 398.956L287.495 398.778L370.551 373.273L371.133 373.094L407.481 361.932C407.347 361.634 407.213 361.336 407.077 361.039L370.905 372.146Z" fill="url(#paint16_linear)"/>
<path d="M366.362 353.235L365.78 353.414L282.724 378.919L282.144 379.097L199.087 404.602L198.507 404.78L185.563 408.755C185.786 409.026 186.006 409.295 186.226 409.566L198.734 405.725L199.314 405.547L282.371 380.042L282.951 379.864L366.007 354.359L366.589 354.18L398.606 344.348C398.442 344.06 398.276 343.774 398.109 343.486L366.362 353.235Z" fill="url(#paint17_linear)"/>
<path d="M404.981 513.982L404.399 514.161L321.343 539.666L320.764 539.844L278.867 552.709C279.141 552.965 279.412 553.22 279.685 553.473L320.988 540.789L321.568 540.611L404.624 515.107L405.206 514.928L418.203 510.937C418.321 510.564 418.428 510.189 418.544 509.817L404.981 513.982Z" fill="url(#paint18_linear)"/>
<path d="M400.438 495.071L399.856 495.25L316.8 520.755L316.221 520.933L264.335 536.866C264.552 537.135 264.76 537.416 264.979 537.683L316.448 521.878L317.027 521.7L400.083 496.195L400.665 496.016L423.541 488.991C423.603 488.636 423.66 488.276 423.719 487.922L400.438 495.071Z" fill="url(#paint19_linear)"/>
<path d="M395.894 476.16L395.312 476.339L312.257 501.844L311.677 502.022L252.303 520.255C252.489 520.537 252.672 520.82 252.859 521.099L311.902 502.968L312.481 502.79L395.537 477.285L396.119 477.106L426.099 467.9C426.124 467.553 426.155 467.207 426.18 466.86L395.894 476.16Z" fill="url(#paint20_linear)"/>
<path d="M391.35 457.246L390.768 457.425L307.713 482.93L307.133 483.108L241.785 503.175C241.951 503.463 242.118 503.751 242.284 504.037L307.36 484.053L307.94 483.875L390.995 458.37L391.578 458.191L426.58 447.443C426.572 447.106 426.557 446.774 426.549 446.438L391.35 457.246Z" fill="url(#paint21_linear)"/>
<path d="M407.253 523.438L406.671 523.617L323.615 549.122L323.035 549.3L287.581 560.187C287.895 560.433 288.214 560.668 288.528 560.911L323.262 550.245L323.842 550.067L406.898 524.562L407.48 524.383L414.039 522.369C414.199 521.984 414.356 521.596 414.513 521.209L407.253 523.438Z" fill="url(#paint22_linear)"/>
<path d="M402.71 504.527L402.127 504.705L319.072 530.21L318.492 530.388L271.172 544.919C271.416 545.184 271.664 545.444 271.907 545.708L318.717 531.334L319.297 531.156L402.352 505.651L402.934 505.472L421.28 499.839C421.369 499.472 421.464 499.107 421.548 498.742L402.71 504.527Z" fill="url(#paint23_linear)"/>
<path d="M398.166 485.616L397.584 485.794L314.528 511.299L313.949 511.477L258.079 528.634C258.281 528.911 258.486 529.184 258.688 529.462L314.176 512.422L314.755 512.244L397.811 486.739L398.393 486.561L425.104 478.358C425.145 478.007 425.191 477.656 425.231 477.305L398.166 485.616Z" fill="url(#paint24_linear)"/>
<path d="M393.623 466.705L393.041 466.884L309.985 492.388L309.405 492.566L246.884 511.766C247.06 512.051 247.242 512.331 247.418 512.616L309.632 493.511L310.212 493.333L393.268 467.829L393.85 467.65L426.587 457.597C426.595 457.255 426.599 456.918 426.604 456.577L393.623 466.705Z" fill="url(#paint25_linear)"/>
<path d="M389.079 447.794L388.497 447.973L305.442 473.478L304.862 473.656L236.885 494.53C237.047 494.819 237.207 495.11 237.369 495.399L305.092 474.603L305.672 474.424L388.727 448.92L389.309 448.741L426.121 437.437C426.099 437.104 426.072 436.773 426.047 436.442L389.079 447.794Z" fill="url(#paint26_linear)"/>
<path d="M409.061 533.036L408.942 533.072L325.887 558.577L325.307 558.755L297.641 567.251C298.009 567.48 298.382 567.702 298.754 567.927L325.535 559.703L326.114 559.525L408.413 534.252C408.631 533.846 408.847 533.444 409.061 533.036Z" fill="url(#paint27_linear)"/>
<path d="M329.85 577.666L325.392 579.035C326.042 579.183 326.693 579.323 327.347 579.453L330.078 578.614L330.658 578.436L388.164 560.777C388.702 560.278 389.24 559.779 389.767 559.267L330.43 577.488L329.85 577.666Z" fill="url(#paint28_linear)"/>
<path d="M327.579 568.213L309.69 573.707C310.139 573.908 310.584 574.116 311.033 574.309L327.806 569.158L328.386 568.98L400.533 546.825C400.843 546.399 401.14 545.961 401.445 545.531L328.159 568.035L327.579 568.213Z" fill="url(#paint29_linear)"/>
<path d="M199.092 181.227L166.483 191.24C165.165 191.947 163.857 192.685 162.568 193.457L203.265 180.96C201.873 181.011 200.481 181.1 199.092 181.227Z" fill="url(#paint30_linear)"/>
<path d="M151.025 207.155L151.605 206.977L226.595 183.949C226.036 183.778 225.477 183.605 224.917 183.449L151.38 206.031L150.8 206.209L143.461 208.463C142.98 208.947 142.498 209.426 142.026 209.918L151.025 207.155Z" fill="url(#paint31_linear)"/>
<path d="M173.742 301.713L174.322 301.535L257.38 276.03L257.96 275.852L318.337 257.311C318.049 257.06 317.764 256.808 317.478 256.557L257.735 274.903L257.155 275.081L174.097 300.587L173.517 300.765L109.969 320.279C110.005 320.607 110.046 320.934 110.085 321.261L173.742 301.713Z" fill="url(#paint32_linear)"/>
<path d="M169.199 282.802L169.779 282.624L252.837 257.118L253.416 256.94L301.386 242.21C301.11 241.955 300.833 241.701 300.557 241.446L253.191 255.992L252.611 256.17L169.553 281.675L168.974 281.853L108.995 300.272C108.991 300.612 108.997 300.949 108.994 301.289L169.199 282.802Z" fill="url(#paint33_linear)"/>
<path d="M164.656 263.891L165.235 263.713L248.293 238.207L248.873 238.029L285.333 226.833C285.071 226.574 284.811 226.315 284.55 226.059L248.648 237.083L248.068 237.261L165.011 262.767L164.431 262.945L110.578 279.482C110.528 279.837 110.47 280.191 110.423 280.545L164.656 263.891Z" fill="url(#paint34_linear)"/>
<path d="M160.113 244.98L160.692 244.802L243.75 219.296L244.33 219.118L269.418 211.414C269.144 211.159 268.871 210.904 268.598 210.651L244.103 218.173L243.523 218.351L160.465 243.857L159.886 244.035L115.295 257.728C115.184 258.098 115.073 258.471 114.965 258.843L160.113 244.98Z" fill="url(#paint35_linear)"/>
<path d="M155.568 226.066L156.148 225.888L239.206 200.383L239.786 200.204L251.483 196.612C251.146 196.374 250.804 196.145 250.462 195.911L239.559 199.259L238.979 199.437L155.921 224.943L155.341 225.121L124.618 234.556C124.409 234.953 124.208 235.357 124.002 235.759L155.568 226.066Z" fill="url(#paint36_linear)"/>
<path d="M171.471 292.257L172.05 292.079L255.108 266.574L255.688 266.396L309.781 249.785C309.498 249.533 309.212 249.281 308.932 249.028L255.463 265.448L254.883 265.626L171.825 291.131L171.245 291.309L109.194 310.364C109.209 310.698 109.222 311.031 109.24 311.367L171.471 292.257Z" fill="url(#paint37_linear)"/>
<path d="M166.928 273.346L167.507 273.168L250.565 247.663L251.145 247.485L293.23 234.561C292.964 234.304 292.699 234.046 292.435 233.788L250.92 246.536L250.34 246.714L167.282 272.22L166.702 272.398L109.447 289.98C109.423 290.326 109.398 290.67 109.375 291.02L166.928 273.346Z" fill="url(#paint38_linear)"/>
<path d="M162.384 254.435L162.964 254.257L246.022 228.752L246.601 228.574L277.476 219.093C277.211 218.835 276.947 218.577 276.683 218.322L246.377 227.628L245.797 227.806L162.739 253.312L162.159 253.49L112.481 268.745C112.403 269.108 112.323 269.469 112.247 269.832L162.384 254.435Z" fill="url(#paint39_linear)"/>
<path d="M157.841 235.524L158.421 235.346L241.478 209.84L242.058 209.662L260.89 203.879C260.593 203.631 260.3 203.379 260.004 203.137L241.831 208.717L241.251 208.895L158.194 234.401L157.614 234.579L119.23 246.366C119.078 246.752 118.915 247.135 118.764 247.524L157.841 235.524Z" fill="url(#paint40_linear)"/>
<path d="M153.297 216.613L153.877 216.435L236.935 190.929L237.515 190.751L240.56 189.816C240.153 189.599 239.744 189.385 239.337 189.177L237.288 189.806L236.708 189.984L153.65 215.49L153.07 215.668L132.122 222.101C131.827 222.528 131.532 222.955 131.243 223.385L153.297 216.613Z" fill="url(#paint41_linear)"/>
<path d="M161.613 406.971L161.286 406.057L146.748 410.521C146.954 410.797 147.164 411.069 147.373 411.344L161.613 406.971Z" fill="url(#paint42_linear)"/>
<path d="M155.042 388.683L154.712 387.77L135.431 393.691C135.602 393.977 135.771 394.265 135.944 394.548L155.042 388.683Z" fill="url(#paint43_linear)"/>
<path d="M178.286 320.624L178.866 320.446L261.924 294.94L262.503 294.762L335.545 272.333C335.259 272.081 334.976 271.829 334.69 271.578L262.278 293.814L261.698 293.992L178.64 319.498L178.061 319.676L113.241 339.581C113.314 339.897 113.393 340.212 113.468 340.528L178.286 320.624Z" fill="url(#paint44_linear)"/>
<path d="M158.329 397.827L157.999 396.914L140.844 402.182C141.034 402.463 141.223 402.741 141.413 403.022L158.329 397.827Z" fill="url(#paint45_linear)"/>
<path d="M130.977 385.92L151.753 379.54L151.426 378.626L130.498 385.052C130.655 385.34 130.819 385.629 130.977 385.92Z" fill="url(#paint46_linear)"/>
<path d="M180.558 330.082L181.138 329.904L264.196 304.399L264.776 304.22L344.008 279.89C343.73 279.636 343.449 279.383 343.168 279.13L264.55 303.272L263.971 303.45L180.913 328.956L180.333 329.134L115.699 348.981C115.789 349.293 115.875 349.606 115.967 349.917L180.558 330.082Z" fill="url(#paint47_linear)"/>
<path d="M111.491 330.985L176.017 311.17L176.597 310.992L259.655 285.487L260.234 285.309L326.961 264.818C326.673 264.567 326.385 264.317 326.098 264.066L260.007 284.361L259.427 284.539L176.369 310.045L175.789 310.223L111.328 330.017C111.383 330.34 111.433 330.664 111.491 330.985Z" fill="url(#paint48_linear)"/>
<path d="M168.187 425.259L167.858 424.346L160.125 426.72C160.366 426.985 160.605 427.251 160.848 427.513L168.187 425.259Z" fill="url(#paint49_linear)"/>
<path d="M171.472 434.404L171.142 433.487L167.635 434.564C167.895 434.824 168.152 435.084 168.412 435.343L171.472 434.404Z" fill="url(#paint50_linear)"/>
<path d="M153.171 418.703C153.393 418.973 153.618 419.241 153.843 419.511L164.9 416.116L164.571 415.202L153.171 418.703Z" fill="url(#paint51_linear)"/>
<g filter="url(#filter1_d)">
<path d="M111.012 338.532C117.837 342.202 122.816 349.981 123.774 358.467C125.811 376.517 111.109 391.816 109.733 409.934C109.292 415.728 110.103 422.167 107.033 426.818C103.429 432.274 95.8007 432.378 90.6871 428.757C85.5726 425.138 82.4535 418.86 79.8498 412.697C74.8634 400.903 70.8991 388.159 71.2411 375.101C71.8115 353.158 89.6078 327.017 111.012 338.532Z" fill="url(#paint52_linear)"/>
</g>
<g filter="url(#filter2_d)">
<path d="M156.146 215.906C153.905 209.158 156.162 200.754 161.548 196.817C166.934 192.882 174.935 194.161 178.85 199.858C181.073 203.091 181.881 207.775 180.114 211.359C178.625 214.379 175.854 215.859 173.265 217.418C170.995 218.784 169.49 220.62 167.476 222.308C162.901 226.142 157.795 220.87 156.146 215.906Z" fill="url(#paint53_linear)"/>
</g>
<g filter="url(#filter3_d)">
<path d="M89.2393 442.506C90.7548 441.585 92.7178 441.59 94.1153 442.692C95.8223 444.038 96.3786 446.898 95.4348 449.02C94.4881 451.143 92.2149 452.354 90.1594 451.947C85.29 450.984 85.1694 444.985 89.2393 442.506Z" fill="url(#paint54_linear)"/>
</g>
<g filter="url(#filter4_d)">
<path d="M128.744 486.507C136.616 481.723 146.813 481.75 154.072 487.474C162.939 494.465 165.829 509.319 160.926 520.344C156.009 531.369 144.201 537.663 133.523 535.546C108.23 530.546 107.603 499.382 128.744 486.507Z" fill="url(#paint55_linear)"/>
</g>
<g filter="url(#filter5_d)">
<path d="M74.6973 297.119C79.3665 294.281 85.4144 294.297 89.7202 297.692C94.9794 301.839 96.6935 310.649 93.7855 317.188C90.8689 323.728 83.8653 327.461 77.5321 326.205C62.5298 323.24 62.1581 304.755 74.6973 297.119Z" fill="url(#paint56_linear)"/>
</g>
<g filter="url(#filter6_d)">
<path d="M166.483 232.993C165.817 233.772 160.859 235.864 159.952 235.547C158.844 235.161 158.678 232.117 158.86 230.81C159.044 229.503 160.068 228.424 161.22 228.246C163.947 227.822 168.27 230.897 166.483 232.993Z" fill="url(#paint57_linear)"/>
</g>
<g filter="url(#filter7_d)">
<path d="M407.756 445.602C409.271 444.682 411.234 444.687 412.632 445.789C414.339 447.135 414.895 449.994 413.952 452.117C413.005 454.239 410.732 455.451 408.676 455.043C403.807 454.081 403.686 448.081 407.756 445.602Z" fill="url(#paint58_linear)"/>
</g>
<g filter="url(#filter8_d)">
<path d="M404.852 460.369C400.299 459.781 395.744 462.048 391.209 461.303C386.173 460.477 381.379 456.015 376.529 457.651C372.945 458.862 370.78 463.313 370.89 467.55C370.999 471.786 372.97 475.735 375.443 478.955C380.591 485.653 388.347 489.923 396.15 489.59C403.52 489.274 411.273 484.276 414.841 476.873C418.264 469.774 411.218 461.192 404.852 460.369Z" fill="url(#paint59_linear)"/>
</g>
<g filter="url(#filter9_d)">
<path d="M131.33 348.722C133.803 347.786 136.791 349.729 137.372 352.602C137.955 355.477 136.066 358.658 133.505 359.203C130.942 359.746 128.185 357.621 127.64 354.737C127.094 351.852 128.793 348.68 131.288 347.825" fill="url(#paint60_linear)"/>
</g>
<path d="M258.779 593.272C258.784 593.032 258.769 592.787 258.71 592.542C255.414 578.138 239.067 569.17 239.067 569.17L232.589 569.731C228.864 582.426 229.342 590.213 229.939 593.68C229.954 593.778 229.984 593.87 230.008 593.963C235.352 594.49 246.355 594.833 258.779 593.272Z" fill="url(#paint61_linear)"/>
<path d="M230.009 593.962C230.295 595.122 231.074 596.019 232.066 596.253C239.669 598.016 251.753 596.596 256.825 595.867C257.945 595.704 258.764 594.567 258.779 593.277C246.355 594.833 235.352 594.49 230.009 593.962Z" fill="url(#paint62_linear)"/>
<path d="M204.352 338.3C200.35 343.013 194.459 347.083 190.314 349.619C196.506 358.059 204.884 366.51 215.976 374.787L219.149 382.645L229.318 369.204C229.318 369.198 211.072 359.18 204.352 338.3Z" fill="url(#paint63_linear)"/>
<path d="M229.984 559.087L232.727 573.654C232.929 574.721 233.669 575.521 234.572 575.613C235.673 575.727 237.247 575.793 238.826 575.537C240.242 575.308 241.228 573.719 240.977 572.016L239.067 559.081H229.984V559.087Z" fill="url(#paint64_linear)"/>
<path d="M286.839 593.816C279.684 593.593 275.984 592.668 274.069 591.802C274.064 592.586 274.069 593.386 274.094 594.213C274.119 595.095 274.711 595.802 275.441 595.797L314.726 595.519C315.979 595.508 316.714 593.908 316.166 592.64C311.015 593.108 297.896 594.159 286.839 593.816Z" fill="url(#paint65_linear)"/>
<path d="M316.167 592.635C316.117 592.526 316.078 592.411 316.009 592.308C312.54 586.959 303.703 576.315 286.242 571.695L277.864 571.401C277.864 571.401 274.134 578.551 274.064 591.797C275.979 592.662 279.679 593.587 286.834 593.81C297.896 594.158 311.015 593.108 316.167 592.635Z" fill="url(#paint66_linear)"/>
<path d="M276.314 557.405C276.408 558.096 277.558 568.561 278.002 572.62C278.105 573.583 278.742 574.329 279.541 574.438C280.967 574.628 283.276 574.797 285.294 574.34C286.385 574.095 287.174 572.941 287.174 571.597V555.169L276.314 557.405Z" fill="url(#paint67_linear)"/>
<path d="M269.594 366.396C269.594 366.396 289.799 451.08 289.434 557.645C289.429 559.587 288.191 561.263 286.469 561.666C283.928 562.254 280.193 562.956 277.104 562.863C275.456 562.814 274.074 561.465 273.798 559.669C270.966 541.347 254.708 438.123 245.442 421.368C245.442 421.368 239.349 513.3 241.298 560.997C241.347 562.183 240.558 563.211 239.492 563.348C237.868 563.554 235.273 563.712 231.972 563.326C230.719 563.179 229.708 562.134 229.53 560.757C227.512 545.248 215.897 452.946 216.391 386.454C216.42 382.705 225.38 366.401 225.38 366.401H269.594V366.396Z" fill="url(#paint68_linear)"/>
<path d="M300.58 252.337C297.042 242.363 291.072 235.533 285.072 227.648C262.578 232.149 225.711 236.159 210.341 238.298C205.541 238.967 201.154 241.574 197.987 245.612C185.444 261.621 157.917 305.454 190.314 349.619C194.459 347.083 200.35 343.013 204.352 338.3C200.769 327.156 200.473 312.915 207.988 295.452C208.244 296.834 208.56 298.206 208.945 299.555C219.297 335.732 219.849 365.835 219.83 372.773C219.825 373.715 220.338 374.564 221.132 374.912C234.76 380.936 260.989 377.35 269.792 375.902C271.405 375.636 272.491 373.981 272.268 372.197C267.946 337.669 290.125 280.868 295.981 266.638C296.84 264.56 298.35 262.883 300.235 261.942C301.182 261.469 302.11 260.984 303.027 260.5C302.336 257.752 301.532 255.026 300.58 252.337Z" fill="url(#paint69_linear)"/>
<path d="M233.892 205.076L232.288 235.947C232.239 236.856 232.777 237.678 233.581 237.901C237.133 238.891 246.952 240.856 255.498 235.496C256.603 234.799 257.116 233.335 256.771 231.986L249.626 204.249L233.892 205.076Z" fill="url(#paint70_linear)"/>
<path d="M251.402 171.349C251.768 171.724 266.732 204.146 266.732 204.146L249.769 213.179L231.444 184.779C231.444 184.779 245.324 165.036 251.402 171.349Z" fill="url(#paint71_linear)"/>
<path d="M238.949 185.562C238.648 186.428 238.722 187.391 239.151 188.185L247.613 203.743C247.741 203.977 247.894 204.195 248.077 204.38C249.083 205.414 252.532 208.423 255.197 204.325C257.466 200.837 259.598 197.665 261.882 196.353C263.214 195.591 264.858 196.201 265.533 197.681C266.93 200.728 269.629 206.943 271.326 212.831C271.75 214.305 271.06 215.894 269.757 216.471C266.323 218.006 259.534 220.781 253.509 221.701C252.517 221.853 251.541 221.391 250.948 220.504C248.358 216.586 241.051 205.642 238.559 202.905C236.24 200.358 231.967 201.322 230.043 201.931C229.313 202.165 228.533 202.051 227.882 201.621C225.928 200.32 222.519 197.088 225.637 191.614C226.412 190.253 226.017 188.441 224.798 187.554C222.617 185.97 220.249 182.999 222.504 178.189C224.788 173.319 228.869 172.878 231.647 173.253C232.875 173.416 234.123 172.709 234.597 171.447C234.809 170.886 235.224 170.407 235.993 170.233C237.449 169.907 238.406 168.437 238.12 166.832C237.632 164.073 237.997 160.492 241.988 158.071C249.31 153.63 255.72 160.862 257.353 166.968C258.981 173.074 250.8 177.389 245.649 178.107C241.86 178.63 239.783 183.184 238.949 185.562Z" fill="url(#paint72_linear)"/>
<path d="M241.732 208.613C241.732 208.613 238.475 198.111 234.311 198.497C230.147 198.884 226.865 203.46 232.026 208.608C238.455 215.002 241.732 208.613 241.732 208.613Z" fill="url(#paint73_linear)"/>
<path d="M206.611 292.748C201.12 276.172 203.113 256.152 203.133 255.956L204.648 256.147C204.628 256.343 202.679 275.976 208.042 292.171L206.611 292.748Z" fill="url(#paint74_linear)"/>
<path d="M244.697 419.208C244.357 419.208 244.051 418.957 243.962 418.576C242.284 411.448 229.742 403.617 229.614 403.541C229.249 403.312 229.115 402.801 229.323 402.398C229.53 401.996 229.989 401.849 230.359 402.077C230.897 402.409 243.597 410.338 245.437 418.157C245.541 418.609 245.299 419.066 244.89 419.18C244.825 419.197 244.761 419.208 244.697 419.208Z" fill="url(#paint75_linear)"/>
<path d="M352.032 237.226C330.648 245.846 285.072 227.648 285.072 227.648L281.934 268.717C318.431 281.445 342.179 277.739 357.622 267.057C358.579 254.917 355.274 244.354 352.032 237.226Z" fill="url(#paint76_linear)"/>
<path d="M386.082 194.846L377.131 192.892C377.131 192.892 374.689 224.302 354.756 235.909C353.902 236.404 352.989 236.845 352.032 237.226C355.274 244.349 358.584 254.917 357.622 267.057C389.003 245.35 386.082 194.846 386.082 194.846Z" fill="url(#paint77_linear)"/>
<path d="M377.585 195.624L377.131 192.887C377.131 192.887 375.266 186.199 380.205 179.614C387.345 170.097 392.225 175.152 392.225 175.152C392.225 175.152 392.2 175.631 392.225 177.438C392.244 178.896 393.828 179.631 394.8 178.646L415.5 180.652C415.5 180.652 409.711 185.589 384.73 198.475L377.585 195.624Z" fill="url(#paint78_linear)"/>
<path d="M369.202 179.542C369.206 177.653 370.665 176.079 372.358 176.129L682.932 177.697C683.498 177.703 683.987 178.091 684.168 178.681C684.485 179.715 683.744 180.839 682.744 180.838L371.937 182.578C370.397 182.585 369.198 181.252 369.202 179.542Z" fill="url(#paint79_linear)"/>
<defs>
<filter id="filter0_d" x="78.9493" y="208.696" width="389.859" height="355.961" filterUnits="userSpaceOnUse" color-interpolation-filters="sRGB">
<feFlood flood-opacity="0" result="BackgroundImageFix"/>
<feColorMatrix in="SourceAlpha" type="matrix" values="0 0 0 0 0 0 0 0 0 0 0 0 0 0 0 0 0 0 127 0"/>
<feOffset dx="8" dy="8"/>
<feGaussianBlur stdDeviation="7"/>
<feColorMatrix type="matrix" values="0 0 0 0 0 0 0 0 0 0 0 0 0 0 0 0 0 0 0.25 0"/>
<feBlend mode="normal" in2="BackgroundImageFix" result="effect1_dropShadow"/>
<feBlend mode="normal" in="SourceGraphic" in2="effect1_dropShadow" result="shape"/>
</filter>
<filter id="filter1_d" x="65.2206" y="329.718" width="80.7463" height="123.516" filterUnits="userSpaceOnUse" color-interpolation-filters="sRGB">
<feFlood flood-opacity="0" result="BackgroundImageFix"/>
<feColorMatrix in="SourceAlpha" type="matrix" values="0 0 0 0 0 0 0 0 0 0 0 0 0 0 0 0 0 0 127 0"/>
<feOffset dx="8" dy="8"/>
<feGaussianBlur stdDeviation="7"/>
<feColorMatrix type="matrix" values="0 0 0 0 0 0 0 0 0 0 0 0 0 0 0 0 0 0 0.25 0"/>
<feBlend mode="normal" in2="BackgroundImageFix" result="effect1_dropShadow"/>
<feBlend mode="normal" in="SourceGraphic" in2="effect1_dropShadow" result="shape"/>
</filter>
<filter id="filter2_d" x="149.286" y="188.545" width="53.7912" height="57.08" filterUnits="userSpaceOnUse" color-interpolation-filters="sRGB">
<feFlood flood-opacity="0" result="BackgroundImageFix"/>
<feColorMatrix in="SourceAlpha" type="matrix" values="0 0 0 0 0 0 0 0 0 0 0 0 0 0 0 0 0 0 127 0"/>
<feOffset dx="8" dy="8"/>
<feGaussianBlur stdDeviation="7"/>
<feColorMatrix type="matrix" values="0 0 0 0 0 0 0 0 0 0 0 0 0 0 0 0 0 0 0.25 0"/>
<feBlend mode="normal" in2="BackgroundImageFix" result="effect1_dropShadow"/>
<feBlend mode="normal" in="SourceGraphic" in2="effect1_dropShadow" result="shape"/>
</filter>
<filter id="filter3_d" x="80.3357" y="435.839" width="37.556" height="38.1864" filterUnits="userSpaceOnUse" color-interpolation-filters="sRGB">
<feFlood flood-opacity="0" result="BackgroundImageFix"/>
<feColorMatrix in="SourceAlpha" type="matrix" values="0 0 0 0 0 0 0 0 0 0 0 0 0 0 0 0 0 0 127 0"/>
<feOffset dx="8" dy="8"/>
<feGaussianBlur stdDeviation="7"/>
<feColorMatrix type="matrix" values="0 0 0 0 0 0 0 0 0 0 0 0 0 0 0 0 0 0 0.25 0"/>
<feBlend mode="normal" in2="BackgroundImageFix" result="effect1_dropShadow"/>
<feBlend mode="normal" in="SourceGraphic" in2="effect1_dropShadow" result="shape"/>
</filter>
<filter id="filter4_d" x="107.662" y="477.041" width="77.6374" height="80.9121" filterUnits="userSpaceOnUse" color-interpolation-filters="sRGB">
<feFlood flood-opacity="0" result="BackgroundImageFix"/>
<feColorMatrix in="SourceAlpha" type="matrix" values="0 0 0 0 0 0 0 0 0 0 0 0 0 0 0 0 0 0 127 0"/>
<feOffset dx="8" dy="8"/>
<feGaussianBlur stdDeviation="7"/>
<feColorMatrix type="matrix" values="0 0 0 0 0 0 0 0 0 0 0 0 0 0 0 0 0 0 0.25 0"/>
<feBlend mode="normal" in2="BackgroundImageFix" result="effect1_dropShadow"/>
<feBlend mode="normal" in="SourceGraphic" in2="effect1_dropShadow" result="shape"/>
</filter>
<filter id="filter5_d" x="59.7516" y="289.063" width="57.4416" height="59.384" filterUnits="userSpaceOnUse" color-interpolation-filters="sRGB">
<feFlood flood-opacity="0" result="BackgroundImageFix"/>
<feColorMatrix in="SourceAlpha" type="matrix" values="0 0 0 0 0 0 0 0 0 0 0 0 0 0 0 0 0 0 127 0"/>
<feOffset dx="8" dy="8"/>
<feGaussianBlur stdDeviation="7"/>
<feColorMatrix type="matrix" values="0 0 0 0 0 0 0 0 0 0 0 0 0 0 0 0 0 0 0.25 0"/>
<feBlend mode="normal" in2="BackgroundImageFix" result="effect1_dropShadow"/>
<feBlend mode="normal" in="SourceGraphic" in2="effect1_dropShadow" result="shape"/>
</filter>
<filter id="filter6_d" x="152.797" y="222.206" width="36.1066" height="35.3736" filterUnits="userSpaceOnUse" color-interpolation-filters="sRGB">
<feFlood flood-opacity="0" result="BackgroundImageFix"/>
<feColorMatrix in="SourceAlpha" type="matrix" values="0 0 0 0 0 0 0 0 0 0 0 0 0 0 0 0 0 0 127 0"/>
<feOffset dx="8" dy="8"/>
<feGaussianBlur stdDeviation="7"/>
<feColorMatrix type="matrix" values="0 0 0 0 0 0 0 0 0 0 0 0 0 0 0 0 0 0 0.25 0"/>
<feBlend mode="normal" in2="BackgroundImageFix" result="effect1_dropShadow"/>
<feBlend mode="normal" in="SourceGraphic" in2="effect1_dropShadow" result="shape"/>
</filter>
<filter id="filter7_d" x="398.853" y="438.935" width="37.556" height="38.1864" filterUnits="userSpaceOnUse" color-interpolation-filters="sRGB">
<feFlood flood-opacity="0" result="BackgroundImageFix"/>
<feColorMatrix in="SourceAlpha" type="matrix" values="0 0 0 0 0 0 0 0 0 0 0 0 0 0 0 0 0 0 127 0"/>
<feOffset dx="8" dy="8"/>
<feGaussianBlur stdDeviation="7"/>
<feColorMatrix type="matrix" values="0 0 0 0 0 0 0 0 0 0 0 0 0 0 0 0 0 0 0.25 0"/>
<feBlend mode="normal" in2="BackgroundImageFix" result="effect1_dropShadow"/>
<feBlend mode="normal" in="SourceGraphic" in2="effect1_dropShadow" result="shape"/>
</filter>
<filter id="filter8_d" x="364.886" y="451.293" width="72.8514" height="60.3151" filterUnits="userSpaceOnUse" color-interpolation-filters="sRGB">
<feFlood flood-opacity="0" result="BackgroundImageFix"/>
<feColorMatrix in="SourceAlpha" type="matrix" values="0 0 0 0 0 0 0 0 0 0 0 0 0 0 0 0 0 0 127 0"/>
<feOffset dx="8" dy="8"/>
<feGaussianBlur stdDeviation="7"/>
<feColorMatrix type="matrix" values="0 0 0 0 0 0 0 0 0 0 0 0 0 0 0 0 0 0 0.25 0"/>
<feBlend mode="normal" in2="BackgroundImageFix" result="effect1_dropShadow"/>
<feBlend mode="normal" in="SourceGraphic" in2="effect1_dropShadow" result="shape"/>
</filter>
<filter id="filter9_d" x="121.537" y="341.825" width="37.9408" height="39.4628" filterUnits="userSpaceOnUse" color-interpolation-filters="sRGB">
<feFlood flood-opacity="0" result="BackgroundImageFix"/>
<feColorMatrix in="SourceAlpha" type="matrix" values="0 0 0 0 0 0 0 0 0 0 0 0 0 0 0 0 0 0 127 0"/>
<feOffset dx="8" dy="8"/>
<feGaussianBlur stdDeviation="7"/>
<feColorMatrix type="matrix" values="0 0 0 0 0 0 0 0 0 0 0 0 0 0 0 0 0 0 0.25 0"/>
<feBlend mode="normal" in2="BackgroundImageFix" result="effect1_dropShadow"/>
<feBlend mode="normal" in="SourceGraphic" in2="effect1_dropShadow" result="shape"/>
</filter>
<linearGradient id="paint0_linear" x1="95.9704" y1="149.104" x2="486.707" y2="170.822" gradientUnits="userSpaceOnUse">
<stop offset="0.0756841" stop-color="#B565D8"/>
<stop offset="0.945898" stop-color="#EE609C"/>
</linearGradient>
<linearGradient id="paint1_linear" x1="185.1" y1="398.539" x2="192.825" y2="417.712" gradientUnits="userSpaceOnUse">
<stop offset="0.0756841" stop-color="#B565D8"/>
<stop offset="0.945898" stop-color="#EE609C"/>
</linearGradient>
<linearGradient id="paint2_linear" x1="168.713" y1="383.265" x2="176.406" y2="402.457" gradientUnits="userSpaceOnUse">
<stop offset="0.0756841" stop-color="#B565D8"/>
<stop offset="0.945898" stop-color="#EE609C"/>
</linearGradient>
<linearGradient id="paint3_linear" x1="133.381" y1="373.807" x2="140.962" y2="393.13" gradientUnits="userSpaceOnUse">
<stop offset="0.0756841" stop-color="#B565D8"/>
<stop offset="0.945898" stop-color="#EE609C"/>
</linearGradient>
<linearGradient id="paint4_linear" x1="125.722" y1="355.853" x2="133.351" y2="375.149" gradientUnits="userSpaceOnUse">
<stop offset="0.0756841" stop-color="#B565D8"/>
<stop offset="0.945898" stop-color="#EE609C"/>
</linearGradient>
<linearGradient id="paint5_linear" x1="177.441" y1="390.741" x2="185.152" y2="409.922" gradientUnits="userSpaceOnUse">
<stop offset="0.0756841" stop-color="#B565D8"/>
<stop offset="0.945898" stop-color="#EE609C"/>
</linearGradient>
<linearGradient id="paint6_linear" x1="158.579" y1="376.223" x2="166.249" y2="395.429" gradientUnits="userSpaceOnUse">
<stop offset="0.0756841" stop-color="#B565D8"/>
<stop offset="0.945898" stop-color="#EE609C"/>
</linearGradient>
<linearGradient id="paint7_linear" x1="129.318" y1="364.902" x2="136.919" y2="384.213" gradientUnits="userSpaceOnUse">
<stop offset="0.0756841" stop-color="#B565D8"/>
<stop offset="0.945898" stop-color="#EE609C"/>
</linearGradient>
<linearGradient id="paint8_linear" x1="237.976" y1="483.836" x2="245.871" y2="502.907" gradientUnits="userSpaceOnUse">
<stop offset="0.0756841" stop-color="#B565D8"/>
<stop offset="0.945898" stop-color="#EE609C"/>
</linearGradient>
<linearGradient id="paint9_linear" x1="228.871" y1="466.325" x2="236.741" y2="485.479" gradientUnits="userSpaceOnUse">
<stop offset="0.0756841" stop-color="#B565D8"/>
<stop offset="0.945898" stop-color="#EE609C"/>
</linearGradient>
<linearGradient id="paint10_linear" x1="219.575" y1="448.873" x2="227.407" y2="468.05" gradientUnits="userSpaceOnUse">
<stop offset="0.0756841" stop-color="#B565D8"/>
<stop offset="0.945898" stop-color="#EE609C"/>
</linearGradient>
<linearGradient id="paint11_linear" x1="209.566" y1="431.641" x2="217.368" y2="450.835" gradientUnits="userSpaceOnUse">
<stop offset="0.0756841" stop-color="#B565D8"/>
<stop offset="0.945898" stop-color="#EE609C"/>
</linearGradient>
<linearGradient id="paint12_linear" x1="198.315" y1="414.79" x2="206.066" y2="433.948" gradientUnits="userSpaceOnUse">
<stop offset="0.0756841" stop-color="#B565D8"/>
<stop offset="0.945898" stop-color="#EE609C"/>
</linearGradient>
<linearGradient id="paint13_linear" x1="233.416" y1="475.082" x2="241.309" y2="494.221" gradientUnits="userSpaceOnUse">
<stop offset="0.0756841" stop-color="#B565D8"/>
<stop offset="0.945898" stop-color="#EE609C"/>
</linearGradient>
<linearGradient id="paint14_linear" x1="224.28" y1="457.581" x2="232.129" y2="476.747" gradientUnits="userSpaceOnUse">
<stop offset="0.0756841" stop-color="#B565D8"/>
<stop offset="0.945898" stop-color="#EE609C"/>
</linearGradient>
<linearGradient id="paint15_linear" x1="214.695" y1="440.219" x2="222.511" y2="459.404" gradientUnits="userSpaceOnUse">
<stop offset="0.0756841" stop-color="#B565D8"/>
<stop offset="0.945898" stop-color="#EE609C"/>
</linearGradient>
<linearGradient id="paint16_linear" x1="204.127" y1="423.158" x2="211.916" y2="442.359" gradientUnits="userSpaceOnUse">
<stop offset="0.0756841" stop-color="#B565D8"/>
<stop offset="0.945898" stop-color="#EE609C"/>
</linearGradient>
<linearGradient id="paint17_linear" x1="192" y1="406.576" x2="199.738" y2="425.741" gradientUnits="userSpaceOnUse">
<stop offset="0.0756841" stop-color="#B565D8"/>
<stop offset="0.945898" stop-color="#EE609C"/>
</linearGradient>
<linearGradient id="paint18_linear" x1="283.076" y1="551.214" x2="291.588" y2="569.877" gradientUnits="userSpaceOnUse">
<stop offset="0.0756841" stop-color="#B565D8"/>
<stop offset="0.945898" stop-color="#EE609C"/>
</linearGradient>
<linearGradient id="paint19_linear" x1="269.144" y1="535.186" x2="277.384" y2="554.037" gradientUnits="userSpaceOnUse">
<stop offset="0.0756841" stop-color="#B565D8"/>
<stop offset="0.945898" stop-color="#EE609C"/>
</linearGradient>
<linearGradient id="paint20_linear" x1="257.554" y1="518.439" x2="265.63" y2="537.398" gradientUnits="userSpaceOnUse">
<stop offset="0.0756841" stop-color="#B565D8"/>
<stop offset="0.945898" stop-color="#EE609C"/>
</linearGradient>
<linearGradient id="paint21_linear" x1="247.367" y1="501.258" x2="255.335" y2="520.284" gradientUnits="userSpaceOnUse">
<stop offset="0.0756841" stop-color="#B565D8"/>
<stop offset="0.945898" stop-color="#EE609C"/>
</linearGradient>
<linearGradient id="paint22_linear" x1="291.402" y1="558.811" x2="300.129" y2="577.316" gradientUnits="userSpaceOnUse">
<stop offset="0.0756841" stop-color="#B565D8"/>
<stop offset="0.945898" stop-color="#EE609C"/>
</linearGradient>
<linearGradient id="paint23_linear" x1="275.707" y1="543.324" x2="284.064" y2="562.096" gradientUnits="userSpaceOnUse">
<stop offset="0.0756841" stop-color="#B565D8"/>
<stop offset="0.945898" stop-color="#EE609C"/>
</linearGradient>
<linearGradient id="paint24_linear" x1="263.125" y1="526.881" x2="271.274" y2="545.792" gradientUnits="userSpaceOnUse">
<stop offset="0.0756841" stop-color="#B565D8"/>
<stop offset="0.945898" stop-color="#EE609C"/>
</linearGradient>
<linearGradient id="paint25_linear" x1="252.312" y1="509.896" x2="260.329" y2="528.891" gradientUnits="userSpaceOnUse">
<stop offset="0.0756841" stop-color="#B565D8"/>
<stop offset="0.945898" stop-color="#EE609C"/>
</linearGradient>
<linearGradient id="paint26_linear" x1="242.601" y1="492.571" x2="250.556" y2="511.673" gradientUnits="userSpaceOnUse">
<stop offset="0.0756841" stop-color="#B565D8"/>
<stop offset="0.945898" stop-color="#EE609C"/>
</linearGradient>
<linearGradient id="paint27_linear" x1="300.989" y1="566.019" x2="310.067" y2="584.32" gradientUnits="userSpaceOnUse">
<stop offset="0.0756841" stop-color="#B565D8"/>
<stop offset="0.945898" stop-color="#EE609C"/>
</linearGradient>
<linearGradient id="paint28_linear" x1="327.307" y1="578.244" x2="338.022" y2="594.869" gradientUnits="userSpaceOnUse">
<stop offset="0.0756841" stop-color="#B565D8"/>
<stop offset="0.945898" stop-color="#EE609C"/>
</linearGradient>
<linearGradient id="paint29_linear" x1="312.439" y1="572.66" x2="322.013" y2="590.455" gradientUnits="userSpaceOnUse">
<stop offset="0.0756841" stop-color="#B565D8"/>
<stop offset="0.945898" stop-color="#EE609C"/>
</linearGradient>
<linearGradient id="paint30_linear" x1="163.535" y1="191.943" x2="175.672" y2="205.995" gradientUnits="userSpaceOnUse">
<stop offset="0.0756841" stop-color="#B565D8"/>
<stop offset="0.945898" stop-color="#EE609C"/>
</linearGradient>
<linearGradient id="paint31_linear" x1="144.329" y1="207.993" x2="154.142" y2="225.558" gradientUnits="userSpaceOnUse">
<stop offset="0.0756841" stop-color="#B565D8"/>
<stop offset="0.945898" stop-color="#EE609C"/>
</linearGradient>
<linearGradient id="paint32_linear" x1="116.154" y1="318.176" x2="123.952" y2="337.373" gradientUnits="userSpaceOnUse">
<stop offset="0.0756841" stop-color="#B565D8"/>
<stop offset="0.945898" stop-color="#EE609C"/>
</linearGradient>
<linearGradient id="paint33_linear" x1="114.581" y1="298.353" x2="122.507" y2="317.472" gradientUnits="userSpaceOnUse">
<stop offset="0.0756841" stop-color="#B565D8"/>
<stop offset="0.945898" stop-color="#EE609C"/>
</linearGradient>
<linearGradient id="paint34_linear" x1="115.478" y1="277.775" x2="123.543" y2="296.74" gradientUnits="userSpaceOnUse">
<stop offset="0.0756841" stop-color="#B565D8"/>
<stop offset="0.945898" stop-color="#EE609C"/>
</linearGradient>
<linearGradient id="paint35_linear" x1="119.397" y1="256.265" x2="127.7" y2="275.074" gradientUnits="userSpaceOnUse">
<stop offset="0.0756841" stop-color="#B565D8"/>
<stop offset="0.945898" stop-color="#EE609C"/>
</linearGradient>
<linearGradient id="paint36_linear" x1="127.613" y1="233.433" x2="136.33" y2="251.946" gradientUnits="userSpaceOnUse">
<stop offset="0.0756841" stop-color="#B565D8"/>
<stop offset="0.945898" stop-color="#EE609C"/>
</linearGradient>
<linearGradient id="paint37_linear" x1="115.075" y1="308.355" x2="122.933" y2="327.515" gradientUnits="userSpaceOnUse">
<stop offset="0.0756841" stop-color="#B565D8"/>
<stop offset="0.945898" stop-color="#EE609C"/>
</linearGradient>
<linearGradient id="paint38_linear" x1="114.701" y1="288.163" x2="122.706" y2="307.234" gradientUnits="userSpaceOnUse">
<stop offset="0.0756841" stop-color="#B565D8"/>
<stop offset="0.945898" stop-color="#EE609C"/>
</linearGradient>
<linearGradient id="paint39_linear" x1="117.007" y1="267.152" x2="125.178" y2="286.049" gradientUnits="userSpaceOnUse">
<stop offset="0.0756841" stop-color="#B565D8"/>
<stop offset="0.945898" stop-color="#EE609C"/>
</linearGradient>
<linearGradient id="paint40_linear" x1="122.82" y1="245.06" x2="131.295" y2="263.75" gradientUnits="userSpaceOnUse">
<stop offset="0.0756841" stop-color="#B565D8"/>
<stop offset="0.945898" stop-color="#EE609C"/>
</linearGradient>
<linearGradient id="paint41_linear" x1="134.3" y1="221.229" x2="143.394" y2="239.445" gradientUnits="userSpaceOnUse">
<stop offset="0.0756841" stop-color="#B565D8"/>
<stop offset="0.945898" stop-color="#EE609C"/>
</linearGradient>
<linearGradient id="paint42_linear" x1="147.148" y1="410.196" x2="158.691" y2="415.225" gradientUnits="userSpaceOnUse">
<stop offset="0.0756841" stop-color="#B565D8"/>
<stop offset="0.945898" stop-color="#EE609C"/>
</linearGradient>
<linearGradient id="paint43_linear" x1="135.976" y1="393.32" x2="148.537" y2="400.883" gradientUnits="userSpaceOnUse">
<stop offset="0.0756841" stop-color="#B565D8"/>
<stop offset="0.945898" stop-color="#EE609C"/>
</linearGradient>
<linearGradient id="paint44_linear" x1="119.958" y1="337.314" x2="127.658" y2="356.568" gradientUnits="userSpaceOnUse">
<stop offset="0.0756841" stop-color="#B565D8"/>
<stop offset="0.945898" stop-color="#EE609C"/>
</linearGradient>
<linearGradient id="paint45_linear" x1="141.324" y1="401.831" x2="153.543" y2="408.307" gradientUnits="userSpaceOnUse">
<stop offset="0.0756841" stop-color="#B565D8"/>
<stop offset="0.945898" stop-color="#EE609C"/>
</linearGradient>
<linearGradient id="paint46_linear" x1="131.093" y1="384.667" x2="143.823" y2="393.006" gradientUnits="userSpaceOnUse">
<stop offset="0.0756841" stop-color="#B565D8"/>
<stop offset="0.945898" stop-color="#EE609C"/>
</linearGradient>
<linearGradient id="paint47_linear" x1="122.601" y1="346.659" x2="130.262" y2="365.935" gradientUnits="userSpaceOnUse">
<stop offset="0.0756841" stop-color="#B565D8"/>
<stop offset="0.945898" stop-color="#EE609C"/>
</linearGradient>
<linearGradient id="paint48_linear" x1="117.78" y1="327.833" x2="125.525" y2="347.06" gradientUnits="userSpaceOnUse">
<stop offset="0.0756841" stop-color="#B565D8"/>
<stop offset="0.945898" stop-color="#EE609C"/>
</linearGradient>
<linearGradient id="paint49_linear" x1="160.318" y1="426.458" x2="168.2" y2="427.697" gradientUnits="userSpaceOnUse">
<stop offset="0.0756841" stop-color="#B565D8"/>
<stop offset="0.945898" stop-color="#EE609C"/>
</linearGradient>
<linearGradient id="paint50_linear" x1="167.7" y1="434.341" x2="171.655" y2="434.16" gradientUnits="userSpaceOnUse">
<stop offset="0.0756841" stop-color="#B565D8"/>
<stop offset="0.945898" stop-color="#EE609C"/>
</linearGradient>
<linearGradient id="paint51_linear" x1="153.476" y1="418.406" x2="163.725" y2="421.622" gradientUnits="userSpaceOnUse">
<stop offset="0.0756841" stop-color="#B565D8"/>
<stop offset="0.945898" stop-color="#EE609C"/>
</linearGradient>
<linearGradient id="paint52_linear" x1="53.393" y1="336.396" x2="115.873" y2="315.681" gradientUnits="userSpaceOnUse">
<stop offset="0.0756841" stop-color="#B565D8"/>
<stop offset="0.945898" stop-color="#EE609C"/>
</linearGradient>
<linearGradient id="paint53_linear" x1="152.265" y1="192.558" x2="180.598" y2="188.417" gradientUnits="userSpaceOnUse">
<stop offset="0.0756841" stop-color="#B565D8"/>
<stop offset="0.945898" stop-color="#EE609C"/>
</linearGradient>
<linearGradient id="paint54_linear" x1="83.4951" y1="446.219" x2="91.5947" y2="438.736" gradientUnits="userSpaceOnUse">
<stop offset="0.0756841" stop-color="#B565D8"/>
<stop offset="0.945898" stop-color="#EE609C"/>
</linearGradient>
<linearGradient id="paint55_linear" x1="98.9066" y1="505.792" x2="140.979" y2="466.922" gradientUnits="userSpaceOnUse">
<stop offset="0.0756841" stop-color="#B565D8"/>
<stop offset="0.945898" stop-color="#EE609C"/>
</linearGradient>
<linearGradient id="paint56_linear" x1="56.9998" y1="308.557" x2="81.9543" y2="285.502" gradientUnits="userSpaceOnUse">
<stop offset="0.0756841" stop-color="#B565D8"/>
<stop offset="0.945898" stop-color="#EE609C"/>
</linearGradient>
<linearGradient id="paint57_linear" x1="168.943" y1="231.362" x2="164.899" y2="238.851" gradientUnits="userSpaceOnUse">
<stop offset="0.0756841" stop-color="#B565D8"/>
<stop offset="0.945898" stop-color="#EE609C"/>
</linearGradient>
<linearGradient id="paint58_linear" x1="402.012" y1="449.315" x2="410.111" y2="441.832" gradientUnits="userSpaceOnUse">
<stop offset="0.0756841" stop-color="#B565D8"/>
<stop offset="0.945898" stop-color="#EE609C"/>
</linearGradient>
<linearGradient id="paint59_linear" x1="392.902" y1="436.044" x2="429.249" y2="466.898" gradientUnits="userSpaceOnUse">
<stop offset="0.0756841" stop-color="#B565D8"/>
<stop offset="0.945898" stop-color="#EE609C"/>
</linearGradient>
<linearGradient id="paint60_linear" x1="133.172" y1="344.45" x2="141.959" y2="351.767" gradientUnits="userSpaceOnUse">
<stop offset="0.0756841" stop-color="#B565D8"/>
<stop offset="0.945898" stop-color="#EE609C"/>
</linearGradient>
<linearGradient id="paint61_linear" x1="229.532" y1="581.787" x2="258.78" y2="581.787" gradientUnits="userSpaceOnUse">
<stop stop-color="#2B3582"/>
<stop offset="1" stop-color="#150E42"/>
</linearGradient>
<linearGradient id="paint62_linear" x1="302.751" y1="543.735" x2="188.607" y2="625.002" gradientUnits="userSpaceOnUse">
<stop stop-color="#53D8FF"/>
<stop offset="1" stop-color="#3840F7"/>
</linearGradient>
<linearGradient id="paint63_linear" x1="190.314" y1="360.472" x2="229.318" y2="360.472" gradientUnits="userSpaceOnUse">
<stop stop-color="#F9B776"/>
<stop offset="1" stop-color="#F47960"/>
</linearGradient>
<linearGradient id="paint64_linear" x1="237.666" y1="545.065" x2="230.889" y2="598.688" gradientUnits="userSpaceOnUse">
<stop stop-color="#F9B776"/>
<stop offset="1" stop-color="#F47960"/>
</linearGradient>
<linearGradient id="paint65_linear" x1="321.652" y1="570.284" x2="207.509" y2="651.55" gradientUnits="userSpaceOnUse">
<stop stop-color="#53D8FF"/>
<stop offset="1" stop-color="#3840F7"/>
</linearGradient>
<linearGradient id="paint66_linear" x1="274.068" y1="582.645" x2="316.169" y2="582.645" gradientUnits="userSpaceOnUse">
<stop stop-color="#2B3582"/>
<stop offset="1" stop-color="#150E42"/>
</linearGradient>
<linearGradient id="paint67_linear" x1="283.174" y1="550.816" x2="276.397" y2="604.439" gradientUnits="userSpaceOnUse">
<stop stop-color="#F9B776"/>
<stop offset="1" stop-color="#F47960"/>
</linearGradient>
<linearGradient id="paint68_linear" x1="349.553" y1="304.919" x2="145.184" y2="592.458" gradientUnits="userSpaceOnUse">
<stop stop-color="#7C27DD"/>
<stop offset="1" stop-color="#2B41D9"/>
</linearGradient>
<linearGradient id="paint69_linear" x1="325.956" y1="204.766" x2="-92.3525" y2="602.447" gradientUnits="userSpaceOnUse">
<stop stop-color="#37C2D5"/>
<stop offset="1" stop-color="#EF497A"/>
</linearGradient>
<linearGradient id="paint70_linear" x1="250.099" y1="196.649" x2="222.525" y2="304.691" gradientUnits="userSpaceOnUse">
<stop stop-color="#F9B776"/>
<stop offset="1" stop-color="#F47960"/>
</linearGradient>
<linearGradient id="paint71_linear" x1="246.473" y1="177.478" x2="259.184" y2="245.301" gradientUnits="userSpaceOnUse">
<stop stop-color="#F9B776"/>
<stop offset="1" stop-color="#F47960"/>
</linearGradient>
<linearGradient id="paint72_linear" x1="235.417" y1="209.776" x2="269.627" y2="176.825" gradientUnits="userSpaceOnUse">
<stop stop-color="#2B3582"/>
<stop offset="1" stop-color="#150E42"/>
</linearGradient>
<linearGradient id="paint73_linear" x1="237.351" y1="251.958" x2="235.077" y2="204.06" gradientUnits="userSpaceOnUse">
<stop stop-color="#F9B776"/>
<stop offset="1" stop-color="#F47960"/>
</linearGradient>
<linearGradient id="paint74_linear" x1="232.044" y1="220.459" x2="180.863" y2="305.716" gradientUnits="userSpaceOnUse">
<stop stop-color="#A737D5"/>
<stop offset="1" stop-color="#EF497A"/>
</linearGradient>
<linearGradient id="paint75_linear" x1="249.343" y1="387.029" x2="232.018" y2="414.985" gradientUnits="userSpaceOnUse">
<stop stop-color="#2B3582"/>
<stop offset="1" stop-color="#150E42"/>
</linearGradient>
<linearGradient id="paint76_linear" x1="343.939" y1="221.225" x2="-77.9433" y2="622.304" gradientUnits="userSpaceOnUse">
<stop stop-color="#37D5C2"/>
<stop offset="1" stop-color="#EF497A"/>
</linearGradient>
<linearGradient id="paint77_linear" x1="388.024" y1="157.651" x2="360.46" y2="239.325" gradientUnits="userSpaceOnUse">
<stop stop-color="#F9B776"/>
<stop offset="1" stop-color="#F47960"/>
</linearGradient>
<linearGradient id="paint78_linear" x1="397.01" y1="160.684" x2="369.447" y2="242.358" gradientUnits="userSpaceOnUse">
<stop stop-color="#F9B776"/>
<stop offset="1" stop-color="#F47960"/>
</linearGradient>
<linearGradient id="paint79_linear" x1="557.975" y1="-26.1828" x2="743.579" y2="154.217" gradientUnits="userSpaceOnUse">
<stop offset="0.0756841" stop-color="#B565D8"/>
<stop offset="0.945898" stop-color="#EE609C"/>
</linearGradient>
</defs>
</svg>
