<svg  width="22" height="22"
                            viewBox="0 0 22 22" fill="none" xmlns="http://www.w3.org/2000/svg">
                            <path opacity="0.5"
                                d="M21.3125 13.75H17.1875C17.0013 13.75 16.8402 13.682 16.7041 13.5459C16.568 13.4098 16.5 13.2487 16.5 13.0625V8.9375C16.5 8.7513 16.568 8.59017 16.7041 8.4541C16.8402 8.31803 17.0013 8.25 17.1875 8.25H21.3125C21.4987 8.25 21.6598 8.31803 21.7959 8.4541C21.932 8.59017 22 8.7513 22 8.9375V13.0625C22 13.2487 21.932 13.4098 21.7959 13.5459C21.6598 13.682 21.4987 13.75 21.3125 13.75ZM20.625 4.125H6.875V1.375H20.625C21.0117 1.375 21.3376 1.51107 21.6026 1.7832C21.8675 2.05534 22 2.38118 22 2.76074C22 3.1403 21.8675 3.46257 21.6026 3.72754C21.3376 3.99251 21.0117 4.125 20.625 4.125ZM4.8125 5.5H0.6875C0.501302 5.5 0.340169 5.43197 0.204102 5.2959C0.0680339 5.15983 0 4.9987 0 4.8125V0.6875C0 0.501302 0.0680339 0.340169 0.204102 0.204102C0.340169 0.0680339 0.501302 0 0.6875 0H4.8125C4.9987 0 5.15983 0.0680339 5.2959 0.204102C5.43197 0.340169 5.5 0.501302 5.5 0.6875V4.8125C5.5 4.9987 5.43197 5.15983 5.2959 5.2959C5.15983 5.43197 4.9987 5.5 4.8125 5.5ZM1.375 9.625H15.125V12.375H1.375C1.0026 12.375 0.680339 12.2425 0.408203 11.9775C0.136068 11.7126 0 11.3903 0 11.0107C0 10.6312 0.136068 10.3053 0.408203 10.0332C0.680339 9.76107 1.0026 9.625 1.375 9.625ZM0.6875 16.5H4.8125C4.9987 16.5 5.15983 16.568 5.2959 16.7041C5.43197 16.8402 5.5 17.0013 5.5 17.1875V21.3125C5.5 21.4987 5.43197 21.6598 5.2959 21.7959C5.15983 21.932 4.9987 22 4.8125 22H0.6875C0.501302 22 0.340169 21.932 0.204102 21.7959C0.0680339 21.6598 0 21.4987 0 21.3125V17.1875C0 17.0013 0.0680339 16.8402 0.204102 16.7041C0.340169 16.568 0.501302 16.5 0.6875 16.5ZM22 19.2607C22 19.6403 21.8675 19.9626 21.6026 20.2275C21.3376 20.4925 21.0117 20.625 20.625 20.625H6.875V17.875H20.625C21.0117 17.875 21.3376 18.0111 21.6026 18.2832C21.8675 18.5553 22 18.8812 22 19.2607Z"
                                fill="#252525" />
                        </svg>