                        <svg class="right" width="20" height="22" viewBox="0 0 20 22" fill="none"
                            xmlns="http://www.w3.org/2000/svg">
                            <path
                                d="M19.9663 6.45119C19.9662 6.08223 19.8855 5.7562 19.7223 5.47646C19.562 5.20123 19.3219 4.97062 18.9998 4.78828C16.3416 3.2896 13.6809 1.79551 11.0235 0.295311C10.3071 -0.109092 9.6125 -0.0942721 8.90141 0.315936C7.84336 0.925978 2.54609 3.89346 0.967578 4.78744C0.3175 5.15548 0.00117188 5.71862 0.00101562 6.4505C0 9.46442 0.00101562 12.4783 0 15.4923C0 15.8531 0.0774219 16.1729 0.233437 16.4484C0.393828 16.7319 0.637266 16.9689 0.966719 17.1553C2.54531 18.0493 7.84328 21.0166 8.90109 21.6268C9.6125 22.0373 10.3071 22.0519 11.0238 21.6475C13.6812 20.1472 16.3421 18.6531 19.0007 17.1544C19.3302 16.968 19.5736 16.7309 19.734 16.4477C19.8898 16.1721 19.9673 15.8524 19.9673 15.4914C19.9673 15.4914 19.9673 9.46519 19.9663 6.45119Z"
                                fill="#A179DC" />
                            <path
                                d="M10.0142 10.9419L0.233398 16.4483C0.393789 16.7318 0.637227 16.9687 0.96668 17.1552C2.54527 18.0492 7.84324 21.0164 8.90106 21.6267C9.61246 22.0372 10.3071 22.0518 11.0237 21.6473C13.6811 20.1471 16.3421 18.653 19.0007 17.1543C19.3301 16.9679 19.5736 16.7308 19.7339 16.4475L10.0142 10.9419Z"
                                fill="#3D009F" />
                            <path
                                d="M19.9663 6.45128C19.9661 6.08233 19.8854 5.7563 19.7222 5.47656L10.0142 10.9422L19.7339 16.4478C19.8897 16.1722 19.9671 15.8525 19.9673 15.4915C19.9673 15.4915 19.9673 9.46529 19.9663 6.45128Z"
                                fill="#5C03E5" />
                            <path
                                d="M15.7728 8.88379V9.91306H16.8254V8.88379H17.3517V9.91306H18.4044V10.4277H17.3517V11.4569H18.4044V11.9715H17.3517V13.0008H16.8254V11.9715H15.7728V13.0008H15.2464V11.9715H14.1938V11.4569H15.2464V10.4277H14.1938V9.91306H15.2464V8.88379H15.7728ZM16.8254 10.4276H15.7728V11.4569H16.8254V10.4277V10.4276Z"
                                fill="white" />
                            <path
                                d="M10.0357 3.71443C12.7813 3.71443 15.1785 5.17239 16.4624 7.33954L16.4499 7.31869L13.2195 9.13735C12.5831 8.08372 11.4163 7.37262 10.0778 7.35795L10.0356 7.35772C7.99463 7.35772 6.33994 8.97564 6.33994 10.9713C6.33927 11.6003 6.50734 12.2185 6.82736 12.7641C7.46439 13.8515 8.66197 14.585 10.0357 14.585C11.418 14.585 12.6224 13.8422 13.2561 12.7432L13.2407 12.7696L16.4663 14.5966C15.1963 16.7455 12.832 18.1989 10.1184 18.2279L10.0357 18.2283C7.28142 18.2283 4.87752 16.7613 3.59674 14.5827C2.9715 13.5192 2.61377 12.2862 2.61377 10.9713C2.61377 6.96348 5.93658 3.71436 10.0356 3.71436L10.0357 3.71443Z"
                                fill="white" />
                        </svg>