 <svg class="right" width="24" height="24" viewBox="0 0 24 24" fill="none"
                            xmlns="http://www.w3.org/2000/svg">
                            <path opacity="0.5"
                                d="M8.54 10.7298C8.44 10.4198 8.35 10.1198 8.25 9.8098C8.15 9.4998 8.06 9.2098 7.98 8.9198C7.9 8.6398 7.83 8.3798 7.76 8.1398H7.74C7.65 8.56981 7.54 8.9998 7.4 9.4298C7.25 9.9098 7.1 10.4098 6.94 10.9098C6.81 11.4198 6.65 11.8898 6.5 12.3098H9.04C8.98 12.0998 8.9 11.8498 8.81 11.5898C8.72 11.3198 8.63 11.0298 8.54 10.7298ZM17.12 10.4398C16.57 10.4098 16.05 10.6998 15.79 11.1998C15.67 11.4298 15.6 11.6698 15.57 11.9198H17.679C17.939 11.9198 18.129 11.9198 18.249 11.9098C18.329 11.8998 18.409 11.8798 18.479 11.8298V11.7298C18.4751 11.5557 18.4368 11.384 18.3663 11.2248C18.2958 11.0655 18.1944 10.9218 18.0681 10.8019C17.9418 10.6819 17.7929 10.5882 17.6302 10.5261C17.4675 10.4639 17.2941 10.4346 17.12 10.4398ZM19.75 0.299805H4.25C1.9 0.299805 0 2.1998 0 4.5498V19.4498C0 21.7998 1.9 23.6998 4.25 23.6998H19.75C22.1 23.6998 24 21.7998 24 19.4498V4.5498C24 2.1998 22.1 0.299805 19.75 0.299805ZM12.71 16.8108H10.62C10.55 16.8208 10.48 16.7698 10.46 16.7008L9.64 14.3008H5.92L5.16 16.6608C5.14 16.7508 5.06 16.8108 4.97 16.8008H3.09C2.98 16.8008 2.95 16.7408 2.98 16.6208L6.2 7.3898C6.23 7.2898 6.26 7.1998 6.3 7.0798C6.34 6.8698 6.36 6.6498 6.36 6.4298C6.35 6.3798 6.39 6.3298 6.44 6.3198H9.03C9.1 6.3198 9.15 6.3498 9.16 6.3998L12.81 16.6498C12.84 16.7598 12.811 16.8108 12.71 16.8108ZM20.561 12.8198C20.54 13.0088 20.53 13.1498 20.52 13.2398C20.51 13.3098 20.451 13.3698 20.38 13.3698C20.32 13.3698 20.21 13.3798 20.05 13.3908C19.891 13.4108 19.7 13.4198 19.471 13.4198C19.241 13.4198 19 13.3798 18.741 13.3798H15.571C15.61 13.6898 15.711 13.9998 15.881 14.2698C16.058 14.539 16.312 14.7484 16.61 14.8708C17.01 15.0408 17.451 15.1308 17.891 15.1208C18.241 15.1098 18.59 15.0808 18.93 15.0108C19.2355 14.9718 19.5348 14.8945 19.821 14.7808C19.871 14.7418 19.901 14.7608 19.901 14.8608V16.3918C19.901 16.4308 19.891 16.4718 19.88 16.5108C19.862 16.5386 19.8385 16.5624 19.811 16.5808C19.491 16.7208 19.161 16.8208 18.811 16.8808C18.34 16.9708 17.871 17.0108 17.391 17.0008C16.63 17.0008 15.991 16.8808 15.471 16.6508C14.9818 16.4378 14.5497 16.1123 14.21 15.7008C13.891 15.3108 13.66 14.8708 13.52 14.3908C13.3801 13.9165 13.3097 13.4243 13.311 12.9298C13.311 12.3908 13.391 11.8598 13.561 11.3398C13.721 10.8398 13.971 10.3798 14.311 9.9698C14.641 9.56981 15.05 9.2498 15.52 9.0198C15.991 8.78981 16.55 8.7098 17.19 8.7098C17.7232 8.69736 18.2526 8.80324 18.74 9.0198C19.15 9.19981 19.51 9.4698 19.79 9.8198C20.05 10.1598 20.26 10.5398 20.391 10.9598C20.52 11.3598 20.58 11.7698 20.58 12.1798C20.58 12.4198 20.57 12.6298 20.561 12.8198Z"
                                fill="#252525" />
                        </svg>