<svg class="right" width="22" height="18" viewBox="0 0 22 18" fill="none"
                            xmlns="http://www.w3.org/2000/svg">
                            <path opacity="0.5"
                                d="M0 3.5C0 2.77065 0.289731 2.07118 0.805456 1.55546C1.32118 1.03973 2.02065 0.75 2.75 0.75L19.25 0.75C19.9793 0.75 20.6788 1.03973 21.1945 1.55546C21.7103 2.07118 22 2.77065 22 3.5V14.5C22 15.2293 21.7103 15.9288 21.1945 16.4445C20.6788 16.9603 19.9793 17.25 19.25 17.25H2.75C2.02065 17.25 1.32118 16.9603 0.805456 16.4445C0.289731 15.9288 0 15.2293 0 14.5L0 3.5ZM3.4375 4.875C3.25516 4.875 3.0803 4.94743 2.95136 5.07636C2.82243 5.2053 2.75 5.38016 2.75 5.5625V6.9375C2.75 7.11984 2.82243 7.2947 2.95136 7.42364C3.0803 7.55257 3.25516 7.625 3.4375 7.625H6.1875C6.36984 7.625 6.5447 7.55257 6.67364 7.42364C6.80257 7.2947 6.875 7.11984 6.875 6.9375V5.5625C6.875 5.38016 6.80257 5.2053 6.67364 5.07636C6.5447 4.94743 6.36984 4.875 6.1875 4.875H3.4375ZM3.4375 9C3.25516 9 3.0803 9.07243 2.95136 9.20136C2.82243 9.33029 2.75 9.50516 2.75 9.6875C2.75 9.86984 2.82243 10.0447 2.95136 10.1736C3.0803 10.3026 3.25516 10.375 3.4375 10.375H10.3125C10.4948 10.375 10.6697 10.3026 10.7986 10.1736C10.9276 10.0447 11 9.86984 11 9.6875C11 9.50516 10.9276 9.33029 10.7986 9.20136C10.6697 9.07243 10.4948 9 10.3125 9H3.4375ZM3.4375 11.75C3.25516 11.75 3.0803 11.8224 2.95136 11.9514C2.82243 12.0803 2.75 12.2552 2.75 12.4375C2.75 12.6198 2.82243 12.7947 2.95136 12.9236C3.0803 13.0526 3.25516 13.125 3.4375 13.125H4.8125C4.99484 13.125 5.1697 13.0526 5.29864 12.9236C5.42757 12.7947 5.5 12.6198 5.5 12.4375C5.5 12.2552 5.42757 12.0803 5.29864 11.9514C5.1697 11.8224 4.99484 11.75 4.8125 11.75H3.4375ZM7.5625 11.75C7.38016 11.75 7.2053 11.8224 7.07636 11.9514C6.94743 12.0803 6.875 12.2552 6.875 12.4375C6.875 12.6198 6.94743 12.7947 7.07636 12.9236C7.2053 13.0526 7.38016 13.125 7.5625 13.125H8.9375C9.11984 13.125 9.2947 13.0526 9.42364 12.9236C9.55257 12.7947 9.625 12.6198 9.625 12.4375C9.625 12.2552 9.55257 12.0803 9.42364 11.9514C9.2947 11.8224 9.11984 11.75 8.9375 11.75H7.5625ZM11.6875 11.75C11.5052 11.75 11.3303 11.8224 11.2014 11.9514C11.0724 12.0803 11 12.2552 11 12.4375C11 12.6198 11.0724 12.7947 11.2014 12.9236C11.3303 13.0526 11.5052 13.125 11.6875 13.125H13.0625C13.2448 13.125 13.4197 13.0526 13.5486 12.9236C13.6776 12.7947 13.75 12.6198 13.75 12.4375C13.75 12.2552 13.6776 12.0803 13.5486 11.9514C13.4197 11.8224 13.2448 11.75 13.0625 11.75H11.6875ZM15.8125 11.75C15.6302 11.75 15.4553 11.8224 15.3264 11.9514C15.1974 12.0803 15.125 12.2552 15.125 12.4375C15.125 12.6198 15.1974 12.7947 15.3264 12.9236C15.4553 13.0526 15.6302 13.125 15.8125 13.125H17.1875C17.3698 13.125 17.5447 13.0526 17.6736 12.9236C17.8026 12.7947 17.875 12.6198 17.875 12.4375C17.875 12.2552 17.8026 12.0803 17.6736 11.9514C17.5447 11.8224 17.3698 11.75 17.1875 11.75H15.8125Z"
                                fill="#252525" />
                        </svg>