
                    <svg width="18" height="18" viewBox="0 0 13 13" fill="none" xmlns="http://www.w3.org/2000/svg">
                        <path fill-rule="evenodd" clip-rule="evenodd"
                            d="M1.68499 2.68347C1.85235 2.40584 2.77499 1.39798 3.43247 1.42841C3.62917 1.44525 3.80304 1.5637 3.94432 1.7017H3.94486C4.26871 2.019 5.19787 3.21647 5.25003 3.46857C5.37881 4.08687 4.64146 4.44328 4.86696 5.06647C5.44184 6.47312 6.4324 7.46359 7.83973 8.03788C8.46243 8.2639 8.81888 7.52716 9.43723 7.65538C9.68935 7.70808 10.8875 8.63661 11.2043 8.96098V8.96098C11.3417 9.1017 11.4613 9.2761 11.4776 9.47278C11.502 10.1655 10.4316 11.1006 10.2229 11.2201C9.73065 11.5727 9.08839 11.5662 8.3054 11.2022C6.12051 10.2932 2.62882 6.86757 1.70292 4.6003C1.34865 3.82173 1.32474 3.17518 1.68499 2.68347Z"
                            stroke="white" stroke-width="1.5" stroke-linecap="round" stroke-linejoin="round" />
                        <path d="M7.80908 1.56006C9.76768 1.7775 11.3141 3.32237 11.5342 5.28044" stroke="white"
                            stroke-width="1.5" stroke-linecap="round" stroke-linejoin="round" />
                        <path d="M7.80908 3.43457C8.74553 3.6171 9.47722 4.34879 9.65975 5.28524" stroke="white"
                            stroke-width="1.5" stroke-linecap="round" stroke-linejoin="round" />
                    </svg>