<svg width="66" height="35" viewBox="0 0 66 35" fill="none" xmlns="http://www.w3.org/2000/svg">
<path d="M17.75 4C24.929 4 30.75 9.82098 30.75 17C30.75 24.179 24.929 30 17.75 30C10.571 30 4.75 24.179 4.75 17C4.75 9.82098 10.571 4 17.75 4ZM13.2609 17.1886L20.3993 22.3538C20.5531 22.4641 20.7679 22.3538 20.7679 22.1652V20.8042C20.7679 20.5083 20.6257 20.2268 20.3848 20.0527L16.1656 17L20.3848 13.9473C20.6257 13.7732 20.7679 13.4946 20.7679 13.1958V11.8348C20.7679 11.6462 20.5531 11.5359 20.3993 11.6462L13.2609 16.8114C13.1333 16.9042 13.1333 17.0958 13.2609 17.1886Z" fill="#D5D5D5"/>
</svg>
