<svg width="159" height="160" viewBox="0 0 159 160" fill="none" xmlns="http://www.w3.org/2000/svg">
                <g clip-path="url(#clip0)">
                    <path
                        d="M148.884 47.2532H148.241V48.5332L148.884 49.1732C149.347 55.6465 143.146 59.4198 143.146 59.4198C143.047 55.3998 139.966 54.9398 139.966 54.9398C132.467 52.9998 130.406 61.9865 130.406 61.9865C129.565 69.5198 134.865 69.6732 134.865 69.6732C137.846 70.5065 140.596 67.1132 140.596 67.1132V68.3932L139.96 74.1598C138.462 79.2665 131.678 77.3598 131.678 77.3598C128.737 76.1465 128.498 78.0065 128.498 78.0065C128.83 86.9265 132.957 90.1732 132.957 90.1732C137.813 92.5598 137.416 93.3732 137.416 93.3732C138.456 95.3865 136.137 96.5798 136.137 96.5798C133.991 97.6998 133.593 99.1465 133.593 99.1465C132.745 101.04 136.137 104.907 136.137 104.907C137.409 105.04 138.052 107.473 138.052 107.473C137.74 110.593 134.865 110.673 134.865 110.673C133.977 111.247 132.321 116.44 132.321 116.44C125.742 137.906 103.41 140.96 98.7853 141.367C99.2557 146.52 99.2955 153.286 96.6521 155.513C96.6521 155.513 93.8563 159.046 87.1055 156.793C87.1055 156.793 94.1147 150.953 92.8295 135.013C92.8295 135.013 90.7956 134.693 89.6495 134.373C89.6495 134.373 88.1058 159.307 75.0016 160C75.0016 160 69.1318 160.2 67.3563 156.8C67.3563 156.8 81.5073 152.233 85.8268 133.093L83.2828 131.813C83.2828 131.813 74.0873 156.36 58.4391 156.793C58.4391 156.793 52.5627 157.633 48.8858 150.393C48.8858 150.393 67.2371 149.027 80.0896 129.246L77.5456 127.327C77.5456 127.327 58.5385 149.433 42.5192 145.9C42.5192 145.9 31.4091 143.46 31.694 133.733C31.694 133.733 53.5366 141.053 75.0016 123.487L73.0936 120.286C73.0936 120.286 49.8862 132.22 32.3366 129.253C32.3366 129.253 9.23521 124.806 16.4101 108.113C16.4101 108.113 40.0746 123.847 70.543 115.8V111.953C70.543 111.953 11.7593 116.993 10.0435 85.0465C10.0435 85.0465 10.7921 76.5198 14.4955 76.0798C14.4955 76.0798 30.0377 100.06 70.543 107.473V104.273C70.543 104.273 13.4752 84.5398 13.2235 49.1732C13.2235 49.1732 13.7137 34.4398 25.3273 36.3598C25.3273 36.3598 26.4072 70.2665 71.8216 99.7865L73.087 97.2198C73.087 97.2198 30.3557 70.1132 31.058 19.0665C31.058 19.0665 33.549 -6.8935 52.7085 1.7665C52.7085 1.7665 40.1408 55.7865 76.2736 92.0998C76.2736 92.0998 81.514 82.1332 96.6587 82.4865C96.6587 82.4865 120.111 81.5198 122.761 107.473C122.761 107.473 124.802 132.52 97.9241 135.02C97.9241 135.02 98.1692 136.28 98.4276 138.18C121.377 136.533 125.312 113.88 125.312 113.88C128.73 89.0132 106.212 81.2065 106.212 81.2065C88.4901 74.4332 75.6376 87.6065 75.6376 87.6065C58.3993 73.4865 56.5377 45.3332 56.5377 45.3332L60.9963 43.4132C55.3916 39.7065 57.8097 31.8798 57.8097 31.8798C60.7247 34.3132 71.1856 29.9665 71.1856 29.9665C69.6817 23.9998 73.0936 22.9132 73.0936 22.9132C76.1411 22.4932 90.9215 22.9132 90.9215 22.9132C90.9215 16.7198 95.3801 17.1532 95.3801 17.1532C96.8575 18.8132 102.389 19.7132 102.389 19.7132C111.439 23.5865 110.671 24.1932 110.671 24.1932C111.134 25.2865 111.943 24.8398 111.943 24.8398C111.843 19.4065 117.673 21.6398 117.673 21.6398C118.256 27.4332 134.229 35.0865 134.229 35.0865C136.568 36.6732 134.229 39.5732 134.229 39.5732L136.773 41.4932H139.324L140.596 42.1332L146.962 42.7732C149.539 43.3932 148.884 47.2598 148.884 47.2598V47.2532ZM101.753 33.1598C101.753 33.1598 98.2156 34.8665 100.475 38.9265C100.475 38.9265 101.468 40.3532 103.661 41.4865C103.661 41.4865 99.1563 33.4998 109.392 35.7198C109.392 35.7198 107.126 31.3198 101.753 33.1598ZM131.685 42.1265H127.226V43.4065L130.406 46.6065L132.957 41.4865L131.685 42.1265Z"
                        fill="url(#paint0_radial)" />
                </g>
                <defs>
                    <radialGradient id="paint0_radial" cx="0" cy="0" r="1" gradientUnits="userSpaceOnUse"
                        gradientTransform="translate(96.9999 110) rotate(-72.646) scale(50.2892 43.6608)">
                        <stop offset="0.053167" stop-color="#9A0000" />
                        <stop offset="0.310815" stop-color="#6F0000" />
                        <stop offset="0.527016" stop-color="#680000" />
                        <stop offset="0.728432" stop-color="#CADC00" />
                        <stop offset="0.941219" stop-color="#929E00" />
                    </radialGradient>
                    <clipPath id="clip0">
                        <rect width="159" height="160" fill="white" />
                    </clipPath>
                </defs>
            </svg>