<svg class="right" width="22" height="16" viewBox="0 0 22 16" fill="none"
                            xmlns="http://www.w3.org/2000/svg">
                            <path
                                d="M20.7595 7.54372C19.8481 3.42345 18.4765 1.22431 16.442 0.623604C16.0143 0.498156 15.5707 0.435484 15.125 0.437549C14.5359 0.437549 14.0228 0.581065 13.4801 0.733174C12.8262 0.916651 12.0832 1.12505 11 1.12505C9.91674 1.12505 9.17338 0.917081 8.51811 0.733604C7.97499 0.581065 7.46237 0.437549 6.87499 0.437549C6.41411 0.435951 5.95526 0.498424 5.51159 0.623174C3.48776 1.2213 2.11706 3.41958 1.19237 7.54114C0.198073 11.9764 0.687487 14.7767 2.56479 15.4263C2.82212 15.517 3.09288 15.5638 3.36573 15.5647C4.65178 15.5647 5.68303 14.4935 6.38772 13.6165C7.18393 12.6239 8.11592 12.1203 11 12.1203C13.576 12.1203 14.642 12.4697 15.5628 13.6165C16.1416 14.3375 16.6886 14.842 17.2343 15.1595C17.9601 15.5815 18.6854 15.6751 19.3896 15.4332C20.4991 15.0547 21.135 14.0539 21.2803 12.4581C21.3907 11.2343 21.2205 9.62685 20.7595 7.54372ZM8.93749 7.31255H7.56249V8.68755C7.56249 8.86989 7.49005 9.04475 7.36112 9.17369C7.23219 9.30262 7.05732 9.37505 6.87499 9.37505C6.69265 9.37505 6.51778 9.30262 6.38885 9.17369C6.25992 9.04475 6.18749 8.86989 6.18749 8.68755V7.31255H4.81249C4.63015 7.31255 4.45528 7.24012 4.32635 7.11119C4.19742 6.98225 4.12499 6.80739 4.12499 6.62505C4.12499 6.44271 4.19742 6.26784 4.32635 6.13891C4.45528 6.00998 4.63015 5.93755 4.81249 5.93755H6.18749V4.56255C6.18749 4.38021 6.25992 4.20534 6.38885 4.07641C6.51778 3.94748 6.69265 3.87505 6.87499 3.87505C7.05732 3.87505 7.23219 3.94748 7.36112 4.07641C7.49005 4.20534 7.56249 4.38021 7.56249 4.56255V5.93755H8.93749C9.11982 5.93755 9.29469 6.00998 9.42362 6.13891C9.55255 6.26784 9.62499 6.44271 9.62499 6.62505C9.62499 6.80739 9.55255 6.98225 9.42362 7.11119C9.29469 7.24012 9.11982 7.31255 8.93749 7.31255ZM12.5469 7.48442C12.3769 7.48442 12.2107 7.43402 12.0694 7.33959C11.9281 7.24516 11.8179 7.11095 11.7529 6.95392C11.6879 6.79689 11.6708 6.6241 11.704 6.45739C11.7372 6.29069 11.819 6.13757 11.9392 6.01738C12.0594 5.89719 12.2125 5.81535 12.3792 5.78219C12.5459 5.74903 12.7187 5.76605 12.8757 5.83109C13.0328 5.89613 13.167 6.00628 13.2614 6.14761C13.3558 6.28893 13.4062 6.45508 13.4062 6.62505C13.4062 6.85297 13.3157 7.07156 13.1545 7.23272C12.9934 7.39388 12.7748 7.48442 12.5469 7.48442ZM14.4375 9.37505C14.2674 9.37505 14.1012 9.32459 13.9598 9.23007C13.8185 9.13554 13.7083 9.0012 13.6433 8.84405C13.5783 8.68689 13.5615 8.51399 13.5948 8.34723C13.6281 8.18047 13.7102 8.02734 13.8306 7.90724C13.951 7.78714 14.1043 7.70547 14.2712 7.67255C14.438 7.63963 14.6109 7.65696 14.7678 7.72233C14.9248 7.78771 15.0589 7.89819 15.1531 8.0398C15.2472 8.1814 15.2973 8.34776 15.2969 8.51782C15.2963 8.74537 15.2055 8.9634 15.0444 9.1241C14.8833 9.2848 14.665 9.37505 14.4375 9.37505ZM14.4375 5.5938C14.2675 5.5938 14.1014 5.5434 13.96 5.44897C13.8187 5.35454 13.7086 5.22032 13.6435 5.06329C13.5785 4.90626 13.5615 4.73347 13.5946 4.56677C13.6278 4.40007 13.7096 4.24694 13.8298 4.12675C13.95 4.00657 14.1031 3.92472 14.2698 3.89156C14.4365 3.8584 14.6093 3.87542 14.7664 3.94047C14.9234 4.00551 15.0576 4.11566 15.152 4.25698C15.2465 4.3983 15.2969 4.56446 15.2969 4.73442C15.2969 4.96235 15.2063 5.18093 15.0452 5.34209C14.884 5.50326 14.6654 5.5938 14.4375 5.5938ZM16.3281 7.48442C16.1581 7.48442 15.992 7.43402 15.8507 7.33959C15.7093 7.24516 15.5992 7.11095 15.5342 6.95392C15.4691 6.79689 15.4521 6.6241 15.4852 6.45739C15.5184 6.29069 15.6003 6.13757 15.7204 6.01738C15.8406 5.89719 15.9938 5.81535 16.1605 5.78219C16.3272 5.74903 16.4999 5.76605 16.657 5.83109C16.814 5.89613 16.9482 6.00628 17.0427 6.14761C17.1371 6.28893 17.1875 6.45508 17.1875 6.62505C17.1875 6.85297 17.0969 7.07156 16.9358 7.23272C16.7746 7.39388 16.556 7.48442 16.3281 7.48442Z"
                                fill="#252525" />
                        </svg>