<svg width="205" height="219" viewBox="0 0 205 219" fill="none" xmlns="http://www.w3.org/2000/svg">
<path d="M95.032 214.302L89.9691 215.704C78.3876 218.912 69.1846 219.645 62.3603 217.903C55.6206 216.209 50.2948 211.774 46.383 204.596C43.9024 200.014 41.2241 192.53 38.3482 182.146C34.6662 168.852 31.5315 160.107 28.9439 155.91C27.2226 153.04 24.5101 150.835 20.8064 149.298C18.9362 148.463 16.8506 148.008 14.5496 147.933C12.2965 147.773 9.68092 148.106 6.7028 148.931L0.108284 125.121C2.29224 124.516 4.19877 123.81 5.82787 123.003C7.43865 122.129 8.83819 121.136 10.0265 120.024C13.0211 117.2 14.7336 113.735 15.1637 109.628C15.6908 104.07 14.3606 95.5369 11.1733 84.0286C7.63788 71.2637 5.76056 62.17 5.54132 56.7473C5.10343 49.2488 7.13078 43.0615 11.6234 38.1854C16.6016 32.7474 25.1132 28.3605 37.1581 25.0245L42.2209 23.6223L48.7879 47.3333C41.5742 49.3312 37.022 51.1617 35.1311 52.8248C32.0336 55.5342 31.3642 60.0636 33.1227 66.413C34.0853 70.9177 34.9985 75.1155 35.8624 79.0066C36.7925 82.8793 37.7705 86.6676 38.7963 90.3714C40.9945 98.3081 41.6371 105.002 40.7242 110.454C39.7297 116.64 36.5554 122.931 31.2013 129.328C38.1284 131.183 43.4392 134.021 47.1335 137.84C51.7348 142.619 55.4826 150.233 58.3769 160.683L64.8969 181.523C66.6005 187.674 68.9479 191.261 71.939 192.284C74.9301 193.307 80.4296 192.71 88.4374 190.492L95.032 214.302Z" fill="white" fill-opacity="0.2"/>
<path d="M110.968 80.4236L84.1648 87.847L76.4438 59.9693L103.247 52.5459L110.968 80.4236ZM132.702 158.898C134.699 166.107 134.664 172.669 132.596 178.582C130.296 185.201 125.327 191.313 117.687 196.918L109.238 186.867C114.038 183.615 117.18 180.039 118.665 176.138C120.216 172.219 120.204 167.416 118.629 161.728L105.624 165.329L97.9034 137.452L124.707 130.028L132.702 158.898Z" fill="white" fill-opacity="0.2"/>
<path d="M204.152 94.245C201.307 95.0331 198.892 96.0934 196.91 97.4258C194.975 98.6738 193.421 100.137 192.247 101.815C189.928 105.021 188.727 108.273 188.643 111.572C188.572 116.719 190.359 125.874 194.005 139.035C196.954 149.684 198.54 157.47 198.764 162.393C199.083 170.494 196.765 177.046 191.809 182.051C186.854 187.055 178.618 191.152 167.103 194.341L162.04 195.743L155.445 171.933C163.387 169.734 168.32 167.477 170.244 165.164C172.445 162.561 172.703 158.216 171.017 152.132L165.887 130.907C162.974 120.391 162.238 111.942 163.677 105.562C164.832 100.471 167.927 95.3053 172.96 90.0658C165.144 87.3168 159.228 83.5788 155.211 78.8519C151.623 74.6469 148.722 68.543 146.505 60.5402C145.15 55.6458 143.799 51.2842 142.453 47.4553C141.156 43.542 140.02 40.0824 139.045 37.0766C137.286 30.7273 134.415 27.1785 130.431 26.4303C128.02 25.9587 123.142 26.7401 115.796 28.7747L109.229 5.06371L114.291 3.6615C126.27 0.343866 135.793 -0.263972 142.859 1.83799C149.22 3.70808 154.175 7.96162 157.723 14.5986C160.167 19.0491 163.203 27.8221 166.83 40.9177C170.017 52.4259 173.257 60.3945 176.55 64.8234C179.051 68.1901 182.344 70.3045 186.431 71.1666C187.937 71.4614 189.573 71.5781 191.337 71.5167C193.168 71.437 195.241 71.0763 197.558 70.4348L204.152 94.245Z" fill="white" fill-opacity="0.2"/>
</svg>
