
        <svg width="404" height="404" viewBox="0 0 404 404" fill="none"
            xmlns="http://www.w3.org/2000/svg">
            <mask id="path-1-inside-1" fill="white">
                <path fill-rule="evenodd" clip-rule="evenodd"
                    d="M218.833 235.666H235.667V252.5H218.833V235.666ZM235.667 252.5H252.5V269.333H235.667V252.5ZM235.667 269.333H252.5V286.166H235.667V269.333ZM269.333 269.333H286.167V286.166H269.333V269.333ZM269.333 286.166H286.167V303H269.333V286.166ZM218.833 269.333H235.667V286.166H218.833V269.333ZM252.5 269.333H269.333V286.166H252.5V269.333ZM252.5 286.166H269.333V303H252.5V286.166ZM303 269.333H319.833V286.166H303V269.333ZM303 252.5H319.833V269.333H303V252.5ZM319.833 235.666H336.667V252.5H319.833V235.666ZM286.167 269.333H303V286.166H286.167V269.333ZM286.167 286.166H303V303H286.167V286.166ZM269.333 303H286.167V319.833H269.333V303ZM252.5 303H269.333V319.833H252.5V303ZM286.167 303H303V319.833H286.167V303ZM303 303H319.833V319.833H303V303ZM269.333 319.833H286.167V336.666H269.333V319.833ZM235.667 319.833H252.5V336.666H235.667V319.833ZM252.5 319.833H269.333V336.666H252.5V319.833ZM218.833 319.833H235.667V336.666H218.833V319.833ZM218.833 336.666H235.667V353.5H218.833V336.666ZM235.667 353.5H252.5V370.333H235.667V353.5ZM252.5 353.5H269.333V370.333H252.5V353.5ZM286.167 353.5H303V370.333H286.167V353.5ZM303 353.5H319.833V370.333H303V353.5ZM286.167 319.833H303V336.666H286.167V319.833ZM303 319.833H319.833V336.666H303V319.833ZM319.833 303H336.667V319.833H319.833V303ZM319.833 286.166H336.667V303H319.833V286.166ZM319.833 336.666H336.667V353.5H319.833V336.666ZM319.833 319.833H336.667V336.666H319.833V319.833ZM336.667 303H353.5V319.833H336.667V303ZM336.667 286.166H353.5V303H336.667V286.166ZM353.5 336.666H370.333V353.5H353.5V336.666ZM353.5 303H370.333V319.833H353.5V303ZM353.5 319.833H370.333V336.666H353.5V319.833ZM319.833 269.333H336.667V286.166H319.833V269.333ZM218.833 286.166H235.667V303H218.833V286.166ZM202 286.166H218.833V303H202V286.166ZM202 303H218.833V319.833H202V303ZM235.667 303H252.5V319.833H235.667V303ZM185.167 303H202V319.833H185.167V303ZM218.833 303H235.667V319.833H218.833V303ZM185.167 319.833H202V336.666H185.167V319.833ZM185.167 336.666H202V353.5H185.167V336.666ZM185.167 16.833H202V33.6663H185.167V16.833ZM202 33.6663H218.833V50.4997H202V33.6663ZM185.167 67.333H202V84.1663H185.167V67.333ZM202 84.1663H218.833V101H202V84.1663ZM185.167 101H202V117.833H185.167V101ZM202 101H218.833V117.833H202V101ZM202 117.833H218.833V134.666H202V117.833ZM202 134.666H218.833V151.5H202V134.666ZM185.167 151.5H202V168.333H185.167V151.5ZM202 151.5H218.833V168.333H202V151.5ZM185.167 168.333H202V185.166H185.167V168.333ZM16.8333 185.166H33.6666V202H16.8333V185.166ZM33.6666 202H50.4999V218.833H33.6666V202ZM67.3332 185.166H84.1666V202H67.3332V185.166ZM67.3332 202H84.1666V218.833H67.3332V202ZM84.1666 185.166H101V202H84.1666V185.166ZM101 202H117.833V218.833H101V202ZM117.833 185.166H134.667V202H117.833V185.166ZM134.667 202H151.5V218.833H134.667V202ZM134.667 185.166H151.5V202H134.667V185.166ZM151.5 185.166H168.333V202H151.5V185.166ZM168.333 185.166H185.167V202H168.333V185.166ZM185.167 202H202V218.833H185.167V202ZM218.833 202H235.667V218.833H218.833V202ZM235.667 185.166H252.5V202H235.667V185.166ZM252.5 185.166H269.333V202H252.5V185.166ZM269.333 185.166H286.167V202H269.333V185.166ZM252.5 218.833H269.333V235.666H252.5V218.833ZM218.833 370.333H235.667V387.166H218.833V370.333ZM202 370.333H218.833V387.166H202V370.333ZM202 218.833H218.833V235.666H202V218.833ZM185.167 218.833H202V235.666H185.167V218.833ZM185.167 235.666H202V252.5H185.167V235.666ZM185.167 252.5H202V269.333H185.167V252.5ZM370.333 235.666H387.167V252.5H370.333V235.666ZM353.5 252.5H370.333V269.333H353.5V252.5ZM370.333 286.166H387.167V303H370.333V286.166ZM286.167 218.833H303V235.666H286.167V218.833ZM303 202H319.833V218.833H303V202ZM370.333 202H387.167V218.833H370.333V202ZM370.333 218.833H387.167V235.666H370.333V218.833ZM353.5 218.833H370.333V235.666H353.5V218.833ZM370.333 353.5H387.167V370.333H370.333V353.5ZM353.5 370.333H370.333V387.166H353.5V370.333ZM319.833 370.333H336.667V387.166H319.833V370.333ZM370.333 370.333H387.167V387.166H370.333V370.333Z" />
            </mask>
            <path fill-rule="evenodd" clip-rule="evenodd"
                d="M218.833 235.666H235.667V252.5H218.833V235.666ZM235.667 252.5H252.5V269.333H235.667V252.5ZM235.667 269.333H252.5V286.166H235.667V269.333ZM269.333 269.333H286.167V286.166H269.333V269.333ZM269.333 286.166H286.167V303H269.333V286.166ZM218.833 269.333H235.667V286.166H218.833V269.333ZM252.5 269.333H269.333V286.166H252.5V269.333ZM252.5 286.166H269.333V303H252.5V286.166ZM303 269.333H319.833V286.166H303V269.333ZM303 252.5H319.833V269.333H303V252.5ZM319.833 235.666H336.667V252.5H319.833V235.666ZM286.167 269.333H303V286.166H286.167V269.333ZM286.167 286.166H303V303H286.167V286.166ZM269.333 303H286.167V319.833H269.333V303ZM252.5 303H269.333V319.833H252.5V303ZM286.167 303H303V319.833H286.167V303ZM303 303H319.833V319.833H303V303ZM269.333 319.833H286.167V336.666H269.333V319.833ZM235.667 319.833H252.5V336.666H235.667V319.833ZM252.5 319.833H269.333V336.666H252.5V319.833ZM218.833 319.833H235.667V336.666H218.833V319.833ZM218.833 336.666H235.667V353.5H218.833V336.666ZM235.667 353.5H252.5V370.333H235.667V353.5ZM252.5 353.5H269.333V370.333H252.5V353.5ZM286.167 353.5H303V370.333H286.167V353.5ZM303 353.5H319.833V370.333H303V353.5ZM286.167 319.833H303V336.666H286.167V319.833ZM303 319.833H319.833V336.666H303V319.833ZM319.833 303H336.667V319.833H319.833V303ZM319.833 286.166H336.667V303H319.833V286.166ZM319.833 336.666H336.667V353.5H319.833V336.666ZM319.833 319.833H336.667V336.666H319.833V319.833ZM336.667 303H353.5V319.833H336.667V303ZM336.667 286.166H353.5V303H336.667V286.166ZM353.5 336.666H370.333V353.5H353.5V336.666ZM353.5 303H370.333V319.833H353.5V303ZM353.5 319.833H370.333V336.666H353.5V319.833ZM319.833 269.333H336.667V286.166H319.833V269.333ZM218.833 286.166H235.667V303H218.833V286.166ZM202 286.166H218.833V303H202V286.166ZM202 303H218.833V319.833H202V303ZM235.667 303H252.5V319.833H235.667V303ZM185.167 303H202V319.833H185.167V303ZM218.833 303H235.667V319.833H218.833V303ZM185.167 319.833H202V336.666H185.167V319.833ZM185.167 336.666H202V353.5H185.167V336.666ZM185.167 16.833H202V33.6663H185.167V16.833ZM202 33.6663H218.833V50.4997H202V33.6663ZM185.167 67.333H202V84.1663H185.167V67.333ZM202 84.1663H218.833V101H202V84.1663ZM185.167 101H202V117.833H185.167V101ZM202 101H218.833V117.833H202V101ZM202 117.833H218.833V134.666H202V117.833ZM202 134.666H218.833V151.5H202V134.666ZM185.167 151.5H202V168.333H185.167V151.5ZM202 151.5H218.833V168.333H202V151.5ZM185.167 168.333H202V185.166H185.167V168.333ZM16.8333 185.166H33.6666V202H16.8333V185.166ZM33.6666 202H50.4999V218.833H33.6666V202ZM67.3332 185.166H84.1666V202H67.3332V185.166ZM67.3332 202H84.1666V218.833H67.3332V202ZM84.1666 185.166H101V202H84.1666V185.166ZM101 202H117.833V218.833H101V202ZM117.833 185.166H134.667V202H117.833V185.166ZM134.667 202H151.5V218.833H134.667V202ZM134.667 185.166H151.5V202H134.667V185.166ZM151.5 185.166H168.333V202H151.5V185.166ZM168.333 185.166H185.167V202H168.333V185.166ZM185.167 202H202V218.833H185.167V202ZM218.833 202H235.667V218.833H218.833V202ZM235.667 185.166H252.5V202H235.667V185.166ZM252.5 185.166H269.333V202H252.5V185.166ZM269.333 185.166H286.167V202H269.333V185.166ZM252.5 218.833H269.333V235.666H252.5V218.833ZM218.833 370.333H235.667V387.166H218.833V370.333ZM202 370.333H218.833V387.166H202V370.333ZM202 218.833H218.833V235.666H202V218.833ZM185.167 218.833H202V235.666H185.167V218.833ZM185.167 235.666H202V252.5H185.167V235.666ZM185.167 252.5H202V269.333H185.167V252.5ZM370.333 235.666H387.167V252.5H370.333V235.666ZM353.5 252.5H370.333V269.333H353.5V252.5ZM370.333 286.166H387.167V303H370.333V286.166ZM286.167 218.833H303V235.666H286.167V218.833ZM303 202H319.833V218.833H303V202ZM370.333 202H387.167V218.833H370.333V202ZM370.333 218.833H387.167V235.666H370.333V218.833ZM353.5 218.833H370.333V235.666H353.5V218.833ZM370.333 353.5H387.167V370.333H370.333V353.5ZM353.5 370.333H370.333V387.166H353.5V370.333ZM319.833 370.333H336.667V387.166H319.833V370.333ZM370.333 370.333H387.167V387.166H370.333V370.333Z"
                fill="black" stroke="#252525" stroke-width="2" mask="url(#path-1-inside-1)" />
            <path fill-rule="evenodd" clip-rule="evenodd"
                d="M252.5 33.666H370.333V151.499H252.5V33.666ZM33.6665 33.666H151.5V151.499H33.6665V33.666ZM33.6665 252.499H151.5V370.333H33.6665V252.499ZM303 84.166H319.833V100.999H303V84.166ZM84.1665 84.166H101V100.999H84.1665V84.166ZM84.1665 302.999H101V319.833H84.1665V302.999Z"
                stroke="#252525" stroke-width="2" />
        </svg>
