<svg width="27" height="26" viewBox="0 0 27 26" fill="none" xmlns="http://www.w3.org/2000/svg">
<path d="M13.25 0C6.07098 0 0.25 5.82098 0.25 13C0.25 20.179 6.07098 26 13.25 26C20.429 26 26.25 20.179 26.25 13C26.25 5.82098 20.429 0 13.25 0ZM17.7391 13.1886L10.6007 18.3538C10.4469 18.4641 10.2321 18.3538 10.2321 18.1652V16.8042C10.2321 16.5083 10.3743 16.2268 10.6152 16.0527L14.8344 13L10.6152 9.94732C10.3743 9.77321 10.2321 9.49464 10.2321 9.19576V7.83482C10.2321 7.6462 10.4469 7.53594 10.6007 7.6462L17.7391 12.8114C17.8667 12.9042 17.8667 13.0958 17.7391 13.1886Z" fill="#D5D5D5"/>
</svg>
