 <svg class="right" width="22" height="22" viewBox="0 0 22 22" fill="none"
                            xmlns="http://www.w3.org/2000/svg">
                            <g opacity="0.5">
                                <path
                                    d="M21.7825 20.7551L20.7737 21.7854C20.6306 21.9141 20.4589 21.9785 20.2586 21.9785C20.0582 21.9785 19.8865 21.9141 19.7434 21.7854L16.5025 18.5229C15.6439 19.0094 14.7281 19.2527 13.7551 19.2527C12.2384 19.2527 10.9434 18.7161 9.87026 17.6429C8.79709 16.5698 8.26051 15.2748 8.26051 13.758C8.26051 12.2413 8.79709 10.9463 9.87026 9.87317C10.9434 8.8 12.2384 8.26341 13.7551 8.26341C15.2719 8.26341 16.5668 8.8 17.64 9.87317C18.7132 10.9463 19.2498 12.2413 19.2498 13.758C19.2498 14.7311 19.0065 15.6397 18.52 16.4839L21.7825 19.7463C21.9255 19.8894 21.9971 20.0576 21.9971 20.2507C21.9971 20.4439 21.9255 20.612 21.7825 20.7551ZM13.7659 9.63707C12.6283 9.63707 11.6553 10.0377 10.8468 10.839C10.0384 11.6403 9.63416 12.6098 9.63416 13.7473C9.63416 14.8849 10.0384 15.8579 10.8468 16.6663C11.6553 17.4748 12.6283 17.879 13.7659 17.879C14.9034 17.879 15.8729 17.4748 16.6742 16.6663C17.4755 15.8579 17.8761 14.8849 17.8761 13.7473C17.8761 12.6098 17.4755 11.6403 16.6742 10.839C15.8729 10.0377 14.9034 9.63707 13.7659 9.63707ZM15.1288 7.01854V6.88976C15.1288 6.50341 15.2647 6.17789 15.5366 5.91317C15.8085 5.64846 16.1304 5.5161 16.5025 5.5161H19.2498C19.6361 5.5161 19.9652 5.64846 20.2371 5.91317C20.509 6.17789 20.6449 6.50341 20.6449 6.88976V13.758H20.6234C20.6234 12.1125 20.1047 10.6566 19.0673 9.39024C18.0299 8.1239 16.7171 7.33333 15.1288 7.01854ZM8.26051 9.63707V4.14244C8.26051 3.7561 8.39644 3.43057 8.66831 3.16585C8.94018 2.90114 9.26213 2.76878 9.63416 2.76878H12.3815C12.7678 2.76878 13.0934 2.90114 13.3581 3.16585C13.6228 3.43057 13.7551 3.7561 13.7551 4.14244V6.88976C12.6534 6.88976 11.6231 7.13659 10.6644 7.63024C9.70571 8.1239 8.90441 8.79285 8.26051 9.63707ZM8.26051 17.8576C8.90441 18.7161 9.70571 19.3922 10.6644 19.8859C11.6231 20.3795 12.6534 20.6263 13.7551 20.6263H15.1288C15.1288 20.9984 14.9964 21.3203 14.7317 21.5922C14.467 21.8641 14.1415 22 13.7551 22H1.39221C1.02018 22 0.698229 21.8641 0.42636 21.5922C0.15449 21.3203 0.0185547 20.9948 0.0185547 20.6156C0.0185547 20.2364 0.150912 19.9145 0.415628 19.6498C0.680343 19.385 1.00587 19.2527 1.39221 19.2527V1.37366C1.39221 1.00163 1.52815 0.679675 1.80002 0.407805C2.07189 0.135935 2.39384 0 2.76587 0H5.51319C5.89953 0 6.22506 0.135935 6.48977 0.407805C6.75449 0.679675 6.88685 1.00163 6.88685 1.37366V19.2527H8.26051V17.8576Z"
                                    fill="#252525" />
                            </g>
                        </svg>