<svg width="20" class="right" height="21" viewBox="0 0 20 21" fill="none"
                            xmlns="http://www.w3.org/2000/svg">
                            <path opacity="0.5"
                                d="M3.575 0.0738334C3.70232 0.135049 3.80975 0.230977 3.88494 0.350573C3.96013 0.470168 4.00002 0.608566 4 0.749834C4 1.57983 4.312 2.05783 4.703 2.63983L4.732 2.68183C5.064 3.17583 5.5 3.82283 5.5 4.74983C5.5 5.69583 5.023 6.52983 4.296 7.02483C4.487 7.18483 4.656 7.38183 4.802 7.61783C5.278 8.38783 5.5 9.56483 5.5 11.2548C5.5 12.9668 5.27 15.0228 4.895 16.6648C4.709 17.4808 4.478 18.2338 4.203 18.7988C4.066 19.0798 3.899 19.3538 3.693 19.5688C3.487 19.7798 3.17 20.0048 2.75 20.0048C2.33 20.0048 2.013 19.7798 1.808 19.5688C1.59921 19.3401 1.42717 19.0803 1.298 18.7988C1.022 18.2328 0.791001 17.4808 0.605001 16.6638C0.214947 14.8866 0.0121739 13.0733 9.63504e-07 11.2538C9.63504e-07 9.56383 0.222001 8.38783 0.698001 7.61783C0.833798 7.39433 1.00464 7.19411 1.204 7.02483C0.832775 6.7728 0.528938 6.43366 0.319053 6.03708C0.109168 5.64049 -0.000374806 5.19853 9.63504e-07 4.74983C9.63504e-07 4.38183 8.64267e-07 3.74883 0.383001 2.93183C0.758001 2.13183 1.471 1.21283 2.781 0.163834C2.89141 0.0755176 3.02453 0.0202083 3.16502 0.00428431C3.3055 -0.0116397 3.44763 0.0124701 3.575 0.0738334Z"
                                fill="#252525" />
                            <path opacity="0.5"
                                d="M7.99997 12.917C7.47018 12.8281 6.95484 12.668 6.46797 12.441C6.48897 12.035 6.49997 11.637 6.49997 11.255C6.49997 10.849 6.48797 10.461 6.46197 10.091C6.90497 10.456 7.42797 10.727 7.99997 10.874V8.50001C7.99997 8.10218 8.158 7.72065 8.43931 7.43935C8.72061 7.15804 9.10214 7.00001 9.49997 7.00001H13C13.0001 6.23701 12.7819 5.48989 12.3713 4.84681C11.9607 4.20373 11.3747 3.6915 10.6825 3.37057C9.99023 3.04963 9.22066 2.93337 8.46452 3.03551C7.70838 3.13765 6.99724 3.45392 6.41497 3.94701C6.24197 3.13301 5.83997 2.53701 5.58297 2.15601L5.54297 2.09601C6.44143 1.46265 7.49661 1.0883 8.59334 1.0138C9.69007 0.939299 10.7862 1.16752 11.762 1.67356C12.7379 2.1796 13.556 2.94399 14.127 3.88331C14.698 4.82262 15 5.90075 15 7.00001H18.5C18.8978 7.00001 19.2793 7.15804 19.5606 7.43935C19.8419 7.72065 20 8.10218 20 8.50001V17.5C20 17.8978 19.8419 18.2794 19.5606 18.5607C19.2793 18.842 18.8978 19 18.5 19H9.49997C9.10214 19 8.72061 18.842 8.43931 18.5607C8.158 18.2794 7.99997 17.8978 7.99997 17.5V12.917ZM9.99997 12.917V17H18V9.00001H14.659C14.3015 10.0088 13.6811 10.9038 12.8618 11.5924C12.0425 12.281 11.0542 12.7383 9.99897 12.917H9.99997ZM12.465 9.00001H9.99997V10.874C10.5146 10.7407 10.9976 10.5064 11.4208 10.1847C11.8439 9.86294 12.1989 9.46024 12.465 9.00001Z"
                                fill="#252525" />
                        </svg>