<svg width="20" height="22" viewBox="0 0 20 22" fill="none" xmlns="http://www.w3.org/2000/svg">
<path d="M19.9663 6.45131C19.9662 6.08235 19.8855 5.75632 19.7223 5.47659C19.562 5.20136 19.3219 4.97074 18.9998 4.7884C16.3416 3.28972 13.6809 1.79563 11.0235 0.295433C10.3071 -0.10897 9.6125 -0.09415 8.90141 0.316058C7.84336 0.9261 2.54609 3.89358 0.967578 4.78756C0.3175 5.1556 0.00117188 5.71874 0.00101562 6.45062C0 9.46454 0.00101562 12.4785 0 15.4924C0 15.8533 0.0774219 16.173 0.233437 16.4486C0.393828 16.732 0.637266 16.969 0.966719 17.1555C2.54531 18.0494 7.84328 21.0167 8.90109 21.627C9.6125 22.0374 10.3071 22.0521 11.0238 21.6476C13.6812 20.1473 16.3421 18.6532 19.0007 17.1545C19.3302 16.9681 19.5736 16.731 19.734 16.4478C19.8898 16.1722 19.9673 15.8525 19.9673 15.4916C19.9673 15.4916 19.9673 9.46531 19.9663 6.45131Z" fill="#A179DC"/>
<path d="M10.0142 10.942L0.233398 16.4484C0.393789 16.7319 0.637227 16.9689 0.96668 17.1553C2.54527 18.0493 7.84324 21.0166 8.90106 21.6268C9.61246 22.0373 10.3071 22.0519 11.0237 21.6475C13.6811 20.1472 16.3421 18.6531 19.0007 17.1544C19.3301 16.968 19.5736 16.7309 19.7339 16.4477L10.0142 10.942Z" fill="#3D009F"/>
<path d="M19.9663 6.45116C19.9661 6.0822 19.8854 5.75618 19.7222 5.47644L10.0142 10.9421L19.7339 16.4476C19.8897 16.172 19.9671 15.8523 19.9673 15.4914C19.9673 15.4914 19.9673 9.46516 19.9663 6.45116Z" fill="#5C03E5"/>
<path d="M15.7728 8.88354V9.91281H16.8254V8.88354H17.3517V9.91281H18.4044V10.4274H17.3517V11.4566H18.4044V11.9713H17.3517V13.0005H16.8254V11.9713H15.7728V13.0005H15.2464V11.9713H14.1938V11.4566H15.2464V10.4274H14.1938V9.91281H15.2464V8.88354H15.7728ZM16.8254 10.4274H15.7728V11.4566H16.8254V10.4274V10.4274Z" fill="white"/>
<path d="M10.0357 3.71443C12.7813 3.71443 15.1785 5.17239 16.4624 7.33954L16.4499 7.31869L13.2195 9.13735C12.5831 8.08372 11.4163 7.37262 10.0778 7.35795L10.0356 7.35772C7.99463 7.35772 6.33994 8.97564 6.33994 10.9713C6.33927 11.6003 6.50734 12.2185 6.82736 12.7641C7.46439 13.8515 8.66197 14.585 10.0357 14.585C11.418 14.585 12.6224 13.8422 13.2561 12.7432L13.2407 12.7696L16.4663 14.5966C15.1963 16.7455 12.832 18.1989 10.1184 18.2279L10.0357 18.2283C7.28142 18.2283 4.87752 16.7613 3.59674 14.5827C2.9715 13.5192 2.61377 12.2862 2.61377 10.9713C2.61377 6.96348 5.93658 3.71436 10.0356 3.71436L10.0357 3.71443Z" fill="white"/>
</svg>
