<svg width="20" height="22" viewBox="0 0 20 22" fill="none" xmlns="http://www.w3.org/2000/svg">
<g opacity="0.5">
<path opacity="0.5" d="M19.9663 6.47161C19.9662 6.10265 19.8855 5.77662 19.7223 5.49681C19.562 5.22166 19.3219 4.99104 18.9998 4.8087C16.3416 3.31003 13.6809 1.81594 11.0235 0.315734C10.3071 -0.0886689 9.6125 -0.0739258 8.90141 0.336283C7.84336 0.946401 2.54609 3.91388 0.967578 4.80786C0.3175 5.17582 0.00117187 5.73896 0.00101562 6.47092C0 9.48485 0.00101562 12.4987 0 15.5127C0.00015625 15.8736 0.0774219 16.1932 0.233437 16.4689C0.393828 16.7523 0.637266 16.9893 0.966719 17.1758C2.54531 18.0697 7.84328 21.037 8.90109 21.6473C9.6125 22.0577 10.3071 22.0724 11.0237 21.6678C13.6812 20.1675 16.3421 18.6735 19.0007 17.1748C19.3302 16.9885 19.5736 16.7513 19.734 16.4681C19.8898 16.1925 19.9672 15.8728 19.9673 15.5119C19.9673 15.5119 19.9673 9.48561 19.9663 6.47161Z" fill="white"/>
<path opacity="0.5" d="M10.0142 10.9625L0.233398 16.4689C0.393789 16.7524 0.637227 16.9894 0.96668 17.1758C2.54527 18.0698 7.84324 21.0371 8.90106 21.6473C9.61246 22.0578 10.3071 22.0725 11.0237 21.6679C13.6811 20.1676 16.3421 18.6736 19.0007 17.1749C19.3301 16.9885 19.5736 16.7514 19.7339 16.4682L10.0142 10.9625Z" fill="#686868"/>
<path opacity="0.5" d="M7.11719 12.5936C7.68633 13.5651 8.75625 14.2204 9.98359 14.2204C11.2185 14.2204 12.2945 13.5568 12.8608 12.5749L10.0141 10.9625L7.11719 12.5936Z" fill="#5B5B5B"/>
<path opacity="0.5" d="M19.9663 6.47162C19.9661 6.10267 19.8854 5.77664 19.7222 5.49683L10.0142 10.9625L19.7339 16.4681C19.8897 16.1925 19.9671 15.8728 19.9673 15.5119C19.9673 15.5119 19.9673 9.48563 19.9663 6.47162Z" fill="#686868"/>
<path d="M19.4317 11.3561H18.6722V12.0989H17.9125V11.3561H17.1531V10.6135H17.9125V9.87085H18.6722V10.6135H19.4317V11.3561Z" fill="white"/>
<path d="M16.6604 11.3561H15.9009V12.0989H15.1414V11.3561H14.3818V10.6135H15.1414V9.87085H15.9009V10.6135H16.6604V11.3561Z" fill="white"/>
<path d="M12.8608 12.5749C12.2946 13.5568 11.2186 14.2204 9.98364 14.2204C8.7563 14.2204 7.68638 13.5651 7.11724 12.5936C6.83133 12.1061 6.68117 11.5538 6.68177 10.9919C6.68177 9.20886 8.16013 7.76343 9.98364 7.76343C11.2031 7.76343 12.2674 8.41052 12.8393 9.3721L15.7254 7.74716C14.5783 5.81101 12.4366 4.50842 9.98364 4.50842C6.32145 4.50842 3.35278 7.4112 3.35278 10.9919C3.35278 12.1666 3.67239 13.2682 4.23099 14.2184C5.37521 16.1648 7.52294 17.4754 9.98364 17.4754C12.4489 17.4754 14.6 16.1595 15.7425 14.2074L12.8608 12.5749Z" fill="white"/>
</g>
</svg>
