<svg width="22" height="21" viewBox="0 0 22 21" fill="none" xmlns="http://www.w3.org/2000/svg">
<g opacity="0.5">
<path opacity="0.5" d="M20.2383 15.7449C19.8945 15.7449 19.54 15.6217 19.1748 15.3754C18.8096 15.129 18.5052 14.8074 18.2617 14.4106C18.3906 14.4242 18.4909 14.4311 18.5625 14.4311C19.1354 14.4311 19.6224 14.3011 20.0234 14.0411C20.4245 13.781 20.625 13.4731 20.625 13.1173C20.625 12.7752 20.446 12.4809 20.0879 12.2346C19.7298 11.9883 19.2858 11.8446 18.7559 11.8035C18.1686 12.1867 17.1696 12.5015 15.7588 12.7478C14.348 12.9941 12.7617 13.1173 11 13.1173C8.72266 13.1173 6.77832 12.9223 5.16699 12.5323C3.55566 12.1422 2.75 11.6804 2.75 11.1466C2.75 10.7361 3.22266 10.3666 4.16797 10.0381C4.36849 10.5308 5.1849 10.9482 6.61719 11.2903C8.04948 11.6325 9.73958 11.8035 11.6875 11.8035C13.306 11.8035 14.7598 11.6804 16.0488 11.434C17.3379 11.1877 18.2546 10.8729 18.7988 10.4897C18.9707 10.6129 19.0924 10.7361 19.1641 10.8592C19.5365 10.6129 19.8945 10.4897 20.2383 10.4897C20.7253 10.4897 21.1406 10.7463 21.4844 11.2595C21.8281 11.7727 22 12.392 22 13.1173C22 13.8426 21.8281 14.4619 21.4844 14.9751C21.1406 15.4883 20.7253 15.7449 20.2383 15.7449ZM12.375 6.52786C12.375 6.97947 12.4466 7.38319 12.5898 7.739C12.7331 8.09482 12.8906 8.37537 13.0625 8.58065C13.2344 8.78592 13.3919 9.05621 13.5352 9.3915C13.6784 9.72678 13.75 10.0929 13.75 10.4897C13.6784 10.4487 13.5817 10.3939 13.46 10.3255C13.3382 10.2571 13.1162 10.0963 12.7939 9.84311C12.4717 9.58993 12.1924 9.32307 11.9561 9.04252C11.7197 8.76198 11.5013 8.3959 11.3008 7.94428C11.1003 7.49267 11 7.02053 11 6.52786C11 6.07625 11.2256 5.60068 11.6768 5.10117C12.1279 4.60166 12.6615 4.17742 13.2773 3.82845C13.8932 3.47947 14.502 3.18866 15.1035 2.95601C15.7051 2.72336 16.1706 2.61388 16.5 2.62757C16.2422 2.62757 15.7874 2.83969 15.1357 3.26393C14.484 3.68817 13.861 4.2219 13.2666 4.8651C12.6722 5.50831 12.375 6.06256 12.375 6.52786ZM8.25 7.20528C8.25 7.68426 8.36458 8.19746 8.59375 8.74487C8.82292 9.29228 9.05208 9.72336 9.28125 10.0381L9.625 10.5103C8.9375 10.5103 8.30729 10.1613 7.73438 9.46334C7.16146 8.7654 6.875 8.01271 6.875 7.20528C6.875 6.84946 7.01823 6.49023 7.30469 6.12757C7.59115 5.76491 7.9349 5.43646 8.33594 5.14223C8.73698 4.848 9.13802 4.57087 9.53906 4.31085C9.9401 4.05083 10.2839 3.79423 10.5703 3.54106C10.8568 3.28788 11 3.06549 11 2.8739C11 2.49071 10.9785 2.15543 10.9355 1.86804C10.8926 1.58065 10.7744 1.2522 10.5811 0.882698C10.3877 0.513197 10.112 0.218964 9.75391 0C10.6419 0.0957967 11.3008 0.400293 11.7305 0.91349C12.1602 1.42669 12.375 2.08016 12.375 2.8739C12.375 3.31183 12.2318 3.70186 11.9453 4.04399C11.6589 4.38612 11.3151 4.66667 10.9141 4.88563C10.513 5.10459 10.112 5.31672 9.71094 5.52199C9.3099 5.72727 8.96615 5.97019 8.67969 6.25073C8.39323 6.53128 8.25 6.84946 8.25 7.20528ZM11 17.0587C13.1055 17.0587 14.6882 16.8397 15.748 16.4018C16.2493 16.607 16.5 16.826 16.5 17.0587C16.5 17.4145 15.9629 17.7224 14.8887 17.9824C13.8145 18.2424 12.5182 18.3724 11 18.3724C9.48177 18.3724 8.18555 18.2424 7.11133 17.9824C6.03711 17.7224 5.5 17.4145 5.5 17.0587C5.5 16.826 5.75065 16.607 6.25195 16.4018C7.31185 16.8397 8.89453 17.0587 11 17.0587ZM4.125 14.4311C4.125 14.1984 4.43294 13.9795 5.04883 13.7742C6.38086 14.2121 8.36458 14.4311 11 14.4311C13.6354 14.4311 15.6191 14.2121 16.9512 13.7742C17.5671 13.9795 17.875 14.1984 17.875 14.4311C17.875 14.7869 17.2018 15.0948 15.8555 15.3548C14.5091 15.6149 12.887 15.7449 10.9893 15.7449C9.09147 15.7449 7.47298 15.6149 6.13379 15.3548C4.7946 15.0948 4.125 14.7869 4.125 14.4311ZM2.75 17.0587C2.75 17.5376 3.11882 17.979 3.85645 18.3827C4.59408 18.7864 5.59668 19.1046 6.86426 19.3372C8.13184 19.5699 9.51042 19.6862 11 19.6862C12.4896 19.6862 13.8682 19.5699 15.1357 19.3372C16.4033 19.1046 17.4059 18.7864 18.1436 18.3827C18.8812 17.979 19.25 17.5376 19.25 17.0587C19.25 16.9081 19.207 16.7576 19.1211 16.607C21.0404 17.0997 22 17.6882 22 18.3724C22 18.8514 21.5094 19.2928 20.5283 19.6965C19.5472 20.1002 18.2116 20.4184 16.5215 20.651C14.8314 20.8837 12.9909 21 11 21C9.00911 21 7.16862 20.8837 5.47852 20.651C3.78841 20.4184 2.4528 20.1002 1.47168 19.6965C0.49056 19.2928 0 18.8514 0 18.3724C0 17.6882 0.959635 17.0997 2.87891 16.607C2.79297 16.7576 2.75 16.9081 2.75 17.0587Z" fill="white"/>
</g>
</svg>
