<svg width="22" height="22" viewBox="0 0 22 22" fill="none" xmlns="http://www.w3.org/2000/svg">
<g opacity="0.5">
<path opacity="0.5" d="M0 5.5C0 4.77065 0.289731 4.07118 0.805456 3.55546C1.32118 3.03973 2.02065 2.75 2.75 2.75H19.25C19.9793 2.75 20.6788 3.03973 21.1945 3.55546C21.7103 4.07118 22 4.77065 22 5.5V16.5C22 17.2293 21.7103 17.9288 21.1945 18.4445C20.6788 18.9603 19.9793 19.25 19.25 19.25H2.75C2.02065 19.25 1.32118 18.9603 0.805456 18.4445C0.289731 17.9288 0 17.2293 0 16.5L0 5.5ZM3.4375 6.875C3.25516 6.875 3.0803 6.94743 2.95136 7.07636C2.82243 7.2053 2.75 7.38016 2.75 7.5625V8.9375C2.75 9.11984 2.82243 9.2947 2.95136 9.42364C3.0803 9.55257 3.25516 9.625 3.4375 9.625H6.1875C6.36984 9.625 6.5447 9.55257 6.67364 9.42364C6.80257 9.2947 6.875 9.11984 6.875 8.9375V7.5625C6.875 7.38016 6.80257 7.2053 6.67364 7.07636C6.5447 6.94743 6.36984 6.875 6.1875 6.875H3.4375ZM3.4375 11C3.25516 11 3.0803 11.0724 2.95136 11.2014C2.82243 11.3303 2.75 11.5052 2.75 11.6875C2.75 11.8698 2.82243 12.0447 2.95136 12.1736C3.0803 12.3026 3.25516 12.375 3.4375 12.375H10.3125C10.4948 12.375 10.6697 12.3026 10.7986 12.1736C10.9276 12.0447 11 11.8698 11 11.6875C11 11.5052 10.9276 11.3303 10.7986 11.2014C10.6697 11.0724 10.4948 11 10.3125 11H3.4375ZM3.4375 13.75C3.25516 13.75 3.0803 13.8224 2.95136 13.9514C2.82243 14.0803 2.75 14.2552 2.75 14.4375C2.75 14.6198 2.82243 14.7947 2.95136 14.9236C3.0803 15.0526 3.25516 15.125 3.4375 15.125H4.8125C4.99484 15.125 5.1697 15.0526 5.29864 14.9236C5.42757 14.7947 5.5 14.6198 5.5 14.4375C5.5 14.2552 5.42757 14.0803 5.29864 13.9514C5.1697 13.8224 4.99484 13.75 4.8125 13.75H3.4375ZM7.5625 13.75C7.38016 13.75 7.2053 13.8224 7.07636 13.9514C6.94743 14.0803 6.875 14.2552 6.875 14.4375C6.875 14.6198 6.94743 14.7947 7.07636 14.9236C7.2053 15.0526 7.38016 15.125 7.5625 15.125H8.9375C9.11984 15.125 9.2947 15.0526 9.42364 14.9236C9.55257 14.7947 9.625 14.6198 9.625 14.4375C9.625 14.2552 9.55257 14.0803 9.42364 13.9514C9.2947 13.8224 9.11984 13.75 8.9375 13.75H7.5625ZM11.6875 13.75C11.5052 13.75 11.3303 13.8224 11.2014 13.9514C11.0724 14.0803 11 14.2552 11 14.4375C11 14.6198 11.0724 14.7947 11.2014 14.9236C11.3303 15.0526 11.5052 15.125 11.6875 15.125H13.0625C13.2448 15.125 13.4197 15.0526 13.5486 14.9236C13.6776 14.7947 13.75 14.6198 13.75 14.4375C13.75 14.2552 13.6776 14.0803 13.5486 13.9514C13.4197 13.8224 13.2448 13.75 13.0625 13.75H11.6875ZM15.8125 13.75C15.6302 13.75 15.4553 13.8224 15.3264 13.9514C15.1974 14.0803 15.125 14.2552 15.125 14.4375C15.125 14.6198 15.1974 14.7947 15.3264 14.9236C15.4553 15.0526 15.6302 15.125 15.8125 15.125H17.1875C17.3698 15.125 17.5447 15.0526 17.6736 14.9236C17.8026 14.7947 17.875 14.6198 17.875 14.4375C17.875 14.2552 17.8026 14.0803 17.6736 13.9514C17.5447 13.8224 17.3698 13.75 17.1875 13.75H15.8125Z" fill="white"/>
</g>
</svg>
