<svg width="22" height="22" viewBox="0 0 22 22" fill="none" xmlns="http://www.w3.org/2000/svg">
<g opacity="0.5">
<path opacity="0.5" d="M16.5 12.5254V9.47461L22 7.19727V14.8027L16.5 12.5254ZM13.8145 6.01562L16.0918 0.537109L21.4629 5.9082L15.9844 8.20703L13.8145 6.01562ZM9.47461 5.5L7.19727 0H14.8027L12.5254 5.5H9.47461ZM6.03711 8.18555L0.537109 5.9082L5.92969 0.537109L8.20703 6.01562L6.03711 8.18555ZM5.5 12.5254L0 14.8027V7.19727L5.5 9.47461V12.5254ZM8.20703 15.9844L5.92969 21.4629L0.537109 16.0918L6.03711 13.8145L8.20703 15.9844ZM12.5254 16.5L14.8027 22H7.19727L9.47461 16.5H12.5254ZM15.9844 13.8145L21.4629 16.0918L16.0918 21.4629L13.8145 15.9844L15.9844 13.8145Z" fill="white"/>
</g>
</svg>
