<svg width="24" height="24" viewBox="0 0 24 24" fill="none" xmlns="http://www.w3.org/2000/svg">
<g opacity="0.5">
<path opacity="0.5" d="M5.575 2.07396C5.70232 2.13517 5.80975 2.2311 5.88494 2.35069C5.96013 2.47029 6.00002 2.60869 6 2.74996C6 3.57996 6.312 4.05796 6.703 4.63996L6.732 4.68196C7.064 5.17596 7.5 5.82296 7.5 6.74996C7.5 7.69596 7.023 8.52996 6.296 9.02496C6.487 9.18496 6.656 9.38196 6.802 9.61796C7.278 10.388 7.5 11.565 7.5 13.255C7.5 14.967 7.27 17.023 6.895 18.665C6.709 19.481 6.478 20.234 6.203 20.799C6.066 21.08 5.899 21.354 5.693 21.569C5.487 21.78 5.17 22.005 4.75 22.005C4.33 22.005 4.013 21.78 3.808 21.569C3.59921 21.3402 3.42717 21.0804 3.298 20.799C3.022 20.233 2.791 19.481 2.605 18.664C2.21495 16.8867 2.01217 15.0735 2 13.254C2 11.564 2.222 10.388 2.698 9.61796C2.8338 9.39445 3.00464 9.19423 3.204 9.02496C2.83277 8.77292 2.52894 8.43379 2.31905 8.0372C2.10917 7.64062 1.99963 7.19866 2 6.74996C2 6.38196 2 5.74896 2.383 4.93196C2.758 4.13196 3.471 3.21296 4.781 2.16396C4.89141 2.07564 5.02453 2.02033 5.16502 2.00441C5.3055 1.98848 5.44763 2.01259 5.575 2.07396Z" fill="white"/>
<path opacity="0.5" d="M9.99997 14.917C9.47018 14.8281 8.95484 14.668 8.46797 14.441C8.48897 14.035 8.49997 13.637 8.49997 13.255C8.49997 12.849 8.48797 12.461 8.46197 12.091C8.90497 12.456 9.42797 12.727 9.99997 12.874V10.5C9.99997 10.1022 10.158 9.72065 10.4393 9.43935C10.7206 9.15804 11.1021 9.00001 11.5 9.00001H15C15.0001 8.23701 14.7819 7.48989 14.3713 6.84681C13.9607 6.20373 13.3747 5.6915 12.6825 5.37057C11.9902 5.04963 11.2207 4.93337 10.4645 5.03551C9.70838 5.13765 8.99724 5.45392 8.41497 5.94701C8.24197 5.13301 7.83997 4.53701 7.58297 4.15601L7.54297 4.09601C8.44143 3.46265 9.49661 3.0883 10.5933 3.0138C11.6901 2.9393 12.7862 3.16752 13.762 3.67356C14.7379 4.1796 15.556 4.94399 16.127 5.88331C16.698 6.82262 17 7.90075 17 9.00001H20.5C20.8978 9.00001 21.2793 9.15804 21.5606 9.43935C21.8419 9.72065 22 10.1022 22 10.5V19.5C22 19.8978 21.8419 20.2794 21.5606 20.5607C21.2793 20.842 20.8978 21 20.5 21H11.5C11.1021 21 10.7206 20.842 10.4393 20.5607C10.158 20.2794 9.99997 19.8978 9.99997 19.5V14.917ZM12 14.917V19H20V11H16.659C16.3015 12.0088 15.6811 12.9038 14.8618 13.5924C14.0425 14.281 13.0542 14.7383 11.999 14.917H12ZM14.465 11H12V12.874C12.5146 12.7407 12.9976 12.5064 13.4208 12.1847C13.8439 11.8629 14.1989 11.4602 14.465 11Z" fill="white"/>
</g>
</svg>
