<svg width="22" height="22" viewBox="0 0 22 22" fill="none" xmlns="http://www.w3.org/2000/svg">
<g opacity="0.5">
<path d="M16.18 10.4598L18.0987 8.73276L13.5159 4.60776L11.5973 6.33476L6.538 1.79176C5.5848 0.933756 4.03279 0.933756 3.07958 1.79176L0.757675 3.88176C-0.195529 4.73976 -0.195529 6.13676 0.757675 6.99476L5.80477 11.5378L0 16.7738V20.8988H4.58271L10.3997 15.6628L15.4468 20.2058C16.6077 21.2508 18.172 20.8658 18.9052 20.2058L21.2271 18.1158C22.1803 17.2578 22.1803 15.8608 21.2271 15.0028L16.18 10.4598ZM7.55231 9.97576L2.493 5.43276L4.80268 3.34276L6.35469 4.73976L4.91267 6.04876L6.63577 7.59976L8.09001 6.29076L9.86199 7.88576L7.55231 9.97576ZM17.1821 18.6548L12.135 14.1118L14.4569 12.0218L16.2289 13.6168L14.7747 14.9258L16.4978 16.4768L17.952 15.1678L19.504 16.5648L17.1821 18.6548ZM21.6426 5.54276C21.7559 5.44099 21.8458 5.32011 21.9071 5.18704C21.9684 5.05397 22 4.91132 22 4.76726C22 4.62319 21.9684 4.48054 21.9071 4.34747C21.8458 4.2144 21.7559 4.09352 21.6426 3.99176L18.783 1.41776C18.2086 0.900756 17.4143 1.09876 17.0599 1.41776L14.8235 3.43076L19.4063 7.55576L21.6426 5.54276Z" fill="white"/>
<path d="M11.5142 21.8986C11.6829 21.89 11.8417 21.8437 11.9706 21.7684L12.0072 21.7445C12.143 21.6557 12.2295 21.54 12.2618 21.4193C12.2937 21.2998 12.273 21.1746 12.1983 21.0608L12.1924 21.0519L12.1885 21.0419C12.1688 20.9908 12.1584 20.9372 12.158 20.8829V20.8822C12.158 20.8254 12.1681 20.7456 12.2192 20.6507C12.2696 20.5571 12.3572 20.4539 12.5041 20.3443C12.6312 20.249 12.7306 20.1794 12.8347 20.1064C12.8414 20.1017 12.8482 20.0969 12.855 20.0922L12.8556 20.0917C12.8674 20.0836 12.8793 20.0754 12.8913 20.0672C12.9727 20.0111 13.0589 19.9517 13.1646 19.8736L13.1646 19.8736L13.1659 19.8727C13.4011 19.7044 13.6457 19.5085 13.8643 19.2646C14.3131 18.7589 14.5649 18.1251 14.5649 17.1875C14.5649 16.0495 14.0035 15.0802 13.1257 14.4845L13.0181 14.4115L13.1164 14.3262L13.2325 14.2255C13.7275 13.7688 14.0188 13.1742 14.2027 12.5793C14.5641 11.3999 14.5649 9.97725 14.5649 8.9719V8.93752C14.5649 5.11621 13.8719 2.96269 13.1206 1.74091C12.7424 1.12628 12.3428 0.737644 12.0005 0.495519L11.9998 0.495044C11.8617 0.395635 11.7089 0.307617 11.5441 0.232763C11.471 0.19972 11.3944 0.170724 11.3152 0.14606L11.3101 0.144864L11.2859 0.139522C11.2652 0.135061 11.2362 0.12911 11.2032 0.123166C11.1356 0.110984 11.0572 0.0999997 10.9987 0.0999997C10.9402 0.0999997 10.8618 0.110984 10.7941 0.123166C10.7611 0.12911 10.7321 0.135061 10.7114 0.139522L10.6873 0.144864L10.6812 0.146266C10.602 0.169242 10.5263 0.197953 10.4552 0.2319L10.4535 0.232673C10.2886 0.307546 10.1358 0.395595 9.99758 0.495046L9.99712 0.495368C9.65454 0.739023 9.25492 1.12641 8.87682 1.74091C8.12549 2.96269 7.43252 5.11621 7.43252 8.93752V8.9719C7.43252 9.97863 7.43329 11.4 7.79471 12.5794C7.9787 13.1747 8.27029 13.7697 8.76593 14.2265L8.76594 14.2265L8.76657 14.2271C8.80096 14.2593 8.8394 14.2921 8.87881 14.3244L8.98254 14.4093L8.87164 14.4845C7.9939 15.0802 7.43252 16.0495 7.43252 17.1875C7.43252 17.6155 7.5858 18.1355 7.80331 18.6236L7.80335 18.6237C8.02002 19.1113 8.32303 19.6141 8.67125 20.018L8.67132 20.0179L8.674 20.0213C9.08756 20.5451 9.67282 20.9877 10.1314 21.288L10.1317 21.2882C10.3821 21.4534 10.6435 21.6091 10.9149 21.7547L10.9943 21.7953C11.1458 21.8709 11.3287 21.908 11.5142 21.8986Z" fill="white" stroke="#252525" stroke-width="0.2"/>
</g>
</svg>
