<svg width="22" height="16" viewBox="0 0 22 16" fill="none" xmlns="http://www.w3.org/2000/svg">
<path d="M20.7595 7.5436C19.8481 3.42333 18.4765 1.22419 16.442 0.623482C16.0143 0.498034 15.5707 0.435362 15.125 0.437427C14.5359 0.437427 14.0228 0.580943 13.4801 0.733052C12.8262 0.916529 12.0832 1.12493 11 1.12493C9.91674 1.12493 9.17338 0.916959 8.51811 0.733482C7.97499 0.580943 7.46237 0.437427 6.87499 0.437427C6.41411 0.435829 5.95526 0.498302 5.51159 0.623052C3.48776 1.22118 2.11706 3.41946 1.19237 7.54102C0.198073 11.9763 0.687487 14.7765 2.56479 15.4262C2.82212 15.5169 3.09288 15.5637 3.36573 15.5646C4.65178 15.5646 5.68303 14.4934 6.38772 13.6164C7.18393 12.6238 8.11592 12.1202 11 12.1202C13.576 12.1202 14.642 12.4695 15.5628 13.6164C16.1416 14.3374 16.6886 14.8418 17.2343 15.1594C17.9601 15.5813 18.6854 15.675 19.3896 15.4331C20.4991 15.0545 21.135 14.0538 21.2803 12.4579C21.3907 11.2342 21.2205 9.62672 20.7595 7.5436ZM8.93749 7.31243H7.56249V8.68743C7.56249 8.86976 7.49005 9.04463 7.36112 9.17356C7.23219 9.3025 7.05732 9.37493 6.87499 9.37493C6.69265 9.37493 6.51778 9.3025 6.38885 9.17356C6.25992 9.04463 6.18749 8.86976 6.18749 8.68743V7.31243H4.81249C4.63015 7.31243 4.45528 7.23999 4.32635 7.11106C4.19742 6.98213 4.12499 6.80726 4.12499 6.62493C4.12499 6.44259 4.19742 6.26772 4.32635 6.13879C4.45528 6.00986 4.63015 5.93743 4.81249 5.93743H6.18749V4.56243C6.18749 4.38009 6.25992 4.20522 6.38885 4.07629C6.51778 3.94736 6.69265 3.87493 6.87499 3.87493C7.05732 3.87493 7.23219 3.94736 7.36112 4.07629C7.49005 4.20522 7.56249 4.38009 7.56249 4.56243V5.93743H8.93749C9.11982 5.93743 9.29469 6.00986 9.42362 6.13879C9.55255 6.26772 9.62499 6.44259 9.62499 6.62493C9.62499 6.80726 9.55255 6.98213 9.42362 7.11106C9.29469 7.23999 9.11982 7.31243 8.93749 7.31243ZM12.5469 7.4843C12.3769 7.4843 12.2107 7.4339 12.0694 7.33947C11.9281 7.24504 11.8179 7.11083 11.7529 6.9538C11.6879 6.79677 11.6708 6.62397 11.704 6.45727C11.7372 6.29057 11.819 6.13744 11.9392 6.01726C12.0594 5.89707 12.2125 5.81522 12.3792 5.78206C12.5459 5.74891 12.7187 5.76592 12.8757 5.83097C13.0328 5.89601 13.167 6.00616 13.2614 6.14748C13.3558 6.28881 13.4062 6.45496 13.4062 6.62493C13.4062 6.85285 13.3157 7.07143 13.1545 7.2326C12.9934 7.39376 12.7748 7.4843 12.5469 7.4843ZM14.4375 9.37493C14.2674 9.37493 14.1012 9.32447 13.9598 9.22995C13.8185 9.13542 13.7083 9.00108 13.6433 8.84392C13.5783 8.68677 13.5615 8.51387 13.5948 8.34711C13.6281 8.18034 13.7102 8.02722 13.8306 7.90712C13.951 7.78702 14.1043 7.70534 14.2712 7.67243C14.438 7.63951 14.6109 7.65684 14.7678 7.72221C14.9248 7.78759 15.0589 7.89807 15.1531 8.03967C15.2472 8.18128 15.2973 8.34764 15.2969 8.5177C15.2963 8.74525 15.2055 8.96328 15.0444 9.12398C14.8833 9.28468 14.665 9.37493 14.4375 9.37493ZM14.4375 5.59368C14.2675 5.59368 14.1014 5.54328 13.96 5.44885C13.8187 5.35442 13.7086 5.2202 13.6435 5.06317C13.5785 4.90614 13.5615 4.73335 13.5946 4.56665C13.6278 4.39994 13.7096 4.24682 13.8298 4.12663C13.95 4.00645 14.1031 3.9246 14.2698 3.89144C14.4365 3.85828 14.6093 3.8753 14.7664 3.94034C14.9234 4.00539 15.0576 4.11554 15.152 4.25686C15.2465 4.39818 15.2969 4.56433 15.2969 4.7343C15.2969 4.96222 15.2063 5.18081 15.0452 5.34197C14.884 5.50314 14.6654 5.59368 14.4375 5.59368ZM16.3281 7.4843C16.1581 7.4843 15.992 7.4339 15.8507 7.33947C15.7093 7.24504 15.5992 7.11083 15.5342 6.9538C15.4691 6.79677 15.4521 6.62397 15.4852 6.45727C15.5184 6.29057 15.6003 6.13744 15.7204 6.01726C15.8406 5.89707 15.9938 5.81522 16.1605 5.78206C16.3272 5.74891 16.4999 5.76592 16.657 5.83097C16.814 5.89601 16.9482 6.00616 17.0427 6.14748C17.1371 6.28881 17.1875 6.45496 17.1875 6.62493C17.1875 6.85285 17.0969 7.07143 16.9358 7.2326C16.7746 7.39376 16.556 7.4843 16.3281 7.4843Z" fill="white"/>
</svg>
