<svg width="19" height="19" viewBox="0 0 19 19" fill="none" xmlns="http://www.w3.org/2000/svg">
<path d="M18.9388 5.60794C18.9282 4.81017 18.7786 4.02033 18.4967 3.27376C18.2523 2.64402 17.879 2.07211 17.4007 1.59457C16.9223 1.11702 16.3495 0.744338 15.7187 0.500333C14.9805 0.223683 14.2006 0.0740927 13.4123 0.0579333C12.3973 0.0126401 12.0755 0 9.49895 0C6.92242 0 6.59218 7.06314e-08 5.58457 0.0579333C4.79659 0.0742115 4.01708 0.223799 3.27921 0.500333C2.64833 0.744168 2.07538 1.11679 1.59701 1.59436C1.11865 2.07193 0.745407 2.64392 0.501166 3.27376C0.2235 4.01017 0.073986 4.78856 0.0590848 5.57529C0.0137161 6.58964 0 6.91091 0 9.48315C0 12.0554 -7.86101e-09 12.384 0.0590848 13.391C0.0749111 14.1789 0.223678 14.9563 0.501166 15.6946C0.745817 16.3243 1.11934 16.8961 1.59786 17.3734C2.07639 17.8508 2.64939 18.2233 3.28026 18.467C4.01612 18.7548 4.79576 18.9151 5.58563 18.941C6.60168 18.9863 6.92348 19 9.5 19C12.0765 19 12.4068 19 13.4144 18.941C14.2027 18.9255 14.9826 18.7763 15.7208 18.4997C16.3514 18.2554 16.9241 17.8826 17.4024 17.4051C17.8807 16.9276 18.2541 16.3558 18.4988 15.7262C18.7763 14.9889 18.9251 14.2116 18.9409 13.4226C18.9863 12.4093 19 12.088 19 9.51475C18.9979 6.94251 18.9979 6.61598 18.9388 5.60794ZM9.49261 14.3474C6.79792 14.3474 4.61495 12.1681 4.61495 9.47788C4.61495 6.78767 6.79792 4.60833 9.49261 4.60833C10.7863 4.60833 12.0269 5.12137 12.9416 6.03459C13.8564 6.94781 14.3703 8.1864 14.3703 9.47788C14.3703 10.7694 13.8564 12.008 12.9416 12.9212C12.0269 13.8344 10.7863 14.3474 9.49261 14.3474ZM14.5644 5.5637C13.9345 5.5637 13.427 5.05599 13.427 4.42821C13.427 4.27916 13.4564 4.13158 13.5136 3.99388C13.5707 3.85618 13.6544 3.73106 13.76 3.62567C13.8656 3.52027 13.9909 3.43667 14.1288 3.37964C14.2668 3.3226 14.4146 3.29324 14.5639 3.29324C14.7132 3.29324 14.861 3.3226 14.9989 3.37964C15.1369 3.43667 15.2622 3.52027 15.3678 3.62567C15.4733 3.73106 15.5571 3.85618 15.6142 3.99388C15.6713 4.13158 15.7007 4.27916 15.7007 4.42821C15.7007 5.05599 15.1922 5.5637 14.5644 5.5637Z" fill="white"/>
<path d="M9.5 13.0625C11.4675 13.0625 13.0625 11.4675 13.0625 9.5C13.0625 7.53249 11.4675 5.9375 9.5 5.9375C7.53249 5.9375 5.9375 7.53249 5.9375 9.5C5.9375 11.4675 7.53249 13.0625 9.5 13.0625Z" fill="white"/>
</svg>
