<svg width="23" height="19" viewBox="0 0 23 19" fill="none" xmlns="http://www.w3.org/2000/svg">
<path d="M5.69583 19V6.18073H0.979898V19H5.69583ZM3.33848 4.42943C4.98301 4.42943 6.00665 3.44506 6.00665 2.21492C5.97601 0.957048 4.98307 0 3.36968 0C1.75655 0 0.70166 0.957067 0.70166 2.21492C0.70166 3.44511 1.72505 4.42943 3.30769 4.42943H3.33848ZM8.30609 19H13.022V11.8411C13.022 11.458 13.0527 11.0752 13.1772 10.8013C13.5181 10.0358 14.2941 9.24302 15.5968 9.24302C17.3033 9.24302 17.986 10.4186 17.986 12.1419V18.9999H22.7017V11.6495C22.7017 7.71188 20.3751 5.87977 17.2723 5.87977C14.7282 5.87977 13.6112 7.16459 12.9906 8.03967H13.0221V6.18047H8.30619C8.36808 7.38335 8.30609 19 8.30609 19Z" fill="white"/>
</svg>
