<svg width="22" height="19" viewBox="0 0 22 19" fill="none" xmlns="http://www.w3.org/2000/svg">
<path d="M6.81702 19C15.0067 19 19.4867 11.6883 19.4867 5.35873C19.4867 5.15412 19.4867 4.9466 19.4786 4.74199C20.3508 4.06166 21.1035 3.21937 21.7016 2.25459C20.8869 2.64165 20.0235 2.89676 19.1395 3.01162C20.0706 2.41189 20.7681 1.46827 21.1021 0.356148C20.2272 0.914607 19.2697 1.30664 18.2714 1.51509C17.6003 0.744931 16.7121 0.234726 15.7446 0.0635014C14.7771 -0.107724 13.7842 0.0695869 12.9197 0.567968C12.0552 1.06635 11.3673 1.85799 10.9626 2.82026C10.558 3.78253 10.4591 4.86173 10.6813 5.8907C8.91087 5.79505 7.17892 5.29949 5.59772 4.43617C4.01652 3.57285 2.6214 2.36104 1.50284 0.879351C0.934987 1.93611 0.761691 3.18612 1.01814 4.37555C1.27459 5.56499 1.94155 6.60467 2.8836 7.28347C2.17768 7.25763 1.48727 7.05338 0.868064 6.68719V6.75296C0.869282 7.85999 1.2252 8.93261 1.87566 9.78952C2.52612 10.6464 3.43123 11.2351 4.43798 11.4559C4.05585 11.5694 3.6611 11.6259 3.26474 11.624C2.98531 11.6249 2.70644 11.597 2.43194 11.5407C2.71648 12.4937 3.27053 13.3269 4.01649 13.9236C4.76245 14.5203 5.66295 14.8507 6.59187 14.8685C5.01383 16.2039 3.06454 16.9282 1.05795 16.9247C0.704381 16.9263 0.351055 16.9044 0 16.859C2.03658 18.258 4.40176 19.0008 6.81702 19Z" fill="white"/>
</svg>
