<svg width="28" height="28" viewBox="0 0 28 28" fill="none" xmlns="http://www.w3.org/2000/svg">
<path d="M13.5625 2.47876C11.938 2.47876 10.3801 3.12407 9.23147 4.27273C8.08281 5.42139 7.4375 6.97931 7.4375 8.60376C7.4375 11.9813 10.8894 12.9236 11.1326 16.9163H15.9915C16.2347 12.9236 19.6875 11.9813 19.6875 8.60376C19.6875 6.97931 19.0422 5.42139 17.8935 4.27273C16.7449 3.12407 15.187 2.47876 13.5625 2.47876V2.47876ZM13.5625 24.6451C15.2198 24.6451 15.7351 23.7465 15.8961 23.1874H11.2289C11.3899 23.7474 11.9052 24.6451 13.5625 24.6451V24.6451ZM11.1562 22.3106H15.9688V17.7921H11.1562V22.3106Z" fill="black"/>
</svg>
