<svg width="176" height="153" viewBox="0 0 176 153" fill="none" xmlns="http://www.w3.org/2000/svg">
<g opacity="0.7">
<g opacity="0.7" filter="url(#filter0_d)">
<path d="M159.54 90.4844C166.795 66.8486 156.121 39.8992 136.844 24.4238C117.567 8.94737 91.2645 4.03678 66.7653 7.31125C45.6938 10.1277 24.7097 19.1997 11.452 35.8252C5.36105 43.4648 1.72954 56.0521 9.49295 61.984C18.8225 69.1108 32.8145 58.1014 43.727 62.4297C53.352 66.2473 54.8263 79.3373 52.8382 89.5034C50.85 99.6695 47.073 110.622 51.6225 119.927C55.9044 128.682 66.5806 132.78 76.3064 132.2C87.1091 131.556 97.1518 126.031 107.885 124.355C113.262 123.515 118.564 123.871 123.949 122.921C129.883 121.874 135.518 119.763 140.482 116.312C149.402 110.11 156.344 100.896 159.54 90.4844Z" fill="url(#paint0_linear)"/>
</g>
<g filter="url(#filter1_d)">
<path d="M25.2287 66.6345C28.361 67.2115 31.138 69.4694 32.3466 72.4203C34.9171 78.6969 30.4088 85.8086 31.5966 92.4821C31.976 94.6162 32.9273 96.8463 32.1265 98.8555C31.1856 101.213 28.0906 102.082 25.6597 101.336C23.2288 100.591 21.3534 98.671 19.699 96.7364C16.5315 93.0337 13.6883 88.8776 12.5678 84.1391C10.683 76.1763 15.4052 64.8234 25.2287 66.6345Z" fill="url(#paint1_linear)"/>
</g>
<g filter="url(#filter2_d)">
<path d="M31.7704 17.561C30.2073 15.3761 30.3154 12.1038 32.1279 10.0989C33.9407 8.09463 37.3209 7.68277 39.4643 9.30661C40.681 10.2282 41.462 11.8267 41.0883 13.3098C40.7736 14.5594 39.7883 15.3948 38.8851 16.2383C38.0926 16.9779 37.657 17.8029 37 18.6303C35.5078 20.5096 32.9206 19.1684 31.7704 17.561Z" fill="url(#paint2_linear)"/>
</g>
<g filter="url(#filter3_d)">
<path d="M26.3967 106.445C26.9247 105.948 27.7243 105.736 28.3995 105.98C29.2241 106.278 29.7265 107.247 29.547 108.114C29.3665 108.982 28.5581 109.666 27.682 109.744C25.607 109.928 24.9791 107.781 26.3967 106.445Z" fill="url(#paint3_linear)"/>
</g>
<g filter="url(#filter4_d)">
<path d="M46.7224 117.978C49.4653 115.397 53.6184 114.295 57.1256 115.564C61.4093 117.114 64.0187 122.147 63.0866 126.651C62.1487 131.157 57.9494 134.711 53.3988 135.113C42.6207 136.072 39.3591 124.92 46.7224 117.978Z" fill="url(#paint4_linear)"/>
</g>
<g filter="url(#filter5_d)">
<path d="M6.45147 55.6848C8.07834 54.154 10.5417 53.5 12.6219 54.2527C15.1628 55.1722 16.7105 58.1574 16.1576 60.8289C15.6013 63.5015 13.1106 65.6096 10.4115 65.8481C4.01859 66.4167 2.08403 59.8019 6.45147 55.6848Z" fill="url(#paint5_linear)"/>
</g>
<g filter="url(#filter6_d)">
<path d="M37.6269 22.5859C37.4311 22.9391 35.6146 24.2329 35.2149 24.2178C34.7267 24.1994 34.3652 23.1219 34.3133 22.6314C34.262 22.1405 34.5748 21.6403 35.0264 21.4506C36.096 21.0007 38.1522 21.6364 37.6269 22.5859Z" fill="url(#paint6_linear)"/>
</g>
<g filter="url(#filter7_d)">
<path d="M156.349 72.8189C156.877 72.3221 157.677 72.1098 158.352 72.3541C159.177 72.6526 159.679 73.6215 159.499 74.4886C159.319 75.356 158.51 76.0402 157.634 76.1177C155.559 76.3022 154.932 74.1552 156.349 72.8189Z" fill="url(#paint7_linear)"/>
</g>
<g filter="url(#filter8_d)">
<path d="M156.592 78.4527C154.682 78.7372 153.047 80.0504 151.128 80.2768C148.999 80.5286 146.617 79.4449 144.801 80.563C143.459 81.3899 143.007 83.2285 143.46 84.7421C143.913 86.2556 145.096 87.4622 146.414 88.3518C149.155 90.2018 152.725 90.8935 155.869 89.9225C158.838 89.0047 161.512 86.3598 162.25 83.305C162.958 80.3757 159.263 78.0544 156.592 78.4527Z" fill="url(#paint8_linear)"/>
</g>
<g filter="url(#filter9_d)">
<path d="M34.4825 68.0876C35.3986 67.481 36.8024 67.8547 37.3163 68.8257C37.8307 69.797 37.3689 71.1483 36.3789 71.6239C35.3882 72.0991 34.0609 71.6347 33.5606 70.6557C33.0602 69.6766 33.4456 68.3493 34.3789 67.7692" fill="url(#paint9_linear)"/>
</g>
<path d="M133.244 40.1673L122.367 46.4973L122.147 46.6251L90.7992 64.8669L90.5804 64.9942L59.2319 83.2364L59.0131 83.3638L52.3606 87.235C52.4866 87.304 52.615 87.3669 52.7402 87.4364L59.1967 83.6793L59.4155 83.5519L90.764 65.3097L90.9828 65.1823L122.33 46.9406L122.55 46.8127L133.547 40.4138C133.446 40.3322 133.346 40.2492 133.244 40.1673Z" fill="url(#paint10_linear)"/>
<path d="M118.693 40.184L118.473 40.3118L87.1253 58.5536L86.9065 58.6809L55.558 76.9231L55.3392 77.0505L44.1626 83.5543C44.3117 83.6064 44.4585 83.6645 44.6072 83.7179L55.5219 77.3665L55.7407 77.2391L87.0892 58.9969L87.308 58.8696L118.656 40.6278L118.875 40.5L127.118 35.7037C127.003 35.6289 126.887 35.5565 126.773 35.4818L118.693 40.184Z" fill="url(#paint11_linear)"/>
<path d="M115.019 33.8706L114.799 33.9985L83.4516 52.2402L83.2328 52.3676L51.8843 70.6098L51.6655 70.7371L28.6138 84.1514C28.6997 84.2425 28.7848 84.3342 28.8717 84.4248L51.8496 71.0535L52.0684 70.9262L83.4169 52.6839L83.6357 52.5566L114.983 34.3148L115.203 34.187L119.938 31.4316C119.812 31.3626 119.685 31.2964 119.558 31.2293L115.019 33.8706Z" fill="url(#paint12_linear)"/>
<path d="M111.345 27.5573L111.126 27.6852L79.778 45.9269L79.5592 46.0543L48.2107 64.2965L47.9919 64.4238L23.8574 78.4681C23.9311 78.5664 24.0056 78.6642 24.0793 78.7625L48.176 64.7402L48.3948 64.6129L79.7433 46.3706L79.9621 46.2433L111.31 28.0016L111.529 27.8737L112.12 27.5301C111.985 27.4676 111.85 27.4051 111.714 27.3426L111.345 27.5573Z" fill="url(#paint13_linear)"/>
<path d="M120.53 43.3415L120.311 43.4693L88.9629 61.7111L88.7441 61.8384L57.3956 80.0807L57.1768 80.208L48.467 85.2764C48.6012 85.3371 48.7318 85.4058 48.8651 85.4671L57.3604 80.5235L57.5792 80.3961L88.9277 62.1539L89.1465 62.0266L120.494 43.7848L120.714 43.657L130.431 38.0026C130.324 37.9237 130.217 37.8443 130.11 37.7668L120.53 43.3415Z" fill="url(#paint14_linear)"/>
<path d="M116.856 37.0273L116.636 37.1551L85.2884 55.3969L85.0696 55.5242L53.7211 73.7664L53.5023 73.8938L39.3176 82.1481C39.4873 82.187 39.6544 82.2356 39.8237 82.2759L53.6859 74.2093L53.9047 74.0819L85.2532 55.8397L85.472 55.7124L116.82 37.4706L117.039 37.3428L123.613 33.5176C123.492 33.4464 123.374 33.3742 123.253 33.3044L116.856 37.0273Z" fill="url(#paint15_linear)"/>
<path d="M113.182 30.714L112.962 30.8419L81.6147 49.0836L81.3959 49.2109L50.0474 67.4532L49.8286 67.5805L26.1423 81.364C26.2222 81.4587 26.3002 81.5544 26.38 81.6492L50.0127 67.8969L50.2315 67.7696L81.58 49.5273L81.7988 49.4L113.146 31.1582L113.366 31.0304L116.097 29.4415C115.966 29.3765 115.836 29.3109 115.705 29.2458L113.182 30.714Z" fill="url(#paint16_linear)"/>
<path d="M155.192 69.6523L140.736 78.0646L140.517 78.1924L109.169 96.4342L108.95 96.5615L82.3621 112.034C82.4542 112.121 82.5463 112.209 82.637 112.296L109.134 96.877L109.352 96.7497L140.7 78.5079L140.92 78.3801L155.334 69.9923C155.287 69.8795 155.24 69.7659 155.192 69.6523Z" fill="url(#paint17_linear)"/>
<path d="M137.062 71.7512L136.842 71.879L105.495 90.1208L105.276 90.2481L76.8953 106.763C76.9865 106.851 77.0778 106.94 77.169 107.028L105.46 90.5645L105.679 90.4371L137.027 72.1954L137.246 72.0676L152.228 63.3494C152.171 63.2414 152.114 63.1334 152.057 63.0254L137.062 71.7512Z" fill="url(#paint18_linear)"/>
<path d="M133.388 65.438L133.169 65.5658L101.821 83.8076L101.602 83.9349L71.3733 101.526C71.4672 101.612 71.5602 101.699 71.6541 101.786L101.786 84.2513L102.005 84.1239L133.353 65.8822L133.572 65.7543L148.51 57.0618C148.444 56.9594 148.378 56.8565 148.31 56.7546L133.388 65.438Z" fill="url(#paint19_linear)"/>
<path d="M129.715 59.1247L129.495 59.2525L98.1474 77.4943L97.9285 77.6216L66.5801 95.8639L66.3612 95.9912L65.5923 96.4387C65.6914 96.5221 65.7906 96.6056 65.8897 96.6891L66.5453 96.3076L66.7642 96.1802L98.1126 77.938L98.3315 77.8106L129.679 59.5689L129.899 59.441L144.181 51.13C144.104 51.0337 144.028 50.9364 143.949 50.8412L129.715 59.1247Z" fill="url(#paint20_linear)"/>
<path d="M126.041 52.8114L125.821 52.9393L94.4735 71.181L94.2546 71.3083L62.9062 89.5506L62.6873 89.6779L59.3479 91.6212C59.4562 91.6981 59.5629 91.7784 59.6712 91.8554L62.8709 89.9934L63.0897 89.8661L94.4382 71.6238L94.657 71.4965L126.005 53.2547L126.224 53.1269L139.213 45.5686C139.124 45.479 139.033 45.3909 138.944 45.3027L126.041 52.8114Z" fill="url(#paint21_linear)"/>
<path d="M138.899 74.908L138.679 75.0359L107.332 93.2776L107.113 93.4049L79.6233 109.402C79.7145 109.49 79.8058 109.578 79.897 109.666L107.297 93.7213L107.516 93.594L138.863 75.3522L139.083 75.2244L153.858 66.6264C153.807 66.5153 153.754 66.4048 153.702 66.2937L138.899 74.908Z" fill="url(#paint22_linear)"/>
<path d="M135.225 68.5946L135.006 68.7225L103.658 86.9642L103.439 87.0915L74.1543 104.133C74.2464 104.221 74.3389 104.307 74.4316 104.395L103.623 87.4079L103.842 87.2806L135.19 69.0388L135.41 68.911L150.446 60.1611C150.384 60.0562 150.322 59.9507 150.26 59.8458L135.225 68.5946Z" fill="url(#paint23_linear)"/>
<path d="M131.552 62.2813L131.332 62.4092L99.9843 80.6509L99.7654 80.7782L68.5286 98.9555C68.6251 99.0405 68.7228 99.1236 68.8199 99.2095L99.9495 81.0946L100.168 80.9673L131.516 62.7255L131.736 62.5977L146.423 54.0508C146.351 53.9515 146.281 53.8512 146.207 53.7529L131.552 62.2813Z" fill="url(#paint24_linear)"/>
<path d="M127.878 55.9681L127.658 56.096L96.3103 74.3377L96.0914 74.4651L64.7429 92.7073L64.5241 92.8347L62.5398 93.9894C62.6433 94.0703 62.7499 94.1483 62.854 94.2301L64.7082 93.151L64.927 93.0237L96.2755 74.7814L96.4944 74.6541L127.842 56.4124L128.062 56.2845L141.781 48.3012C141.697 48.2086 141.614 48.1159 141.53 48.0237L127.878 55.9681Z" fill="url(#paint25_linear)"/>
<path d="M124.204 49.6548L123.984 49.7826L92.6367 68.0244L92.4179 68.1517L61.0694 86.394L60.8506 86.5213L55.9653 89.3641C56.0821 89.4373 56.1974 89.5102 56.3133 89.584L61.0342 86.8368L61.253 86.7095L92.6015 68.4672L92.8203 68.3399L124.168 50.0981L124.388 49.9703L136.472 42.9382C136.377 42.8522 136.282 42.7675 136.186 42.682L124.204 49.6548Z" fill="url(#paint26_linear)"/>
<path d="M155.432 103.319L155.212 103.446L123.864 121.688L123.646 121.816L107.833 131.017C107.969 131.079 108.104 131.142 108.239 131.203L123.828 122.132L124.047 122.004L155.395 103.762L155.614 103.635L160.52 100.78C160.532 100.633 160.54 100.486 160.551 100.34L155.432 103.319Z" fill="url(#paint27_linear)"/>
<path d="M151.758 97.0053L151.538 97.1331L120.191 115.375L119.972 115.502L100.389 126.898C100.503 126.971 100.615 127.05 100.73 127.122L120.156 115.818L120.374 115.69L151.722 97.4486L151.942 97.3208L160.576 92.2964C160.567 92.1616 160.555 92.0261 160.545 91.8919L151.758 97.0053Z" fill="url(#paint28_linear)"/>
<path d="M148.084 90.692L147.864 90.8198L116.517 109.062L116.298 109.189L93.8887 122.229C93.9913 122.311 94.0931 122.393 94.1962 122.473L116.481 109.505L116.7 109.378L148.047 91.1358L148.267 91.008L159.582 84.4233C159.559 84.2959 159.538 84.1678 159.515 84.0403L148.084 90.692Z" fill="url(#paint29_linear)"/>
<path d="M144.41 84.3778L144.19 84.5056L112.843 102.747L112.624 102.875L87.9595 117.227C88.0551 117.313 88.1508 117.398 88.2459 117.483L112.807 103.19L113.026 103.063L144.374 84.8211L144.594 84.6933L157.805 77.0056C157.769 76.8853 157.731 76.7674 157.695 76.6471L144.41 84.3778Z" fill="url(#paint30_linear)"/>
<path d="M157.269 106.475L157.049 106.603L125.702 124.845L125.483 124.972L112.101 132.759C112.253 132.813 112.405 132.863 112.556 132.917L125.666 125.288L125.885 125.16L157.233 106.919L157.453 106.791L159.928 105.35C159.956 105.194 159.982 105.037 160.009 104.881L157.269 106.475Z" fill="url(#paint31_linear)"/>
<path d="M153.595 100.162L153.375 100.29L122.028 118.531L121.809 118.659L103.949 129.052C104.074 129.12 104.2 129.187 104.324 129.256L121.992 118.975L122.21 118.847L153.558 100.606L153.778 100.478L160.702 96.4486C160.703 96.3068 160.706 96.1649 160.705 96.0242L153.595 100.162Z" fill="url(#paint32_linear)"/>
<path d="M149.921 93.8486L149.702 93.9765L118.354 112.218L118.135 112.346L97.0483 124.616C97.1572 124.694 97.2672 124.77 97.3761 124.848L118.319 112.661L118.538 112.534L149.885 94.292L150.105 94.1641L160.186 88.2975C160.169 88.1665 160.154 88.0353 160.136 87.9043L149.921 93.8486Z" fill="url(#paint33_linear)"/>
<path d="M146.247 87.5354L146.028 87.6632L114.68 105.905L114.461 106.032L90.8638 119.764C90.9629 119.848 91.0642 119.929 91.1634 120.012L114.645 106.348L114.864 106.22L146.211 87.9787L146.431 87.8509L158.787 80.6608C158.757 80.5369 158.726 80.4149 158.696 80.2916L146.247 87.5354Z" fill="url(#paint34_linear)"/>
<path d="M142.573 81.222L142.354 81.3499L111.006 99.5916L110.787 99.719L85.1309 114.649C85.2247 114.735 85.3177 114.823 85.4116 114.909L110.972 100.035L111.191 99.9075L142.539 81.6658L142.758 81.5379L156.652 73.4529C156.611 73.3356 156.568 73.2194 156.526 73.1027L142.573 81.222Z" fill="url(#paint35_linear)"/>
<path d="M158.931 109.734L158.886 109.76L127.538 128.001L127.32 128.129L116.878 134.205C117.049 134.248 117.223 134.287 117.396 134.327L127.504 128.445L127.722 128.318L158.784 110.242C158.834 110.072 158.883 109.904 158.931 109.734Z" fill="url(#paint36_linear)"/>
<path d="M130.993 134.442L129.311 135.421C129.59 135.404 129.868 135.383 130.147 135.358L131.178 134.758L131.396 134.631L153.101 122.001C153.272 121.763 153.442 121.524 153.608 121.283L131.212 134.315L130.993 134.442Z" fill="url(#paint37_linear)"/>
<path d="M129.157 131.286L122.405 135.215C122.607 135.239 122.808 135.265 123.01 135.286L129.341 131.602L129.559 131.475L156.79 115.629C156.875 115.441 156.954 115.251 157.036 115.063L129.376 131.159L129.157 131.286Z" fill="url(#paint38_linear)"/>
<path d="M39.5216 5.968L27.214 13.13C26.7459 13.5283 26.2847 13.9367 25.8342 14.3553L41.1947 5.41669C40.6328 5.58721 40.075 5.77069 39.5216 5.968Z" fill="url(#paint39_linear)"/>
<path d="M22.4573 20.5461L22.6762 20.4188L50.9796 3.94848C50.7358 3.948 50.4915 3.94664 50.2485 3.95158L22.4935 20.1028L22.2746 20.2301L19.5047 21.842C19.3555 22.0688 19.2053 22.2938 19.0608 22.5226L22.4573 20.5461Z" fill="url(#paint40_linear)"/>
<path d="M40.8267 52.1134L41.0455 51.986L72.394 33.7438L72.6128 33.6164L95.4009 20.3556C95.2596 20.2967 95.1191 20.2373 94.9786 20.1778L72.4296 33.2996L72.2107 33.4269L40.8623 51.6691L40.6434 51.7965L16.6584 65.7538C16.7048 65.868 16.753 65.9811 16.8003 66.0947L40.8267 52.1134Z" fill="url(#paint41_linear)"/>
<path d="M37.153 45.8L37.3719 45.6727L68.7203 27.4304L68.9392 27.3031L87.0442 16.7675C86.9072 16.706 86.7703 16.6445 86.6333 16.583L68.7559 26.9862L68.5371 27.1136L37.1886 45.3558L36.9698 45.4831L14.332 58.6565C14.3635 58.7794 14.3985 58.9002 14.4299 59.023L37.153 45.8Z" fill="url(#paint42_linear)"/>
<path d="M33.479 39.4868L33.6978 39.3594L65.0463 21.1172L65.2651 20.9899L79.0262 12.982C78.8945 12.9175 78.7637 12.8524 78.6326 12.7888L65.0824 20.6739L64.8636 20.8012L33.5151 39.0434L33.2963 39.1708L12.9705 50.9987C12.9845 51.1318 12.9952 51.2655 13.01 51.398L33.479 39.4868Z" fill="url(#paint43_linear)"/>
<path d="M29.8053 33.1734L30.0241 33.0461L61.3726 14.8038L61.5914 14.6765L71.0604 9.16628C70.9244 9.10429 70.7883 9.0423 70.6528 8.98119L61.4078 14.361L61.189 14.4883L29.8405 32.7306L29.6217 32.8579L12.7918 42.6515C12.7824 42.797 12.7734 42.9434 12.7654 43.0892L29.8053 33.1734Z" fill="url(#paint44_linear)"/>
<path d="M26.1309 26.8593L26.3497 26.732L57.6982 8.48973L57.917 8.36239L62.3321 5.79318C62.1718 5.74412 62.0104 5.69922 61.8489 5.65207L57.7334 8.0469L57.5146 8.17424L26.1661 26.4165L25.9473 26.5438L14.3516 33.2916C14.3047 33.4577 14.262 33.6249 14.217 33.7922L26.1309 26.8593Z" fill="url(#paint45_linear)"/>
<path d="M38.9896 48.9567L39.2084 48.8293L70.5569 30.5871L70.7757 30.4598L91.192 18.5792C91.0524 18.5192 90.9119 18.4598 90.7732 18.3994L70.5925 30.1429L70.3737 30.2702L39.0252 48.5125L38.8064 48.6398L15.3864 62.2683C15.4249 62.3871 15.4621 62.5054 15.502 62.6246L38.9896 48.9567Z" fill="url(#paint46_linear)"/>
<path d="M35.3161 42.6434L35.535 42.5161L66.8834 24.2738L67.1023 24.1465L82.9865 14.9031C82.8531 14.8396 82.7206 14.7756 82.588 14.7115L66.919 23.8296L66.7002 23.9569L35.3517 42.1992L35.1329 42.3265L13.5233 54.9016C13.5469 55.029 13.5699 55.1556 13.594 55.2839L35.3161 42.6434Z" fill="url(#paint47_linear)"/>
<path d="M31.6422 36.3302L31.861 36.2028L63.2095 17.9606L63.4283 17.8332L75.0811 11.0522C74.9486 10.9882 74.816 10.9242 74.684 10.861L63.2456 17.5172L63.0267 17.6446L31.6783 35.8868L31.4594 36.0142L12.7094 46.9251C12.7128 47.0644 12.7147 47.2032 12.719 47.3419L31.6422 36.3302Z" fill="url(#paint48_linear)"/>
<path d="M27.9683 30.0168L28.1872 29.8895L59.5357 11.6472L59.7545 11.5199L66.8622 7.38379C66.7173 7.32691 66.5737 7.26814 66.4299 7.21302L59.5709 11.2044L59.3521 11.3317L28.0036 29.574L27.7848 29.7013L13.2978 38.1316C13.273 38.2871 13.2437 38.443 13.2195 38.5995L27.9683 30.0168Z" fill="url(#paint49_linear)"/>
<path d="M24.2947 23.7035L24.5135 23.5762L55.862 5.33396L56.0808 5.20663L57.2303 4.53773C57.0436 4.50401 56.8566 4.47169 56.6706 4.44112L55.8972 4.89114L55.6784 5.01847L24.3299 23.2607L24.1111 23.3881L16.2045 27.989C16.1257 28.1749 16.0468 28.3608 15.9707 28.5474L24.2947 23.7035Z" fill="url(#paint50_linear)"/>
<path d="M46.0443 91.3341L45.8229 91.0406L40.3357 94.2337C40.4463 94.3105 40.5581 94.3854 40.6696 94.4617L46.0443 91.3341Z" fill="url(#paint51_linear)"/>
<path d="M41.6048 85.4663L41.3826 85.1733L34.1052 89.4081C34.2026 89.4926 34.2991 89.5776 34.3969 89.6607L41.6048 85.4663Z" fill="url(#paint52_linear)"/>
<path d="M44.5003 58.4266L44.7191 58.2993L76.0676 40.057L76.2864 39.9297L103.854 23.8874C103.714 23.828 103.574 23.7681 103.434 23.7086L76.1032 39.6128L75.8844 39.7401L44.5359 57.9824L44.3171 58.1097L19.8522 72.3463C19.9127 72.4522 19.9749 72.5572 20.0363 72.6626L44.5003 58.4266Z" fill="url(#paint53_linear)"/>
<path d="M43.8249 88.3999L43.6027 88.1069L37.1277 91.8748C37.2321 91.9552 37.336 92.0348 37.4405 92.1152L43.8249 88.3999Z" fill="url(#paint54_linear)"/>
<path d="M31.5424 87.0962L39.3839 82.533L39.1625 82.2396L31.2639 86.8359C31.3555 86.9226 31.4503 87.0086 31.5424 87.0962Z" fill="url(#paint55_linear)"/>
<path d="M46.338 61.5841L46.5569 61.4568L77.9053 43.2145L78.1242 43.0872L108.029 25.6852C107.891 25.6242 107.752 25.5637 107.614 25.5033L77.9409 42.7703L77.7221 42.8976L46.3736 61.1399L46.1548 61.2672L21.7603 75.4629C21.8269 75.5652 21.8918 75.6687 21.9593 75.7705L46.338 61.5841Z" fill="url(#paint56_linear)"/>
<path d="M18.3108 69.4425L42.6649 55.2704L42.8838 55.143L74.2322 36.9008L74.4511 36.7735L99.6357 22.1181C99.4943 22.0592 99.353 22.0003 99.2117 21.9413L74.267 36.4571L74.0481 36.5844L42.6997 54.8267L42.4808 54.954L18.1513 69.1118C18.2048 69.2219 18.2565 69.3329 18.3108 69.4425Z" fill="url(#paint57_linear)"/>
<path d="M50.4843 97.2014L50.262 96.9085L47.3435 98.6068C47.4673 98.6759 47.5901 98.7456 47.7143 98.8133L50.4843 97.2014Z" fill="url(#paint58_linear)"/>
<path d="M52.7037 100.136L52.4809 99.8417L51.1575 100.612C51.2883 100.677 51.4182 100.742 51.549 100.808L52.7037 100.136Z" fill="url(#paint59_linear)"/>
<path d="M43.7395 96.4785C43.8562 96.5518 43.9733 96.6236 44.0909 96.6963L48.2644 94.2677L48.0421 93.9748L43.7395 96.4785Z" fill="url(#paint60_linear)"/>
</g>
<path d="M67.0124 90.5334C66.9368 90.6873 65.7118 93.1783 64.3565 95.8415C62.9551 98.591 62.3941 102.257 62.3941 102.257C62.3941 102.257 58.6834 103.846 55.8111 104.579C55.8111 104.579 59.4524 104.946 62.1146 103.846C62.1146 103.846 60.2235 111.055 57.2125 112.307L53.8612 113.498L57.1411 113.621C57.1411 113.621 54.6492 116.431 53.359 118.112C51.1065 121.044 47.4043 122.555 44.4017 123.207C43.994 123.295 43.6012 123.367 43.2251 123.425C40.0733 123.915 42.725 122.175 42.725 122.175C42.725 122.175 39.1424 119.547 41.5231 113.561C43.9037 107.572 45.3052 104.396 45.3052 103.051C45.3052 103.051 46.4251 104.396 46.5659 105.496C46.5659 105.496 46.9168 101.89 49.9278 98.8971C52.9388 95.902 58.4018 94.2524 58.4018 94.2524L57.5614 96.5143C57.5614 96.5143 59.1729 94.5585 60.9946 93.5192C62.602 92.6027 65.9009 91.305 66.7961 90.7203C66.882 90.6715 66.9556 90.6078 67.0124 90.5334Z" fill="#74AEAF"/>
<path opacity="0.68" d="M149.678 99.0798H139.91V124.748H149.678V99.0798Z" fill="#E2E8E6"/>
<path opacity="0.68" d="M149.678 95.825H139.91V97.3044H149.678V95.825Z" fill="#E2E8E6"/>
<path opacity="0.68" d="M135.025 78.0675H113.454V123.521H135.025V78.0675Z" fill="#E2E8E6"/>
<path d="M121.473 98.8596V98.5388C126.937 98.5388 131.383 94.6609 131.383 89.8943H131.75C131.75 94.8378 127.14 98.8596 121.473 98.8596Z" fill="#070C0A"/>
<path d="M83.7339 39.3578C83.7339 42.0613 88.0112 45.6356 95.0501 45.0857C102.089 44.5358 100.881 47.1019 100.881 47.1019L105.714 48.0642C105.714 48.0642 107.815 47.1477 106.974 45.5439C106.134 43.9401 106.501 43.436 108.287 41.5115C110.073 39.5869 108.025 34.2714 102.667 36.5625C102.667 36.5625 99.7087 34.6013 96.1007 33.7808C90.962 32.6123 83.7339 33.5711 83.7339 39.3578Z" fill="#1B1C17"/>
<path d="M110.022 51.6842L103.247 55.8377L102.43 54.7415L101.258 53.1726L99.4631 50.7678L101.846 47.3384L102.405 46.5355L103.088 46.0021L107.382 49.4774L110.022 51.6842Z" fill="#F6C5A7"/>
<path d="M101.257 53.1726L99.4629 50.7678L101.846 47.3384C102.4 46.9608 102.781 46.7042 102.781 46.7042C102.781 46.7042 103.712 50.9034 101.257 53.1726Z" fill="#F0B48D"/>
<path d="M90.7434 43.3175C90.7434 43.3175 92.2665 50.432 96.6882 51.9749C101.11 53.5178 102.78 46.7033 102.78 46.7033C102.78 46.7033 104.795 45.7604 104.058 43.8746C103.321 41.9888 101.159 43.1032 101.208 44.2175C101.208 44.2175 100.913 45.2033 100.324 44.8175C99.7343 44.4318 99.587 41.6031 99.587 41.6031C99.587 41.6031 93.6421 44.0461 90.7434 43.3175Z" fill="#F6C5A7"/>
<path d="M102.371 36.8285C98.1281 32.592 93.042 32.9152 92.9912 32.919L92.9597 32.5994C93.0124 32.595 98.2774 32.2533 102.648 36.6173L102.371 36.8285Z" fill="#1B1C17"/>
<path d="M85.4337 59.0187C85.4337 59.0187 84.3516 57.4886 83.8263 58.2523C83.301 59.016 85.1856 61.2505 85.1856 61.2505C85.1856 61.2505 86.6412 62.1934 86.4674 61.4905C86.3034 60.8275 85.4337 59.0187 85.4337 59.0187Z" fill="#F6C5A7"/>
<path d="M83.3689 65.1563L85.1005 66.0117L87.6434 63.4041L86.1375 60.7878L83.7338 61.0933L83.3689 65.1563Z" fill="#F6C5A7"/>
<path d="M23.3477 94.1134C23.3477 94.1134 24.9235 99.249 24.9235 101.723C24.9235 104.198 26.4994 106.856 26.4994 106.856L32.908 108.459L27.55 108.689C27.55 108.689 28.7056 111.621 30.0714 112.721C31.4372 113.821 33.4333 115.745 34.694 117.212C35.9547 118.678 39.1065 118.403 39.1065 118.403L36.6774 119.87C36.6774 119.87 38.5341 120.328 39.8709 121.611C41.2076 122.894 45.6194 122.802 45.6194 122.802C45.6194 122.802 48.3166 119.167 46.2855 112.996C44.2543 106.825 42.0131 105.237 42.0131 105.237L40.5423 108.459L39.7718 102.976C39.7718 102.976 36.3399 100.776 33.3983 99.7989C30.4566 98.8213 29.1959 97.6605 29.1959 97.6605L29.6862 99.6767C28.7769 98.833 27.9997 97.888 27.3749 96.8662C26.3243 95.1554 23.3477 94.1134 23.3477 94.1134Z" fill="#72A797"/>
<path opacity="0.59" d="M25.5539 81.0418C25.5539 81.0418 29.4558 86.1178 32.2076 88.3125C35.1953 90.6953 32.908 97.1106 32.908 97.1106C32.908 97.1106 35.4994 92.9559 35.4994 91.9173C35.4994 91.9173 38.301 94.3612 38.7913 96.0108C39.2816 97.6605 40.3813 98.3436 39.8709 100.532C39.3604 102.721 40.6123 102.365 41.1726 100.532C41.1726 100.532 42.2932 102.915 43.624 104.381C44.9547 105.848 46.9541 115.273 46.8841 115.456C46.8141 115.64 38.5714 115.374 34.4489 107.436C33.6885 105.972 29.6162 104.381 28.1453 102.915C26.6745 101.449 24.2669 96.5225 23.3477 94.1134L25.7377 94.5292C25.7377 94.5292 23.7076 93.0961 23.7679 91.2146C23.8286 89.3193 26.1142 84.0356 25.5539 81.0418Z" fill="#74AEAF"/>
<path d="M42.7259 130.867H42.7259C40.0893 130.867 38 129.171 37.4248 126.926C37.1147 125.716 36.678 122.161 36.678 122.161H48.7739C48.7739 122.161 48.3371 125.716 48.0271 126.926C47.4519 129.171 45.3626 130.867 42.7259 130.867Z" fill="#D0DBD7"/>
<path d="M85.8926 64.6981L85.1007 66.0117C85.1007 66.0117 84.842 67.2336 86.628 68.7C88.414 70.1663 92.3362 72.7936 92.3362 72.7936L97.0289 72.152L98.2195 68.089C98.2195 68.089 88.4373 62.5902 87.6436 63.4041C87.1394 63.9112 86.5489 64.3477 85.8926 64.6981Z" fill="#2E67BB"/>
<path d="M97.0637 75.4208C97.0637 75.4208 102.247 79.4765 105.468 77.6319C108.69 75.7874 102.947 70.1664 102.947 70.1664L97.0637 75.4208Z" fill="#BDC7C3"/>
<path d="M94.3409 122.804V126.789H88.6941L87.696 119.824L94.3409 122.804Z" fill="#F6CAAD"/>
<path d="M94.4724 122.804H85.6475L83.83 115.016L81.6553 105.706V102.548L90.3751 97.449L90.5243 98.3673L90.7428 99.7237L94.4724 122.804Z" fill="#B4895C"/>
<path d="M91.6526 97.449L90.7428 99.7237L83.83 115.016L81.6553 105.706V105.586L90.5243 98.3673L91.6526 97.449Z" fill="#96734D"/>
<path d="M94.3094 126.789C94.3094 126.789 94.6772 129.309 94.3094 130.867H90.5273C90.5273 130.867 90.0546 129.673 89.1616 130.064C88.2686 130.455 87.218 130.867 84.7491 130.867H79.0616C79.0616 130.867 78.2089 130.98 78.6615 130.064C79.1141 129.147 85.1226 128.164 88.6946 126.789H94.3094Z" fill="#CC9F66"/>
<path d="M65.8972 120.236L62.9023 126.789H69.0482L73.1981 120.465L65.8972 120.236Z" fill="#F6CAAD"/>
<path d="M121.767 90.055C121.763 90.1155 121.754 90.1742 121.746 90.2365C121.527 91.756 121.145 92.9621 120.657 93.9299C119.039 97.1595 116.285 97.7405 114.749 98.5159C112.753 99.524 88.6943 100.532 88.6943 100.532L74.2487 122.804H64.7241C64.7241 122.804 76.0653 95.1583 78.5036 93.2022C80.4961 91.6037 95.9602 88.6107 102.241 87.0527C103.825 86.6605 104.804 86.4185 104.804 86.4185C104.804 86.4185 116.07 84.6717 120.248 87.2452C121.286 87.8848 121.884 88.7903 121.767 90.055Z" fill="#CC9F66"/>
<path d="M68.2151 122.876L67.886 122.733C67.9227 122.668 71.6088 116.219 75.3657 109.808C82.9957 96.7877 83.4791 96.6046 83.6612 96.5357C84.6335 96.1675 109.409 91.2229 110.463 91.0127L110.545 91.3254C101.653 93.0992 84.6629 96.5241 83.8149 96.8273C82.984 97.3621 74.0363 112.688 68.2151 122.876Z" fill="#96734D"/>
<path d="M121.767 90.055C121.762 90.1155 121.754 90.1741 121.746 90.2365C121.527 91.756 121.145 92.962 120.657 93.9298C119.485 93.9701 117.903 93.8107 115.835 93.2021C111.03 91.7908 104.113 88.081 102.24 87.0527C103.825 86.6604 104.804 86.4185 104.804 86.4185C104.804 86.4185 116.07 84.6717 120.247 87.2451L121.767 90.055Z" fill="#96734D"/>
<path d="M95.208 78.8116H44.6748V80.7277H95.208V78.8116Z" fill="#1B1C17"/>
<path d="M88.1695 81.7902H51.7141V82.4604H88.1695V81.7902Z" fill="#1B1C17"/>
<path d="M51.714 80.5443L46.5662 130.867H47.3016L55.8112 80.5443H51.714Z" fill="#1B1C17"/>
<path d="M88.1693 80.5443L93.3171 130.867H92.5817L84.072 80.5443H88.1693Z" fill="#1B1C17"/>
<path d="M58.6406 67.8039H53.3582V77.8152H58.6406V67.8039Z" fill="#1B1C17"/>
<path d="M73.368 74.4476H44.5819L38.2544 56.3932H67.0404L73.368 74.4476Z" fill="#3060A9"/>
<path opacity="0.26" d="M57.9182 73.5312H45.5563L39.8711 57.3096H52.233L57.9182 73.5312Z" fill="#70AEAB"/>
<path d="M55.7029 71.6065H46.4227L46.3264 71.3316H55.6065L55.7029 71.6065Z" fill="#70AEAB"/>
<path d="M54.9961 69.5903H45.7159L45.6196 69.3153H54.8998L54.9961 69.5903Z" fill="#70AEAB"/>
<path d="M54.2894 67.5741H45.0092L44.9128 67.2991H54.1931L54.2894 67.5741Z" fill="#70AEAB"/>
<path d="M53.5831 65.5578H44.3029L44.2065 65.2829H53.4867L53.5831 65.5578Z" fill="#70AEAB"/>
<path d="M52.8763 63.5416H43.5961L43.4998 63.2667H52.7799L52.8763 63.5416Z" fill="#70AEAB"/>
<path d="M52.1697 61.5254H42.8895L42.7932 61.2505H52.0733L52.1697 61.5254Z" fill="#70AEAB"/>
<path d="M51.4629 59.5091H42.1828L42.0864 59.2343H51.3666L51.4629 59.5091Z" fill="#70AEAB"/>
<path opacity="0.26" d="M71.646 73.5312H59.2841L53.5989 57.3096H65.9608L71.646 73.5312Z" fill="#70AEAB"/>
<path d="M69.4308 71.6065H60.1506L60.0542 71.3316H69.3344L69.4308 71.6065Z" fill="#70AEAB"/>
<path d="M68.7239 69.5903H59.4437L59.3474 69.3153H68.6275L68.7239 69.5903Z" fill="#70AEAB"/>
<path d="M68.0171 67.5741H58.737L58.6406 67.2991H67.9208L68.0171 67.5741Z" fill="#70AEAB"/>
<path d="M67.3104 65.5578H58.0302L57.9338 65.2829H67.214L67.3104 65.5578Z" fill="#70AEAB"/>
<path d="M66.6041 63.5416H57.3239L57.2275 63.2667H66.5077L66.6041 63.5416Z" fill="#70AEAB"/>
<path d="M65.8978 61.5254H56.6176L56.5212 61.2505H65.8014L65.8978 61.5254Z" fill="#70AEAB"/>
<path d="M65.1908 59.5091H55.9106L55.8142 59.2343H65.0944L65.1908 59.5091Z" fill="#70AEAB"/>
<path d="M65.6563 78.8918H53.3582V77.7331H64.3281C64.6804 77.7331 65.0182 77.8552 65.2673 78.0725C65.5163 78.2897 65.6563 78.5845 65.6563 78.8918Z" fill="#1B1C17"/>
<path d="M125.15 101.723C125.149 102.574 124.761 103.389 124.072 103.991C123.383 104.592 122.448 104.93 121.473 104.931H102.001C101.133 104.931 100.293 104.662 99.6302 104.174C98.9669 103.686 98.523 103.008 98.3768 102.262C98.3412 102.084 98.3236 101.904 98.3242 101.723C98.325 100.873 98.7127 100.057 99.4021 99.4559C100.092 98.8545 101.026 98.5163 102.001 98.5156H121.473C122.448 98.5167 123.382 98.855 124.072 99.4563C124.761 100.058 125.149 100.873 125.15 101.723Z" fill="#6FACA7"/>
<path d="M134.823 69.8022H134.823C135.798 69.8022 136.734 70.1401 137.423 70.7416C138.113 71.3432 138.5 72.1591 138.5 73.0098V89.9949C138.5 90.8457 138.113 91.6615 137.423 92.2631C136.734 92.8646 135.798 93.2026 134.823 93.2026C133.848 93.2026 132.913 92.8646 132.223 92.2631C131.533 91.6615 131.146 90.8457 131.146 89.9949V73.0098C131.146 72.1591 131.533 71.3432 132.223 70.7416C132.913 70.1401 133.848 69.8022 134.823 69.8022Z" fill="#6FACA7"/>
<path d="M120.422 104.931H119.056V127.385H120.422V104.931Z" fill="#1B1C17"/>
<path d="M120.422 127.385H106.064V128.576H120.422V127.385Z" fill="#1B1C17"/>
<path d="M121.745 104.931H117.733V110.613H121.745V104.931Z" fill="#1B1C17"/>
<path d="M106.956 130.545C107.448 130.116 107.448 129.419 106.956 128.99C106.463 128.56 105.665 128.56 105.173 128.99C104.68 129.419 104.68 130.116 105.173 130.545C105.665 130.975 106.463 130.975 106.956 130.545Z" fill="#1B1C17"/>
<path d="M121.649 130.02C121.809 129.429 121.39 128.837 120.712 128.697C120.034 128.558 119.355 128.924 119.195 129.515C119.035 130.106 119.455 130.698 120.133 130.838C120.81 130.977 121.489 130.611 121.649 130.02Z" fill="#1B1C17"/>
<path d="M69.06 126.789C69.06 126.789 69.4016 129.309 69.06 130.867H65.5465C65.5465 130.867 65.1073 129.673 64.2777 130.064C63.4481 130.455 62.4721 130.867 60.1785 130.867H54.1273C54.1273 130.867 53.3351 130.98 53.7556 130.064C54.1761 129.147 59.5441 128.164 62.8625 126.789H69.06Z" fill="#CC9F66"/>
<path d="M110.021 51.6843L103.247 55.8376L102.43 54.7415C103.117 53.2642 104.655 50.6798 107.382 49.4774L110.021 51.6843Z" fill="#F8F4F3"/>
<path d="M125.149 90.7258C125.149 90.7258 121.472 93.6585 113.488 90.7258C105.504 87.7931 102.667 86.9463 102.667 86.9463C102.667 86.9463 102.568 85.9015 102.43 84.1951L102.427 84.1932C102.213 81.5282 101.902 77.2519 101.728 72.829C101.461 66.1131 101.505 59.0636 102.667 56.8165C105.083 52.1425 110.021 51.6842 110.021 51.6842C117.165 55.3501 120.947 67.6308 121.781 76.154C122.615 84.6771 125.149 90.7258 125.149 90.7258Z" fill="#4C85DA"/>
<path d="M108.919 75.1763C107.679 78.6588 102.43 84.195 102.43 84.195L102.428 84.1931C102.214 81.5281 101.903 77.2518 101.728 72.8289L111.192 59.6447C111.192 59.6447 110.442 70.8995 108.919 75.1763Z" fill="#295FB0"/>
<path d="M77.5145 76.6485L78.1147 78.8117C78.1147 78.8117 98.1145 79.5754 102.667 76.2762C107.22 72.9769 114.087 59.3956 109.881 56.3932C105.675 53.3907 101.687 59.2298 100.216 62.9568C98.7449 66.6838 96.0834 70.7861 94.4725 71.3316C92.8616 71.8771 77.3057 75.8197 77.5145 76.6485Z" fill="#4C85DA"/>
<path d="M84.5946 66.5659H79.6919L78.5713 56.4848H85.7153L84.5946 66.5659Z" fill="#FE707C"/>
<path d="M85.6082 61.8003H83.3694V61.2504H85.6082C86.0593 61.2504 86.492 61.0941 86.811 60.8158C87.13 60.5376 87.3092 60.1602 87.3092 59.7666C87.3092 59.3731 87.13 58.9957 86.811 58.7174C86.492 58.4392 86.0593 58.2828 85.6082 58.2828H84.6826V57.7329H85.6082C86.2265 57.7329 86.8195 57.9472 87.2567 58.3286C87.6939 58.71 87.9395 59.2273 87.9395 59.7666C87.9395 60.306 87.6939 60.8233 87.2567 61.2047C86.8195 61.586 86.2265 61.8003 85.6082 61.8003Z" fill="#FE707C"/>
<path d="M78.9084 59.5091C78.9084 59.5091 78.2591 60.1769 78.154 60.9406C78.0489 61.7043 78.0703 62.952 79.3728 63.6876C80.6754 64.4231 82.2512 63.8733 81.3057 62.3764C80.3602 60.8795 79.0916 59.2932 78.9084 59.5091Z" fill="#F6C5A7"/>
<path d="M72.0971 27.6731C76.1589 24.1299 76.1589 18.3851 72.0971 14.8419C68.0354 11.2987 61.4499 11.2987 57.3882 14.8419C53.3264 18.3851 53.3264 24.1299 57.3882 27.6731C61.4499 31.2164 68.0354 31.2164 72.0971 27.6731Z" fill="#4C85DA"/>
<path d="M70.8466 26.5825C74.2179 23.6416 74.2179 18.8734 70.8466 15.9326C67.4754 12.9917 62.0094 12.9917 58.6382 15.9326C55.2669 18.8734 55.2669 23.6416 58.6382 26.5825C62.0094 29.5234 67.4754 29.5233 70.8466 26.5825Z" fill="white"/>
<path d="M65.1402 21.6046C65.3598 21.4129 65.3598 21.1022 65.1402 20.9105C64.9205 20.7189 64.5643 20.7189 64.3446 20.9105C64.1249 21.1022 64.1249 21.4129 64.3446 21.6046C64.5643 21.7962 64.9205 21.7962 65.1402 21.6046Z" fill="#4C85DA"/>
<path d="M64.7425 16.4919C64.7104 16.4919 64.6787 16.4863 64.6491 16.4757C64.6195 16.465 64.5926 16.4493 64.57 16.4295C64.5473 16.4098 64.5294 16.3863 64.5171 16.3605C64.5048 16.3347 64.4985 16.307 64.4985 16.2791V14.6884C64.4985 14.6605 64.5048 14.6328 64.5171 14.607C64.5294 14.5812 64.5473 14.5577 64.57 14.5379C64.5926 14.5182 64.6195 14.5025 64.6491 14.4918C64.6787 14.4811 64.7104 14.4756 64.7425 14.4756C64.7745 14.4756 64.8062 14.4811 64.8358 14.4918C64.8654 14.5025 64.8923 14.5182 64.9149 14.5379C64.9376 14.5577 64.9556 14.5812 64.9678 14.607C64.9801 14.6328 64.9864 14.6605 64.9864 14.6884V16.2791C64.9864 16.307 64.9801 16.3347 64.9678 16.3605C64.9556 16.3863 64.9376 16.4098 64.9149 16.4295C64.8923 16.4493 64.8654 16.465 64.8358 16.4757C64.8062 16.4863 64.7745 16.4919 64.7425 16.4919Z" fill="#4C85DA"/>
<path d="M64.7425 28.0355C64.7104 28.0355 64.6787 28.03 64.6491 28.0193C64.6195 28.0086 64.5926 27.993 64.57 27.9732C64.5473 27.9534 64.5294 27.93 64.5171 27.9042C64.5048 27.8784 64.4985 27.8507 64.4985 27.8227V26.2321C64.4985 26.2042 64.5048 26.1765 64.5171 26.1507C64.5294 26.1249 64.5473 26.1014 64.57 26.0816C64.5926 26.0619 64.6195 26.0462 64.6491 26.0355C64.6787 26.0248 64.7104 26.0193 64.7425 26.0193C64.8072 26.0193 64.8692 26.0417 64.9149 26.0816C64.9607 26.1215 64.9864 26.1757 64.9864 26.2321V27.8227C64.9864 27.8792 64.9607 27.9333 64.9149 27.9732C64.8692 28.0131 64.8072 28.0355 64.7425 28.0355Z" fill="#4C85DA"/>
<path d="M70.2031 21.2645C70.2032 21.2081 70.2291 21.154 70.2749 21.1142C70.3207 21.0744 70.3828 21.052 70.4475 21.0522L72.271 21.0551C72.3357 21.0552 72.3976 21.0778 72.4433 21.1177C72.489 21.1577 72.5145 21.2119 72.5144 21.2683C72.5143 21.3247 72.4885 21.3788 72.4427 21.4187C72.3968 21.4585 72.3347 21.4808 72.27 21.4807L70.4466 21.4777C70.4146 21.4777 70.3829 21.4721 70.3533 21.4614C70.3237 21.4506 70.2969 21.4349 70.2742 21.4151C70.2516 21.3953 70.2337 21.3718 70.2215 21.346C70.2093 21.3202 70.2031 21.2925 70.2031 21.2645Z" fill="#4C85DA"/>
<path d="M56.97 21.2429C56.9701 21.1865 56.9959 21.1324 57.0417 21.0926C57.0876 21.0528 57.1497 21.0304 57.2144 21.0305L59.0378 21.0335C59.1025 21.0336 59.1645 21.0561 59.2102 21.0961C59.2559 21.1361 59.2814 21.1903 59.2813 21.2467C59.2813 21.2746 59.2749 21.3023 59.2626 21.3281C59.2503 21.3539 59.2322 21.3773 59.2096 21.397C59.1869 21.4168 59.1599 21.4324 59.1303 21.443C59.1007 21.4537 59.069 21.4591 59.0369 21.4591L57.2134 21.4561C57.1487 21.456 57.0868 21.4335 57.0411 21.3935C56.9954 21.3535 56.9699 21.2994 56.97 21.2429Z" fill="#4C85DA"/>
<path d="M64.7423 24.8088C64.7147 24.8088 64.6874 24.8041 64.6619 24.7949C64.6364 24.7857 64.6133 24.7722 64.5938 24.7551C64.5742 24.7381 64.5588 24.7179 64.5482 24.6957C64.5377 24.6734 64.5322 24.6496 64.5322 24.6255V21.2061L67.7922 16.5341C67.8065 16.5135 67.8253 16.4956 67.8476 16.4813C67.8699 16.4671 67.8952 16.4568 67.922 16.4511C67.9488 16.4454 67.9766 16.4444 68.0039 16.448C68.0312 16.4517 68.0574 16.4601 68.081 16.4726C68.1046 16.4851 68.1251 16.5015 68.1414 16.521C68.1577 16.5404 68.1694 16.5625 68.1759 16.5859C68.1825 16.6093 68.1836 16.6336 68.1794 16.6574C68.1751 16.6812 68.1656 16.704 68.1512 16.7246L64.9525 21.3089V24.6255C64.9525 24.6496 64.947 24.6734 64.9365 24.6957C64.9259 24.7179 64.9104 24.7381 64.8909 24.7551C64.8714 24.7722 64.8483 24.7857 64.8228 24.7949C64.7973 24.8041 64.7699 24.8088 64.7423 24.8088Z" fill="#4C85DA"/>
<path d="M86.9682 106.976L86.8479 106.997L90.4198 122.814L90.5402 122.794L86.9682 106.976Z" fill="#96734D"/>
<path d="M82.1448 67.0695C83.4992 67.0695 84.5972 66.844 84.5972 66.566C84.5972 66.2879 83.4992 66.0624 82.1448 66.0624C80.7904 66.0624 79.6924 66.2879 79.6924 66.566C79.6924 66.844 80.7904 67.0695 82.1448 67.0695Z" fill="#FE707C"/>
<path d="M77.5149 76.6485C77.5149 76.6485 74.4155 76.7268 73.1811 77.0704C71.9467 77.4141 70.8356 78.791 71.2025 78.8118C72.5508 78.8883 73.158 78.2161 74.3208 78.3764C75.4836 78.5368 77.3847 78.8118 78.1151 78.8118L77.5149 76.6485Z" fill="#F6C5A7"/>
<path d="M125.15 101.723C125.149 102.574 124.761 103.389 124.072 103.991C123.382 104.592 122.448 104.93 121.473 104.931H102.001C101.133 104.931 100.293 104.663 99.6301 104.174C98.9669 103.686 98.5229 103.009 98.3767 102.262C99.3349 102.592 113.175 107.189 124.37 99.7513C124.877 100.314 125.151 101.008 125.15 101.723Z" fill="#4F8D88"/>
<mask id="path-137-inside-1" fill="white">
<path d="M99.9187 23.2925H88.7632V18.2255C88.7636 18.0591 88.8021 17.8945 88.8766 17.7413C88.951 17.5881 89.0599 17.4495 89.1966 17.3335L90.0787 16.5887L90.1465 16.6499L89.2645 17.3947C89.1371 17.5027 89.0357 17.6318 88.9664 17.7745C88.8971 17.9172 88.8611 18.0705 88.8608 18.2255V23.2074H99.8211V18.2255C99.8209 18.0706 99.7852 17.9173 99.716 17.7746C99.6468 17.6319 99.5457 17.5027 99.4184 17.3947L98.5354 16.6499L98.6032 16.5887L99.4862 17.3335C99.6229 17.4495 99.7315 17.5882 99.8058 17.7414C99.8801 17.8946 99.9185 18.0592 99.9187 18.2255V23.2925Z"/>
</mask>
<path d="M99.9187 23.2925H88.7632V18.2255C88.7636 18.0591 88.8021 17.8945 88.8766 17.7413C88.951 17.5881 89.0599 17.4495 89.1966 17.3335L90.0787 16.5887L90.1465 16.6499L89.2645 17.3947C89.1371 17.5027 89.0357 17.6318 88.9664 17.7745C88.8971 17.9172 88.8611 18.0705 88.8608 18.2255V23.2074H99.8211V18.2255C99.8209 18.0706 99.7852 17.9173 99.716 17.7746C99.6468 17.6319 99.5457 17.5027 99.4184 17.3947L98.5354 16.6499L98.6032 16.5887L99.4862 17.3335C99.6229 17.4495 99.7315 17.5882 99.8058 17.7414C99.8801 17.8946 99.9185 18.0592 99.9187 18.2255V23.2925Z" fill="#70A794"/>
<path d="M99.9187 23.2925V24.2925H100.919V23.2925H99.9187ZM88.7632 23.2925H87.7632V24.2925H88.7632V23.2925ZM88.7632 18.2255L87.7632 18.2231V18.2255H88.7632ZM89.1966 17.3335L88.5515 16.5695L88.55 16.5707L89.1966 17.3335ZM90.0787 16.5887L90.7482 15.846L90.1002 15.2618L89.4335 15.8247L90.0787 16.5887ZM90.1465 16.6499L90.7917 17.414L91.6674 16.6746L90.8161 15.9072L90.1465 16.6499ZM89.2645 17.3947L88.6194 16.6306L88.6179 16.6319L89.2645 17.3947ZM88.8608 18.2255L87.8608 18.223V18.2255H88.8608ZM88.8608 23.2074H87.8608V24.2074H88.8608V23.2074ZM99.8211 23.2074V24.2074H100.821V23.2074H99.8211ZM99.8211 18.2255H100.821L100.821 18.2241L99.8211 18.2255ZM99.4184 17.3947L100.066 16.6324L100.063 16.6303L99.4184 17.3947ZM98.5354 16.6499L97.8655 15.9074L97.0144 16.6753L97.8906 17.4143L98.5354 16.6499ZM98.6032 16.5887L99.2479 15.8243L98.5811 15.2619L97.9334 15.8462L98.6032 16.5887ZM99.4862 17.3335L100.133 16.5712L100.131 16.5691L99.4862 17.3335ZM99.9187 18.2255H100.919L100.919 18.224L99.9187 18.2255ZM99.9187 22.2925H88.7632V24.2925H99.9187V22.2925ZM89.7632 23.2925V18.2255H87.7632V23.2925H89.7632ZM89.7632 18.2279C89.7632 18.2158 89.7658 18.1994 89.776 18.1784L87.9772 17.3042C87.8385 17.5896 87.764 17.9024 87.7632 18.2231L89.7632 18.2279ZM89.776 18.1784C89.7865 18.1567 89.8067 18.1273 89.8432 18.0964L88.55 16.5707C88.313 16.7716 88.1155 17.0195 87.9772 17.3042L89.776 18.1784ZM89.8418 18.0976L90.7238 17.3528L89.4335 15.8247L88.5515 16.5695L89.8418 18.0976ZM89.4091 17.3315L89.477 17.3927L90.8161 15.9072L90.7482 15.846L89.4091 17.3315ZM89.5014 15.8859L88.6194 16.6306L89.9096 18.1588L90.7917 17.414L89.5014 15.8859ZM88.6179 16.6319C88.3902 16.8249 88.2002 17.0632 88.067 17.3374L89.8658 18.2116C89.8712 18.2004 89.884 18.1805 89.9111 18.1575L88.6179 16.6319ZM88.067 17.3374C87.9334 17.6123 87.8615 17.9138 87.8608 18.223L89.8608 18.228C89.8608 18.2271 89.8608 18.2257 89.8614 18.2235C89.8619 18.2212 89.8631 18.2172 89.8658 18.2116L88.067 17.3374ZM87.8608 18.2255V23.2074H89.8608V18.2255H87.8608ZM88.8608 24.2074H99.8211V22.2074H88.8608V24.2074ZM100.821 23.2074V18.2255H98.8211V23.2074H100.821ZM100.821 18.2241C100.821 17.9149 100.749 17.6133 100.616 17.3384L98.8162 18.2108C98.8189 18.2164 98.82 18.2203 98.8205 18.2225C98.8211 18.2247 98.8211 18.2261 98.8211 18.2269L100.821 18.2241ZM100.616 17.3384C100.483 17.0641 100.293 16.8256 100.066 16.6324L98.7711 18.157C98.7982 18.1799 98.8108 18.1997 98.8162 18.2108L100.616 17.3384ZM100.063 16.6303L99.1801 15.8855L97.8906 17.4143L98.7737 18.1591L100.063 16.6303ZM99.2052 17.3924L99.273 17.3313L97.9334 15.8462L97.8655 15.9074L99.2052 17.3924ZM97.9585 17.3532L98.8415 18.0979L100.131 16.5691L99.2479 15.8243L97.9585 17.3532ZM98.839 18.0958C98.8754 18.1268 98.8955 18.1561 98.906 18.1777L100.706 17.3051C100.568 17.0203 100.37 16.7723 100.133 16.5712L98.839 18.0958ZM98.906 18.1777C98.9161 18.1986 98.9187 18.2149 98.9187 18.227L100.919 18.224C100.918 17.9035 100.844 17.5905 100.706 17.3051L98.906 18.1777ZM98.9187 18.2255V23.2925H100.919V18.2255H98.9187Z" fill="white" mask="url(#path-137-inside-1)"/>
<mask id="path-139-inside-2" fill="white">
<path d="M95.5676 14.145L95.2017 13.836C95.0334 13.693 94.8217 13.595 94.5917 13.5535C94.3616 13.5121 94.1228 13.5288 93.9033 13.6018C93.7379 13.6579 93.5875 13.7432 93.4615 13.8523L93.1153 14.145L93.0474 14.0838L93.3937 13.791C93.5294 13.6738 93.6912 13.5823 93.8692 13.522C94.106 13.4433 94.3636 13.4252 94.6117 13.47C94.8598 13.5148 95.0881 13.6206 95.2696 13.7748L95.6354 14.0838L95.5676 14.145Z"/>
</mask>
<path d="M95.5676 14.145L95.2017 13.836C95.0334 13.693 94.8217 13.595 94.5917 13.5535C94.3616 13.5121 94.1228 13.5288 93.9033 13.6018C93.7379 13.6579 93.5875 13.7432 93.4615 13.8523L93.1153 14.145L93.0474 14.0838L93.3937 13.791C93.5294 13.6738 93.6912 13.5823 93.8692 13.522C94.106 13.4433 94.3636 13.4252 94.6117 13.47C94.8598 13.5148 95.0881 13.6206 95.2696 13.7748L95.6354 14.0838L95.5676 14.145Z" fill="#70A794"/>
<path d="M95.5676 14.145L94.9224 14.909L95.5891 15.4719L96.2371 14.8877L95.5676 14.145ZM95.2017 13.836L94.5543 14.5982L94.5565 14.6L95.2017 13.836ZM93.9033 13.6018L93.5876 12.653L93.5822 12.6548L93.9033 13.6018ZM93.4615 13.8523L94.1071 14.6161L94.1163 14.6081L93.4615 13.8523ZM93.1153 14.145L92.4458 14.8878L93.0942 15.4721L93.7608 14.9087L93.1153 14.145ZM93.0474 14.0838L92.4018 13.32L91.5268 14.0596L92.3779 14.8266L93.0474 14.0838ZM93.3937 13.791L94.0393 14.5548L94.0476 14.5476L93.3937 13.791ZM93.8692 13.522L93.5535 12.5732L93.5488 12.5748L93.8692 13.522ZM95.2696 13.7748L94.6219 14.5368L94.6244 14.5388L95.2696 13.7748ZM95.6354 14.0838L96.305 14.8265L97.1562 14.0592L96.2806 13.3198L95.6354 14.0838ZM96.2128 13.3809L95.8469 13.072L94.5565 14.6L94.9224 14.909L96.2128 13.3809ZM95.8491 13.0738C95.5385 12.81 95.1621 12.6403 94.7692 12.5694L94.4142 14.5377C94.4813 14.5498 94.5283 14.576 94.5543 14.5981L95.8491 13.0738ZM94.7692 12.5694C94.3762 12.4985 93.9677 12.5265 93.5876 12.653L94.219 14.5507C94.2779 14.5311 94.3471 14.5256 94.4142 14.5377L94.7692 12.5694ZM93.5822 12.6548C93.3002 12.7504 93.0352 12.8986 92.8068 13.0964L94.1163 14.6081C94.1397 14.5878 94.1755 14.5655 94.2244 14.5489L93.5822 12.6548ZM92.816 13.0885L92.4697 13.3812L93.7608 14.9087L94.107 14.616L92.816 13.0885ZM93.7847 13.4021L93.7168 13.3409L92.3779 14.8266L92.4458 14.8878L93.7847 13.4021ZM93.6929 14.8475L94.0393 14.5548L92.7482 13.0273L92.4018 13.32L93.6929 14.8475ZM94.0476 14.5476C94.0808 14.519 94.1281 14.4901 94.1896 14.4693L93.5488 12.5748C93.2544 12.6744 92.978 12.8287 92.7399 13.0344L94.0476 14.5476ZM94.1849 14.4709C94.261 14.4456 94.3489 14.4387 94.4341 14.4541L94.7893 12.4859C94.3782 12.4117 93.9509 12.441 93.5535 12.5732L94.1849 14.4709ZM94.4341 14.4541C94.5193 14.4695 94.5828 14.5035 94.622 14.5368L95.9172 13.0129C95.5934 12.7377 95.2004 12.5601 94.7893 12.4859L94.4341 14.4541ZM94.6244 14.5388L94.9902 14.8478L96.2806 13.3198L95.9148 13.0108L94.6244 14.5388ZM94.9659 13.341L94.898 13.4022L96.2371 14.8877L96.305 14.8265L94.9659 13.341Z" fill="white" mask="url(#path-139-inside-2)"/>
<mask id="path-141-inside-3" fill="white">
<path d="M94.3406 21.4278L94.3145 21.4131L88.7854 18.2609L88.8388 18.1896L94.3418 21.3269L99.8446 18.3339L99.8962 18.4061L94.3406 21.4278Z"/>
</mask>
<path d="M94.3406 21.4278L94.3145 21.4131L88.7854 18.2609L88.8388 18.1896L94.3418 21.3269L99.8446 18.3339L99.8962 18.4061L94.3406 21.4278Z" fill="#70A794"/>
<path d="M94.3406 21.4278L93.8473 22.2977L94.3304 22.5717L94.8184 22.3063L94.3406 21.4278ZM94.3145 21.4131L93.8193 22.2818L93.8212 22.2829L94.3145 21.4131ZM88.7854 18.2609L87.9847 17.6619L87.3063 18.5688L88.2901 19.1297L88.7854 18.2609ZM88.8388 18.1896L89.334 17.3209L88.5669 16.8836L88.038 17.5906L88.8388 18.1896ZM94.3418 21.3269L93.8466 22.1957L94.3304 22.4715L94.8197 22.2054L94.3418 21.3269ZM99.8446 18.3339L100.658 17.7523L100.144 17.0328L99.3667 17.4554L99.8446 18.3339ZM99.8962 18.4061L100.374 19.2845L101.367 18.7443L100.71 17.8245L99.8962 18.4061ZM94.834 20.558L94.8079 20.5432L93.8212 22.2829L93.8473 22.2977L94.834 20.558ZM94.8098 20.5443L89.2807 17.3922L88.2901 19.1297L93.8193 22.2818L94.8098 20.5443ZM89.5861 18.86L89.6395 18.7886L88.038 17.5906L87.9847 17.6619L89.5861 18.86ZM88.3435 19.0583L93.8466 22.1957L94.8371 20.4582L89.334 17.3209L88.3435 19.0583ZM94.8197 22.2054L100.322 19.2123L99.3667 17.4554L93.864 20.4485L94.8197 22.2054ZM99.0311 18.9154L99.0827 18.9876L100.71 17.8245L100.658 17.7523L99.0311 18.9154ZM99.4184 17.5276L93.8628 20.5494L94.8184 22.3063L100.374 19.2845L99.4184 17.5276Z" fill="white" mask="url(#path-141-inside-3)"/>
<mask id="path-143-inside-4" fill="white">
<path d="M98.6181 19.0776H98.5205V14.1569H90.1616V18.9669H90.064V14.0718H98.6181V19.0776Z"/>
</mask>
<path d="M98.6181 19.0776H98.5205V14.1569H90.1616V18.9669H90.064V14.0718H98.6181V19.0776Z" fill="#70A794"/>
<path d="M98.6181 19.0776V20.0776H99.6181V19.0776H98.6181ZM98.5205 19.0776H97.5205V20.0776H98.5205V19.0776ZM98.5205 14.1569H99.5205V13.1569H98.5205V14.1569ZM90.1616 14.1569V13.1569H89.1616V14.1569H90.1616ZM90.1616 18.9669V19.9669H91.1616V18.9669H90.1616ZM90.064 18.9669H89.064V19.9669H90.064V18.9669ZM90.064 14.0718V13.0718H89.064V14.0718H90.064ZM98.6181 14.0718H99.6181V13.0718H98.6181V14.0718ZM98.6181 18.0776H98.5205V20.0776H98.6181V18.0776ZM99.5205 19.0776V14.1569H97.5205V19.0776H99.5205ZM98.5205 13.1569H90.1616V15.1569H98.5205V13.1569ZM89.1616 14.1569V18.9669H91.1616V14.1569H89.1616ZM90.1616 17.9669H90.064V19.9669H90.1616V17.9669ZM91.064 18.9669V14.0718H89.064V18.9669H91.064ZM90.064 15.0718H98.6181V13.0718H90.064V15.0718ZM97.6181 14.0718V19.0776H99.6181V14.0718H97.6181Z" fill="white" mask="url(#path-143-inside-4)"/>
<mask id="path-145-inside-5" fill="white">
<path d="M94.3143 21.3426L91.126 23.2141L91.1805 23.2848L94.3688 21.4133L94.3143 21.3426Z"/>
</mask>
<path d="M94.3143 21.3426L91.126 23.2141L91.1805 23.2848L94.3688 21.4133L94.3143 21.3426Z" fill="#70A794"/>
<path d="M91.126 23.2141L90.5152 22.4223L89.6528 22.9285L90.2636 23.7203L91.126 23.2141ZM94.3143 21.3426L95.1767 20.8364L94.5659 20.0446L93.7035 20.5508L94.3143 21.3426ZM94.3688 21.4133L94.9796 22.2051L95.842 21.6988L95.2312 20.907L94.3688 21.4133ZM91.1805 23.2848L90.3181 23.791L90.9289 24.5828L91.7913 24.0766L91.1805 23.2848ZM91.7368 24.0059L94.9251 22.1344L93.7035 20.5508L90.5152 22.4223L91.7368 24.0059ZM93.4519 21.8488L93.5064 21.9195L95.2312 20.907L95.1767 20.8364L93.4519 21.8488ZM93.758 20.6215L90.5697 22.493L91.7913 24.0766L94.9796 22.2051L93.758 20.6215ZM92.0429 22.7785L91.9884 22.7079L90.2636 23.7203L90.3181 23.791L92.0429 22.7785Z" fill="white" mask="url(#path-145-inside-5)"/>
<mask id="path-147-inside-6" fill="white">
<path d="M96.984 15.7171H91.5686V15.8022H96.984V15.7171Z"/>
</mask>
<path d="M96.984 15.7171H91.5686V15.8022H96.984V15.7171Z" fill="#70A794"/>
<path d="M91.5686 15.7171V14.7171H90.5686V15.7171H91.5686ZM96.984 15.7171H97.984V14.7171H96.984V15.7171ZM96.984 15.8022V16.8022H97.984V15.8022H96.984ZM91.5686 15.8022H90.5686V16.8022H91.5686V15.8022ZM91.5686 16.7171H96.984V14.7171H91.5686V16.7171ZM95.984 15.7171V15.8022H97.984V15.7171H95.984ZM96.984 14.8022H91.5686V16.8022H96.984V14.8022ZM92.5686 15.8022V15.7171H90.5686V15.8022H92.5686Z" fill="white" mask="url(#path-147-inside-6)"/>
<mask id="path-149-inside-7" fill="white">
<path d="M96.984 16.5534H91.5686V16.6385H96.984V16.5534Z"/>
</mask>
<path d="M96.984 16.5534H91.5686V16.6385H96.984V16.5534Z" fill="#70A794"/>
<path d="M91.5686 16.5534V15.5534H90.5686V16.5534H91.5686ZM96.984 16.5534H97.984V15.5534H96.984V16.5534ZM96.984 16.6385V17.6385H97.984V16.6385H96.984ZM91.5686 16.6385H90.5686V17.6385H91.5686V16.6385ZM91.5686 17.5534H96.984V15.5534H91.5686V17.5534ZM95.984 16.5534V16.6385H97.984V16.5534H95.984ZM96.984 15.6385H91.5686V17.6385H96.984V15.6385ZM92.5686 16.6385V16.5534H90.5686V16.6385H92.5686Z" fill="white" mask="url(#path-149-inside-7)"/>
<mask id="path-151-inside-8" fill="white">
<path d="M96.984 17.3464H91.5686V17.4315H96.984V17.3464Z"/>
</mask>
<path d="M96.984 17.3464H91.5686V17.4315H96.984V17.3464Z" fill="#70A794"/>
<path d="M91.5686 17.3464V16.3464H90.5686V17.3464H91.5686ZM96.984 17.3464H97.984V16.3464H96.984V17.3464ZM96.984 17.4315V18.4315H97.984V17.4315H96.984ZM91.5686 17.4315H90.5686V18.4315H91.5686V17.4315ZM91.5686 18.3464H96.984V16.3464H91.5686V18.3464ZM95.984 17.3464V17.4315H97.984V17.3464H95.984ZM96.984 16.4315H91.5686V18.4315H96.984V16.4315ZM92.5686 17.4315V17.3464H90.5686V17.4315H92.5686Z" fill="white" mask="url(#path-151-inside-8)"/>
<mask id="path-153-inside-9" fill="white">
<path d="M96.984 18.1827H91.5686V18.2678H96.984V18.1827Z"/>
</mask>
<path d="M96.984 18.1827H91.5686V18.2678H96.984V18.1827Z" fill="#70A794"/>
<path d="M91.5686 18.1827V17.1827H90.5686V18.1827H91.5686ZM96.984 18.1827H97.984V17.1827H96.984V18.1827ZM96.984 18.2678V19.2678H97.984V18.2678H96.984ZM91.5686 18.2678H90.5686V19.2678H91.5686V18.2678ZM91.5686 19.1827H96.984V17.1827H91.5686V19.1827ZM95.984 18.1827V18.2678H97.984V18.1827H95.984ZM96.984 17.2678H91.5686V19.2678H96.984V17.2678ZM92.5686 18.2678V18.1827H90.5686V18.2678H92.5686Z" fill="white" mask="url(#path-153-inside-9)"/>
<mask id="path-155-inside-10" fill="white">
<path d="M96.984 19.035H91.5686V19.1201H96.984V19.035Z"/>
</mask>
<path d="M96.984 19.035H91.5686V19.1201H96.984V19.035Z" fill="#70A794"/>
<path d="M91.5686 19.035V18.035H90.5686V19.035H91.5686ZM96.984 19.035H97.984V18.035H96.984V19.035ZM96.984 19.1201V20.1201H97.984V19.1201H96.984ZM91.5686 19.1201H90.5686V20.1201H91.5686V19.1201ZM91.5686 20.035H96.984V18.035H91.5686V20.035ZM95.984 19.035V19.1201H97.984V19.035H95.984ZM96.984 18.1201H91.5686V20.1201H96.984V18.1201ZM92.5686 19.1201V19.035H90.5686V19.1201H92.5686Z" fill="white" mask="url(#path-155-inside-10)"/>
<path d="M55.6922 49.0368H55.5922H42.1975H42.0975V48.9368V42.8527V42.8524C42.098 42.6372 42.1479 42.4247 42.2437 42.2276C42.3395 42.0305 42.479 41.8531 42.6533 41.7054L42.6535 41.7052L43.7125 40.811L43.7792 40.7547L43.844 40.8131L43.9255 40.8866L44.0106 40.9633L43.9231 41.0373L42.8641 41.9314C42.8641 41.9314 42.8641 41.9314 42.864 41.9314C42.7211 42.0526 42.6083 42.1967 42.5315 42.3549C42.4546 42.5129 42.4151 42.6822 42.4147 42.8528V48.7346H55.3751L55.3751 42.8528L55.3751 42.8527M55.6922 49.0368L54.9915 41.8551C55.1443 41.9848 55.2658 42.1399 55.3488 42.3113C55.4319 42.4826 55.4748 42.6667 55.4751 42.8527H55.3751M55.6922 49.0368V48.9368V42.8527L55.6922 42.8525C55.6919 42.6374 55.6422 42.4249 55.5466 42.2278C55.4511 42.0307 55.3117 41.8532 55.1376 41.7054L55.1374 41.7052L54.0771 40.8109L54.0104 40.7547L53.9456 40.8131L53.8642 40.8866L53.7791 40.9634L53.8667 41.0373L54.9268 41.9313C54.9268 41.9314 54.9268 41.9314 54.9269 41.9315M55.6922 49.0368L54.9269 41.9315M55.3751 42.8527C55.3748 42.6821 55.3355 42.5129 55.2588 42.3549C55.1822 42.1968 55.0696 42.0527 54.9269 41.9315M55.3751 42.8527L54.9269 41.9315M43.8585 40.9608L43.7814 41.026L43.7916 41.0351L43.8585 40.9608ZM43.8585 40.9608L43.794 40.8844L43.7836 40.8933L43.8585 40.9608ZM42.1975 48.8368V42.8527L53.9982 41.0351L53.9312 40.9608L53.9957 40.8844L54.0061 40.8932L54.0126 40.8874L55.0729 41.7817C55.237 41.9209 55.3675 42.0875 55.4566 42.2714C55.5458 42.4553 55.5919 42.653 55.5922 42.8527V48.8368V48.9368H55.4922H42.2975H42.1975V48.8368Z" fill="white" stroke="white" stroke-width="0.2"/>
<path d="M50.3023 38.0294L50.3689 38.0857L50.4337 38.0273L50.5152 37.9538L50.6004 37.8771L50.5128 37.8032L50.0737 37.4324C50.0737 37.4323 50.0736 37.4323 50.0736 37.4323C49.8415 37.235 49.5509 37.1009 49.2368 37.0442C48.9225 36.9875 48.5962 37.0103 48.2959 37.1102L48.2959 37.1102L48.2954 37.1103C48.0702 37.1865 47.8645 37.3026 47.6915 37.452L47.276 37.8032L47.1885 37.8771L47.2736 37.9538L47.3552 38.0273L47.42 38.0857L47.4866 38.0294L47.9024 37.678L47.9025 37.678L47.9034 37.6772C48.0443 37.5551 48.2133 37.4591 48.4002 37.3957C48.6476 37.3134 48.9174 37.2944 49.1772 37.3413C49.4372 37.3882 49.6748 37.4987 49.8627 37.6583L49.8629 37.6584L50.3023 38.0294Z" fill="white" stroke="white" stroke-width="0.2"/>
<path d="M48.8449 46.7847L48.8933 46.8123L48.9422 46.7857L55.6129 43.1573L55.7123 43.1032L55.6464 43.0112L55.5844 42.9246L55.533 42.8527L55.4553 42.895L48.8971 46.4622L42.3378 42.7227L42.2611 42.679L42.2082 42.7496L42.1441 42.8352L42.0762 42.9259L42.1746 42.982L48.8136 46.7669L48.8137 46.767L48.8449 46.7847Z" fill="white" stroke="white" stroke-width="0.2"/>
<path d="M54.03 43.9758H54.13V43.8758V37.8652V37.7652H54.03H43.7588H43.6588V37.8652V43.7429V43.8429H43.7588H43.8759H43.9759V43.7429V38.0675H53.8129V43.8758V43.9758H53.9129H54.03Z" fill="white" stroke="white" stroke-width="0.2"/>
<path d="M48.9491 46.5448L48.888 46.4656L48.8018 46.5163L44.9736 48.7633L44.8873 48.814L44.9484 48.8932L45.0139 48.978L45.0749 49.0572L45.1612 49.0065L48.9894 46.7595L49.0756 46.7088L49.0146 46.6297L48.9491 46.5448Z" fill="white" stroke="white" stroke-width="0.2"/>
<path d="M52.1683 39.8408V39.7408H52.0683H45.5659H45.4659V39.8408V39.943V40.043H45.5659H52.0683H52.1683V39.943V39.8408Z" fill="white" stroke="white" stroke-width="0.2"/>
<path d="M52.1683 40.8449V40.7449H52.0683H45.5659H45.4659V40.8449V40.9471V41.0471H45.5659H52.0683H52.1683V40.9471V40.8449Z" fill="white" stroke="white" stroke-width="0.2"/>
<path d="M52.1683 41.7971V41.6971H52.0683H45.5659H45.4659V41.7971V41.8993V41.9993H45.5659H52.0683H52.1683V41.8993V41.7971Z" fill="white" stroke="white" stroke-width="0.2"/>
<path d="M52.1683 42.8012V42.7012H52.0683H45.5659H45.4659V42.8012V42.9034V43.0034H45.5659H52.0683H52.1683V42.9034V42.8012Z" fill="white" stroke="white" stroke-width="0.2"/>
<path d="M52.1683 43.8246V43.7246H52.0683H45.5659H45.4659V43.8246V43.9269V44.0269H45.5659H52.0683H52.1683V43.9269V43.8246Z" fill="white" stroke="white" stroke-width="0.2"/>
<path d="M131.579 43.3179L131.513 43.3929C131.457 43.3443 131.379 43.315 131.295 43.3149C131.295 43.3149 131.295 43.3149 131.295 43.3149L131.295 43.2149L131.579 43.3179ZM131.579 43.3179L131.513 43.3929C131.568 43.4412 131.596 43.5036 131.597 43.5652V47.7341H122.205V43.5651C122.205 43.5035 122.233 43.4412 122.288 43.3929C122.344 43.3442 122.422 43.315 122.506 43.3149L131.579 43.3179ZM131.85 48.068H131.95V47.968V43.5651L131.95 43.5649C131.95 43.4054 131.877 43.2557 131.753 43.1476C131.63 43.0399 131.465 42.9812 131.295 42.981H131.295L122.506 42.981L122.506 42.981C122.337 42.9812 122.172 43.0399 122.048 43.1476C121.925 43.2557 121.852 43.4054 121.851 43.5649V43.5651V47.968V48.068H121.951H131.85Z" fill="white" stroke="black" stroke-width="0.2"/>
<path d="M121.906 43.5591L121.837 43.6487L121.934 43.7065L126.141 46.1978C126.141 46.1978 126.141 46.1978 126.141 46.1978C126.366 46.3317 126.631 46.4028 126.901 46.403L126.901 46.403C127.171 46.4028 127.436 46.3317 127.661 46.1978C127.661 46.1978 127.661 46.1978 127.661 46.1978L131.868 43.7065L131.965 43.6487L131.896 43.5591L131.809 43.4482L131.755 43.3786L131.68 43.4235L127.473 45.9149L127.472 45.9151C127.305 46.0149 127.106 46.069 126.901 46.069C126.696 46.069 126.497 46.0149 126.33 45.9151L126.329 45.9149L122.123 43.4235L122.047 43.3786L121.993 43.4482L121.906 43.5591Z" fill="white" stroke="black" stroke-width="0.2"/>
<path d="M127.85 45.7996L127.76 45.7558L127.706 45.8399L127.631 45.9568L127.577 46.041L127.667 46.0849L131.682 48.0436L131.772 48.0875L131.826 48.0033L131.901 47.8864L131.955 47.8022L131.865 47.7584L127.85 45.7996Z" fill="white" stroke="black" stroke-width="0.2"/>
<path d="M126.095 45.8401L126.041 45.7559L125.951 45.7997L121.937 47.7581L121.848 47.802L121.902 47.8861L121.977 48.003L122.031 48.0872L122.12 48.0434L126.134 46.085L126.224 46.0412L126.17 45.957L126.095 45.8401Z" fill="white" stroke="black" stroke-width="0.2"/>
<path d="M42.7256 122.148C42.7256 122.148 40.2149 122.036 39.4502 123.484C38.6854 124.932 36.0045 126.12 34.6853 126.38V124.449L33.2811 126.38C33.2811 126.38 32.43 126.788 30.7704 127.122C29.1108 127.456 27.5789 128.533 27.5789 128.533C27.5789 128.533 28.4725 126.452 29.5363 125.339C30.6002 124.227 31.1108 124.152 31.1108 124.152L29.4087 124.449C29.4087 124.449 30.5151 122.593 31.4087 121.628C32.3023 120.663 33.2979 119.812 35.7917 119.652C38.2855 119.492 42.7256 122.148 42.7256 122.148Z" fill="#4F8D88"/>
<defs>
<filter id="filter0_d" x="-0.926025" y="0.347046" width="184.752" height="153.907" filterUnits="userSpaceOnUse" color-interpolation-filters="sRGB">
<feFlood flood-opacity="0" result="BackgroundImageFix"/>
<feColorMatrix in="SourceAlpha" type="matrix" values="0 0 0 0 0 0 0 0 0 0 0 0 0 0 0 0 0 0 127 0"/>
<feOffset dx="8" dy="8"/>
<feGaussianBlur stdDeviation="7"/>
<feColorMatrix type="matrix" values="0 0 0 0 0 0 0 0 0 0 0 0 0 0 0 0 0 0 0.25 0"/>
<feBlend mode="normal" in2="BackgroundImageFix" result="effect1_dropShadow"/>
<feBlend mode="normal" in="SourceGraphic" in2="effect1_dropShadow" result="shape"/>
</filter>
<filter id="filter1_d" x="6.16016" y="60.4419" width="48.9922" height="63.1545" filterUnits="userSpaceOnUse" color-interpolation-filters="sRGB">
<feFlood flood-opacity="0" result="BackgroundImageFix"/>
<feColorMatrix in="SourceAlpha" type="matrix" values="0 0 0 0 0 0 0 0 0 0 0 0 0 0 0 0 0 0 127 0"/>
<feOffset dx="8" dy="8"/>
<feGaussianBlur stdDeviation="7"/>
<feColorMatrix type="matrix" values="0 0 0 0 0 0 0 0 0 0 0 0 0 0 0 0 0 0 0.25 0"/>
<feBlend mode="normal" in2="BackgroundImageFix" result="effect1_dropShadow"/>
<feBlend mode="normal" in="SourceGraphic" in2="effect1_dropShadow" result="shape"/>
</filter>
<filter id="filter2_d" x="24.6772" y="2.30499" width="38.505" height="39.2417" filterUnits="userSpaceOnUse" color-interpolation-filters="sRGB">
<feFlood flood-opacity="0" result="BackgroundImageFix"/>
<feColorMatrix in="SourceAlpha" type="matrix" values="0 0 0 0 0 0 0 0 0 0 0 0 0 0 0 0 0 0 127 0"/>
<feOffset dx="8" dy="8"/>
<feGaussianBlur stdDeviation="7"/>
<feColorMatrix type="matrix" values="0 0 0 0 0 0 0 0 0 0 0 0 0 0 0 0 0 0 0.25 0"/>
<feBlend mode="normal" in2="BackgroundImageFix" result="effect1_dropShadow"/>
<feBlend mode="normal" in="SourceGraphic" in2="effect1_dropShadow" result="shape"/>
</filter>
<filter id="filter3_d" x="19.6328" y="99.8784" width="31.9504" height="31.8763" filterUnits="userSpaceOnUse" color-interpolation-filters="sRGB">
<feFlood flood-opacity="0" result="BackgroundImageFix"/>
<feColorMatrix in="SourceAlpha" type="matrix" values="0 0 0 0 0 0 0 0 0 0 0 0 0 0 0 0 0 0 127 0"/>
<feOffset dx="8" dy="8"/>
<feGaussianBlur stdDeviation="7"/>
<feColorMatrix type="matrix" values="0 0 0 0 0 0 0 0 0 0 0 0 0 0 0 0 0 0 0.25 0"/>
<feBlend mode="normal" in2="BackgroundImageFix" result="effect1_dropShadow"/>
<feBlend mode="normal" in="SourceGraphic" in2="effect1_dropShadow" result="shape"/>
</filter>
<filter id="filter4_d" x="36.7549" y="109.036" width="48.5202" height="48.1352" filterUnits="userSpaceOnUse" color-interpolation-filters="sRGB">
<feFlood flood-opacity="0" result="BackgroundImageFix"/>
<feColorMatrix in="SourceAlpha" type="matrix" values="0 0 0 0 0 0 0 0 0 0 0 0 0 0 0 0 0 0 127 0"/>
<feOffset dx="8" dy="8"/>
<feGaussianBlur stdDeviation="7"/>
<feColorMatrix type="matrix" values="0 0 0 0 0 0 0 0 0 0 0 0 0 0 0 0 0 0 0.25 0"/>
<feBlend mode="normal" in2="BackgroundImageFix" result="effect1_dropShadow"/>
<feBlend mode="normal" in="SourceGraphic" in2="effect1_dropShadow" result="shape"/>
</filter>
<filter id="filter5_d" x="-1.90186" y="47.9397" width="40.1712" height="39.9429" filterUnits="userSpaceOnUse" color-interpolation-filters="sRGB">
<feFlood flood-opacity="0" result="BackgroundImageFix"/>
<feColorMatrix in="SourceAlpha" type="matrix" values="0 0 0 0 0 0 0 0 0 0 0 0 0 0 0 0 0 0 127 0"/>
<feOffset dx="8" dy="8"/>
<feGaussianBlur stdDeviation="7"/>
<feColorMatrix type="matrix" values="0 0 0 0 0 0 0 0 0 0 0 0 0 0 0 0 0 0 0.25 0"/>
<feBlend mode="normal" in2="BackgroundImageFix" result="effect1_dropShadow"/>
<feBlend mode="normal" in="SourceGraphic" in2="effect1_dropShadow" result="shape"/>
</filter>
<filter id="filter6_d" x="28.3079" y="15.303" width="31.4035" height="30.915" filterUnits="userSpaceOnUse" color-interpolation-filters="sRGB">
<feFlood flood-opacity="0" result="BackgroundImageFix"/>
<feColorMatrix in="SourceAlpha" type="matrix" values="0 0 0 0 0 0 0 0 0 0 0 0 0 0 0 0 0 0 127 0"/>
<feOffset dx="8" dy="8"/>
<feGaussianBlur stdDeviation="7"/>
<feColorMatrix type="matrix" values="0 0 0 0 0 0 0 0 0 0 0 0 0 0 0 0 0 0 0.25 0"/>
<feBlend mode="normal" in2="BackgroundImageFix" result="effect1_dropShadow"/>
<feBlend mode="normal" in="SourceGraphic" in2="effect1_dropShadow" result="shape"/>
</filter>
<filter id="filter7_d" x="149.585" y="66.2525" width="31.9504" height="31.8763" filterUnits="userSpaceOnUse" color-interpolation-filters="sRGB">
<feFlood flood-opacity="0" result="BackgroundImageFix"/>
<feColorMatrix in="SourceAlpha" type="matrix" values="0 0 0 0 0 0 0 0 0 0 0 0 0 0 0 0 0 0 127 0"/>
<feOffset dx="8" dy="8"/>
<feGaussianBlur stdDeviation="7"/>
<feColorMatrix type="matrix" values="0 0 0 0 0 0 0 0 0 0 0 0 0 0 0 0 0 0 0.25 0"/>
<feBlend mode="normal" in2="BackgroundImageFix" result="effect1_dropShadow"/>
<feBlend mode="normal" in="SourceGraphic" in2="effect1_dropShadow" result="shape"/>
</filter>
<filter id="filter8_d" x="137.29" y="72.4081" width="47.0492" height="39.9532" filterUnits="userSpaceOnUse" color-interpolation-filters="sRGB">
<feFlood flood-opacity="0" result="BackgroundImageFix"/>
<feColorMatrix in="SourceAlpha" type="matrix" values="0 0 0 0 0 0 0 0 0 0 0 0 0 0 0 0 0 0 127 0"/>
<feOffset dx="8" dy="8"/>
<feGaussianBlur stdDeviation="7"/>
<feColorMatrix type="matrix" values="0 0 0 0 0 0 0 0 0 0 0 0 0 0 0 0 0 0 0.25 0"/>
<feBlend mode="normal" in2="BackgroundImageFix" result="effect1_dropShadow"/>
<feBlend mode="normal" in="SourceGraphic" in2="effect1_dropShadow" result="shape"/>
</filter>
<filter id="filter9_d" x="27.3403" y="61.7692" width="32.1883" height="32.0425" filterUnits="userSpaceOnUse" color-interpolation-filters="sRGB">
<feFlood flood-opacity="0" result="BackgroundImageFix"/>
<feColorMatrix in="SourceAlpha" type="matrix" values="0 0 0 0 0 0 0 0 0 0 0 0 0 0 0 0 0 0 127 0"/>
<feOffset dx="8" dy="8"/>
<feGaussianBlur stdDeviation="7"/>
<feColorMatrix type="matrix" values="0 0 0 0 0 0 0 0 0 0 0 0 0 0 0 0 0 0 0.25 0"/>
<feBlend mode="normal" in2="BackgroundImageFix" result="effect1_dropShadow"/>
<feBlend mode="normal" in="SourceGraphic" in2="effect1_dropShadow" result="shape"/>
</filter>
<linearGradient id="paint0_linear" x1="9.84815" y1="-18.8345" x2="178.967" y2="-8.22787" gradientUnits="userSpaceOnUse">
<stop offset="0.0756841" stop-color="#B565D8"/>
<stop offset="0.945898" stop-color="#EE609C"/>
</linearGradient>
<linearGradient id="paint1_linear" x1="1.56866" y1="72.1503" x2="23.8336" y2="56.2408" gradientUnits="userSpaceOnUse">
<stop offset="0.0756841" stop-color="#B565D8"/>
<stop offset="0.945898" stop-color="#EE609C"/>
</linearGradient>
<linearGradient id="paint2_linear" x1="27.9385" y1="9.57819" x2="38.897" y2="4.61106" gradientUnits="userSpaceOnUse">
<stop offset="0.0756841" stop-color="#B565D8"/>
<stop offset="0.945898" stop-color="#EE609C"/>
</linearGradient>
<linearGradient id="paint3_linear" x1="24.4167" y1="108.408" x2="26.5213" y2="104.572" gradientUnits="userSpaceOnUse">
<stop offset="0.0756841" stop-color="#B565D8"/>
<stop offset="0.945898" stop-color="#EE609C"/>
</linearGradient>
<linearGradient id="paint4_linear" x1="36.4375" y1="128.176" x2="47.3697" y2="108.252" gradientUnits="userSpaceOnUse">
<stop offset="0.0756841" stop-color="#B565D8"/>
<stop offset="0.945898" stop-color="#EE609C"/>
</linearGradient>
<linearGradient id="paint5_linear" x1="0.35111" y1="61.7335" x2="6.8354" y2="49.9156" gradientUnits="userSpaceOnUse">
<stop offset="0.0756841" stop-color="#B565D8"/>
<stop offset="0.945898" stop-color="#EE609C"/>
</linearGradient>
<linearGradient id="paint6_linear" x1="38.4708" y1="21.7303" x2="37.8762" y2="24.9291" gradientUnits="userSpaceOnUse">
<stop offset="0.0756841" stop-color="#B565D8"/>
<stop offset="0.945898" stop-color="#EE609C"/>
</linearGradient>
<linearGradient id="paint7_linear" x1="154.369" y1="74.7822" x2="156.474" y2="70.9464" gradientUnits="userSpaceOnUse">
<stop offset="0.0756841" stop-color="#B565D8"/>
<stop offset="0.945898" stop-color="#EE609C"/>
</linearGradient>
<linearGradient id="paint8_linear" x1="149.381" y1="70.9977" x2="166.04" y2="80.1646" gradientUnits="userSpaceOnUse">
<stop offset="0.0756841" stop-color="#B565D8"/>
<stop offset="0.945898" stop-color="#EE609C"/>
</linearGradient>
<linearGradient id="paint9_linear" x1="34.82" y1="66.3484" x2="38.8413" y2="68.5112" gradientUnits="userSpaceOnUse">
<stop offset="0.0756841" stop-color="#B565D8"/>
<stop offset="0.945898" stop-color="#EE609C"/>
</linearGradient>
<linearGradient id="paint10_linear" x1="54.791" y1="85.7362" x2="59.2362" y2="92.176" gradientUnits="userSpaceOnUse">
<stop offset="0.0756841" stop-color="#B565D8"/>
<stop offset="0.945898" stop-color="#EE609C"/>
</linearGradient>
<linearGradient id="paint11_linear" x1="46.6468" y1="82.0242" x2="51.082" y2="88.472" gradientUnits="userSpaceOnUse">
<stop offset="0.0756841" stop-color="#B565D8"/>
<stop offset="0.945898" stop-color="#EE609C"/>
</linearGradient>
<linearGradient id="paint12_linear" x1="31.3528" y1="82.4728" x2="35.7589" y2="88.9714" gradientUnits="userSpaceOnUse">
<stop offset="0.0756841" stop-color="#B565D8"/>
<stop offset="0.945898" stop-color="#EE609C"/>
</linearGradient>
<linearGradient id="paint13_linear" x1="26.5032" y1="76.8438" x2="30.9241" y2="83.3309" gradientUnits="userSpaceOnUse">
<stop offset="0.0756841" stop-color="#B565D8"/>
<stop offset="0.945898" stop-color="#EE609C"/>
</linearGradient>
<linearGradient id="paint14_linear" x1="50.9211" y1="83.7638" x2="55.3618" y2="90.2071" gradientUnits="userSpaceOnUse">
<stop offset="0.0756841" stop-color="#B565D8"/>
<stop offset="0.945898" stop-color="#EE609C"/>
</linearGradient>
<linearGradient id="paint15_linear" x1="41.8427" y1="80.5943" x2="46.2706" y2="87.048" gradientUnits="userSpaceOnUse">
<stop offset="0.0756841" stop-color="#B565D8"/>
<stop offset="0.945898" stop-color="#EE609C"/>
</linearGradient>
<linearGradient id="paint16_linear" x1="28.8396" y1="79.7097" x2="33.2522" y2="86.2032" gradientUnits="userSpaceOnUse">
<stop offset="0.0756841" stop-color="#B565D8"/>
<stop offset="0.945898" stop-color="#EE609C"/>
</linearGradient>
<linearGradient id="paint17_linear" x1="84.5435" y1="110.68" x2="89.0409" y2="117.076" gradientUnits="userSpaceOnUse">
<stop offset="0.0756841" stop-color="#B565D8"/>
<stop offset="0.945898" stop-color="#EE609C"/>
</linearGradient>
<linearGradient id="paint18_linear" x1="79.1476" y1="105.368" x2="83.6429" y2="111.795" gradientUnits="userSpaceOnUse">
<stop offset="0.0756841" stop-color="#B565D8"/>
<stop offset="0.945898" stop-color="#EE609C"/>
</linearGradient>
<linearGradient id="paint19_linear" x1="73.6802" y1="100.098" x2="78.164" y2="106.535" gradientUnits="userSpaceOnUse">
<stop offset="0.0756841" stop-color="#B565D8"/>
<stop offset="0.945898" stop-color="#EE609C"/>
</linearGradient>
<linearGradient id="paint20_linear" x1="67.9434" y1="94.9858" x2="72.4179" y2="101.43" gradientUnits="userSpaceOnUse">
<stop offset="0.0756841" stop-color="#B565D8"/>
<stop offset="0.945898" stop-color="#EE609C"/>
</linearGradient>
<linearGradient id="paint21_linear" x1="61.738" y1="90.1459" x2="66.191" y2="96.5792" gradientUnits="userSpaceOnUse">
<stop offset="0.0756841" stop-color="#B565D8"/>
<stop offset="0.945898" stop-color="#EE609C"/>
</linearGradient>
<linearGradient id="paint22_linear" x1="81.8427" y1="108.025" x2="86.3453" y2="114.446" gradientUnits="userSpaceOnUse">
<stop offset="0.0756841" stop-color="#B565D8"/>
<stop offset="0.945898" stop-color="#EE609C"/>
</linearGradient>
<linearGradient id="paint23_linear" x1="76.4355" y1="102.721" x2="80.9245" y2="109.153" gradientUnits="userSpaceOnUse">
<stop offset="0.0756841" stop-color="#B565D8"/>
<stop offset="0.945898" stop-color="#EE609C"/>
</linearGradient>
<linearGradient id="paint24_linear" x1="70.8586" y1="97.515" x2="75.3374" y2="103.955" gradientUnits="userSpaceOnUse">
<stop offset="0.0756841" stop-color="#B565D8"/>
<stop offset="0.945898" stop-color="#EE609C"/>
</linearGradient>
<linearGradient id="paint25_linear" x1="64.9108" y1="92.525" x2="69.3813" y2="98.972" gradientUnits="userSpaceOnUse">
<stop offset="0.0756841" stop-color="#B565D8"/>
<stop offset="0.945898" stop-color="#EE609C"/>
</linearGradient>
<linearGradient id="paint26_linear" x1="58.375" y1="87.8774" x2="62.8242" y2="94.3139" gradientUnits="userSpaceOnUse">
<stop offset="0.0756841" stop-color="#B565D8"/>
<stop offset="0.945898" stop-color="#EE609C"/>
</linearGradient>
<linearGradient id="paint27_linear" x1="109.401" y1="130.02" x2="114.088" y2="136.246" gradientUnits="userSpaceOnUse">
<stop offset="0.0756841" stop-color="#B565D8"/>
<stop offset="0.945898" stop-color="#EE609C"/>
</linearGradient>
<linearGradient id="paint28_linear" x1="102.184" y1="125.769" x2="106.788" y2="132.073" gradientUnits="userSpaceOnUse">
<stop offset="0.0756841" stop-color="#B565D8"/>
<stop offset="0.945898" stop-color="#EE609C"/>
</linearGradient>
<linearGradient id="paint29_linear" x1="95.8507" y1="121.003" x2="100.404" y2="127.352" gradientUnits="userSpaceOnUse">
<stop offset="0.0756841" stop-color="#B565D8"/>
<stop offset="0.945898" stop-color="#EE609C"/>
</linearGradient>
<linearGradient id="paint30_linear" x1="90.0467" y1="115.928" x2="94.5667" y2="122.306" gradientUnits="userSpaceOnUse">
<stop offset="0.0756841" stop-color="#B565D8"/>
<stop offset="0.945898" stop-color="#EE609C"/>
</linearGradient>
<linearGradient id="paint31_linear" x1="113.524" y1="131.847" x2="118.277" y2="138.009" gradientUnits="userSpaceOnUse">
<stop offset="0.0756841" stop-color="#B565D8"/>
<stop offset="0.945898" stop-color="#EE609C"/>
</linearGradient>
<linearGradient id="paint32_linear" x1="105.641" y1="127.983" x2="110.28" y2="134.254" gradientUnits="userSpaceOnUse">
<stop offset="0.0756841" stop-color="#B565D8"/>
<stop offset="0.945898" stop-color="#EE609C"/>
</linearGradient>
<linearGradient id="paint33_linear" x1="98.9331" y1="123.435" x2="103.509" y2="129.764" gradientUnits="userSpaceOnUse">
<stop offset="0.0756841" stop-color="#B565D8"/>
<stop offset="0.945898" stop-color="#EE609C"/>
</linearGradient>
<linearGradient id="paint34_linear" x1="92.893" y1="118.499" x2="97.4279" y2="124.863" gradientUnits="userSpaceOnUse">
<stop offset="0.0756841" stop-color="#B565D8"/>
<stop offset="0.945898" stop-color="#EE609C"/>
</linearGradient>
<linearGradient id="paint35_linear" x1="87.2685" y1="113.32" x2="91.7904" y2="119.725" gradientUnits="userSpaceOnUse">
<stop offset="0.0756841" stop-color="#B565D8"/>
<stop offset="0.945898" stop-color="#EE609C"/>
</linearGradient>
<linearGradient id="paint36_linear" x1="118.122" y1="133.397" x2="122.987" y2="139.472" gradientUnits="userSpaceOnUse">
<stop offset="0.0756841" stop-color="#B565D8"/>
<stop offset="0.945898" stop-color="#EE609C"/>
</linearGradient>
<linearGradient id="paint37_linear" x1="130.014" y1="134.927" x2="135.372" y2="140.345" gradientUnits="userSpaceOnUse">
<stop offset="0.0756841" stop-color="#B565D8"/>
<stop offset="0.945898" stop-color="#EE609C"/>
</linearGradient>
<linearGradient id="paint38_linear" x1="123.423" y1="134.538" x2="128.433" y2="140.416" gradientUnits="userSpaceOnUse">
<stop offset="0.0756841" stop-color="#B565D8"/>
<stop offset="0.945898" stop-color="#EE609C"/>
</linearGradient>
<linearGradient id="paint39_linear" x1="26.0818" y1="13.7044" x2="31.8379" y2="18.1409" gradientUnits="userSpaceOnUse">
<stop offset="0.0756841" stop-color="#B565D8"/>
<stop offset="0.945898" stop-color="#EE609C"/>
</linearGradient>
<linearGradient id="paint40_linear" x1="19.8126" y1="21.5783" x2="24.8953" y2="27.3644" gradientUnits="userSpaceOnUse">
<stop offset="0.0756841" stop-color="#B565D8"/>
<stop offset="0.945898" stop-color="#EE609C"/>
</linearGradient>
<linearGradient id="paint41_linear" x1="18.9733" y1="64.322" x2="23.4467" y2="70.7669" gradientUnits="userSpaceOnUse">
<stop offset="0.0756841" stop-color="#B565D8"/>
<stop offset="0.945898" stop-color="#EE609C"/>
</linearGradient>
<linearGradient id="paint42_linear" x1="16.4206" y1="57.3564" x2="20.9335" y2="63.7684" gradientUnits="userSpaceOnUse">
<stop offset="0.0756841" stop-color="#B565D8"/>
<stop offset="0.945898" stop-color="#EE609C"/>
</linearGradient>
<linearGradient id="paint43_linear" x1="14.8003" y1="49.8494" x2="19.3503" y2="56.2012" gradientUnits="userSpaceOnUse">
<stop offset="0.0756841" stop-color="#B565D8"/>
<stop offset="0.945898" stop-color="#EE609C"/>
</linearGradient>
<linearGradient id="paint44_linear" x1="14.3206" y1="41.6775" x2="18.9433" y2="47.9642" gradientUnits="userSpaceOnUse">
<stop offset="0.0756841" stop-color="#B565D8"/>
<stop offset="0.945898" stop-color="#EE609C"/>
</linearGradient>
<linearGradient id="paint45_linear" x1="15.4622" y1="32.5609" x2="20.212" y2="38.726" gradientUnits="userSpaceOnUse">
<stop offset="0.0756841" stop-color="#B565D8"/>
<stop offset="0.945898" stop-color="#EE609C"/>
</linearGradient>
<linearGradient id="paint46_linear" x1="17.5863" y1="60.9034" x2="22.0782" y2="67.333" gradientUnits="userSpaceOnUse">
<stop offset="0.0756841" stop-color="#B565D8"/>
<stop offset="0.945898" stop-color="#EE609C"/>
</linearGradient>
<linearGradient id="paint47_linear" x1="15.4866" y1="53.6744" x2="20.0234" y2="60.0661" gradientUnits="userSpaceOnUse">
<stop offset="0.0756841" stop-color="#B565D8"/>
<stop offset="0.945898" stop-color="#EE609C"/>
</linearGradient>
<linearGradient id="paint48_linear" x1="14.398" y1="45.858" x2="18.9804" y2="52.1812" gradientUnits="userSpaceOnUse">
<stop offset="0.0756841" stop-color="#B565D8"/>
<stop offset="0.945898" stop-color="#EE609C"/>
</linearGradient>
<linearGradient id="paint49_linear" x1="14.633" y1="37.2701" x2="19.3085" y2="43.5076" gradientUnits="userSpaceOnUse">
<stop offset="0.0756841" stop-color="#B565D8"/>
<stop offset="0.945898" stop-color="#EE609C"/>
</linearGradient>
<linearGradient id="paint50_linear" x1="17.007" y1="27.4376" x2="21.8719" y2="33.4825" gradientUnits="userSpaceOnUse">
<stop offset="0.0756841" stop-color="#B565D8"/>
<stop offset="0.945898" stop-color="#EE609C"/>
</linearGradient>
<linearGradient id="paint51_linear" x1="40.4672" y1="94.0727" x2="45.5601" y2="95.0832" gradientUnits="userSpaceOnUse">
<stop offset="0.0756841" stop-color="#B565D8"/>
<stop offset="0.945898" stop-color="#EE609C"/>
</linearGradient>
<linearGradient id="paint52_linear" x1="34.2913" y1="89.2153" x2="39.9205" y2="91.18" gradientUnits="userSpaceOnUse">
<stop offset="0.0756841" stop-color="#B565D8"/>
<stop offset="0.945898" stop-color="#EE609C"/>
</linearGradient>
<linearGradient id="paint53_linear" x1="22.3678" y1="70.7977" x2="26.8109" y2="77.267" gradientUnits="userSpaceOnUse">
<stop offset="0.0756841" stop-color="#B565D8"/>
<stop offset="0.945898" stop-color="#EE609C"/>
</linearGradient>
<linearGradient id="paint54_linear" x1="37.2894" y1="91.6963" x2="42.7296" y2="93.249" gradientUnits="userSpaceOnUse">
<stop offset="0.0756841" stop-color="#B565D8"/>
<stop offset="0.945898" stop-color="#EE609C"/>
</linearGradient>
<linearGradient id="paint55_linear" x1="31.4689" y1="86.6321" x2="37.2003" y2="88.8929" gradientUnits="userSpaceOnUse">
<stop offset="0.0756841" stop-color="#B565D8"/>
<stop offset="0.945898" stop-color="#EE609C"/>
</linearGradient>
<linearGradient id="paint56_linear" x1="24.3453" y1="73.8739" x2="28.7764" y2="80.3529" gradientUnits="userSpaceOnUse">
<stop offset="0.0756841" stop-color="#B565D8"/>
<stop offset="0.945898" stop-color="#EE609C"/>
</linearGradient>
<linearGradient id="paint57_linear" x1="20.5668" y1="67.6215" x2="25.0238" y2="74.0795" gradientUnits="userSpaceOnUse">
<stop offset="0.0756841" stop-color="#B565D8"/>
<stop offset="0.945898" stop-color="#EE609C"/>
</linearGradient>
<linearGradient id="paint58_linear" x1="47.3969" y1="98.4913" x2="50.7356" y2="98.2039" gradientUnits="userSpaceOnUse">
<stop offset="0.0756841" stop-color="#B565D8"/>
<stop offset="0.945898" stop-color="#EE609C"/>
</linearGradient>
<linearGradient id="paint59_linear" x1="51.1621" y1="100.524" x2="52.7491" y2="100.01" gradientUnits="userSpaceOnUse">
<stop offset="0.0756841" stop-color="#B565D8"/>
<stop offset="0.945898" stop-color="#EE609C"/>
</linearGradient>
<linearGradient id="paint60_linear" x1="43.835" y1="96.3385" x2="48.2922" y2="96.6919" gradientUnits="userSpaceOnUse">
<stop offset="0.0756841" stop-color="#B565D8"/>
<stop offset="0.945898" stop-color="#EE609C"/>
</linearGradient>
</defs>
</svg>
