<svg width="198" height="205" viewBox="0 0 198 205" fill="none" xmlns="http://www.w3.org/2000/svg">
<g opacity="0.7">
<g opacity="0.7" filter="url(#filter0_d)">
<path d="M173.054 126.122C180.628 101.447 169.485 73.3134 149.361 57.1579C129.237 41.0013 99.6097 23.4609 74.0337 26.8793C52.0361 29.8196 32.2982 51.7042 18.4579 69.0603C12.0992 77.0358 8.30814 90.1762 16.4127 96.3688C26.1523 103.809 40.7593 92.3156 52.1513 96.8341C62.1994 100.819 63.7385 114.485 61.663 125.098C59.5875 135.711 55.6444 147.144 60.3938 156.858C64.8639 165.998 76.0094 170.277 86.1626 169.671C97.4401 168.999 107.924 163.231 119.129 161.481C124.742 160.604 130.277 160.976 135.899 159.984C142.094 158.891 147.976 156.687 153.159 153.084C162.471 146.61 169.718 136.991 173.054 126.122Z" fill="url(#paint0_linear)"/>
</g>
<g filter="url(#filter1_d)">
<path d="M32.5147 99.3604C35.7846 99.9628 38.6836 102.32 39.9454 105.4C42.6289 111.953 37.9224 119.377 39.1624 126.344C39.5585 128.572 40.5516 130.9 39.7156 132.997C38.7334 135.459 35.5023 136.366 32.9646 135.587C30.4268 134.81 28.469 132.805 26.742 130.785C23.4352 126.92 20.467 122.581 19.2973 117.634C17.3297 109.322 22.2594 97.4697 32.5147 99.3604Z" fill="url(#paint1_linear)"/>
</g>
<g filter="url(#filter2_d)">
<path d="M39.3441 48.1301C37.7122 45.8492 37.8252 42.4331 39.7173 40.34C41.6098 38.2477 45.1385 37.8177 47.3762 39.5129C48.6463 40.4751 49.4616 42.1437 49.0715 43.6921C48.743 44.9966 47.7143 45.8687 46.7714 46.7493C45.9441 47.5213 45.4894 48.3826 44.8035 49.2464C43.2457 51.2083 40.5448 49.8081 39.3441 48.1301Z" fill="url(#paint2_linear)"/>
</g>
<g filter="url(#filter3_d)">
<path d="M33.7341 140.92C34.2853 140.402 35.12 140.18 35.8249 140.435C36.6858 140.747 37.2102 141.758 37.0229 142.663C36.8344 143.569 35.9905 144.283 35.0759 144.364C32.9097 144.557 32.2542 142.315 33.7341 140.92Z" fill="url(#paint3_linear)"/>
</g>
<g filter="url(#filter4_d)">
<path d="M54.9532 152.961C57.8166 150.266 62.1522 149.115 65.8135 150.44C70.2855 152.058 73.0096 157.313 72.0365 162.014C71.0574 166.719 66.6736 170.429 61.923 170.849C50.6712 171.849 47.2662 160.207 54.9532 152.961Z" fill="url(#paint4_linear)"/>
</g>
<g filter="url(#filter5_d)">
<path d="M12.9123 87.9294C14.6107 86.3313 17.1823 85.6486 19.354 86.4344C22.0065 87.3943 23.6222 90.5107 23.045 93.2996C22.4643 96.0897 19.8641 98.2904 17.0463 98.5394C10.3725 99.133 8.35293 92.2275 12.9123 87.9294Z" fill="url(#paint5_linear)"/>
</g>
<g filter="url(#filter6_d)">
<path d="M45.4578 53.3758C45.2533 53.7446 43.357 55.0952 42.9398 55.0795C42.4302 55.0603 42.0528 53.9354 41.9986 53.4233C41.945 52.9109 42.2715 52.3887 42.743 52.1907C43.8596 51.7209 46.0062 52.3846 45.4578 53.3758Z" fill="url(#paint6_linear)"/>
</g>
<g filter="url(#filter7_d)">
<path d="M169.398 105.817C169.949 105.298 170.784 105.076 171.489 105.331C172.35 105.643 172.874 106.654 172.687 107.56C172.498 108.465 171.654 109.179 170.74 109.26C168.574 109.453 167.918 107.212 169.398 105.817Z" fill="url(#paint7_linear)"/>
</g>
<g filter="url(#filter8_d)">
<path d="M169.651 111.698C167.657 111.995 165.95 113.366 163.948 113.602C161.724 113.865 159.238 112.734 157.342 113.901C155.941 114.764 155.469 116.684 155.942 118.264C156.415 119.844 157.651 121.103 159.026 122.032C161.888 123.963 165.614 124.685 168.896 123.672C171.996 122.714 174.788 119.953 175.558 116.763C176.298 113.706 172.439 111.282 169.651 111.698Z" fill="url(#paint8_linear)"/>
</g>
<g filter="url(#filter9_d)">
<path d="M42.1752 100.877C43.1316 100.244 44.5971 100.634 45.1335 101.648C45.6706 102.662 45.1885 104.073 44.1549 104.569C43.1207 105.065 41.7351 104.58 41.2128 103.558C40.6904 102.536 41.0927 101.15 42.0671 100.545" fill="url(#paint9_linear)"/>
</g>
<path d="M145.277 71.7301L133.922 78.3382L133.692 78.4717L100.967 97.5152L100.738 97.6481L68.0122 116.692L67.7837 116.825L60.8389 120.866C60.9704 120.938 61.1045 121.004 61.2351 121.077L67.9754 117.154L68.2038 117.021L100.93 97.9775L101.159 97.8445L133.884 78.8011L134.113 78.6676L145.593 71.9874C145.488 71.9022 145.384 71.8156 145.277 71.7301Z" fill="url(#paint10_linear)"/>
<path d="M130.086 71.7475L129.857 71.8809L97.1314 90.9244L96.9029 91.0573L64.1767 110.101L63.9483 110.234L52.2805 117.024C52.4362 117.078 52.5894 117.139 52.7446 117.195L64.139 110.564L64.3675 110.431L97.0937 91.3872L97.3221 91.2543L130.047 72.2108L130.277 72.0774L138.881 67.0703C138.762 66.9922 138.641 66.9167 138.522 66.8386L130.086 71.7475Z" fill="url(#paint11_linear)"/>
<path d="M126.251 65.1566L126.022 65.2901L93.2963 84.3336L93.0679 84.4665L60.3416 103.51L60.1132 103.643L36.0483 117.647C36.1381 117.742 36.2269 117.838 36.3176 117.933L60.3054 103.974L60.5338 103.841L93.2601 84.7968L93.4885 84.6638L126.214 65.6204L126.443 65.4869L131.386 62.6105C131.255 62.5384 131.122 62.4693 130.989 62.3992L126.251 65.1566Z" fill="url(#paint12_linear)"/>
<path d="M122.416 58.5659L122.187 58.6994L89.4612 77.7428L89.2328 77.8758L56.5066 96.9197L56.2781 97.0527L31.083 111.714C31.1599 111.817 31.2377 111.919 31.3146 112.021L56.4703 97.3829L56.6988 97.25L89.425 78.206L89.6534 78.0731L122.379 59.0296L122.608 58.8962L123.225 58.5374C123.083 58.4722 122.942 58.4069 122.801 58.3417L122.416 58.5659Z" fill="url(#paint13_linear)"/>
<path d="M132.005 75.0437L131.775 75.1772L99.0498 94.2207L98.8214 94.3536L66.0952 113.398L65.8667 113.53L56.7742 118.822C56.9142 118.885 57.0505 118.957 57.1897 119.021L66.0584 113.86L66.2868 113.727L99.0131 94.6829L99.2415 94.55L131.967 75.5066L132.196 75.3731L142.34 69.4702C142.228 69.3878 142.117 69.305 142.005 69.2241L132.005 75.0437Z" fill="url(#paint14_linear)"/>
<path d="M128.169 68.452L127.939 68.5855L95.2141 87.629L94.9857 87.7619L62.2594 106.806L62.031 106.939L47.2229 115.556C47.4 115.597 47.5745 115.647 47.7513 115.689L62.2226 107.268L62.4511 107.135L95.1773 88.0913L95.4058 87.9583L128.131 68.9149L128.36 68.7814L135.223 64.7881C135.097 64.7138 134.973 64.6384 134.848 64.5655L128.169 68.452Z" fill="url(#paint15_linear)"/>
<path d="M124.334 61.8613L124.104 61.9948L91.3788 81.0382L91.1504 81.1712L58.4242 100.215L58.1957 100.348L33.4685 114.737C33.5518 114.836 33.6333 114.936 33.7167 115.035L58.3879 100.678L58.6164 100.545L91.3426 81.5014L91.571 81.3685L124.296 62.325L124.526 62.1916L127.376 60.5329C127.24 60.465 127.104 60.3965 126.967 60.3286L124.334 61.8613Z" fill="url(#paint16_linear)"/>
<path d="M168.19 102.511L153.098 111.293L152.869 111.426L120.144 130.47L119.915 130.603L92.1587 146.755C92.2549 146.846 92.351 146.938 92.4458 147.029L120.107 130.932L120.335 130.799L153.061 111.756L153.29 111.622L168.338 102.866C168.289 102.748 168.239 102.629 168.19 102.511Z" fill="url(#paint17_linear)"/>
<path d="M149.263 104.702L149.034 104.836L116.308 123.879L116.08 124.012L86.4519 141.253C86.5472 141.345 86.6424 141.437 86.7377 141.529L116.272 124.342L116.501 124.209L149.226 105.166L149.455 105.032L165.095 95.931C165.036 95.8182 164.977 95.7055 164.917 95.5927L149.263 104.702Z" fill="url(#paint18_linear)"/>
<path d="M145.428 98.1114L145.198 98.2448L112.473 117.288L112.245 117.421L80.6873 135.785C80.7853 135.875 80.8824 135.966 80.9804 136.057L112.437 117.752L112.665 117.619L145.391 98.5751L145.62 98.4416L161.214 89.367C161.145 89.2601 161.076 89.1527 161.006 89.0464L145.428 98.1114Z" fill="url(#paint19_linear)"/>
<path d="M141.593 91.5206L141.364 91.6541L108.638 110.698L108.41 110.83L75.6835 129.874L75.4551 130.007L74.6523 130.475C74.7559 130.562 74.8594 130.649 74.9629 130.736L75.6473 130.338L75.8757 130.205L108.602 111.161L108.83 111.028L141.556 91.9844L141.785 91.8509L156.695 83.1745C156.614 83.0741 156.536 82.9725 156.453 82.8731L141.593 91.5206Z" fill="url(#paint20_linear)"/>
<path d="M137.757 84.9299L137.528 85.0633L104.803 104.107L104.574 104.24L71.8479 123.284L71.6195 123.417L68.1333 125.445C68.2464 125.526 68.3578 125.609 68.4708 125.69L71.8112 123.746L72.0396 123.613L104.766 104.569L104.994 104.436L137.72 85.3927L137.949 85.2592L151.508 77.3687C151.416 77.2752 151.321 77.1832 151.228 77.0911L137.757 84.9299Z" fill="url(#paint21_linear)"/>
<path d="M151.181 107.998L150.951 108.131L118.226 127.175L117.998 127.307L89.2998 144.007C89.3951 144.099 89.4903 144.191 89.5856 144.283L118.19 127.638L118.418 127.505L151.144 108.461L151.373 108.328L166.798 99.352C166.744 99.2361 166.689 99.1207 166.635 99.0047L151.181 107.998Z" fill="url(#paint22_linear)"/>
<path d="M147.346 101.407L147.116 101.54L114.391 120.584L114.162 120.717L83.5903 138.507C83.6865 138.598 83.7831 138.688 83.8798 138.781L114.355 121.047L114.583 120.914L147.308 101.87L147.538 101.737L163.235 92.6026C163.17 92.4931 163.106 92.383 163.041 92.2734L147.346 101.407Z" fill="url(#paint23_linear)"/>
<path d="M143.51 94.816L143.281 94.9495L110.556 113.993L110.327 114.126L77.7175 133.102C77.8183 133.191 77.9203 133.278 78.0216 133.367L110.519 114.456L110.748 114.323L143.473 95.2797L143.703 95.1463L159.035 86.2238C158.96 86.1201 158.887 86.0154 158.81 85.9127L143.51 94.816Z" fill="url(#paint24_linear)"/>
<path d="M139.675 88.2253L139.446 88.3588L106.72 107.402L106.492 107.535L73.7656 126.579L73.5371 126.712L71.4656 127.918C71.5737 128.002 71.6849 128.083 71.7936 128.169L73.7293 127.042L73.9577 126.909L106.684 107.865L106.912 107.733L139.638 88.6891L139.867 88.5556L154.189 80.2215C154.102 80.1247 154.015 80.028 153.927 79.9318L139.675 88.2253Z" fill="url(#paint25_linear)"/>
<path d="M135.84 81.6345L135.61 81.768L102.885 100.811L102.657 100.944L69.9304 119.988L69.702 120.121L64.6021 123.089C64.7239 123.166 64.8443 123.242 64.9653 123.319L69.8937 120.451L70.1221 120.318L102.848 101.274L103.077 101.141L135.802 82.0974L136.031 81.9639L148.647 74.6227C148.548 74.5329 148.449 74.4446 148.349 74.3553L135.84 81.6345Z" fill="url(#paint26_linear)"/>
<path d="M168.44 137.657L168.211 137.79L135.486 156.834L135.257 156.967L118.749 166.573C118.891 166.638 119.032 166.703 119.174 166.767L135.448 157.297L135.676 157.164L168.402 138.12L168.631 137.987L173.752 135.007C173.765 134.853 173.772 134.7 173.784 134.547L168.44 137.657Z" fill="url(#paint27_linear)"/>
<path d="M164.605 131.066L164.376 131.2L131.65 150.243L131.422 150.376L110.978 162.273C111.098 162.349 111.214 162.431 111.334 162.506L131.613 150.705L131.842 150.572L164.567 131.529L164.797 131.395L173.81 126.15C173.801 126.01 173.789 125.868 173.778 125.728L164.605 131.066Z" fill="url(#paint28_linear)"/>
<path d="M160.77 124.475L160.54 124.609L127.815 143.652L127.587 143.785L104.192 157.399C104.3 157.484 104.406 157.569 104.513 157.653L127.777 144.115L128.006 143.982L160.731 124.939L160.96 124.805L172.773 117.931C172.749 117.798 172.727 117.664 172.703 117.531L160.77 124.475Z" fill="url(#paint29_linear)"/>
<path d="M156.934 117.884L156.705 118.017L123.979 137.06L123.751 137.193L98.0024 152.177C98.1023 152.266 98.2021 152.355 98.3014 152.444L123.942 137.523L124.171 137.39L156.896 118.346L157.126 118.213L170.917 110.187C170.88 110.062 170.84 109.939 170.803 109.813L156.934 117.884Z" fill="url(#paint30_linear)"/>
<path d="M170.358 140.952L170.128 141.086L137.403 160.129L137.175 160.262L123.205 168.391C123.363 168.448 123.523 168.5 123.68 168.556L137.366 160.591L137.595 160.458L170.32 141.415L170.549 141.282L173.134 139.778C173.163 139.615 173.191 139.451 173.218 139.288L170.358 140.952Z" fill="url(#paint31_linear)"/>
<path d="M166.522 134.361L166.293 134.495L133.568 153.538L133.339 153.671L114.695 164.521C114.825 164.593 114.956 164.662 115.086 164.734L133.53 154.001L133.759 153.868L166.484 134.825L166.713 134.691L173.942 130.485C173.943 130.337 173.946 130.189 173.945 130.042L166.522 134.361Z" fill="url(#paint32_linear)"/>
<path d="M162.687 127.771L162.458 127.904L129.732 146.948L129.504 147.081L107.49 159.891C107.604 159.972 107.719 160.051 107.833 160.132L129.696 147.41L129.924 147.277L162.649 128.234L162.879 128.1L173.403 121.976C173.385 121.839 173.369 121.702 173.351 121.565L162.687 127.771Z" fill="url(#paint33_linear)"/>
<path d="M158.852 121.18L158.623 121.313L125.897 140.357L125.669 140.49L101.034 154.825C101.138 154.912 101.243 154.997 101.347 155.084L125.86 140.819L126.089 140.686L158.814 121.643L159.044 121.509L171.942 114.003C171.911 113.874 171.879 113.747 171.847 113.618L158.852 121.18Z" fill="url(#paint34_linear)"/>
<path d="M155.017 114.589L154.787 114.723L122.062 133.766L121.833 133.899L95.0493 149.485C95.1473 149.576 95.2444 149.666 95.3424 149.757L122.027 134.229L122.255 134.096L154.98 115.052L155.21 114.919L169.714 106.479C169.671 106.356 169.626 106.235 169.582 106.113L155.017 114.589Z" fill="url(#paint35_linear)"/>
<path d="M172.093 144.354L172.046 144.381L139.321 163.424L139.092 163.557L128.191 169.901C128.371 169.945 128.552 169.986 128.732 170.028L139.284 163.888L139.513 163.755L171.94 144.885C171.992 144.707 172.043 144.532 172.093 144.354Z" fill="url(#paint36_linear)"/>
<path d="M142.928 170.148L141.171 171.171C141.462 171.152 141.753 171.13 142.044 171.105L143.12 170.478L143.348 170.346L166.007 157.16C166.185 156.911 166.363 156.663 166.536 156.41L143.156 170.015L142.928 170.148Z" fill="url(#paint37_linear)"/>
<path d="M141.01 166.854L133.962 170.955C134.173 170.98 134.383 171.008 134.593 171.029L141.202 167.183L141.431 167.05L169.858 150.508C169.947 150.312 170.029 150.114 170.115 149.918L141.239 166.721L141.01 166.854Z" fill="url(#paint38_linear)"/>
<path d="M47.4357 36.0277L34.5872 43.5045C34.0984 43.9203 33.617 44.3466 33.1467 44.7836L49.1823 35.4522C48.5957 35.6302 48.0133 35.8218 47.4357 36.0277Z" fill="url(#paint39_linear)"/>
<path d="M29.6215 51.2465L29.85 51.1136L59.3973 33.9195C59.1428 33.919 58.8878 33.9175 58.6341 33.9227L29.6592 50.7837L29.4308 50.9166L26.5391 52.5994C26.3833 52.8361 26.2265 53.0711 26.0757 53.3099L29.6215 51.2465Z" fill="url(#paint40_linear)"/>
<path d="M48.7982 84.2011L49.0266 84.0682L81.7528 65.0242L81.9813 64.8913L105.771 51.0477C105.623 50.9862 105.477 50.9241 105.33 50.8621L81.79 64.5605L81.5616 64.6934L48.8353 83.7374L48.6069 83.8703L23.5677 98.4411C23.6162 98.5602 23.6665 98.6783 23.7159 98.797L48.7982 84.2011Z" fill="url(#paint41_linear)"/>
<path d="M44.963 77.6104L45.1915 77.4774L77.9177 58.4334L78.1461 58.3005L97.0468 47.3018C96.9039 47.2377 96.7609 47.1735 96.6179 47.1093L77.9548 57.9697L77.7264 58.1026L45.0002 77.1466L44.7717 77.2795L21.139 91.0319C21.1718 91.1601 21.2084 91.2862 21.2413 91.4145L44.963 77.6104Z" fill="url(#paint42_linear)"/>
<path d="M41.1276 71.0196L41.356 70.8867L74.0823 51.8427L74.3107 51.7098L88.6766 43.35C88.5392 43.2826 88.4026 43.2147 88.2657 43.1482L74.12 51.3799L73.8915 51.5128L41.1653 70.5568L40.9369 70.6897L19.7178 83.0375C19.7324 83.1764 19.7436 83.316 19.759 83.4544L41.1276 71.0196Z" fill="url(#paint43_linear)"/>
<path d="M37.2922 64.4288L37.5207 64.2959L70.2469 45.2519L70.4753 45.119L80.3605 39.3666C80.2185 39.3019 80.0764 39.2372 79.9349 39.1734L70.2837 44.7896L70.0552 44.9225L37.329 63.9665L37.1006 64.0995L19.531 74.3235C19.5212 74.4754 19.5118 74.6282 19.5034 74.7804L37.2922 64.4288Z" fill="url(#paint44_linear)"/>
<path d="M33.4563 57.8372L33.6847 57.7043L66.4109 38.6603L66.6394 38.5274L71.2485 35.8452C71.0812 35.794 70.9127 35.7472 70.744 35.6979L66.4477 38.198L66.2193 38.3309L33.4931 57.3749L33.2646 57.5079L21.1593 64.5522C21.1103 64.7256 21.0657 64.9001 21.0188 65.0748L33.4563 57.8372Z" fill="url(#paint45_linear)"/>
<path d="M46.8806 80.9058L47.109 80.7728L79.8352 61.7288L80.0637 61.5959L101.377 49.1932C101.231 49.1306 101.085 49.0686 100.94 49.0054L79.8724 61.2651L79.644 61.398L46.9177 80.442L46.6893 80.5749L22.24 94.8024C22.2802 94.9264 22.319 95.05 22.3606 95.1743L46.8806 80.9058Z" fill="url(#paint46_linear)"/>
<path d="M43.0453 74.315L43.2737 74.1821L75.9999 55.1381L76.2284 55.0051L92.8107 45.3556C92.6714 45.2892 92.5331 45.2224 92.3947 45.1555L76.0371 54.6743L75.8087 54.8073L43.0824 73.8512L42.854 73.9842L20.2946 87.1119C20.3192 87.2449 20.3433 87.3771 20.3685 87.511L43.0453 74.315Z" fill="url(#paint47_linear)"/>
<path d="M39.2099 67.7243L39.4383 67.5913L72.1646 48.5473L72.393 48.4144L84.558 41.3354C84.4196 41.2685 84.2813 41.2017 84.1434 41.1358L72.2023 48.0845L71.9738 48.2175L39.2476 67.2614L39.0192 67.3944L19.4451 78.7849C19.4486 78.9302 19.4507 79.0752 19.4551 79.2199L39.2099 67.7243Z" fill="url(#paint48_linear)"/>
<path d="M35.3746 61.1335L35.6031 61.0005L68.3293 41.9565L68.5577 41.8236L75.9778 37.5057C75.8266 37.4464 75.6767 37.385 75.5265 37.3275L68.3661 41.4943L68.1376 41.6272L35.4114 60.6712L35.183 60.8041L20.0593 69.6049C20.0334 69.7673 20.0029 69.93 19.9775 70.0933L35.3746 61.1335Z" fill="url(#paint49_linear)"/>
<path d="M31.5394 54.5428L31.7679 54.4098L64.4941 35.3659L64.7225 35.2329L65.9225 34.5346C65.7277 34.4994 65.5324 34.4657 65.3382 34.4338L64.5309 34.9036L64.3024 35.0365L31.5762 54.0805L31.3478 54.2134L23.0937 59.0166C23.0114 59.2106 22.9291 59.4047 22.8496 59.5995L31.5394 54.5428Z" fill="url(#paint50_linear)"/>
<path d="M54.2449 125.146L54.0138 124.839L48.2854 128.173C48.4008 128.253 48.5176 128.331 48.6339 128.411L54.2449 125.146Z" fill="url(#paint51_linear)"/>
<path d="M49.6107 119.02L49.3787 118.714L41.7815 123.135C41.8832 123.223 41.9839 123.312 42.086 123.399L49.6107 119.02Z" fill="url(#paint52_linear)"/>
<path d="M52.6334 90.7918L52.8618 90.6589L85.588 71.6149L85.8165 71.482L114.596 54.7347C114.449 54.6726 114.304 54.6101 114.157 54.548L85.6252 71.1512L85.3968 71.2841L52.6705 90.3281L52.4421 90.461L26.902 105.323C26.9652 105.434 27.0301 105.543 27.0942 105.654L52.6334 90.7918Z" fill="url(#paint53_linear)"/>
<path d="M51.9281 122.082L51.6961 121.777L44.9365 125.71C45.0455 125.794 45.154 125.877 45.263 125.961L51.9281 122.082Z" fill="url(#paint54_linear)"/>
<path d="M39.1059 120.721L47.2921 115.958L47.061 115.651L38.8152 120.45C38.9108 120.54 39.0097 120.63 39.1059 120.721Z" fill="url(#paint55_linear)"/>
<path d="M54.5515 94.0881L54.7799 93.9552L87.5062 74.9112L87.7346 74.7783L118.954 56.6114C118.81 56.5478 118.665 56.4847 118.52 56.4216L87.5433 74.4475L87.3149 74.5804L54.5887 93.6244L54.3602 93.7573L28.8936 108.577C28.9631 108.684 29.0309 108.792 29.1013 108.898L54.5515 94.0881Z" fill="url(#paint56_linear)"/>
<path d="M25.2928 102.292L50.7173 87.4969L50.9457 87.364L83.6719 68.32L83.9004 68.1871L110.192 52.8876C110.044 52.8261 109.897 52.7646 109.749 52.7031L83.7082 67.8568L83.4797 67.9898L50.7535 87.0337L50.5251 87.1667L25.1263 101.947C25.1821 102.062 25.2361 102.178 25.2928 102.292Z" fill="url(#paint57_linear)"/>
<path d="M58.8803 131.271L58.6483 130.965L55.6016 132.738C55.7308 132.81 55.859 132.883 55.9886 132.954L58.8803 131.271Z" fill="url(#paint58_linear)"/>
<path d="M61.197 134.334L60.9644 134.027L59.5828 134.831C59.7193 134.899 59.8549 134.968 59.9915 135.035L61.197 134.334Z" fill="url(#paint59_linear)"/>
<path d="M51.8389 130.516C51.9607 130.593 52.083 130.668 52.2058 130.744L56.5626 128.208L56.3306 127.902L51.8389 130.516Z" fill="url(#paint60_linear)"/>
</g>
<path d="M71.792 115.571C71.792 115.571 75.8647 116.41 77.2538 116.97C78.6429 117.53 79.2427 117.918 79.148 118.13C79.0533 118.342 73.3706 118.13 72.455 118.13C71.5395 118.13 69.9609 117.026 69.9609 117.026L71.792 115.571Z" fill="#F6CAAD"/>
<path d="M56.5614 80.3832C59.7597 79.4408 62.3847 83.6304 63.0792 89.173C63.7738 94.7157 64.1248 99.9784 64.7386 101.546C65.3523 103.114 72.5084 115.253 72.5084 115.253L69.4355 117.894C69.4355 117.894 61.2481 111.12 56.8282 102.778C52.4083 94.4357 51.8115 81.7828 56.5614 80.3832Z" fill="#650202"/>
<path d="M42.3983 113.129C41.1448 113.129 34.601 121.239 33.0394 123.019C31.4778 124.799 29.3213 127.464 28.8752 130.827C28.429 134.19 28.9495 135.754 26.9418 137.299C24.934 138.843 23.893 141.942 24.7853 144.316C25.6776 146.69 29.1479 151.454 29.1479 151.454C29.1479 151.454 32.742 151.503 34.8241 148.536C36.9062 145.569 35.0843 142.139 37.4639 139.963C39.8435 137.787 42.252 134.755 41.5828 129.217C40.9135 123.678 41.0704 121.148 41.2935 119.05C41.5166 116.953 42.3983 113.129 42.3983 113.129Z" fill="#72A797"/>
<path d="M28.9375 153.044L28.8127 153.027C28.8272 152.945 30.2702 144.771 30.9316 139.144C31.2727 136.242 32.6001 134.118 33.8837 132.064C35.1504 130.037 36.3469 128.122 36.6202 125.554C37.1728 120.363 41.4844 113.611 41.5279 113.543L41.6376 113.599C41.5943 113.666 37.296 120.398 36.7459 125.565C36.4701 128.156 35.2674 130.081 33.9942 132.118C32.7166 134.163 31.3956 136.277 31.0572 139.156C30.3954 144.786 28.952 152.962 28.9375 153.044Z" fill="#1B1C17"/>
<path d="M69.519 67.7863L70.2767 66.9465C70.2767 66.9465 74.8229 66.2467 75.0123 62.4956C75.2017 58.7446 69.2348 58.4646 66.8355 59.9203C64.4361 61.3759 63.3942 59.0245 60.3319 60.0602C57.2695 61.096 58.2794 64.2032 58.2794 64.2032C58.2794 64.2032 55.8804 64.4551 55.0911 66.2467C54.3019 68.0383 56.5434 70.8376 57.4905 71.5374C58.4376 72.2372 58.5955 73.6649 59.4479 74.0008C60.3003 74.3367 69.519 67.7863 69.519 67.7863Z" fill="#1B1C17"/>
<path d="M67.5128 163.379C67.5128 163.379 67.161 166.466 67.5128 168.097H71.1322C71.1322 168.097 71.5846 166.846 72.4391 167.256C73.2937 167.665 74.2991 168.097 76.6617 168.097H82.895C82.895 168.097 83.711 168.215 83.2779 167.256C82.8447 166.296 77.3152 164.818 73.8969 163.379H67.5128Z" fill="#3B3C3A"/>
<path d="M67.8631 160.668L67.5129 163.379H73.7406L74.1457 160.863L67.8631 160.668Z" fill="#F6CAAD"/>
<path d="M75.3285 161.775H66.6149C66.6149 161.775 65.2258 142.416 64.7384 141.296C64.4277 140.583 61.1267 135.241 58.769 131.453C57.424 129.291 56.386 127.636 56.386 127.636L63.4553 115.814L64.7207 113.699C64.7207 113.699 65.0604 114.37 65.6249 115.499C68.2768 120.811 75.8854 136.241 76.3387 139.393C76.8881 143.214 75.3285 161.775 75.3285 161.775Z" fill="#B4895C"/>
<path d="M43.2821 163.379C43.2821 163.379 42.9302 166.466 43.2821 168.097H46.9015C46.9015 168.097 47.3539 166.846 48.2084 167.256C49.063 167.665 50.0684 168.097 52.431 168.097H58.6643C58.6643 168.097 59.4803 168.215 59.0472 167.256C58.614 166.296 53.0845 164.818 49.6662 163.379H43.2821Z" fill="#3B3C3A"/>
<path d="M43.7891 160.668L43.2825 163.379H49.6666L50.0716 160.863L43.7891 160.668Z" fill="#F6CAAD"/>
<path d="M127.353 163.579L126.599 158.652L121.8 158.988L122.242 164.195L123.505 166.95L127.736 166.714L127.353 163.579Z" fill="#F6CAAD"/>
<path d="M127.567 160.183H121.122L118.739 153.393L114.124 140.246L113.76 139.206L116.033 135.522L119.587 136.15L124.199 136.966L124.434 138.589L127.567 160.183Z" fill="#B4895C"/>
<path d="M124.435 138.589C123.323 138.803 122.14 139.081 121.907 139.337C121.446 139.841 118.739 153.393 118.739 153.393L114.125 140.246L116.244 136.537L119.588 136.15L124.2 136.966L124.435 138.589Z" fill="#96734D"/>
<path d="M127.271 80.8844C126.745 81.9855 127.411 84.1957 129.505 84.4254C131.688 84.6648 136.532 88.1253 136.532 88.1253L142.657 98.2028L150.223 106.544C150.223 106.544 154.811 108.336 158.842 104.753C162.354 101.632 164.314 96.2433 156.421 91.9323C154.407 90.8322 150.532 89.606 148.908 87.808C145.601 84.1478 144.281 80.4033 140.112 78.4957C137.542 77.32 129.464 76.2965 127.271 80.8844Z" fill="#1B1C17"/>
<path d="M143.982 97.2139L137.731 99.1544L136.341 94.9195L135.648 92.81L137.714 89.2515H137.715L138.552 87.8082L143.982 97.2139Z" fill="#F6CAAD"/>
<path d="M134.892 104.165C134.892 104.165 130.514 108.451 129.504 108.6C128.494 108.75 117.212 103.823 116.37 103.524C115.528 103.226 108.478 101.546 107.72 101.546C106.962 101.546 107.025 102.162 107.72 102.386C108.414 102.61 110.498 102.89 110.372 103.562C110.246 104.234 110.435 106.1 111.193 106.212C111.95 106.324 115.044 106.585 115.802 106.865C116.56 107.145 126.41 113.583 130.009 113.695C133.608 113.807 136.639 110.952 136.639 110.952L134.892 104.165Z" fill="#F6CAAD"/>
<path d="M136.007 102.254L132.282 106.256L134.145 107.721C134.145 107.721 136.512 104.121 136.639 103.897" fill="#A40000"/>
<path d="M109.583 163.579L110.901 158.652H105.552L104.079 163.579L102.605 167.46L106.753 166.341L109.583 163.579Z" fill="#F6CAAD"/>
<path opacity="0.68" d="M172.682 139.953H163.59V164.236H172.682V139.953Z" fill="#E2E8E6"/>
<path opacity="0.68" d="M172.682 136.874H163.59V138.273H172.682V136.874Z" fill="#E2E8E6"/>
<path opacity="0.68" d="M159.044 120.074H136.501V164.236H159.044V120.074Z" fill="#E2E8E6"/>
<path d="M151.923 131.654C150.156 135.328 142.289 136.017 120.778 138.157C120.499 138.182 120.234 138.278 120.013 138.431C119.792 138.585 119.625 138.79 119.53 139.024L111.151 160.183H104.248C104.248 160.183 107.951 137.34 109.299 134.589C110.456 132.226 129.489 126.208 134.846 124.553C135.727 124.281 136.239 124.128 136.239 124.128L152.331 129.427C152.355 130.277 152.233 131.012 151.923 131.654Z" fill="#CC9F66"/>
<path d="M107.297 160.211L107.053 160.154C107.07 160.094 108.845 154.043 110.694 148.009C114.448 135.764 114.841 135.522 114.988 135.431C115.8 134.93 139.365 128.682 140.368 128.416L140.44 128.631C131.959 130.878 115.756 135.23 115.133 135.614C114.533 136.091 110.118 150.585 107.297 160.211Z" fill="#96734D"/>
<path d="M151.923 131.654C141.65 130.835 136.265 126.021 134.846 124.553C135.727 124.281 136.239 124.128 136.239 124.128L152.331 129.427C152.355 130.277 152.232 131.012 151.923 131.654Z" fill="#B4895C"/>
<path d="M109.583 163.579C109.583 163.579 110.656 165.514 110.372 168.102H106.078C106.078 168.102 105.731 166.994 104.879 167.218C104.026 167.442 103.947 168.102 100.996 168.102H97.144C97.144 168.102 96.0706 167.862 96.3231 167.246C96.5757 166.63 103.036 164.368 103.679 163.579C104.5 162.571 106.71 163.103 105.921 164.195C104.85 165.676 106.678 165.594 107.247 164.754C107.815 163.915 109.583 163.579 109.583 163.579Z" fill="#3B3C3A"/>
<path d="M127.353 163.579C127.353 163.579 128.426 165.514 128.142 168.102H123.849C123.849 168.102 123.501 166.994 122.649 167.218C121.797 167.442 121.718 168.102 118.766 168.102H114.914C114.914 168.102 113.841 167.862 114.093 167.246C114.346 166.63 119.98 164.28 121.449 163.579C123.079 162.801 124.105 163.467 123.691 164.195C122.797 165.765 124.449 165.594 125.017 164.754C125.585 163.915 127.353 163.579 127.353 163.579Z" fill="#3B3C3A"/>
<path d="M152.992 129.895C152.992 129.895 151.414 130.267 145.541 129.035C139.669 127.804 135.129 124.466 135.129 124.466C135.982 123.552 136.071 121.617 135.849 119.552C135.621 117.422 135.06 115.153 134.663 113.731C134.42 112.852 134.239 112.295 134.239 112.295C130.64 109.832 137.396 98.075 137.396 98.075L141.69 95.7796C141.69 95.7796 144.721 94.7158 147.878 97.3472C151.035 99.9785 149.519 111.456 149.582 114.143C149.646 116.83 152.992 129.895 152.992 129.895Z" fill="url(#paint61_linear)"/>
<path d="M146.307 102.079C146.307 102.079 145.415 107.201 142.384 112.295C139.774 116.683 136.661 118.996 135.849 119.552C135.621 117.421 135.06 115.153 134.663 113.731L135.376 112.61L146.307 102.079Z" fill="#9F0606"/>
<path d="M135.313 107.257C135.313 107.257 132.787 111.12 132.156 111.344C131.524 111.568 116.433 115.767 115.36 115.99C114.286 116.214 110.519 115.468 109.467 115.58C108.414 115.692 106.141 117.334 105.889 117.782C105.636 118.23 109.719 117.334 110.098 117.371C110.477 117.409 113.971 118.118 115.57 118.267C117.17 118.417 132.898 116.62 135.2 115.839C137.502 115.057 140.869 109.944 140.869 109.944L135.313 107.257Z" fill="#F6CAAD"/>
<path d="M134.459 107.816C135.241 108.074 135.95 108.482 136.533 109.011C137.46 109.869 141.501 111.773 141.501 111.773C141.501 111.773 144.994 106.074 145.71 104.165C146.426 102.255 147.215 99.7141 143.979 98.9504C140.743 98.1868 134.459 107.816 134.459 107.816Z" fill="#FF4F4F"/>
<path d="M138.969 88.5294C138.969 88.5294 139.562 91.2045 138.426 95.0862C137.289 98.9679 141.803 100.102 144.314 100.722C147.487 101.506 146.528 105.124 150.222 106.544L151.433 102.85L146.55 92.1357L138.969 88.5294Z" fill="#1B1C17"/>
<path d="M122.311 118.13H70.2573V120.136H122.311V118.13Z" fill="#1B1C17"/>
<path d="M115.061 121.249H77.5081V121.95H115.061V121.249Z" fill="#1B1C17"/>
<path d="M77.5081 119.944L72.2053 168.155H72.9629L81.7287 119.944H77.5081Z" fill="#1B1C17"/>
<path d="M115.06 119.944L120.363 168.155H119.606L110.84 119.944H115.06Z" fill="#1B1C17"/>
<path d="M64.7201 113.698C64.6255 114.377 64.4749 115.048 64.2693 115.707C63.2161 119.105 61.0579 121.249 61.0579 121.249L58.7684 131.453L51.9655 161.775H43.1257C43.1257 161.775 46.0302 130.547 45.904 123.381C45.8471 120.14 46.4356 117.151 47.0973 114.848C47.1302 114.739 47.1617 114.63 47.1933 114.523C47.9573 111.963 48.7819 110.331 48.8072 110.281L48.8085 110.28C48.8085 110.28 48.8981 110.274 49.0648 110.264C50.8277 110.165 61.1665 109.685 64.0129 112.059C64.5421 112.5 64.8123 113.04 64.7201 113.698Z" fill="#CC9F66"/>
<path d="M53.7979 115.237L46.6094 161.761L46.8596 161.791L54.0481 115.267L53.7979 115.237Z" fill="#96734D"/>
<path d="M64.7206 113.698C64.6261 114.377 64.4754 115.048 64.2698 115.707C64.0059 115.743 63.7344 115.78 63.4553 115.814C60.6139 116.165 57.1651 116.065 54.7443 115.571C52.5798 115.128 49.5983 114.932 47.0979 114.848C47.1307 114.739 47.1623 114.63 47.1939 114.523C47.9579 111.963 48.7825 110.331 48.8078 110.281L48.809 110.28C48.809 110.28 48.8987 110.274 49.0654 110.264C53.6381 110.81 60.9637 111.684 64.0134 112.059C64.5426 112.5 64.8128 113.04 64.7206 113.698Z" fill="#96734D"/>
<path d="M67.6818 92.7664C67.6048 95.2914 67.428 98.7804 67.231 102.258C66.8622 108.773 66.4202 115.244 66.4202 115.244C66.4202 115.244 57.2698 115.394 53.9321 114.498C50.5945 113.602 45.3992 113.698 45.3992 113.698C45.3992 113.698 45.9889 111.661 47.8402 105.34C49.6928 99.019 48.6825 95.2387 49.8608 88.9683C51.0402 82.6978 56.8581 77.4542 56.8581 77.4542L63.2733 80.2501C63.2733 80.2501 67.5404 85.5341 67.7096 89.714C67.7361 90.3646 67.7222 91.4306 67.6818 92.7664Z" fill="#FF4F4F"/>
<path d="M67.6818 92.7663C67.6048 95.2913 67.428 98.7803 67.231 102.258C60.0215 99.0827 57.4744 87.8082 57.4744 87.8082L67.6818 92.7663Z" fill="#8E0808"/>
<path d="M61.0585 80.8311C61.0585 80.8311 64.2155 81.9508 68.3197 86.0378C72.4239 90.1248 72.6134 90.7407 73.4342 90.7407C74.255 90.7407 81.39 83.0146 81.39 83.0146L85.3679 85.198C85.3679 85.198 80.5878 97.7872 72.5081 99.0722C64.4284 100.357 56.386 86.0378 56.386 86.0378L61.0585 80.8311Z" fill="#FF4F4F"/>
<path d="M65.3103 75.3446L64.3114 77.7498L63.2734 80.2501L56.8582 77.4542L60.3006 71.4256L60.9763 71.9541L65.3103 75.3446Z" fill="#F6CAAD"/>
<path d="M65.3099 75.3445L64.311 77.7496C60.866 76.6232 60.866 72.4881 60.866 72.4881L60.9758 71.9539L65.3099 75.3445Z" fill="#F0B48D"/>
<path d="M70.2765 66.9466C70.2765 66.9466 70.0303 76.0288 65.3094 76.0444C62.3839 76.0541 60.3002 71.4252 60.3002 71.4252C60.3002 71.4252 58.2481 71.1456 58.2797 69.41C58.3112 67.6744 60.5843 68.7662 60.5843 68.7662C60.5843 68.7662 61.4683 69.8019 62.226 68.5982C62.9837 67.3945 62.8776 65.9669 62.8776 65.9669C62.8776 65.9669 66.2986 67.8984 70.2765 66.9466Z" fill="#F6CAAD"/>
<path d="M81.5376 83.4066C81.5376 83.4066 81.8744 80.9992 82.8636 80.0847C83.8528 79.1703 85.5155 76.9122 85.7049 77.0988C85.8943 77.2854 86.168 77.3228 85.1367 79.6182C85.1367 79.6182 86.5468 78.4238 87.2414 77.8266C87.9359 77.2295 88.8199 75.8671 89.4092 75.6245C89.9985 75.3819 90.1248 77.752 89.5355 79.0583C88.9462 80.3647 84.9021 84.3096 84.7458 84.8565C84.5894 85.4034 81.5376 83.4066 81.5376 83.4066Z" fill="#F6CAAD"/>
<path d="M99.2964 62.8282H126.277V73.495H121.826V80.0221L116.828 73.495H99.2964V62.8282Z" fill="url(#paint62_linear)"/>
<path d="M121.952 80.3864L116.761 73.607H99.1699V62.7164H126.403V73.607H121.952V80.3864ZM99.4225 73.3831H116.895L121.699 79.6579V73.3831H126.15V62.9403H99.4225V73.3831Z" fill="#1B1C17"/>
<path opacity="0.59" d="M122.196 65.0181H103.476V65.6679H122.196V65.0181Z" fill="#74AEAF"/>
<path opacity="0.59" d="M122.196 67.7354H103.476V68.3851H122.196V67.7354Z" fill="#74AEAF"/>
<path opacity="0.59" d="M122.196 70.3196H103.476V70.9694H122.196V70.3196Z" fill="#74AEAF"/>
<path opacity="0.59" d="M108.856 56.7957H80.0215V67.1314H85.3719V73.2407L91.3791 67.1314H108.856V56.7957Z" fill="#74AEAF"/>
<path d="M0.543514 122.699C0.283532 122.669 2.84871 129.217 4.11285 131.459C5.37699 133.7 5.56289 137.128 7.79372 139.963C10.0246 142.798 13.0362 145.371 16.0106 146.03C18.9851 146.689 20.0261 148.536 22.9262 149.92C25.8263 151.305 29.2469 151.898 29.2469 151.898C29.2469 151.898 27.2392 142.536 25.0827 140.36C22.9262 138.184 22.0711 136.425 19.3941 134.151C17.1801 132.27 14.8952 131.788 12.5157 129.876C10.1361 127.964 7.53346 123.5 0.543514 122.699Z" fill="#74AEAF"/>
<path d="M29.6538 152.777C29.6188 152.705 26.0849 145.502 20.5392 143.262C16.2179 141.517 14.6089 138.82 12.7458 135.696C12.1552 134.706 11.5444 133.682 10.8074 132.608C7.72501 128.119 0.804632 122.823 0.735107 122.77L0.817369 122.685C0.887076 122.738 7.82259 128.045 10.9152 132.55C11.6542 133.627 12.2659 134.652 12.8574 135.644C14.7861 138.877 16.3095 141.431 20.5916 143.16C26.182 145.418 29.7346 152.66 29.7699 152.733L29.6538 152.777Z" fill="#1B1C17"/>
<path d="M34.1759 168.102H25.9905L23.989 150.926H36.1774L34.1759 168.102Z" fill="white"/>
<path opacity="0.68" d="M34.1759 168.102H25.9905L23.989 150.926H36.1774L34.1759 168.102Z" fill="#E2E8E6"/>
<path d="M102.208 117.304H80.2777C79.8835 117.304 79.4663 117.021 79.3458 116.671L74.5929 102.887C74.4724 102.537 74.6942 102.254 75.0883 102.254H97.0188C97.413 102.254 97.8302 102.537 97.9507 102.887L102.704 116.671C102.824 117.021 102.602 117.304 102.208 117.304Z" fill="#4F8D88"/>
<path d="M101.892 116.613H80.1164L75.4038 102.945H97.1794L101.892 116.613Z" fill="url(#paint63_linear)"/>
<path opacity="0.26" d="M94.3419 115.562H99.9085L96.178 104.743H90.6113L94.3419 115.562Z" fill="#FF4F4F"/>
<path d="M82.5401 109.027C81.3623 109.389 79.7535 108.746 78.9469 107.591C78.1402 106.436 78.4411 105.206 79.6189 104.844C79.793 104.791 79.9741 104.759 80.1577 104.748C80.8566 104.704 81.6309 104.94 82.2784 105.375C82.6496 105.623 82.9662 105.93 83.2123 106.28C83.5574 106.774 83.6998 107.282 83.6575 107.729C83.6403 107.929 83.5809 108.124 83.4821 108.305C83.3871 108.475 83.2548 108.626 83.0931 108.75C82.9313 108.874 82.7433 108.968 82.5401 109.027Z" fill="#FF4F4F"/>
<path d="M83.2121 106.28L80.9649 106.97L80.1575 104.748C81.2485 104.68 82.523 105.293 83.2121 106.28Z" fill="#DAE5E1"/>
<path d="M90.139 106.936C90.2361 107.204 90.2708 107.488 90.2413 107.769C90.146 108.566 89.4551 109.127 88.4225 109.127C87.0571 109.127 85.6125 108.146 85.1953 106.936C84.7778 105.725 85.5456 104.743 86.911 104.743C87.7652 104.743 88.6513 105.128 89.2964 105.712C89.6832 106.055 89.9721 106.474 90.139 106.936Z" fill="#FF4F4F"/>
<path d="M90.1394 106.936C90.2365 107.204 90.2712 107.488 90.2417 107.769L87.6672 106.936L86.9114 104.743C87.7656 104.743 88.6516 105.128 89.2968 105.712C89.6835 106.055 89.9724 106.474 90.1394 106.936Z" fill="#DAE5E1"/>
<path opacity="0.59" d="M93.1136 115.562H81.5814L79.9548 110.845H91.487L93.1136 115.562Z" fill="#FF4F4F"/>
<g opacity="0.59">
<path opacity="0.59" d="M91.6821 114.797H82.4846L82.4199 114.609H91.6175L91.6821 114.797Z" fill="#74AEAF"/>
<path opacity="0.59" d="M91.3374 113.797H82.1398L82.0752 113.61H91.2727L91.3374 113.797Z" fill="#74AEAF"/>
<path opacity="0.59" d="M90.9929 112.797H81.7954L81.7307 112.61H90.9282L90.9929 112.797Z" fill="#74AEAF"/>
<path opacity="0.59" d="M90.6482 111.798H81.4506L81.386 111.61H90.5835L90.6482 111.798Z" fill="#74AEAF"/>
</g>
<g opacity="0.51">
<path opacity="0.51" d="M96.8023 108.814H92.8427L92.7781 108.627H96.7377L96.8023 108.814Z" fill="#74AEAF"/>
</g>
<g opacity="0.51">
<path opacity="0.51" d="M96.4577 107.815H92.4979L92.4333 107.627H96.3931L96.4577 107.815Z" fill="#74AEAF"/>
</g>
<g opacity="0.51">
<path opacity="0.51" d="M96.113 106.815H92.1533L92.0886 106.628H96.0484L96.113 106.815Z" fill="#74AEAF"/>
</g>
<g opacity="0.51">
<path opacity="0.51" d="M95.7682 105.815H91.8085L91.7439 105.628H95.7036L95.7682 105.815Z" fill="#74AEAF"/>
</g>
<g opacity="0.51">
<path opacity="0.51" d="M98.1758 112.797H94.216L94.1514 112.61H98.1111L98.1758 112.797Z" fill="#74AEAF"/>
</g>
<g opacity="0.51">
<path opacity="0.51" d="M97.8305 111.798H93.8708L93.8062 111.61H97.7658L97.8305 111.798Z" fill="#74AEAF"/>
</g>
<g opacity="0.51">
<path opacity="0.51" d="M97.4861 110.798H93.5263L93.4617 110.611H97.4214L97.4861 110.798Z" fill="#74AEAF"/>
</g>
<g opacity="0.51">
<path opacity="0.51" d="M98.8326 114.703H94.8729L94.8083 114.516H98.768L98.8326 114.703Z" fill="#74AEAF"/>
</g>
<g opacity="0.51">
<path opacity="0.51" d="M98.488 113.703H94.5283L94.4636 113.516H98.4233L98.488 113.703Z" fill="#74AEAF"/>
</g>
<g opacity="0.51">
<path opacity="0.51" d="M97.1415 109.798H93.1818L93.1172 109.611H97.0769L97.1415 109.798Z" fill="#74AEAF"/>
</g>
<path d="M112.039 118.061H79.8919C79.7693 118.061 79.6517 118.018 79.5651 117.941C79.4784 117.864 79.4297 117.76 79.4297 117.652C79.4297 117.543 79.4784 117.439 79.5651 117.362C79.6517 117.285 79.7693 117.242 79.8919 117.242H112.039C112.099 117.242 112.16 117.252 112.216 117.273C112.272 117.294 112.323 117.324 112.366 117.362C112.408 117.4 112.443 117.445 112.466 117.495C112.489 117.544 112.501 117.598 112.501 117.652C112.501 117.76 112.452 117.864 112.366 117.941C112.279 118.018 112.161 118.061 112.039 118.061Z" fill="#4F8D88"/>
<path d="M148.543 134.589V134.253C154.172 134.253 158.751 130.192 158.751 125.202H159.13C159.13 130.378 154.381 134.589 148.543 134.589Z" fill="#070C0A"/>
<path d="M152.331 137.587C152.33 138.478 151.931 139.332 151.221 139.961C150.51 140.591 149.547 140.945 148.543 140.946H128.485C127.591 140.945 126.726 140.665 126.043 140.153C125.36 139.642 124.902 138.933 124.752 138.151C124.715 137.965 124.697 137.776 124.698 137.587C124.699 136.697 125.098 135.843 125.808 135.213C126.518 134.584 127.481 134.23 128.485 134.229H148.543C149.547 134.23 150.51 134.584 151.22 135.214C151.93 135.843 152.33 136.697 152.331 137.587Z" fill="#6FACA7"/>
<path d="M162.295 104.165H162.295C163.3 104.165 164.263 104.519 164.973 105.149C165.684 105.778 166.083 106.633 166.083 107.523V125.307C166.083 126.198 165.684 127.052 164.973 127.682C164.263 128.312 163.3 128.666 162.295 128.666C161.29 128.666 160.327 128.312 159.617 127.682C158.906 127.052 158.507 126.198 158.507 125.307V107.523C158.507 107.082 158.605 106.646 158.796 106.238C158.986 105.831 159.265 105.46 159.617 105.149C159.968 104.837 160.386 104.589 160.846 104.421C161.305 104.252 161.798 104.165 162.295 104.165Z" fill="#6FACA7"/>
<path d="M147.461 140.946H146.054V164.455H147.461V140.946Z" fill="#1B1C17"/>
<path d="M147.461 164.455H132.67V165.703H147.461V164.455Z" fill="#1B1C17"/>
<path d="M148.824 140.946H144.691V146.895H148.824V140.946Z" fill="#1B1C17"/>
<path d="M133.589 167.764C134.096 167.315 134.096 166.586 133.589 166.136C133.082 165.686 132.259 165.686 131.752 166.136C131.245 166.586 131.245 167.315 131.752 167.764C132.259 168.214 133.082 168.214 133.589 167.764Z" fill="#1B1C17"/>
<path d="M148.379 167.764C148.886 167.315 148.886 166.586 148.379 166.136C147.872 165.686 147.05 165.686 146.543 166.136C146.035 166.586 146.035 167.315 146.543 167.764C147.05 168.214 147.872 168.214 148.379 167.764Z" fill="#1B1C17"/>
<path d="M152.331 137.588C152.33 138.478 151.931 139.332 151.22 139.961C150.51 140.591 149.547 140.945 148.543 140.946H128.485C127.591 140.946 126.726 140.665 126.043 140.154C125.36 139.642 124.902 138.933 124.752 138.152C125.739 138.497 139.996 143.31 151.528 135.523C152.05 136.111 152.332 136.839 152.331 137.588Z" fill="#4F8D88"/>
<path d="M136.341 94.9195L135.648 92.8099L137.714 89.2515H137.715C138.024 89.116 138.206 89.0364 138.206 89.0364C138.206 89.0364 138.584 93.2198 136.341 94.9195Z" fill="#F0B48D"/>
<path d="M129.505 84.4256C129.505 84.4256 129.068 88.3376 131.615 91.6908C134.162 95.044 137.102 92.7745 138.206 89.0371C138.206 89.0371 140.048 88.1423 140.111 86.5127C140.173 84.883 137.753 84.8155 137.375 86.059C137.375 86.059 136.588 86.5502 136.341 85.9195C136.094 85.2888 136.419 84.3509 134.361 84.6218C132.302 84.8926 129.505 84.4256 129.505 84.4256Z" fill="#F6CAAD"/>
<path d="M2.54718 144.05C1.9794 144.395 6.67242 145.925 9.28228 146.522C11.8921 147.119 11.8921 148.761 16.0174 149.956C20.1426 151.15 20.0584 149.956 22.5841 150.926C25.1097 151.896 28.8088 150.926 28.8088 150.926C28.8088 150.926 23.426 144.954 21.2371 144.432C19.0482 143.909 17.0276 144.563 12.4814 144.05C7.93526 143.536 3.05232 143.742 2.54718 144.05Z" fill="#4F8D88"/>
<path d="M28.7718 150.971C24.3973 148.16 21.2622 147.534 18.2304 146.929C16.5064 146.585 14.878 146.26 13.1079 145.546C8.32018 143.617 2.82563 144.417 2.77079 144.425L2.74951 144.315C2.80489 144.307 8.33643 143.5 13.1601 145.444C14.9184 146.153 16.5406 146.477 18.2581 146.82C21.3024 147.427 24.4504 148.056 28.8459 150.881L28.7718 150.971Z" fill="#1B1C17"/>
<path opacity="0.59" d="M31.04 150.926C31.04 150.926 33.4815 145.505 38.5328 144.857C43.5841 144.208 47.3272 146.872 52.7801 147.257C58.233 147.641 61.3673 152.12 62.41 154.658C62.41 154.658 59.9372 154.285 58.7063 155.032C57.4753 155.778 56.3808 156.151 51.3295 155.629C46.2782 155.106 43.6883 155.321 40.5534 153.389C35.7599 150.436 31.04 150.926 31.04 150.926Z" fill="#74AEAF"/>
<path d="M61.925 154.32C61.8724 154.264 56.6182 148.637 52.0082 148.966C47.3238 149.301 45.1222 148.693 43.1798 148.156C41.6906 147.745 40.4046 147.39 38.3029 147.603C33.592 148.079 31.115 150.931 31.0906 150.959L30.9897 150.892C31.0145 150.863 33.5218 147.974 38.2886 147.491C40.4167 147.276 41.7145 147.634 43.2174 148.05C45.1489 148.583 47.338 149.188 51.998 148.855C56.6754 148.516 61.9697 154.192 62.0227 154.25L61.925 154.32Z" fill="#1B1C17"/>
<path d="M61.0585 121.249L64.7384 141.296L58.769 131.453L61.0585 121.249Z" fill="#96734D"/>
<path d="M57.6631 76.0443L63.2734 80.2499L56.8582 77.454L57.6631 76.0443Z" fill="#BDC7C3"/>
<path d="M154.551 89.8946C149.973 88.4835 148.286 86.4998 146.333 84.2029C145.603 83.3448 144.849 82.4573 143.89 81.5351C140.44 78.2177 136.986 78.4758 136.952 78.4791L136.927 78.2563C136.962 78.2531 140.536 77.9787 144.075 81.3833C145.043 82.3136 145.801 83.2056 146.535 84.0681C148.463 86.3359 150.129 88.2943 154.634 89.6831L154.551 89.8946Z" fill="#1B1C17"/>
<path d="M54.3943 66.287L54.1677 66.1881C54.1816 66.1631 55.5903 63.6917 58.5542 64.149L58.5109 64.3697C55.732 63.9412 54.4074 66.2635 54.3943 66.287Z" fill="#1B1C17"/>
<path d="M172.809 129.916H172.556V132.629H172.809V129.916Z" fill="#1B1C17"/>
<path d="M174.212 131.16H171.153V131.385H174.212V131.16Z" fill="#1B1C17"/>
<defs>
<filter id="filter0_d" x="5.79956" y="20.4482" width="191.641" height="171.279" filterUnits="userSpaceOnUse" color-interpolation-filters="sRGB">
<feFlood flood-opacity="0" result="BackgroundImageFix"/>
<feColorMatrix in="SourceAlpha" type="matrix" values="0 0 0 0 0 0 0 0 0 0 0 0 0 0 0 0 0 0 127 0"/>
<feOffset dx="8" dy="8"/>
<feGaussianBlur stdDeviation="7"/>
<feColorMatrix type="matrix" values="0 0 0 0 0 0 0 0 0 0 0 0 0 0 0 0 0 0 0.25 0"/>
<feBlend mode="normal" in2="BackgroundImageFix" result="effect1_dropShadow"/>
<feBlend mode="normal" in="SourceGraphic" in2="effect1_dropShadow" result="shape"/>
</filter>
<filter id="filter1_d" x="12.8716" y="93.1592" width="49.9148" height="64.6996" filterUnits="userSpaceOnUse" color-interpolation-filters="sRGB">
<feFlood flood-opacity="0" result="BackgroundImageFix"/>
<feColorMatrix in="SourceAlpha" type="matrix" values="0 0 0 0 0 0 0 0 0 0 0 0 0 0 0 0 0 0 127 0"/>
<feOffset dx="8" dy="8"/>
<feGaussianBlur stdDeviation="7"/>
<feColorMatrix type="matrix" values="0 0 0 0 0 0 0 0 0 0 0 0 0 0 0 0 0 0 0.25 0"/>
<feBlend mode="normal" in2="BackgroundImageFix" result="effect1_dropShadow"/>
<feBlend mode="normal" in="SourceGraphic" in2="effect1_dropShadow" result="shape"/>
</filter>
<filter id="filter2_d" x="32.2029" y="32.4673" width="38.9667" height="39.7358" filterUnits="userSpaceOnUse" color-interpolation-filters="sRGB">
<feFlood flood-opacity="0" result="BackgroundImageFix"/>
<feColorMatrix in="SourceAlpha" type="matrix" values="0 0 0 0 0 0 0 0 0 0 0 0 0 0 0 0 0 0 127 0"/>
<feOffset dx="8" dy="8"/>
<feGaussianBlur stdDeviation="7"/>
<feColorMatrix type="matrix" values="0 0 0 0 0 0 0 0 0 0 0 0 0 0 0 0 0 0 0.25 0"/>
<feBlend mode="normal" in2="BackgroundImageFix" result="effect1_dropShadow"/>
<feBlend mode="normal" in="SourceGraphic" in2="effect1_dropShadow" result="shape"/>
</filter>
<filter id="filter3_d" x="26.9368" y="134.329" width="32.1241" height="32.0467" filterUnits="userSpaceOnUse" color-interpolation-filters="sRGB">
<feFlood flood-opacity="0" result="BackgroundImageFix"/>
<feColorMatrix in="SourceAlpha" type="matrix" values="0 0 0 0 0 0 0 0 0 0 0 0 0 0 0 0 0 0 127 0"/>
<feOffset dx="8" dy="8"/>
<feGaussianBlur stdDeviation="7"/>
<feColorMatrix type="matrix" values="0 0 0 0 0 0 0 0 0 0 0 0 0 0 0 0 0 0 0.25 0"/>
<feBlend mode="normal" in2="BackgroundImageFix" result="effect1_dropShadow"/>
<feBlend mode="normal" in="SourceGraphic" in2="effect1_dropShadow" result="shape"/>
</filter>
<filter id="filter4_d" x="44.8113" y="143.889" width="49.422" height="49.0201" filterUnits="userSpaceOnUse" color-interpolation-filters="sRGB">
<feFlood flood-opacity="0" result="BackgroundImageFix"/>
<feColorMatrix in="SourceAlpha" type="matrix" values="0 0 0 0 0 0 0 0 0 0 0 0 0 0 0 0 0 0 127 0"/>
<feOffset dx="8" dy="8"/>
<feGaussianBlur stdDeviation="7"/>
<feColorMatrix type="matrix" values="0 0 0 0 0 0 0 0 0 0 0 0 0 0 0 0 0 0 0.25 0"/>
<feBlend mode="normal" in2="BackgroundImageFix" result="effect1_dropShadow"/>
<feBlend mode="normal" in="SourceGraphic" in2="effect1_dropShadow" result="shape"/>
</filter>
<filter id="filter5_d" x="4.45557" y="80.1076" width="40.7061" height="40.4677" filterUnits="userSpaceOnUse" color-interpolation-filters="sRGB">
<feFlood flood-opacity="0" result="BackgroundImageFix"/>
<feColorMatrix in="SourceAlpha" type="matrix" values="0 0 0 0 0 0 0 0 0 0 0 0 0 0 0 0 0 0 127 0"/>
<feOffset dx="8" dy="8"/>
<feGaussianBlur stdDeviation="7"/>
<feColorMatrix type="matrix" values="0 0 0 0 0 0 0 0 0 0 0 0 0 0 0 0 0 0 0.25 0"/>
<feBlend mode="normal" in2="BackgroundImageFix" result="effect1_dropShadow"/>
<feBlend mode="normal" in="SourceGraphic" in2="effect1_dropShadow" result="shape"/>
</filter>
<filter id="filter6_d" x="35.9929" y="46.0366" width="31.5531" height="31.0431" filterUnits="userSpaceOnUse" color-interpolation-filters="sRGB">
<feFlood flood-opacity="0" result="BackgroundImageFix"/>
<feColorMatrix in="SourceAlpha" type="matrix" values="0 0 0 0 0 0 0 0 0 0 0 0 0 0 0 0 0 0 127 0"/>
<feOffset dx="8" dy="8"/>
<feGaussianBlur stdDeviation="7"/>
<feColorMatrix type="matrix" values="0 0 0 0 0 0 0 0 0 0 0 0 0 0 0 0 0 0 0.25 0"/>
<feBlend mode="normal" in2="BackgroundImageFix" result="effect1_dropShadow"/>
<feBlend mode="normal" in="SourceGraphic" in2="effect1_dropShadow" result="shape"/>
</filter>
<filter id="filter7_d" x="162.601" y="99.2253" width="32.1241" height="32.0467" filterUnits="userSpaceOnUse" color-interpolation-filters="sRGB">
<feFlood flood-opacity="0" result="BackgroundImageFix"/>
<feColorMatrix in="SourceAlpha" type="matrix" values="0 0 0 0 0 0 0 0 0 0 0 0 0 0 0 0 0 0 127 0"/>
<feOffset dx="8" dy="8"/>
<feGaussianBlur stdDeviation="7"/>
<feColorMatrix type="matrix" values="0 0 0 0 0 0 0 0 0 0 0 0 0 0 0 0 0 0 0.25 0"/>
<feBlend mode="normal" in2="BackgroundImageFix" result="effect1_dropShadow"/>
<feBlend mode="normal" in="SourceGraphic" in2="effect1_dropShadow" result="shape"/>
</filter>
<filter id="filter8_d" x="149.764" y="105.651" width="47.8864" height="40.4785" filterUnits="userSpaceOnUse" color-interpolation-filters="sRGB">
<feFlood flood-opacity="0" result="BackgroundImageFix"/>
<feColorMatrix in="SourceAlpha" type="matrix" values="0 0 0 0 0 0 0 0 0 0 0 0 0 0 0 0 0 0 127 0"/>
<feOffset dx="8" dy="8"/>
<feGaussianBlur stdDeviation="7"/>
<feColorMatrix type="matrix" values="0 0 0 0 0 0 0 0 0 0 0 0 0 0 0 0 0 0 0.25 0"/>
<feBlend mode="normal" in2="BackgroundImageFix" result="effect1_dropShadow"/>
<feBlend mode="normal" in="SourceGraphic" in2="effect1_dropShadow" result="shape"/>
</filter>
<filter id="filter9_d" x="34.9827" y="94.5449" width="32.3724" height="32.2201" filterUnits="userSpaceOnUse" color-interpolation-filters="sRGB">
<feFlood flood-opacity="0" result="BackgroundImageFix"/>
<feColorMatrix in="SourceAlpha" type="matrix" values="0 0 0 0 0 0 0 0 0 0 0 0 0 0 0 0 0 0 127 0"/>
<feOffset dx="8" dy="8"/>
<feGaussianBlur stdDeviation="7"/>
<feColorMatrix type="matrix" values="0 0 0 0 0 0 0 0 0 0 0 0 0 0 0 0 0 0 0.25 0"/>
<feBlend mode="normal" in2="BackgroundImageFix" result="effect1_dropShadow"/>
<feBlend mode="normal" in="SourceGraphic" in2="effect1_dropShadow" result="shape"/>
</filter>
<linearGradient id="paint0_linear" x1="16.7836" y1="-2.20779" x2="193.445" y2="7.95642" gradientUnits="userSpaceOnUse">
<stop offset="0.0756841" stop-color="#B565D8"/>
<stop offset="0.945898" stop-color="#EE609C"/>
</linearGradient>
<linearGradient id="paint1_linear" x1="7.81476" y1="105.119" x2="31.0583" y2="88.5099" gradientUnits="userSpaceOnUse">
<stop offset="0.0756841" stop-color="#B565D8"/>
<stop offset="0.945898" stop-color="#EE609C"/>
</linearGradient>
<linearGradient id="paint2_linear" x1="35.3438" y1="39.7965" x2="46.7838" y2="34.611" gradientUnits="userSpaceOnUse">
<stop offset="0.0756841" stop-color="#B565D8"/>
<stop offset="0.945898" stop-color="#EE609C"/>
</linearGradient>
<linearGradient id="paint3_linear" x1="31.6671" y1="142.97" x2="33.8642" y2="138.966" gradientUnits="userSpaceOnUse">
<stop offset="0.0756841" stop-color="#B565D8"/>
<stop offset="0.945898" stop-color="#EE609C"/>
</linearGradient>
<linearGradient id="paint4_linear" x1="44.2162" y1="163.607" x2="55.6289" y2="142.807" gradientUnits="userSpaceOnUse">
<stop offset="0.0756841" stop-color="#B565D8"/>
<stop offset="0.945898" stop-color="#EE609C"/>
</linearGradient>
<linearGradient id="paint5_linear" x1="6.54385" y1="94.2439" x2="13.3131" y2="81.9067" gradientUnits="userSpaceOnUse">
<stop offset="0.0756841" stop-color="#B565D8"/>
<stop offset="0.945898" stop-color="#EE609C"/>
</linearGradient>
<linearGradient id="paint6_linear" x1="46.3388" y1="52.4827" x2="45.7181" y2="55.822" gradientUnits="userSpaceOnUse">
<stop offset="0.0756841" stop-color="#B565D8"/>
<stop offset="0.945898" stop-color="#EE609C"/>
</linearGradient>
<linearGradient id="paint7_linear" x1="167.331" y1="107.866" x2="169.528" y2="103.862" gradientUnits="userSpaceOnUse">
<stop offset="0.0756841" stop-color="#B565D8"/>
<stop offset="0.945898" stop-color="#EE609C"/>
</linearGradient>
<linearGradient id="paint8_linear" x1="162.123" y1="103.915" x2="179.514" y2="113.485" gradientUnits="userSpaceOnUse">
<stop offset="0.0756841" stop-color="#B565D8"/>
<stop offset="0.945898" stop-color="#EE609C"/>
</linearGradient>
<linearGradient id="paint9_linear" x1="42.5275" y1="99.0617" x2="46.7255" y2="101.32" gradientUnits="userSpaceOnUse">
<stop offset="0.0756841" stop-color="#B565D8"/>
<stop offset="0.945898" stop-color="#EE609C"/>
</linearGradient>
<linearGradient id="paint10_linear" x1="63.376" y1="119.302" x2="68.0167" y2="126.025" gradientUnits="userSpaceOnUse">
<stop offset="0.0756841" stop-color="#B565D8"/>
<stop offset="0.945898" stop-color="#EE609C"/>
</linearGradient>
<linearGradient id="paint11_linear" x1="54.8739" y1="115.427" x2="59.504" y2="122.158" gradientUnits="userSpaceOnUse">
<stop offset="0.0756841" stop-color="#B565D8"/>
<stop offset="0.945898" stop-color="#EE609C"/>
</linearGradient>
<linearGradient id="paint12_linear" x1="38.9077" y1="115.895" x2="43.5075" y2="122.679" gradientUnits="userSpaceOnUse">
<stop offset="0.0756841" stop-color="#B565D8"/>
<stop offset="0.945898" stop-color="#EE609C"/>
</linearGradient>
<linearGradient id="paint13_linear" x1="33.8451" y1="110.018" x2="38.4603" y2="116.791" gradientUnits="userSpaceOnUse">
<stop offset="0.0756841" stop-color="#B565D8"/>
<stop offset="0.945898" stop-color="#EE609C"/>
</linearGradient>
<linearGradient id="paint14_linear" x1="59.3361" y1="117.243" x2="63.972" y2="123.969" gradientUnits="userSpaceOnUse">
<stop offset="0.0756841" stop-color="#B565D8"/>
<stop offset="0.945898" stop-color="#EE609C"/>
</linearGradient>
<linearGradient id="paint15_linear" x1="49.8589" y1="113.934" x2="54.4815" y2="120.671" gradientUnits="userSpaceOnUse">
<stop offset="0.0756841" stop-color="#B565D8"/>
<stop offset="0.945898" stop-color="#EE609C"/>
</linearGradient>
<linearGradient id="paint16_linear" x1="36.2843" y1="113.01" x2="40.8909" y2="119.789" gradientUnits="userSpaceOnUse">
<stop offset="0.0756841" stop-color="#B565D8"/>
<stop offset="0.945898" stop-color="#EE609C"/>
</linearGradient>
<linearGradient id="paint17_linear" x1="94.436" y1="145.341" x2="99.1311" y2="152.019" gradientUnits="userSpaceOnUse">
<stop offset="0.0756841" stop-color="#B565D8"/>
<stop offset="0.945898" stop-color="#EE609C"/>
</linearGradient>
<linearGradient id="paint18_linear" x1="88.8033" y1="139.796" x2="93.4961" y2="146.505" gradientUnits="userSpaceOnUse">
<stop offset="0.0756841" stop-color="#B565D8"/>
<stop offset="0.945898" stop-color="#EE609C"/>
</linearGradient>
<linearGradient id="paint19_linear" x1="83.0956" y1="134.295" x2="87.7764" y2="141.015" gradientUnits="userSpaceOnUse">
<stop offset="0.0756841" stop-color="#B565D8"/>
<stop offset="0.945898" stop-color="#EE609C"/>
</linearGradient>
<linearGradient id="paint20_linear" x1="77.1068" y1="128.958" x2="81.7779" y2="135.685" gradientUnits="userSpaceOnUse">
<stop offset="0.0756841" stop-color="#B565D8"/>
<stop offset="0.945898" stop-color="#EE609C"/>
</linearGradient>
<linearGradient id="paint21_linear" x1="70.6285" y1="123.905" x2="75.2771" y2="130.621" gradientUnits="userSpaceOnUse">
<stop offset="0.0756841" stop-color="#B565D8"/>
<stop offset="0.945898" stop-color="#EE609C"/>
</linearGradient>
<linearGradient id="paint22_linear" x1="91.6167" y1="142.571" x2="96.3173" y2="149.273" gradientUnits="userSpaceOnUse">
<stop offset="0.0756841" stop-color="#B565D8"/>
<stop offset="0.945898" stop-color="#EE609C"/>
</linearGradient>
<linearGradient id="paint23_linear" x1="85.9718" y1="137.033" x2="90.6581" y2="143.747" gradientUnits="userSpaceOnUse">
<stop offset="0.0756841" stop-color="#B565D8"/>
<stop offset="0.945898" stop-color="#EE609C"/>
</linearGradient>
<linearGradient id="paint24_linear" x1="80.1499" y1="131.598" x2="84.8256" y2="138.321" gradientUnits="userSpaceOnUse">
<stop offset="0.0756841" stop-color="#B565D8"/>
<stop offset="0.945898" stop-color="#EE609C"/>
</linearGradient>
<linearGradient id="paint25_linear" x1="73.9408" y1="126.389" x2="78.6077" y2="133.119" gradientUnits="userSpaceOnUse">
<stop offset="0.0756841" stop-color="#B565D8"/>
<stop offset="0.945898" stop-color="#EE609C"/>
</linearGradient>
<linearGradient id="paint26_linear" x1="67.1176" y1="121.537" x2="71.7624" y2="128.256" gradientUnits="userSpaceOnUse">
<stop offset="0.0756841" stop-color="#B565D8"/>
<stop offset="0.945898" stop-color="#EE609C"/>
</linearGradient>
<linearGradient id="paint27_linear" x1="120.387" y1="165.532" x2="125.28" y2="172.032" gradientUnits="userSpaceOnUse">
<stop offset="0.0756841" stop-color="#B565D8"/>
<stop offset="0.945898" stop-color="#EE609C"/>
</linearGradient>
<linearGradient id="paint28_linear" x1="112.852" y1="161.094" x2="117.658" y2="167.675" gradientUnits="userSpaceOnUse">
<stop offset="0.0756841" stop-color="#B565D8"/>
<stop offset="0.945898" stop-color="#EE609C"/>
</linearGradient>
<linearGradient id="paint29_linear" x1="106.241" y1="156.119" x2="110.994" y2="162.747" gradientUnits="userSpaceOnUse">
<stop offset="0.0756841" stop-color="#B565D8"/>
<stop offset="0.945898" stop-color="#EE609C"/>
</linearGradient>
<linearGradient id="paint30_linear" x1="100.181" y1="150.821" x2="104.9" y2="157.478" gradientUnits="userSpaceOnUse">
<stop offset="0.0756841" stop-color="#B565D8"/>
<stop offset="0.945898" stop-color="#EE609C"/>
</linearGradient>
<linearGradient id="paint31_linear" x1="124.69" y1="167.439" x2="129.652" y2="173.872" gradientUnits="userSpaceOnUse">
<stop offset="0.0756841" stop-color="#B565D8"/>
<stop offset="0.945898" stop-color="#EE609C"/>
</linearGradient>
<linearGradient id="paint32_linear" x1="116.461" y1="163.405" x2="121.304" y2="169.952" gradientUnits="userSpaceOnUse">
<stop offset="0.0756841" stop-color="#B565D8"/>
<stop offset="0.945898" stop-color="#EE609C"/>
</linearGradient>
<linearGradient id="paint33_linear" x1="109.458" y1="158.657" x2="114.235" y2="165.265" gradientUnits="userSpaceOnUse">
<stop offset="0.0756841" stop-color="#B565D8"/>
<stop offset="0.945898" stop-color="#EE609C"/>
</linearGradient>
<linearGradient id="paint34_linear" x1="103.153" y1="153.504" x2="107.887" y2="160.149" gradientUnits="userSpaceOnUse">
<stop offset="0.0756841" stop-color="#B565D8"/>
<stop offset="0.945898" stop-color="#EE609C"/>
</linearGradient>
<linearGradient id="paint35_linear" x1="97.2809" y1="148.098" x2="102.002" y2="154.784" gradientUnits="userSpaceOnUse">
<stop offset="0.0756841" stop-color="#B565D8"/>
<stop offset="0.945898" stop-color="#EE609C"/>
</linearGradient>
<linearGradient id="paint36_linear" x1="129.49" y1="169.057" x2="134.57" y2="175.399" gradientUnits="userSpaceOnUse">
<stop offset="0.0756841" stop-color="#B565D8"/>
<stop offset="0.945898" stop-color="#EE609C"/>
</linearGradient>
<linearGradient id="paint37_linear" x1="141.905" y1="170.655" x2="147.499" y2="176.31" gradientUnits="userSpaceOnUse">
<stop offset="0.0756841" stop-color="#B565D8"/>
<stop offset="0.945898" stop-color="#EE609C"/>
</linearGradient>
<linearGradient id="paint38_linear" x1="135.025" y1="170.249" x2="140.255" y2="176.384" gradientUnits="userSpaceOnUse">
<stop offset="0.0756841" stop-color="#B565D8"/>
<stop offset="0.945898" stop-color="#EE609C"/>
</linearGradient>
<linearGradient id="paint39_linear" x1="33.4051" y1="44.1042" x2="39.4143" y2="48.7356" gradientUnits="userSpaceOnUse">
<stop offset="0.0756841" stop-color="#B565D8"/>
<stop offset="0.945898" stop-color="#EE609C"/>
</linearGradient>
<linearGradient id="paint40_linear" x1="26.8606" y1="52.3241" x2="32.1666" y2="58.3645" gradientUnits="userSpaceOnUse">
<stop offset="0.0756841" stop-color="#B565D8"/>
<stop offset="0.945898" stop-color="#EE609C"/>
</linearGradient>
<linearGradient id="paint41_linear" x1="25.9844" y1="96.9464" x2="30.6543" y2="103.675" gradientUnits="userSpaceOnUse">
<stop offset="0.0756841" stop-color="#B565D8"/>
<stop offset="0.945898" stop-color="#EE609C"/>
</linearGradient>
<linearGradient id="paint42_linear" x1="23.3194" y1="89.6746" x2="28.0307" y2="96.3684" gradientUnits="userSpaceOnUse">
<stop offset="0.0756841" stop-color="#B565D8"/>
<stop offset="0.945898" stop-color="#EE609C"/>
</linearGradient>
<linearGradient id="paint43_linear" x1="21.6281" y1="81.8377" x2="26.378" y2="88.4686" gradientUnits="userSpaceOnUse">
<stop offset="0.0756841" stop-color="#B565D8"/>
<stop offset="0.945898" stop-color="#EE609C"/>
</linearGradient>
<linearGradient id="paint44_linear" x1="21.127" y1="73.3066" x2="25.9529" y2="79.8696" gradientUnits="userSpaceOnUse">
<stop offset="0.0756841" stop-color="#B565D8"/>
<stop offset="0.945898" stop-color="#EE609C"/>
</linearGradient>
<linearGradient id="paint45_linear" x1="22.3187" y1="63.7893" x2="27.2772" y2="70.2254" gradientUnits="userSpaceOnUse">
<stop offset="0.0756841" stop-color="#B565D8"/>
<stop offset="0.945898" stop-color="#EE609C"/>
</linearGradient>
<linearGradient id="paint46_linear" x1="24.5366" y1="93.3776" x2="29.2259" y2="100.09" gradientUnits="userSpaceOnUse">
<stop offset="0.0756841" stop-color="#B565D8"/>
<stop offset="0.945898" stop-color="#EE609C"/>
</linearGradient>
<linearGradient id="paint47_linear" x1="22.3442" y1="85.8308" x2="27.0804" y2="92.5034" gradientUnits="userSpaceOnUse">
<stop offset="0.0756841" stop-color="#B565D8"/>
<stop offset="0.945898" stop-color="#EE609C"/>
</linearGradient>
<linearGradient id="paint48_linear" x1="21.2079" y1="77.6709" x2="25.9917" y2="84.272" gradientUnits="userSpaceOnUse">
<stop offset="0.0756841" stop-color="#B565D8"/>
<stop offset="0.945898" stop-color="#EE609C"/>
</linearGradient>
<linearGradient id="paint49_linear" x1="21.4532" y1="68.7056" x2="26.3342" y2="75.2172" gradientUnits="userSpaceOnUse">
<stop offset="0.0756841" stop-color="#B565D8"/>
<stop offset="0.945898" stop-color="#EE609C"/>
</linearGradient>
<linearGradient id="paint50_linear" x1="23.9315" y1="58.4409" x2="29.0102" y2="64.7515" gradientUnits="userSpaceOnUse">
<stop offset="0.0756841" stop-color="#B565D8"/>
<stop offset="0.945898" stop-color="#EE609C"/>
</linearGradient>
<linearGradient id="paint51_linear" x1="48.4227" y1="128.005" x2="53.7394" y2="129.06" gradientUnits="userSpaceOnUse">
<stop offset="0.0756841" stop-color="#B565D8"/>
<stop offset="0.945898" stop-color="#EE609C"/>
</linearGradient>
<linearGradient id="paint52_linear" x1="41.9758" y1="122.934" x2="47.8524" y2="124.985" gradientUnits="userSpaceOnUse">
<stop offset="0.0756841" stop-color="#B565D8"/>
<stop offset="0.945898" stop-color="#EE609C"/>
</linearGradient>
<linearGradient id="paint53_linear" x1="29.5282" y1="103.707" x2="34.1665" y2="110.46" gradientUnits="userSpaceOnUse">
<stop offset="0.0756841" stop-color="#B565D8"/>
<stop offset="0.945898" stop-color="#EE609C"/>
</linearGradient>
<linearGradient id="paint54_linear" x1="45.1053" y1="125.524" x2="50.7846" y2="127.145" gradientUnits="userSpaceOnUse">
<stop offset="0.0756841" stop-color="#B565D8"/>
<stop offset="0.945898" stop-color="#EE609C"/>
</linearGradient>
<linearGradient id="paint55_linear" x1="39.0292" y1="120.237" x2="45.0124" y2="122.597" gradientUnits="userSpaceOnUse">
<stop offset="0.0756841" stop-color="#B565D8"/>
<stop offset="0.945898" stop-color="#EE609C"/>
</linearGradient>
<linearGradient id="paint56_linear" x1="31.5922" y1="106.918" x2="36.218" y2="113.682" gradientUnits="userSpaceOnUse">
<stop offset="0.0756841" stop-color="#B565D8"/>
<stop offset="0.945898" stop-color="#EE609C"/>
</linearGradient>
<linearGradient id="paint57_linear" x1="27.6479" y1="100.391" x2="32.3008" y2="107.133" gradientUnits="userSpaceOnUse">
<stop offset="0.0756841" stop-color="#B565D8"/>
<stop offset="0.945898" stop-color="#EE609C"/>
</linearGradient>
<linearGradient id="paint58_linear" x1="55.6573" y1="132.617" x2="59.1427" y2="132.317" gradientUnits="userSpaceOnUse">
<stop offset="0.0756841" stop-color="#B565D8"/>
<stop offset="0.945898" stop-color="#EE609C"/>
</linearGradient>
<linearGradient id="paint59_linear" x1="59.5876" y1="134.74" x2="61.2443" y2="134.203" gradientUnits="userSpaceOnUse">
<stop offset="0.0756841" stop-color="#B565D8"/>
<stop offset="0.945898" stop-color="#EE609C"/>
</linearGradient>
<linearGradient id="paint60_linear" x1="51.9386" y1="130.37" x2="56.5917" y2="130.739" gradientUnits="userSpaceOnUse">
<stop offset="0.0756841" stop-color="#B565D8"/>
<stop offset="0.945898" stop-color="#EE609C"/>
</linearGradient>
<linearGradient id="paint61_linear" x1="115.113" y1="96.8475" x2="158.805" y2="136.924" gradientUnits="userSpaceOnUse">
<stop stop-color="#FF4F4F"/>
<stop offset="1" stop-color="#750000"/>
</linearGradient>
<linearGradient id="paint62_linear" x1="134.789" y1="76.8474" x2="96.4938" y2="58.0469" gradientUnits="userSpaceOnUse">
<stop stop-color="#FF4F4F"/>
<stop offset="1" stop-color="#C81B1B"/>
</linearGradient>
<linearGradient id="paint63_linear" x1="79430.2" y1="18153.2" x2="89023" y2="14845.9" gradientUnits="userSpaceOnUse">
<stop stop-color="white"/>
<stop offset="1" stop-color="#FE707C"/>
</linearGradient>
</defs>
</svg>
