<svg width="199" height="186" viewBox="0 0 199 186" fill="none" xmlns="http://www.w3.org/2000/svg">
<g opacity="0.7">
<g opacity="0.7" filter="url(#filter0_d)">
<path d="M178.824 103.801C186.475 78.8736 161.507 61.7691 141.177 45.4482C120.847 29.1262 131.721 1.52462 105.883 4.97799C83.6605 7.94831 30.3351 33.351 16.3531 50.8848C9.92934 58.9419 6.09943 72.2168 14.287 78.4727C24.1262 85.9889 31.3162 84.1773 42.8249 88.742C52.9758 92.7682 49.1569 106.256 47.0601 116.977C44.9633 127.699 53.9202 129.768 58.7182 139.581C63.234 148.814 74.4935 153.137 84.7507 152.525C96.1436 151.846 106.735 146.019 118.055 144.251C123.725 143.365 129.317 143.741 134.996 142.739C141.255 141.635 147.197 139.409 152.433 135.769C161.84 129.228 175.453 114.781 178.824 103.801Z" fill="url(#paint0_linear)"/>
</g>
<g filter="url(#filter1_d)">
<path d="M30.8826 83.3773C34.186 83.9858 37.1147 86.367 38.3894 89.4791C41.1003 96.0987 36.3457 103.599 37.5983 110.637C37.9985 112.888 39.0018 115.24 38.1572 117.359C37.165 119.845 33.9008 120.762 31.3372 119.975C28.7734 119.189 26.7955 117.164 25.0508 115.124C21.7102 111.219 18.7117 106.836 17.53 101.838C15.5422 93.4403 20.5224 81.4672 30.8826 83.3773Z" fill="url(#paint1_linear)"/>
</g>
<g filter="url(#filter2_d)">
<path d="M37.7818 31.6227C36.1333 29.3185 36.2474 25.8674 38.1588 23.7529C40.0707 21.6392 43.6356 21.2048 45.8961 22.9174C47.1793 23.8893 48.0029 25.5751 47.6088 27.1393C47.2769 28.4571 46.2377 29.3381 45.2852 30.2278C44.4494 31.0077 43.99 31.8778 43.2971 32.7504C41.7234 34.7324 38.9948 33.3179 37.7818 31.6227Z" fill="url(#paint2_linear)"/>
</g>
<g filter="url(#filter3_d)">
<path d="M32.1146 125.363C32.6715 124.839 33.5147 124.615 34.2268 124.872C35.0965 125.187 35.6263 126.209 35.4371 127.123C35.2466 128.038 34.3941 128.76 33.4701 128.842C31.2818 129.036 30.6196 126.772 32.1146 125.363Z" fill="url(#paint3_linear)"/>
</g>
<g filter="url(#filter4_d)">
<path d="M53.5507 137.526C56.4434 134.804 60.8234 133.641 64.5222 134.98C69.04 136.615 71.7919 141.923 70.8089 146.673C69.8197 151.425 65.391 155.173 60.5918 155.597C49.2248 156.608 45.785 144.847 53.5507 137.526Z" fill="url(#paint4_linear)"/>
</g>
<g filter="url(#filter5_d)">
<path d="M11.0796 71.8293C12.7953 70.2149 15.3933 69.5252 17.5871 70.319C20.2668 71.2887 21.8991 74.437 21.316 77.2544C20.7293 80.0731 18.1025 82.2963 15.2559 82.5479C8.51376 83.1475 6.4735 76.1714 11.0796 71.8293Z" fill="url(#paint5_linear)"/>
</g>
<g filter="url(#filter6_d)">
<path d="M43.9582 36.9221C43.7516 37.2946 41.8359 38.6591 41.4144 38.6432C40.8996 38.6238 40.5183 37.4874 40.4636 36.9701C40.4094 36.4524 40.7393 35.9249 41.2156 35.7248C42.3436 35.2503 44.5122 35.9208 43.9582 36.9221Z" fill="url(#paint6_linear)"/>
</g>
<g filter="url(#filter7_d)">
<path d="M169.167 89.8996C169.724 89.3756 170.567 89.1517 171.279 89.4094C172.149 89.7241 172.679 90.746 172.489 91.6604C172.299 92.5753 171.446 93.2969 170.522 93.3785C168.334 93.5732 167.672 91.3089 169.167 89.8996Z" fill="url(#paint7_linear)"/>
</g>
<g filter="url(#filter8_d)">
<path d="M169.422 95.8411C167.408 96.1412 165.684 97.5261 163.661 97.7649C161.415 98.0304 158.903 96.8875 156.987 98.0667C155.572 98.9388 155.095 100.878 155.573 102.474C156.051 104.07 157.299 105.343 158.688 106.281C161.58 108.232 165.344 108.962 168.66 107.938C171.791 106.97 174.612 104.18 175.39 100.959C176.137 97.8692 172.239 95.4211 169.422 95.8411Z" fill="url(#paint8_linear)"/>
</g>
<g filter="url(#filter9_d)">
<path d="M40.642 84.9098C41.6081 84.27 43.0887 84.6641 43.6306 85.6881C44.1731 86.7125 43.6861 88.1377 42.642 88.6392C41.5972 89.1404 40.1974 88.6507 39.6697 87.6181C39.142 86.5855 39.5484 85.1857 40.5328 84.5739" fill="url(#paint9_linear)"/>
</g>
<path d="M144.799 55.4642L133.327 62.14L133.095 62.2748L100.035 81.5132L99.8042 81.6475L66.7431 100.886L66.5123 101.021L59.4963 105.103C59.6293 105.176 59.7646 105.243 59.8966 105.316L66.7059 101.353L66.9367 101.219L99.9979 81.9802L100.229 81.8459L133.289 62.6075L133.521 62.4727L145.118 55.7241C145.012 55.6381 144.906 55.5506 144.799 55.4642Z" fill="url(#paint10_linear)"/>
<path d="M129.453 55.4818L129.221 55.6166L96.1606 74.855L95.9298 74.9893L62.8687 94.2282L62.6379 94.3624L50.8507 101.222C51.008 101.277 51.1627 101.338 51.3196 101.394L62.8306 94.6957L63.0613 94.5614L96.1225 75.3225L96.3533 75.1882L129.414 55.9499L129.645 55.8151L138.338 50.7567C138.217 50.6779 138.095 50.6015 137.975 50.5227L129.453 55.4818Z" fill="url(#paint11_linear)"/>
<path d="M125.578 48.8235L125.347 48.9583L92.2863 68.1967L92.0555 68.331L58.9943 87.5699L58.7635 87.7042L34.4524 101.851C34.5431 101.947 34.6328 102.044 34.7244 102.14L58.9577 88.0378L59.1885 87.9035L92.2496 68.6646L92.4804 68.5303L125.541 49.292L125.772 49.1571L130.766 46.2513C130.633 46.1785 130.499 46.1086 130.365 46.0379L125.578 48.8235Z" fill="url(#paint12_linear)"/>
<path d="M121.704 42.1653L121.472 42.3001L88.4117 61.5385L88.181 61.6728L55.1198 80.9117L54.889 81.046L29.436 95.8575C29.5137 95.9612 29.5924 96.0643 29.67 96.168L55.0832 81.3796L55.314 81.2453L88.3751 62.0064L88.6059 61.8721L121.666 42.6338L121.898 42.499L122.521 42.1365C122.378 42.0706 122.236 42.0047 122.093 41.9388L121.704 42.1653Z" fill="url(#paint13_linear)"/>
<path d="M131.391 58.8118L131.159 58.9466L98.0986 78.185L97.8678 78.3193L64.8067 97.5582L64.5759 97.6924L55.3903 103.038C55.5318 103.102 55.6695 103.174 55.81 103.239L64.7695 98.0252L65.0003 97.8909L98.0614 78.652L98.2922 78.5177L131.352 59.2793L131.584 59.1445L141.832 53.1812C141.719 53.098 141.607 53.0143 141.494 52.9326L131.391 58.8118Z" fill="url(#paint14_linear)"/>
<path d="M127.516 52.1526L127.284 52.2874L94.2236 71.5258L93.9928 71.6601L60.9316 90.899L60.7009 91.0333L45.7412 99.7386C45.9202 99.7796 46.0964 99.8309 46.275 99.8734L60.8945 91.366L61.1252 91.2317L94.1864 71.9928L94.4172 71.8585L127.477 52.6202L127.709 52.4853L134.642 48.4512C134.515 48.3761 134.39 48.2999 134.263 48.2263L127.516 52.1526Z" fill="url(#paint15_linear)"/>
<path d="M123.641 45.4944L123.409 45.6293L90.349 64.8676L90.1182 65.0019L57.057 84.2408L56.8263 84.3751L31.8459 98.9116C31.9301 99.0115 32.0125 99.1125 32.0966 99.2123L57.0204 84.7087L57.2512 84.5745L90.3124 65.3356L90.5431 65.2013L123.603 45.9629L123.835 45.8281L126.715 44.1524C126.577 44.0838 126.44 44.0146 126.302 43.946L123.641 45.4944Z" fill="url(#paint16_linear)"/>
<path d="M167.946 86.56L152.7 95.432L152.469 95.5668L119.408 114.805L119.178 114.939L91.137 131.257C91.2341 131.349 91.3313 131.441 91.427 131.533L119.371 115.272L119.602 115.138L152.662 95.8995L152.894 95.7647L168.095 86.9186C168.046 86.7997 167.996 86.6799 167.946 86.56Z" fill="url(#paint17_linear)"/>
<path d="M148.826 88.7736L148.594 88.9084L115.534 108.147L115.303 108.281L85.3717 125.699C85.4679 125.792 85.5642 125.884 85.6604 125.977L115.497 108.615L115.728 108.48L148.788 89.2421L149.02 89.1073L164.82 79.9128C164.76 79.7989 164.7 79.685 164.64 79.5711L148.826 88.7736Z" fill="url(#paint18_linear)"/>
<path d="M144.951 82.1155L144.72 82.2503L111.659 101.489L111.429 101.623L79.5481 120.175C79.6471 120.266 79.7452 120.358 79.8442 120.449L111.623 101.957L111.853 101.822L144.914 82.584L145.145 82.4491L160.899 73.2817C160.829 73.1737 160.76 73.0651 160.688 72.9577L144.951 82.1155Z" fill="url(#paint19_linear)"/>
<path d="M141.077 75.4573L140.845 75.5921L107.785 94.8305L107.554 94.9648L74.493 114.204L74.2623 114.338L73.4513 114.81C73.5559 114.898 73.6604 114.986 73.765 115.074L74.4564 114.672L74.6872 114.537L107.748 95.2984L107.979 95.1641L141.039 75.9258L141.271 75.7909L156.334 67.0258C156.252 66.9243 156.173 66.8217 156.089 66.7212L141.077 75.4573Z" fill="url(#paint20_linear)"/>
<path d="M137.202 68.7991L136.971 68.9339L103.91 88.1723L103.68 88.3066L70.6184 107.545L70.3876 107.68L66.8657 109.729C66.98 109.81 67.0925 109.895 67.2067 109.976L70.5812 108.012L70.812 107.878L103.873 88.6393L104.104 88.505L137.164 69.2666L137.396 69.1318L151.094 61.1606C151.001 61.0661 150.904 60.9732 150.811 60.8801L137.202 68.7991Z" fill="url(#paint21_linear)"/>
<path d="M150.763 92.1029L150.531 92.2378L117.471 111.476L117.24 111.61L88.2488 128.481C88.345 128.574 88.4412 128.667 88.5375 128.76L117.434 111.944L117.665 111.81L150.725 92.5714L150.957 92.4366L166.54 83.3689C166.485 83.2517 166.43 83.1351 166.375 83.018L150.763 92.1029Z" fill="url(#paint22_linear)"/>
<path d="M146.889 85.4446L146.657 85.5794L113.597 104.818L113.366 104.952L82.481 122.925C82.5781 123.017 82.6757 123.108 82.7734 123.201L113.56 105.286L113.791 105.151L146.851 85.9131L147.083 85.7782L162.941 76.5504C162.875 76.4397 162.81 76.3285 162.745 76.2178L146.889 85.4446Z" fill="url(#paint23_linear)"/>
<path d="M143.014 78.7864L142.782 78.9212L109.722 98.1595L109.491 98.2938L76.5479 117.464C76.6496 117.554 76.7527 117.642 76.8551 117.732L109.685 98.6275L109.916 98.4932L142.976 79.2548L143.208 79.12L158.698 70.1062C158.622 70.0015 158.548 69.8957 158.47 69.792L143.014 78.7864Z" fill="url(#paint24_linear)"/>
<path d="M139.139 72.1283L138.908 72.2631L105.848 91.5015L105.617 91.6358L72.5556 110.875L72.3248 111.009L70.2321 112.227C70.3413 112.312 70.4536 112.394 70.5634 112.481L72.519 111.343L72.7497 111.208L105.811 91.9694L106.042 91.8351L139.102 72.5968L139.334 72.4619L153.802 64.0425C153.714 63.9448 153.626 63.847 153.537 63.7498L139.139 72.1283Z" fill="url(#paint25_linear)"/>
<path d="M135.265 65.47L135.033 65.6048L101.973 84.8432L101.742 84.9775L68.6811 104.216L68.4504 104.351L63.2982 107.349C63.4213 107.426 63.543 107.503 63.6652 107.581L68.644 104.683L68.8748 104.549L101.936 85.3102L102.167 85.1759L135.227 65.9376L135.459 65.8027L148.203 58.3864C148.103 58.2957 148.003 58.2065 147.902 58.1163L135.265 65.47Z" fill="url(#paint26_linear)"/>
<path d="M168.199 122.066L167.967 122.2L134.907 141.439L134.676 141.573L117.999 151.278C118.143 151.343 118.285 151.409 118.428 151.474L134.869 141.906L135.1 141.772L168.16 122.534L168.392 122.399L173.565 119.388C173.578 119.233 173.586 119.079 173.598 118.924L168.199 122.066Z" fill="url(#paint27_linear)"/>
<path d="M164.325 115.407L164.093 115.542L131.033 134.781L130.802 134.915L110.149 146.933C110.27 147.011 110.387 147.094 110.508 147.169L130.995 135.248L131.226 135.113L164.286 115.875L164.518 115.74L173.624 110.441C173.615 110.299 173.602 110.156 173.592 110.015L164.325 115.407Z" fill="url(#paint28_linear)"/>
<path d="M160.45 108.749L160.218 108.884L127.158 128.122L126.927 128.257L103.294 142.01C103.402 142.095 103.509 142.182 103.618 142.266L127.12 128.59L127.351 128.456L160.411 109.217L160.643 109.082L172.576 102.138C172.551 102.004 172.53 101.869 172.505 101.734L160.45 108.749Z" fill="url(#paint29_linear)"/>
<path d="M156.575 102.09L156.343 102.225L123.283 121.463L123.052 121.598L97.0403 136.734C97.1411 136.824 97.242 136.915 97.3423 137.004L123.246 121.93L123.477 121.796L156.537 102.558L156.768 102.423L170.701 94.3151C170.663 94.1882 170.623 94.0639 170.585 93.9371L156.575 102.09Z" fill="url(#paint30_linear)"/>
<path d="M170.136 125.395L169.905 125.53L136.844 144.768L136.614 144.902L122.501 153.115C122.661 153.172 122.822 153.224 122.981 153.281L136.807 145.235L137.038 145.101L170.098 125.862L170.33 125.727L172.941 124.208C172.97 124.043 172.998 123.878 173.026 123.713L170.136 125.395Z" fill="url(#paint31_linear)"/>
<path d="M166.262 118.736L166.03 118.871L132.97 138.11L132.739 138.244L113.903 149.205C114.035 149.277 114.168 149.347 114.299 149.42L132.932 138.577L133.162 138.443L166.223 119.205L166.454 119.07L173.757 114.82C173.758 114.671 173.761 114.521 173.761 114.373L166.262 118.736Z" fill="url(#paint32_linear)"/>
<path d="M162.387 112.078L162.155 112.213L129.095 131.452L128.864 131.586L106.626 144.527C106.74 144.609 106.856 144.689 106.971 144.771L129.058 131.919L129.289 131.784L162.349 112.546L162.581 112.411L173.213 106.224C173.195 106.086 173.179 105.947 173.16 105.809L162.387 112.078Z" fill="url(#paint33_linear)"/>
<path d="M158.513 105.42L158.281 105.555L125.221 124.793L124.99 124.928L100.103 139.41C100.208 139.498 100.315 139.583 100.419 139.671L125.184 125.26L125.414 125.126L158.475 105.888L158.706 105.753L171.737 98.1699C171.706 98.0393 171.673 97.9107 171.641 97.7806L158.513 105.42Z" fill="url(#paint34_linear)"/>
<path d="M154.638 98.7619L154.406 98.8968L121.346 118.135L121.115 118.269L94.0571 134.015C94.1561 134.106 94.2542 134.198 94.3532 134.289L121.31 118.603L121.541 118.468L154.601 99.2299L154.833 99.0951L169.486 90.5683C169.443 90.4447 169.397 90.3221 169.353 90.199L154.638 98.7619Z" fill="url(#paint35_linear)"/>
<path d="M171.889 128.831L171.842 128.859L138.782 148.097L138.551 148.231L127.538 154.64C127.72 154.684 127.902 154.726 128.085 154.768L138.745 148.565L138.976 148.431L171.735 129.368C171.787 129.188 171.838 129.011 171.889 128.831Z" fill="url(#paint36_linear)"/>
<path d="M142.425 154.89L140.651 155.922C140.945 155.904 141.238 155.882 141.532 155.856L142.62 155.223L142.85 155.089L165.741 141.769C165.921 141.517 166.101 141.266 166.275 141.011L142.656 154.755L142.425 154.89Z" fill="url(#paint37_linear)"/>
<path d="M140.489 151.561L133.368 155.705C133.581 155.73 133.793 155.758 134.005 155.779L140.682 151.894L140.913 151.76L169.631 135.048C169.721 134.851 169.804 134.65 169.891 134.452L140.719 151.427L140.489 151.561Z" fill="url(#paint38_linear)"/>
<path d="M45.9562 19.3965L32.9762 26.9497C32.4824 27.3698 31.9961 27.8005 31.521 28.2419L47.7207 18.815C47.1281 18.9949 46.5398 19.1884 45.9562 19.3965Z" fill="url(#paint39_linear)"/>
<path d="M27.9596 34.771L28.1904 34.6367L58.0401 17.2666C57.783 17.2661 57.5254 17.2647 57.2691 17.2699L27.9977 34.3035L27.7669 34.4378L24.8456 36.1377C24.6883 36.3769 24.5298 36.6142 24.3775 36.8555L27.9596 34.771Z" fill="url(#paint40_linear)"/>
<path d="M47.3325 68.0629L47.5632 67.9286L80.6244 48.6897L80.8552 48.5554L104.888 34.5701C104.739 34.508 104.591 34.4453 104.443 34.3826L80.6619 48.2212L80.4312 48.3555L47.37 67.5944L47.1392 67.7287L21.8438 82.4486C21.8928 82.569 21.9436 82.6883 21.9935 82.8081L47.3325 68.0629Z" fill="url(#paint41_linear)"/>
<path d="M43.4581 61.4046L43.6889 61.2704L76.7501 42.0315L76.9808 41.8972L96.075 30.7859C95.9306 30.7211 95.7861 30.6563 95.6417 30.5914L76.7876 41.563L76.5568 41.6973L43.4957 60.9362L43.2649 61.0705L19.3903 74.9635C19.4235 75.0931 19.4604 75.2205 19.4936 75.35L43.4581 61.4046Z" fill="url(#paint42_linear)"/>
<path d="M39.5834 54.7465L39.8141 54.6122L72.8753 35.3733L73.1061 35.239L87.619 26.7937C87.4801 26.7256 87.3422 26.657 87.2039 26.5898L72.9134 34.9057L72.6826 35.04L39.6215 54.2789L39.3907 54.4132L17.9545 66.8873C17.9692 67.0277 17.9805 67.1687 17.9961 67.3085L39.5834 54.7465Z" fill="url(#paint43_linear)"/>
<path d="M35.709 48.0882L35.9398 47.9539L69.001 28.715L69.2317 28.5807L79.2181 22.7695C79.0746 22.7041 78.9311 22.6387 78.7882 22.5743L69.0381 28.248L68.8073 28.3823L35.7462 47.6212L35.5154 47.7555L17.7661 58.0841C17.7561 58.2376 17.7467 58.3919 17.7382 58.5458L35.709 48.0882Z" fill="url(#paint44_linear)"/>
<path d="M31.8338 41.4291L32.0646 41.2949L65.1258 22.056L65.3565 21.9217L70.0128 19.2121C69.8438 19.1604 69.6736 19.113 69.5032 19.0633L65.1629 21.5889L64.9321 21.7232L31.871 40.9621L31.6402 41.0964L19.4109 48.2128C19.3615 48.388 19.3165 48.5643 19.2691 48.7408L31.8338 41.4291Z" fill="url(#paint45_linear)"/>
<path d="M45.3953 64.7338L45.6261 64.5995L78.6873 45.3606L78.918 45.2263L100.45 32.6966C100.302 32.6334 100.154 32.5707 100.008 32.507L78.7248 44.8921L78.494 45.0264L45.4329 64.2653L45.2021 64.3996L20.5026 78.7727C20.5432 78.8979 20.5824 79.0228 20.6245 79.1484L45.3953 64.7338Z" fill="url(#paint46_linear)"/>
<path d="M41.5208 58.0756L41.7515 57.9413L74.8127 38.7024L75.0435 38.5681L91.7956 28.8197C91.6549 28.7527 91.5151 28.6852 91.3753 28.6177L74.8503 38.2339L74.6195 38.3682L41.5583 57.6071L41.3275 57.7414L18.5373 71.0034C18.5621 71.1378 18.5865 71.2713 18.6119 71.4067L41.5208 58.0756Z" fill="url(#paint47_linear)"/>
<path d="M37.6463 51.4174L37.8771 51.2831L70.9383 32.0442L71.1691 31.9099L83.4586 24.7585C83.3188 24.6909 83.179 24.6234 83.0397 24.5568L70.9764 31.5767L70.7456 31.711L37.6844 50.9499L37.4537 51.0841L17.6792 62.5912C17.6828 62.7381 17.6849 62.8845 17.6893 63.0308L37.6463 51.4174Z" fill="url(#paint48_linear)"/>
<path d="M33.7717 44.7592L34.0025 44.6249L67.0637 25.386L67.2944 25.2517L74.7905 20.8896C74.6377 20.8296 74.4863 20.7676 74.3346 20.7095L67.1008 24.919L66.87 25.0532L33.8089 44.2921L33.5781 44.4264L18.2996 53.3172C18.2735 53.4813 18.2426 53.6457 18.2171 53.8107L33.7717 44.7592Z" fill="url(#paint49_linear)"/>
<path d="M29.8973 38.101L30.1281 37.9667L63.1892 18.7278L63.42 18.5935L64.6323 17.8881C64.4354 17.8525 64.2382 17.8184 64.042 17.7862L63.2264 18.2608L62.9956 18.3951L29.9344 37.634L29.7037 37.7683L21.3652 42.6206C21.282 42.8166 21.1988 43.0127 21.1185 43.2095L29.8973 38.101Z" fill="url(#paint50_linear)"/>
<path d="M52.835 109.426L52.6016 109.117L46.8146 112.484C46.9312 112.565 47.0491 112.644 47.1667 112.725L52.835 109.426Z" fill="url(#paint51_linear)"/>
<path d="M48.1533 103.238L47.9189 102.929L40.244 107.395C40.3467 107.484 40.4485 107.574 40.5516 107.662L48.1533 103.238Z" fill="url(#paint52_linear)"/>
<path d="M51.207 74.7211L51.4378 74.5868L84.499 55.3479L84.7297 55.2136L113.804 38.2949C113.656 38.2322 113.508 38.169 113.36 38.1063L84.5365 54.8794L84.3057 55.0137L51.2446 74.2526L51.0138 74.3869L25.2123 89.4012C25.2761 89.513 25.3418 89.6237 25.4065 89.7349L51.207 74.7211Z" fill="url(#paint53_linear)"/>
<path d="M50.4947 106.332L50.2603 106.023L43.4315 109.997C43.5417 110.081 43.6512 110.165 43.7614 110.25L50.4947 106.332Z" fill="url(#paint54_linear)"/>
<path d="M37.541 104.957L45.811 100.145L45.5775 99.835L37.2473 104.682C37.3439 104.774 37.4439 104.865 37.541 104.957Z" fill="url(#paint55_linear)"/>
<path d="M53.1449 78.0511L53.3757 77.9168L86.4369 58.6779L86.6676 58.5436L118.206 40.1908C118.061 40.1265 117.914 40.0628 117.768 39.999L86.4744 58.2094L86.2436 58.3437L53.1825 77.5826L52.9517 77.7169L27.2244 92.6881C27.2946 92.7961 27.3631 92.9051 27.4343 93.0126L53.1449 78.0511Z" fill="url(#paint56_linear)"/>
<path d="M23.5865 86.3388L49.2712 71.3924L49.502 71.2581L82.5631 52.0192L82.7939 51.8849L109.354 36.4289C109.205 36.3668 109.056 36.3046 108.907 36.2425L82.5997 51.5513L82.369 51.6856L49.3078 70.9245L49.077 71.0588L23.4183 85.9901C23.4747 86.1061 23.5292 86.2233 23.5865 86.3388Z" fill="url(#paint57_linear)"/>
<path d="M57.5179 115.614L57.2835 115.305L54.2056 117.096C54.3361 117.169 54.4657 117.243 54.5966 117.314L57.5179 115.614Z" fill="url(#paint58_linear)"/>
<path d="M59.8584 118.709L59.6234 118.399L58.2277 119.211C58.3656 119.28 58.5026 119.349 58.6405 119.417L59.8584 118.709Z" fill="url(#paint59_linear)"/>
<path d="M50.4043 114.852C50.5274 114.929 50.6509 115.005 50.7749 115.082L55.1764 112.52L54.942 112.211L50.4043 114.852Z" fill="url(#paint60_linear)"/>
</g>
<path d="M112.994 25.2146H76.9652V115.855H112.994V25.2146Z" fill="#997B71"/>
<path d="M111.879 26.3593H78.2217V114.71H111.879V26.3593Z" fill="#E0EFF1"/>
<path d="M92.4017 49.0854C92.4007 50.5124 91.959 51.9135 91.1217 53.1445C90.2845 54.3755 89.0821 55.392 87.6381 56.0895C86.1942 56.787 84.5608 57.1403 82.9059 57.113C81.2511 57.0857 79.6345 56.6789 78.2225 55.9343V42.2321C79.6349 41.4874 81.2519 41.0805 82.9072 41.0534C84.5625 41.0264 86.1962 41.38 87.6403 42.078C89.0845 42.776 90.2868 43.7932 91.1237 45.0248C91.9605 46.2564 92.4016 47.658 92.4017 49.0854Z" fill="#E4B083"/>
<path opacity="0.79" d="M81.1571 56.8701C81.1663 56.2696 83.3709 55.8976 83.7985 55.6021C84.2261 55.3066 85.3332 54.3179 86.6516 54.2984C87.97 54.279 89.7888 55.94 90.1241 55.9438C90.4593 55.9476 90.8714 55.3516 91.2902 55.3563C91.709 55.3611 92.3383 56.3386 92.7035 56.3427C93.0687 56.3469 93.3581 54.964 94.3642 54.9523C95.3703 54.9406 96.7026 56.0763 96.8283 56.0777C96.954 56.0791 97.3591 55.9219 97.7235 55.9146C98.0003 55.9091 101.961 56.8792 101.289 56.8765C99.3864 56.8688 81.1559 56.951 81.1571 56.8701Z" fill="white"/>
<path opacity="0.79" d="M111.879 46.8804V47.7851C106.794 47.7939 101.167 47.8026 100.295 47.7982C99.621 47.7982 103.585 47.0334 103.864 47.0377C104.229 47.0421 104.63 47.1645 104.756 47.1645C104.883 47.1601 106.221 46.2729 107.225 46.2816C108.229 46.286 108.518 47.3612 108.883 47.3612C109.248 47.3568 109.877 46.5919 110.297 46.5876C110.718 46.5832 111.129 47.0465 111.463 47.0421C111.539 47.0421 111.681 46.9766 111.879 46.8804Z" fill="white"/>
<path d="M91.0183 67.0678C91.161 67.1149 84.5669 67.0626 78.2217 66.9893V64.5916C79.8763 64.7355 80.6171 66.1071 81.6098 66.0627C82.6178 66.0155 83.1764 64.7041 84.4485 64.801C85.7205 64.8926 85.8875 65.7799 86.2943 65.8925C86.6951 66.0077 86.522 65.6779 87.4753 65.814C88.4286 65.9449 89.4153 66.5443 91.0183 67.0678Z" fill="#FDFEFE"/>
<path d="M111.878 57.3395V114.71H91.6415C88.7874 111.764 94.8707 102.249 93.5425 98.149C92.2092 94.0536 97.1519 90.7756 100.006 88.8088C102.855 86.8419 99.6257 84.3812 98.1505 79.6302C96.6805 74.8749 102.855 73.7298 104.188 70.95C105.516 68.1702 103.048 62.7461 104.188 59.4899C105.329 56.2294 109.891 56.3561 111.878 57.3395Z" fill="#D2DEC9"/>
<path d="M94.9802 26.3598V115.855" stroke="#997B71" stroke-width="3" stroke-miterlimit="10"/>
<path d="M94.9802 26.3598V115.855" stroke="#997B71" stroke-width="3" stroke-miterlimit="10"/>
<path d="M112.996 71.1074H76.9647" stroke="#997B71" stroke-width="3" stroke-miterlimit="10"/>
<path d="M112.996 71.1074H76.9647" stroke="#997B71" stroke-width="3" stroke-miterlimit="10"/>
<path d="M86.8981 91.843L86.7186 95.0416L86.5083 98.8698L86.3699 101.379H80.7439L80.6105 98.8698L80.4053 95.0416L80.231 91.843H86.8981Z" fill="#FDFEFE"/>
<path d="M86.719 95.0416L86.5087 98.8698H80.6109L80.4058 95.0416H86.719Z" fill="#CC9300"/>
<path d="M86.8985 91.1654H80.2313V91.843H86.8985V91.1654Z" fill="#CC9300"/>
<path d="M86.5309 90.9081H80.594V91.4227H86.5309V90.9081Z" fill="#CC9300"/>
<path d="M108.95 107.608V147.435C108.95 149.309 107.32 150.83 105.315 150.83H95.2607C93.2557 150.83 91.6257 149.309 91.6257 147.435V107.608C91.6238 107.261 91.6822 106.914 91.7988 106.581C92.2604 105.207 93.6403 104.213 95.2607 104.213H105.315C106.935 104.213 108.315 105.207 108.777 106.581C108.893 106.914 108.952 107.261 108.95 107.608ZM89.1552 103.657V154.103H111.422V103.657H89.1552Z" fill="#E4D9C4"/>
<g style="mix-blend-mode:multiply">
<path d="M108.95 107.608V147.435C108.95 149.309 107.32 150.83 105.315 150.83H95.2607C93.2557 150.83 91.6257 149.309 91.6257 147.435V107.608C91.6238 107.261 91.6822 106.914 91.7988 106.581C92.2604 105.207 93.6403 104.213 95.2607 104.213H105.315C106.935 104.213 108.315 105.207 108.777 106.581C108.893 106.914 108.952 107.261 108.95 107.608ZM89.1552 103.657V154.103H111.422V103.657H89.1552Z" fill="#DFDFDF"/>
</g>
<path d="M92.557 148.888C92.752 149.645 91.1671 150.877 90.8379 151.333C90.5086 151.79 82.8293 154.463 82.5942 154.788C82.359 155.112 82.5113 155.633 82.6053 155.835C82.6994 156.038 90.0828 156.239 91.3999 155.995C92.7169 155.752 95.9038 156.425 97.4461 155.611C97.7062 155.474 96.6713 149.742 96.342 149.176C96.0127 148.61 92.3689 148.158 92.557 148.888Z" fill="#5A5A5A"/>
<path d="M141.96 84.1862C141.801 83.8005 141.611 83.4251 141.391 83.0626C141.082 82.5412 140.673 81.9021 140.173 81.1822C140.144 81.1405 140.119 81.0966 140.099 81.051C140.079 81.0107 140.064 80.9691 140.052 80.9265C140.047 80.9123 140.043 80.8977 140.041 80.8828C139.584 79.2379 141.804 74.7874 142.077 75.3155C142.37 75.884 145.581 79.433 146.392 80.2369C147.06 80.8996 142.081 84.5091 141.96 84.1862Z" fill="#DFB89A"/>
<g style="mix-blend-mode:multiply">
<path d="M142.573 79.1167C142.495 79.4968 141.89 82.9415 141.391 83.0626C141.083 82.5412 140.673 81.902 140.174 81.1822C140.144 81.1405 140.12 81.0966 140.1 81.051C140.08 80.9971 140.064 80.9568 140.053 80.9265C140.047 80.9123 140.043 80.8976 140.041 80.8828C140.041 80.7919 142.573 79.1167 142.573 79.1167Z" fill="#DFDFDF"/>
</g>
<path d="M132.763 74.5175C132.963 75.2598 136.521 81.8191 137.603 81.894C140.752 82.1121 143.645 78.5333 143.747 77.8422C143.85 77.1512 142.378 72.0895 141.401 71.5155C140.425 70.9414 138.384 69.8413 137.305 69.9583C136.226 70.0753 132.48 73.4712 132.763 74.5175Z" fill="#DFB89A"/>
<path d="M144.391 77.8356C144.876 77.9632 145.314 76.0153 145.557 75.4588C145.799 74.9022 145.393 70.8745 145.181 70.1211C144.79 68.7368 143.13 66.926 141.015 66.7016C138.523 66.4372 136.307 67.7382 134.968 67.8514C129.654 68.3011 128.093 70.5491 129.935 73.0295C130.47 73.7502 131.961 74.8817 132.748 74.2143C133.817 73.3072 136.979 71.3708 137.677 72.4517C138.375 73.5325 138.168 74.4296 139.131 74.9581C140.094 75.4865 141.408 73.0456 141.657 73.05C141.905 73.0544 143.189 77.5202 144.391 77.8356Z" fill="#382B25"/>
<path d="M142.574 75.0968C143.027 74.2794 142.845 73.3913 142.169 73.1133C141.493 72.8352 140.579 73.2725 140.126 74.0899C139.674 74.9073 139.855 75.7954 140.531 76.0735C141.207 76.3515 142.122 75.9143 142.574 75.0968Z" fill="#DFB89A"/>
<path d="M124.46 113.826C116.363 116.515 105.342 120.963 104.61 121.892C103.877 122.822 91.7822 149.061 92.1723 149.481C92.5625 149.902 96.2691 151.332 97.2445 150.911C98.2199 150.491 109.73 130.391 110.803 128.036C111.876 125.682 124.46 113.826 124.46 113.826Z" fill="#B0881F"/>
<path d="M139.584 126.557H137.244V144.53H139.584V126.557Z" fill="#6E787D"/>
<path d="M138.414 150.403H129.782L138.414 146.194V150.403Z" fill="#6E787D"/>
<path d="M138.414 150.403H147.047L138.414 146.194V150.403Z" fill="#6E787D"/>
<path d="M139.856 143.988H136.974V146.869H139.856V143.988Z" fill="#495053"/>
<path d="M138.415 152.679L139.856 146.858H136.973L138.415 152.679Z" fill="#3A3F42"/>
<path d="M147.046 153.612C148.201 153.612 149.137 152.894 149.137 152.008C149.137 151.122 148.201 150.403 147.046 150.403C145.891 150.403 144.955 151.122 144.955 152.008C144.955 152.894 145.891 153.612 147.046 153.612Z" fill="#3A3F42"/>
<path d="M138.414 155.708C139.569 155.708 140.505 154.989 140.505 154.103C140.505 153.217 139.569 152.499 138.414 152.499C137.259 152.499 136.323 153.217 136.323 154.103C136.323 154.989 137.259 155.708 138.414 155.708Z" fill="#3A3F42"/>
<path d="M129.782 153.612C130.936 153.612 131.873 152.894 131.873 152.008C131.873 151.122 130.936 150.403 129.782 150.403C128.627 150.403 127.691 151.122 127.691 152.008C127.691 152.894 128.627 153.612 129.782 153.612Z" fill="#3A3F42"/>
<path d="M123.844 151.163C124.008 151.84 123.874 152.544 123.468 153.14C123.139 153.596 115.618 155.897 115.383 156.222C115.147 156.546 115.52 157.142 115.614 157.344C115.708 157.547 122.195 157.737 123.512 157.494C124.829 157.251 129.029 157.908 130.571 157.095C130.831 156.958 128.783 151.241 128.454 150.675C128.125 150.109 123.656 150.433 123.844 151.163Z" fill="#5A5A5A"/>
<path d="M148.27 110.347C147.938 111.646 147.915 118.017 146.241 119.904C144.567 121.792 136.67 122.128 133.159 122.367C129.647 122.606 118.325 125.532 117.837 126.326C117.349 127.12 129.659 151.391 129.128 151.842C128.703 152.198 126.411 151.459 123.939 151.909C123.285 152.028 113.428 136.956 111.477 133.464C109.526 129.973 106.471 124.311 107.821 121.455C108.473 120.076 111.98 118.535 122.527 114.482H122.531C125.765 113.237 129.659 111.757 134.341 109.974C134.357 109.967 134.368 109.964 134.376 109.961C135.792 109.422 148.598 109.049 148.27 110.347Z" fill="#CC9300"/>
<g style="mix-blend-mode:multiply">
<path d="M135.928 110.28C133.228 110.926 123.681 114.377 122.53 114.482C125.764 113.237 129.658 111.757 134.34 109.974C134.356 109.967 134.367 109.964 134.375 109.961C134.984 109.749 135.928 110.28 135.928 110.28Z" fill="#DFDFDF"/>
</g>
<path d="M143.228 127.2H133.596L132.416 123.08H144.413L143.228 127.2Z" fill="#495053"/>
<path d="M119.087 96.2177C118.521 96.083 116.011 96.072 114.631 96.7028C113.251 97.3335 111.788 97.6399 111.496 97.9762C111.203 98.3126 107.054 99.5723 106.879 100.182C106.754 100.622 111.913 100.558 112.873 100.499C113.897 100.436 115.69 99.8985 115.836 99.6883C115.982 99.478 121.915 96.8905 119.087 96.2177Z" fill="#D5B093"/>
<path d="M140.919 83.601C140.233 84.2136 139.546 85.654 139.604 86.6018C139.662 87.5496 140.077 87.2066 140.17 87.032C140.262 86.8574 140.919 83.601 140.919 83.601Z" fill="#CC9300"/>
<path d="M139.753 87.1592C137.57 89.2239 131.9 93.4981 130.943 94.0027C129.987 94.5072 119.745 95.7867 118.501 95.7847C117.258 95.7827 118.063 97.0933 118.501 97.2194C118.94 97.3456 132.495 97.5979 134.35 96.4625C136.205 95.3272 142.795 86.4338 142.573 85.9923C142.35 85.5508 141.545 85.4652 139.753 87.1592Z" fill="#F1E7DE"/>
<g style="mix-blend-mode:multiply">
<path d="M134.349 96.4613C132.839 97.3897 123.553 97.3931 119.932 97.2922C119.109 97.272 118.582 97.2417 118.5 97.2182C118.063 97.0937 117.259 95.7817 118.5 95.7851C118.672 95.7851 119.011 95.7616 119.472 95.7178C122.374 95.4487 130.119 94.4362 130.942 94.0022C131.898 93.4976 137.568 89.2247 139.753 87.1592C141.544 85.4638 142.351 85.552 142.573 85.9927C142.796 86.4333 136.206 95.3276 134.349 96.4613Z" fill="#DFDFDF"/>
</g>
<path d="M134.878 109.674C135.256 109.914 135.583 109.953 136.259 110.216C140.594 111.899 148.669 111.962 149.893 110.612C149.821 110.037 149.299 108.081 149.245 107.973L135.183 107.592C135.174 107.647 135.165 107.701 135.156 107.763C135.066 108.353 134.95 109.022 134.878 109.674Z" fill="#382B25"/>
<path d="M151.18 95.1492C149.572 98.6006 151.077 106.298 149.174 109.042C148.269 110.347 139.998 109.692 136.798 108.507C136.146 108.266 135.087 107.688 135.117 107.448C136.232 98.4467 135.642 98.5107 135.482 97.0944C135.291 95.399 139.038 88.3473 140.973 85.0843C141.27 84.5831 141.511 84.2299 141.668 84.0819C142.292 83.4932 143.181 82.9314 143.841 82.4201C145.238 81.3336 146.256 80.2806 146.287 80.0889C146.299 80.0317 146.564 80.1932 147.333 81.0813C147.335 81.083 147.336 81.0854 147.337 81.088C147.598 81.3907 147.914 81.7809 148.3 82.2721C150.688 85.3198 152.877 91.4959 151.18 95.1492Z" fill="#E6DCD4"/>
<path d="M134.864 109.898C135.139 110.144 135.771 110.406 136.12 110.602L136.26 108.26C135.728 108.023 135.485 107.799 135.041 107.376C134.984 107.966 134.908 109.246 134.864 109.898Z" fill="#E4D9C4"/>
<path d="M139.603 86.6019C138.037 89.6004 136.288 97.9779 135.657 100.025C135.025 102.072 134.782 106.046 135.338 105.294C135.893 104.542 136.154 103.014 136.414 101.346C136.674 99.6779 139.516 87.449 139.871 87.1444C140.227 86.8398 139.734 86.3527 139.603 86.6019Z" fill="#CC9300"/>
<g style="mix-blend-mode:multiply">
<path d="M135.658 100.025C137.294 98.9137 148.695 89.1492 147.595 90.9914C146.495 92.8335 135.626 101.041 135.644 100.829C135.662 100.616 135.658 100.025 135.658 100.025Z" fill="#DFDFDF"/>
</g>
<g style="mix-blend-mode:multiply">
<path d="M152.544 93.6242C152.726 89.8073 149.213 95.338 147.457 105.583C146.573 110.738 147.323 116.158 145.19 118.853C143.661 120.784 141.956 120.93 135.652 121.58C133.371 121.816 130.006 122 125.708 123.521C122.715 124.581 127.976 125.014 128.268 125.14C128.561 125.266 141.715 125.178 145.3 124.957C148.884 124.737 151.238 123.208 150.75 118.853C150.262 114.498 150.135 110.039 150.165 107.265C150.262 98.2666 152.398 96.6829 152.544 93.6242Z" fill="#DFDFDF"/>
</g>
<path d="M152.737 92.9629C152.919 89.146 150.031 95.6364 148.275 105.882C147.392 111.036 148.142 116.456 146.009 119.151C144.48 121.083 142.775 121.228 136.471 121.879C134.19 122.114 129.823 122.22 125.525 123.742C122.533 124.801 125.086 125.382 125.379 125.508C125.671 125.634 142.534 125.476 146.118 125.256C149.703 125.035 152.056 123.506 151.568 119.151C151.081 114.796 150.953 110.337 150.983 107.563C151.081 98.565 152.591 96.0216 152.737 92.9629Z" fill="#E2A16D"/>
<path d="M111.966 97.0812C111.4 96.9466 110.142 96.8289 108.762 97.4597C107.382 98.0904 105.919 98.3968 105.626 98.7332C105.333 99.0696 101.31 99.8895 101.136 100.499C101.01 100.939 106.276 100.832 107.236 100.773C108.26 100.709 109.82 100.655 109.967 100.445C110.113 100.235 114.795 97.754 111.966 97.0812Z" fill="#DFB89A"/>
<path d="M147.89 90.7223C146.369 92.1958 134.921 100.653 133.649 101.426C132.377 102.2 127.598 102.214 125.253 102.066C123.368 101.948 115.725 100.696 112.701 100C111.96 99.8319 111.496 99.694 111.461 99.6166C111.285 99.2197 111.437 96.7135 112.241 96.7471C112.358 96.7505 112.76 96.7505 113.365 96.7438C116.9 96.6967 127.368 96.478 128.429 96.542C129.674 96.616 131.215 96.0071 131.691 95.7313C132.167 95.4588 139.416 89.6425 141.503 86.9783C143.595 84.3107 147.52 83.0324 148.249 83.5269C152.561 86.4501 149.393 89.2725 147.89 90.7223Z" fill="#F1E7DE"/>
<path d="M128.815 101.342H71.7612V104.033H128.815V101.342Z" fill="#E4D9C4"/>
<path d="M115.502 100.499H95.7495V101.341H115.502V100.499Z" fill="#495053"/>
<path d="M87.785 85.8966L96.5396 100.904C96.5475 100.917 96.5522 100.932 96.5535 100.947C96.5548 100.962 96.5526 100.978 96.5471 100.992C96.5415 101.007 96.5328 101.02 96.5213 101.031C96.5097 101.043 96.4957 101.052 96.48 101.059L95.8471 101.334C95.8314 101.34 95.8142 101.344 95.7967 101.346C95.7791 101.347 95.7614 101.345 95.7447 101.34C95.728 101.335 95.7125 101.328 95.6992 101.318C95.6858 101.308 95.6749 101.296 95.667 101.282L86.9124 86.275C86.8964 86.2476 86.8937 86.2158 86.9049 86.1867C86.9161 86.1576 86.9402 86.1334 86.972 86.1197L87.6049 85.8452C87.6366 85.8314 87.6735 85.8291 87.7073 85.8387C87.7411 85.8484 87.769 85.8692 87.785 85.8966Z" fill="#495053"/>
<path d="M86.8843 103.266V159.61C86.8843 159.946 87.0391 160.268 87.3148 160.506C87.5904 160.744 87.9643 160.877 88.3541 160.877H112.219C112.412 160.877 112.603 160.844 112.781 160.781C112.96 160.717 113.122 160.624 113.258 160.506C113.395 160.388 113.503 160.249 113.577 160.095C113.651 159.941 113.689 159.776 113.689 159.61V103.266H86.8843ZM110.712 153.436C110.712 155.455 108.753 157.093 106.338 157.093H94.2389C91.8238 157.093 89.8613 155.455 89.8613 153.436V110.556C89.8639 109.976 90.0287 109.405 90.3419 108.891C90.655 108.378 91.1071 107.937 91.6599 107.606C92.4143 107.147 93.3155 106.901 94.2389 106.903H106.338C107.26 106.9 108.159 107.145 108.913 107.603C109.466 107.934 109.918 108.376 110.231 108.89C110.544 109.404 110.709 109.975 110.712 110.556V153.436Z" fill="#E4D9C4"/>
<g style="mix-blend-mode:multiply">
<path d="M134.341 109.974C129.659 111.757 125.765 113.237 122.53 114.482H122.526" fill="#DFDFDF"/>
</g>
<g style="mix-blend-mode:multiply">
<path d="M113.689 104.034H86.8861V104.788H113.689V104.034Z" fill="#DFDFDF"/>
</g>
<path d="M145.912 79.7394C145.496 78.8929 148.488 81.4784 147.899 81.7671C143.531 83.908 139.617 87.1527 139.979 86.0842C140.821 83.6001 141.072 83.1535 141.39 83.0626C142.339 82.7917 146.152 80.2287 145.912 79.7394Z" fill="#F1E7DE"/>
<path d="M58.2106 70.4671C57.5846 70.4671 53.792 65.1045 54.0373 65.0414C54.2789 64.9783 55.7002 63.7213 55.8173 63.311C55.8979 63.0269 56.3326 61.4117 56.307 60.2691C56.296 59.8935 56.2887 59.5558 56.2814 59.3128C56.2777 59.237 56.274 59.1707 56.274 59.1139C56.2557 58.4511 61.304 59.7388 61.1649 60.4932C61.0954 60.8688 61.0624 61.6737 61.0551 62.4312C61.0551 62.8036 61.0588 63.1666 61.0698 63.4633C61.0712 63.6768 61.0908 63.8898 61.1283 64.1009C61.2345 64.4765 62.4865 65.1046 62.8672 65.5117C63.2516 65.9189 58.8366 70.4671 58.2106 70.4671Z" fill="#E3C7B1"/>
<g style="mix-blend-mode:multiply">
<path d="M61.07 63.4632C60.671 63.3843 57.4494 62.0365 56.3073 60.269C56.2963 59.8934 56.2889 59.5557 56.2816 59.3127C57.3433 59.5746 60.5904 61.6957 61.0554 62.4311C61.0554 62.8035 61.059 63.1665 61.07 63.4632Z" fill="#E8E8E8"/>
</g>
<path d="M63.928 58.5303C63.4032 60.4266 62.7072 62.2877 61.0564 62.5576C59.6607 62.7855 56.9896 60.6719 55.9 59.3715C55.8927 59.3645 55.8854 59.354 55.8781 59.347C55.7189 59.1645 55.5844 58.9669 55.4773 58.7581C55.4335 58.6635 55.3935 58.5724 55.357 58.4847C55.3279 58.4217 55.3024 58.3586 55.2805 58.299C55.2362 58.1933 55.1985 58.0857 55.1675 57.9765C55.1311 57.8538 55.1056 57.7347 55.0837 57.619C55.0691 57.5314 55.0582 57.4438 55.0509 57.3561C55.0473 57.3141 55.0436 57.272 55.0436 57.2334C55.0108 56.5289 55.1785 55.5896 55.47 53.5917C55.7615 51.6184 57.1754 51.4291 57.9261 51.7656C58.0682 51.8286 58.3816 51.8497 58.8007 51.8427C60.5936 51.8216 64.2815 51.3204 64.3033 51.7656C64.3069 51.8322 64.3106 51.9058 64.3106 51.9829C64.3215 52.1756 64.3288 52.3965 64.3361 52.6348C64.3762 54.2997 64.3653 56.953 63.928 58.5303Z" fill="#E3C7B1"/>
<g style="mix-blend-mode:multiply">
<path d="M64.3108 51.9827C64.3217 52.1755 64.329 52.3963 64.3363 52.6347H64.3326C61.8145 54.2295 58.6187 52.6838 57.8534 52.1159L57.8607 52.1124L58.8009 51.8425L63.7095 50.4335C63.7095 50.4335 65.0578 50.6929 65.2765 51.3238C64.9998 51.5887 64.6733 51.8115 64.3108 51.9827Z" fill="#E8E8E8"/>
</g>
<path d="M66.1763 50.1077C65.952 50.5512 65.6483 50.9616 65.2762 51.3239C64.9996 51.5888 64.6731 51.8116 64.3105 51.9828C63.7092 52.2738 62.9585 52.4701 61.9783 52.6102C59.6315 52.9538 58.1155 52.2738 57.926 52.1371C57.9081 52.1227 57.8849 52.114 57.8604 52.1125C57.6709 52.109 57.3867 52.5822 57.2519 53.7634C57.1025 55.0813 56.9312 55.8244 56.4574 55.8174C55.8489 55.8104 55.1601 56.0557 55.0654 56.7322C55.0411 56.8984 55.0338 57.0661 55.0435 57.2334C55.0435 57.272 55.0472 57.314 55.0508 57.3561C55.0581 57.4437 55.069 57.5314 55.0836 57.619C55.1055 57.7346 55.131 57.8538 55.1674 57.9765C55.1984 58.0856 55.2361 58.1933 55.2804 58.299C55.3023 58.3585 55.3278 58.4216 55.3569 58.4847C55.4979 58.786 55.6724 59.0747 55.878 59.347C55.8853 59.354 55.8926 59.3645 55.8999 59.3715C55.9145 59.396 55.9363 59.4206 55.9545 59.4451C56.1076 59.6414 54.6281 58.7686 54.3256 57.9239C54.0268 57.0757 50.6555 52.1541 54.5151 49.2279C56.6719 47.5927 56.9717 47.1489 60.3461 46.6758C63.7206 46.2026 64.3511 47.1295 66.814 46.3187C67.2725 46.1677 66.9998 48.5865 66.1763 50.1077Z" fill="#3A3F42"/>
<path d="M56.2615 55.0236C56.6994 55.9248 56.9526 56.3439 55.7652 57.0091C55.2491 57.2982 54.6845 56.7214 54.2467 55.8202C53.8089 54.9191 53.905 54.0102 54.4614 53.7902C55.0178 53.5703 55.8237 54.1225 56.2615 55.0236Z" fill="#E3C7B1"/>
<path d="M65.4601 147.519C65.9723 148.65 66.1992 149.378 66.1955 149.442C66.1919 149.506 69.5232 149.285 69.3537 149C69.1842 148.716 68.7555 146.461 68.7262 146.161C68.6968 145.862 65.2772 147.115 65.4601 147.519Z" fill="#E3C7B1"/>
<path d="M47.5781 148.533C47.3833 149.656 47.171 150.696 46.9915 151.121C46.8121 151.546 50.3707 151.378 50.63 150.597C50.8892 149.816 50.6006 148.841 50.6615 148.253C50.7224 147.666 47.7701 147.426 47.5781 148.533Z" fill="#E3C7B1"/>
<path d="M65.0239 147.102C64.7429 146.673 64.0588 151.842 64.3593 152.185C64.6598 152.529 68.7854 153.144 69.6027 153.546C70.42 153.948 73.0165 154.719 74.2516 154.808C75.4867 154.897 76.9107 154.479 76.4967 154.021C76.0827 153.563 73.0632 151.346 72.6829 150.999C72.3026 150.652 69.0107 146.513 68.6257 146.53C68.2407 146.546 65.0903 147.204 65.0239 147.102Z" fill="#ACACAC"/>
<path d="M65.2412 95.3682C65.1806 98.8945 69.1434 145.774 68.9195 146.446C68.6956 147.119 63.9151 147.93 63.1004 147.564C62.2857 147.198 60.3361 123.543 59.6968 121.726C59.0575 119.909 55.5176 104.625 54.8686 102.978C54.2197 101.331 56.2559 96.2181 57.7807 95.6859C59.3055 95.1537 65.2695 93.726 65.2412 95.3682Z" fill="#6E787D"/>
<g style="mix-blend-mode:multiply">
<path d="M68.9191 146.446C68.7292 147.021 65.1924 147.701 63.6735 147.654C63.4772 147.657 63.282 147.627 63.0997 147.564C62.4358 147.265 61.0168 131.508 60.1721 124.697C59.979 123.148 59.8148 122.062 59.6961 121.726C59.1883 120.282 56.8535 110.35 55.5888 105.494C55.2608 104.235 55.0043 103.317 54.8692 102.977C54.2186 101.331 56.2544 96.2191 57.7787 95.686C59.3059 95.1531 65.2696 93.7265 65.2396 95.3678C65.1796 98.8946 69.142 145.773 68.9191 146.446Z" fill="#E8E8E8"/>
</g>
<path d="M51.1023 147.264C51.1629 148.758 51.95 151.374 51.9559 152.035C51.9618 152.696 50.312 153.149 49.8215 153.579C49.3309 154.008 47.384 155.947 46.6117 156.354C45.8394 156.761 43.1008 157.675 42.2301 157.242C41.3594 156.809 44.1143 153.249 44.7466 152.554C45.3789 151.86 47.1235 148.343 47.126 148.332C47.1285 148.321 48.6102 148.819 49.3454 148.454C50.0806 148.089 51.1023 147.264 51.1023 147.264Z" fill="#ACACAC"/>
<g style="mix-blend-mode:multiply">
<path d="M58.6305 112.989C59.9923 118.513 58.9509 115.885 59.7236 121.249C59.2144 119.83 56.8698 110.07 55.6003 105.298C55.7345 104.006 55.8161 103.202 55.8161 103.202C57.6646 108.551 57.2688 107.465 58.6305 112.989Z" fill="#E8E8E8"/>
</g>
<path d="M57.3023 97.9381C56.8141 100.916 53.9034 118.973 53.9385 121.701C53.9733 124.427 52.1124 146.995 51.8651 147.564C51.6154 148.139 49.3948 148.691 47.7293 148.777C46.7122 148.827 45.9037 148.702 45.8785 148.299C45.6908 145.32 46.2652 118.685 46.2296 116.385C46.2023 114.522 45.8581 103.174 45.986 98.3433C46.0146 97.2066 46.0711 96.4316 46.1615 96.2236C46.6424 95.1265 57.7305 95.3261 57.3023 97.9381Z" fill="#6E787D"/>
<path d="M67.5478 83.3897C67.8839 84.0959 69.6494 88.0006 71.8747 88.5338C74.0999 89.067 77.1249 87.1851 78.2376 86.5891C79.3502 85.9931 84.5657 82.4801 84.8091 82.1665C85.0525 81.8528 83.9051 80.159 83.3487 80.2218C82.7924 80.2845 78.7939 81.8528 78.0985 81.9469C77.4031 82.041 74.3086 82.637 73.6827 82.5742C73.0569 82.5115 72.1181 79.814 71.7356 78.7789C71.3531 77.7438 67.0112 82.2621 67.5478 83.3897Z" fill="#E3C7B1"/>
<path d="M71.5589 83.626C70.6201 84.4426 70.4879 87.576 69.7225 87.4194C69.3013 87.3339 67.8366 84.8129 66.559 82.4438C66.1212 81.6367 65.7055 80.8463 65.3586 80.1769C64.8768 79.2392 64.5299 78.5365 64.4583 78.3561C64.2518 77.8458 66.2754 72.7159 67.3547 70.0525C67.3552 70.0459 67.3571 70.0395 67.3602 70.0335C67.7402 69.0959 68.0017 68.4692 68.0017 68.4692C68.0183 68.3837 68.1311 68.576 68.3156 68.9843C69.2352 70.9878 71.9362 78.1615 73.7671 82.3465C73.9075 82.6694 72.4979 82.8118 71.5589 83.626Z" fill="#CC9300"/>
<g style="mix-blend-mode:multiply">
<path d="M66.8986 76.9652C66.0175 79.5171 66.969 78.9781 66.5587 82.4438C66.1209 81.6367 65.7052 80.8462 65.3583 80.1768C65.3142 79.7638 65.2839 79.3863 65.2757 79.0967C65.2261 77.4588 66.4128 72.6946 67.3544 70.0525C67.355 70.046 67.3568 70.0395 67.3599 70.0336C67.7399 69.0959 68.0015 68.4692 68.0015 68.4692C68.018 68.3837 67.9466 68.1959 68.1311 68.6042C68.6911 69.9119 67.7797 74.4134 66.8986 76.9652Z" fill="#E8E8E8"/>
</g>
<path d="M65.4158 94.7141C65.5452 95.6541 59.4466 97.0974 56.8971 97.4107C55.7407 97.5508 53.3647 97.7122 51.1042 97.6647C49.1494 97.6268 47.2799 97.4321 46.3713 96.9336C46.362 96.9264 46.3519 96.9201 46.3411 96.9146C46.2618 96.8705 46.1871 96.8205 46.118 96.7651C46.117 96.762 46.1153 96.7591 46.1129 96.7567C46.1105 96.7542 46.1076 96.7522 46.1043 96.7508C46.0114 96.6816 45.9363 96.5964 45.8837 96.5008C45.8311 96.4052 45.8021 96.3012 45.7986 96.1954C45.7739 95.3835 47.2579 90.5077 47.6736 86.7452C47.9875 83.9275 47.6764 80.5472 47.2056 78.4986V78.4962C47.2028 78.4891 47.2028 78.4772 47.2001 78.463C47.0569 77.8363 46.8945 77.3331 46.732 77.0173C46.732 77.0173 46.7293 77.015 46.732 77.015C46.721 76.996 46.71 76.977 46.699 76.958C46.0272 75.745 46.6549 67.3726 47.2028 66.4871C47.2049 66.4829 47.2077 66.4789 47.2111 66.4753C47.2249 66.4587 47.2386 66.442 47.2524 66.4278C47.2524 66.4254 47.2551 66.4254 47.2579 66.423C47.3084 66.3924 47.3618 66.3654 47.4176 66.3423C48.5684 65.8367 54.3641 64.2605 54.5926 64.6997C54.8376 65.1673 57.3018 66.1358 58.5876 66.264C59.8762 66.3898 62.3651 65.5732 62.635 65.3073C63.2131 64.7353 67.2384 67.007 68.0727 68.4693C68.9069 69.9315 65.4405 79.2796 65.3524 80.222C65.2671 81.162 65.2918 93.7717 65.4158 94.7141Z" fill="#CC9300"/>
<g style="mix-blend-mode:multiply">
<path d="M51.1047 97.6647C49.1498 97.6268 47.2804 97.4321 46.3718 96.9336C46.3624 96.9265 46.3523 96.9201 46.3415 96.9147C46.2622 96.8706 46.1876 96.8205 46.1185 96.7651C46.1175 96.762 46.1157 96.7592 46.1133 96.7567C46.111 96.7543 46.108 96.7523 46.1047 96.7508C46.0119 96.6816 45.9368 96.5964 45.8842 96.5008C45.8316 96.4052 45.8026 96.3012 45.7991 96.1954C45.7743 95.3835 47.2583 90.5077 47.6741 86.7452C47.988 83.9275 47.6768 80.5472 47.206 78.4985C46.7297 79.054 44.9786 81.3851 44.1664 82.3631C45.1576 80.2884 46.0799 78.3704 46.7325 77.0173C46.7325 77.0173 46.7297 77.0149 46.7325 77.0149C47.3189 75.7948 47.6851 75.0352 47.6851 75.0352C48.2 76.4072 49.439 78.5674 49.3481 81.2641C49.2572 83.9631 47.9659 85.9025 48.5193 87.6425C49.0728 89.3825 48.0568 92.9195 48.5193 94.574C48.9791 96.2144 49.8354 97.3633 51.1047 97.6647Z" fill="#E8E8E8"/>
</g>
<g style="mix-blend-mode:multiply">
<path d="M64.662 89.5526C63.0377 90.2634 54.0285 90.2779 54.0096 90.0507C54.3235 90.0295 52.513 76.7639 52.1991 76.7851C52.215 76.9759 63.6541 76.0556 63.6387 76.1969L64.662 89.5526Z" fill="#E8E8E8"/>
</g>
<path d="M63.1624 89.8661C63.1655 90.089 52.3877 90.2122 52.3846 89.9893C52.6993 89.9857 52.5138 76.7815 52.1991 76.7851C52.2017 76.9723 63.0331 76.8468 63.0305 76.6597L63.1624 89.8661Z" fill="#E4D9C4"/>
<g style="mix-blend-mode:multiply">
<path d="M63.1624 89.8661C63.1655 90.089 52.3877 90.2122 52.3846 89.9893C52.6993 89.9857 52.5138 76.7815 52.1991 76.7851C52.2017 76.9723 63.0331 76.8468 63.0305 76.6597L63.1624 89.8661Z" fill="#E8E8E8"/>
</g>
<path d="M63.2877 90.1163C63.2904 90.3391 52.5124 90.4457 52.5097 90.2229C52.8244 90.2198 52.664 77.0153 52.3492 77.0185C53.0166 77.0738 62.8661 77.1007 62.603 76.9652L63.2877 90.1163Z" fill="#F6F6F7"/>
<path d="M64.1278 89.8277C64.1463 90.0499 53.3979 90.7788 53.3794 90.5565C53.6933 90.5352 52.5961 77.3672 52.2822 77.3885C52.2978 77.5751 63.0461 76.8463 63.0306 76.6597L64.1278 89.8277Z" fill="#E4D9C4"/>
<path d="M40.4075 77.2419C39.8849 78.3263 39.121 79.6601 38.5647 81.1485C38.0084 82.6369 37.904 85.5749 38.1474 86.0349C38.3908 86.495 43.7677 83.076 43.7739 82.7937C43.7802 82.5114 44.5451 81.1313 44.7189 80.8804C44.8928 80.6295 40.8528 76.3179 40.4075 77.2419Z" fill="#E3C7B1"/>
<path d="M47.6848 75.0353C47.5691 76.8489 47.4067 78.2708 47.258 78.4369C47.2442 78.4536 47.225 78.4725 47.2057 78.4963V78.4986C46.7294 79.0541 44.9783 81.3852 44.1661 82.3632C44.0514 82.5165 43.9205 82.6604 43.7751 82.7929C43.497 82.9614 43.1529 82.0048 41.3743 82.4487C39.9563 82.8048 37.7262 84.3311 37.6794 83.467C37.6353 82.6006 41.0852 75.4981 42.7647 72.3315C43.431 71.0733 46.0383 67.8426 47.2029 66.4871C47.2051 66.4829 47.2078 66.4789 47.2112 66.4753C47.225 66.4587 47.2388 66.442 47.2525 66.4278C47.2525 66.4254 47.2553 66.4254 47.258 66.423V66.4207C47.3158 66.3519 47.3709 66.3281 47.4177 66.3423C47.9684 66.4871 47.9133 71.5054 47.6848 75.0353Z" fill="#CC9300"/>
<path d="M38.1466 86.0349C38.2807 86.4142 39.6417 87.3732 40.8934 87.4987C42.1451 87.6242 52.2283 86.7145 52.3327 86.5263C52.437 86.3381 53.0976 84.268 52.6108 84.017C52.124 83.7661 48.4037 83.4524 47.291 83.2329C46.1784 83.0133 43.4663 82.4801 41.8322 82.9819C40.198 83.4838 37.9727 85.5435 38.1466 86.0349Z" fill="#E3C7B1"/>
<path d="M83.1234 80.2722C83.5888 79.7851 84.7364 78.7999 84.8421 78.1307C84.9477 77.4616 85.9213 76.7924 86.663 76.3324C87.4048 75.8723 88.7029 75.5378 89.0738 75.2868C89.4446 75.0359 89.0738 75.7707 88.842 75.9679C88.6102 76.1651 87.7676 76.8551 87.4431 77.2734C87.1186 77.6916 88.1929 77.516 89.0274 77.1124C89.8619 76.7088 91.0943 75.0134 91.6699 75.0359C91.9643 75.0474 91.8017 77.1743 91.6708 77.9634C91.4728 79.1561 89.6467 80.3146 88.7196 81.0255C87.7924 81.7365 85.1577 81.9405 84.5475 82.3872C83.9373 82.8338 82.7087 80.7063 83.1234 80.2722Z" fill="#E3C7B1"/>
<g style="mix-blend-mode:multiply">
<path d="M53.942 86.1085C54.8393 86.4208 55.9375 86.7458 56.7189 86.7661C57.5003 86.7864 59.2888 86.0462 59.929 85.3645C60.2246 85.0497 59.306 81.6167 59.1128 81.8533C58.9687 82.0296 53.942 86.1085 53.942 86.1085Z" fill="#E8E8E8"/>
</g>
<path d="M52.415 83.9506C52.919 84.0955 54.1074 82.3919 55.3592 82.1828C56.6109 81.9736 58.4505 81.1007 59.0531 81.2926C59.6558 81.4845 59.6822 85.0439 59.6354 85.142C59.5437 85.334 58.1186 86.4695 56.9994 86.4614C55.8802 86.4533 54.4894 86.0364 54.1186 86.0776C53.7477 86.1187 52.4101 86.5393 52.1176 86.5861C51.825 86.633 51.9734 83.8236 52.415 83.9506Z" fill="#E3C7B1"/>
<g style="mix-blend-mode:multiply">
<path d="M64.2845 147.656C64.0258 147.647 63.218 147.616 63.0997 147.564C62.4356 147.27 61.0537 130.862 60.2023 124.169C60.7664 127.189 61.2917 128.569 62.0137 132.302C62.8939 136.843 63.4808 145.6 64.2845 147.656Z" fill="#E8E8E8"/>
</g>
<g style="mix-blend-mode:multiply">
<path d="M46.7921 108.735C46.1654 112.817 47.5445 118.972 46.777 122.852C46.0094 126.732 46.8105 143.349 47.5121 146.183C47.7203 147.074 48.1233 147.923 48.6996 148.684C46.9841 148.917 45.9024 148.695 45.8777 148.299C45.6936 145.372 46.2364 116.856 46.2035 114.596C46.1785 112.767 45.8481 101.616 45.9818 96.8699L47.0918 97.0456C47.5054 100.939 47.4049 104.861 46.7921 108.735Z" fill="#E8E8E8"/>
</g>
<path d="M54.3524 64.6248C55.1876 63.4114 55.4185 62.8298 55.8939 63.0308C56.3694 63.2318 61.0823 63.931 61.0712 63.4632C61.0601 62.9955 61.8768 64.9744 62.8923 65.2184C63.9079 65.4625 59.3521 66.9112 59.3521 66.9112C59.3521 66.9112 53.666 65.6221 54.3524 64.6248Z" fill="#A9CDD5"/>
<defs>
<filter id="filter0_d" x="3.62659" y="-1.31775" width="198.61" height="175.9" filterUnits="userSpaceOnUse" color-interpolation-filters="sRGB">
<feFlood flood-opacity="0" result="BackgroundImageFix"/>
<feColorMatrix in="SourceAlpha" type="matrix" values="0 0 0 0 0 0 0 0 0 0 0 0 0 0 0 0 0 0 127 0"/>
<feOffset dx="8" dy="8"/>
<feGaussianBlur stdDeviation="7"/>
<feColorMatrix type="matrix" values="0 0 0 0 0 0 0 0 0 0 0 0 0 0 0 0 0 0 0.25 0"/>
<feBlend mode="normal" in2="BackgroundImageFix" result="effect1_dropShadow"/>
<feBlend mode="normal" in="SourceGraphic" in2="effect1_dropShadow" result="shape"/>
</filter>
<filter id="filter1_d" x="11.1" y="77.1741" width="50.1391" height="65.0752" filterUnits="userSpaceOnUse" color-interpolation-filters="sRGB">
<feFlood flood-opacity="0" result="BackgroundImageFix"/>
<feColorMatrix in="SourceAlpha" type="matrix" values="0 0 0 0 0 0 0 0 0 0 0 0 0 0 0 0 0 0 127 0"/>
<feOffset dx="8" dy="8"/>
<feGaussianBlur stdDeviation="7"/>
<feColorMatrix type="matrix" values="0 0 0 0 0 0 0 0 0 0 0 0 0 0 0 0 0 0 0.25 0"/>
<feBlend mode="normal" in2="BackgroundImageFix" result="effect1_dropShadow"/>
<feBlend mode="normal" in="SourceGraphic" in2="effect1_dropShadow" result="shape"/>
</filter>
<filter id="filter2_d" x="30.6289" y="15.861" width="39.0789" height="39.8559" filterUnits="userSpaceOnUse" color-interpolation-filters="sRGB">
<feFlood flood-opacity="0" result="BackgroundImageFix"/>
<feColorMatrix in="SourceAlpha" type="matrix" values="0 0 0 0 0 0 0 0 0 0 0 0 0 0 0 0 0 0 127 0"/>
<feOffset dx="8" dy="8"/>
<feGaussianBlur stdDeviation="7"/>
<feColorMatrix type="matrix" values="0 0 0 0 0 0 0 0 0 0 0 0 0 0 0 0 0 0 0.25 0"/>
<feBlend mode="normal" in2="BackgroundImageFix" result="effect1_dropShadow"/>
<feBlend mode="normal" in="SourceGraphic" in2="effect1_dropShadow" result="shape"/>
</filter>
<filter id="filter3_d" x="25.3091" y="118.765" width="32.1663" height="32.0881" filterUnits="userSpaceOnUse" color-interpolation-filters="sRGB">
<feFlood flood-opacity="0" result="BackgroundImageFix"/>
<feColorMatrix in="SourceAlpha" type="matrix" values="0 0 0 0 0 0 0 0 0 0 0 0 0 0 0 0 0 0 127 0"/>
<feOffset dx="8" dy="8"/>
<feGaussianBlur stdDeviation="7"/>
<feColorMatrix type="matrix" values="0 0 0 0 0 0 0 0 0 0 0 0 0 0 0 0 0 0 0.25 0"/>
<feBlend mode="normal" in2="BackgroundImageFix" result="effect1_dropShadow"/>
<feBlend mode="normal" in="SourceGraphic" in2="effect1_dropShadow" result="shape"/>
</filter>
<filter id="filter4_d" x="43.3663" y="128.423" width="49.6413" height="49.2352" filterUnits="userSpaceOnUse" color-interpolation-filters="sRGB">
<feFlood flood-opacity="0" result="BackgroundImageFix"/>
<feColorMatrix in="SourceAlpha" type="matrix" values="0 0 0 0 0 0 0 0 0 0 0 0 0 0 0 0 0 0 127 0"/>
<feOffset dx="8" dy="8"/>
<feGaussianBlur stdDeviation="7"/>
<feColorMatrix type="matrix" values="0 0 0 0 0 0 0 0 0 0 0 0 0 0 0 0 0 0 0.25 0"/>
<feBlend mode="normal" in2="BackgroundImageFix" result="effect1_dropShadow"/>
<feBlend mode="normal" in="SourceGraphic" in2="effect1_dropShadow" result="shape"/>
</filter>
<filter id="filter5_d" x="2.59766" y="63.9888" width="40.8362" height="40.5953" filterUnits="userSpaceOnUse" color-interpolation-filters="sRGB">
<feFlood flood-opacity="0" result="BackgroundImageFix"/>
<feColorMatrix in="SourceAlpha" type="matrix" values="0 0 0 0 0 0 0 0 0 0 0 0 0 0 0 0 0 0 127 0"/>
<feOffset dx="8" dy="8"/>
<feGaussianBlur stdDeviation="7"/>
<feColorMatrix type="matrix" values="0 0 0 0 0 0 0 0 0 0 0 0 0 0 0 0 0 0 0.25 0"/>
<feBlend mode="normal" in2="BackgroundImageFix" result="effect1_dropShadow"/>
<feBlend mode="normal" in="SourceGraphic" in2="effect1_dropShadow" result="shape"/>
</filter>
<filter id="filter6_d" x="34.4578" y="29.5692" width="31.5894" height="31.0742" filterUnits="userSpaceOnUse" color-interpolation-filters="sRGB">
<feFlood flood-opacity="0" result="BackgroundImageFix"/>
<feColorMatrix in="SourceAlpha" type="matrix" values="0 0 0 0 0 0 0 0 0 0 0 0 0 0 0 0 0 0 127 0"/>
<feOffset dx="8" dy="8"/>
<feGaussianBlur stdDeviation="7"/>
<feColorMatrix type="matrix" values="0 0 0 0 0 0 0 0 0 0 0 0 0 0 0 0 0 0 0.25 0"/>
<feBlend mode="normal" in2="BackgroundImageFix" result="effect1_dropShadow"/>
<feBlend mode="normal" in="SourceGraphic" in2="effect1_dropShadow" result="shape"/>
</filter>
<filter id="filter7_d" x="162.361" y="83.3022" width="32.1663" height="32.0881" filterUnits="userSpaceOnUse" color-interpolation-filters="sRGB">
<feFlood flood-opacity="0" result="BackgroundImageFix"/>
<feColorMatrix in="SourceAlpha" type="matrix" values="0 0 0 0 0 0 0 0 0 0 0 0 0 0 0 0 0 0 127 0"/>
<feOffset dx="8" dy="8"/>
<feGaussianBlur stdDeviation="7"/>
<feColorMatrix type="matrix" values="0 0 0 0 0 0 0 0 0 0 0 0 0 0 0 0 0 0 0.25 0"/>
<feBlend mode="normal" in2="BackgroundImageFix" result="effect1_dropShadow"/>
<feBlend mode="normal" in="SourceGraphic" in2="effect1_dropShadow" result="shape"/>
</filter>
<filter id="filter8_d" x="149.393" y="89.7941" width="48.0899" height="40.6062" filterUnits="userSpaceOnUse" color-interpolation-filters="sRGB">
<feFlood flood-opacity="0" result="BackgroundImageFix"/>
<feColorMatrix in="SourceAlpha" type="matrix" values="0 0 0 0 0 0 0 0 0 0 0 0 0 0 0 0 0 0 127 0"/>
<feOffset dx="8" dy="8"/>
<feGaussianBlur stdDeviation="7"/>
<feColorMatrix type="matrix" values="0 0 0 0 0 0 0 0 0 0 0 0 0 0 0 0 0 0 0.25 0"/>
<feBlend mode="normal" in2="BackgroundImageFix" result="effect1_dropShadow"/>
<feBlend mode="normal" in="SourceGraphic" in2="effect1_dropShadow" result="shape"/>
</filter>
<filter id="filter9_d" x="33.4374" y="78.5739" width="32.4172" height="32.2633" filterUnits="userSpaceOnUse" color-interpolation-filters="sRGB">
<feFlood flood-opacity="0" result="BackgroundImageFix"/>
<feColorMatrix in="SourceAlpha" type="matrix" values="0 0 0 0 0 0 0 0 0 0 0 0 0 0 0 0 0 0 127 0"/>
<feOffset dx="8" dy="8"/>
<feGaussianBlur stdDeviation="7"/>
<feColorMatrix type="matrix" values="0 0 0 0 0 0 0 0 0 0 0 0 0 0 0 0 0 0 0.25 0"/>
<feBlend mode="normal" in2="BackgroundImageFix" result="effect1_dropShadow"/>
<feBlend mode="normal" in="SourceGraphic" in2="effect1_dropShadow" result="shape"/>
</filter>
<linearGradient id="paint0_linear" x1="14.8228" y1="-24.8979" x2="198.996" y2="-14.1953" gradientUnits="userSpaceOnUse">
<stop offset="0.0756841" stop-color="#B565D8"/>
<stop offset="0.945898" stop-color="#EE609C"/>
</linearGradient>
<linearGradient id="paint1_linear" x1="5.92989" y1="89.1944" x2="29.4113" y2="72.4157" gradientUnits="userSpaceOnUse">
<stop offset="0.0756841" stop-color="#B565D8"/>
<stop offset="0.945898" stop-color="#EE609C"/>
</linearGradient>
<linearGradient id="paint2_linear" x1="33.7406" y1="23.2038" x2="45.2977" y2="17.9653" gradientUnits="userSpaceOnUse">
<stop offset="0.0756841" stop-color="#B565D8"/>
<stop offset="0.945898" stop-color="#EE609C"/>
</linearGradient>
<linearGradient id="paint3_linear" x1="30.0264" y1="127.433" x2="32.246" y2="123.388" gradientUnits="userSpaceOnUse">
<stop offset="0.0756841" stop-color="#B565D8"/>
<stop offset="0.945898" stop-color="#EE609C"/>
</linearGradient>
<linearGradient id="paint4_linear" x1="42.7038" y1="148.281" x2="54.2333" y2="127.268" gradientUnits="userSpaceOnUse">
<stop offset="0.0756841" stop-color="#B565D8"/>
<stop offset="0.945898" stop-color="#EE609C"/>
</linearGradient>
<linearGradient id="paint5_linear" x1="4.64591" y1="78.2085" x2="11.4845" y2="65.7449" gradientUnits="userSpaceOnUse">
<stop offset="0.0756841" stop-color="#B565D8"/>
<stop offset="0.945898" stop-color="#EE609C"/>
</linearGradient>
<linearGradient id="paint6_linear" x1="44.8482" y1="36.0198" x2="44.2211" y2="39.3933" gradientUnits="userSpaceOnUse">
<stop offset="0.0756841" stop-color="#B565D8"/>
<stop offset="0.945898" stop-color="#EE609C"/>
</linearGradient>
<linearGradient id="paint7_linear" x1="167.079" y1="91.9701" x2="169.298" y2="87.9247" gradientUnits="userSpaceOnUse">
<stop offset="0.0756841" stop-color="#B565D8"/>
<stop offset="0.945898" stop-color="#EE609C"/>
</linearGradient>
<linearGradient id="paint8_linear" x1="161.818" y1="87.9788" x2="179.387" y2="97.6466" gradientUnits="userSpaceOnUse">
<stop offset="0.0756841" stop-color="#B565D8"/>
<stop offset="0.945898" stop-color="#EE609C"/>
</linearGradient>
<linearGradient id="paint9_linear" x1="40.9979" y1="83.0756" x2="45.2389" y2="85.3565" gradientUnits="userSpaceOnUse">
<stop offset="0.0756841" stop-color="#B565D8"/>
<stop offset="0.945898" stop-color="#EE609C"/>
</linearGradient>
<linearGradient id="paint10_linear" x1="62.0595" y1="103.523" x2="66.7476" y2="110.314" gradientUnits="userSpaceOnUse">
<stop offset="0.0756841" stop-color="#B565D8"/>
<stop offset="0.945898" stop-color="#EE609C"/>
</linearGradient>
<linearGradient id="paint11_linear" x1="53.4707" y1="99.6079" x2="58.1482" y2="106.408" gradientUnits="userSpaceOnUse">
<stop offset="0.0756841" stop-color="#B565D8"/>
<stop offset="0.945898" stop-color="#EE609C"/>
</linearGradient>
<linearGradient id="paint12_linear" x1="37.3411" y1="100.081" x2="41.9879" y2="106.935" gradientUnits="userSpaceOnUse">
<stop offset="0.0756841" stop-color="#B565D8"/>
<stop offset="0.945898" stop-color="#EE609C"/>
</linearGradient>
<linearGradient id="paint13_linear" x1="32.2264" y1="94.1444" x2="36.8888" y2="100.986" gradientUnits="userSpaceOnUse">
<stop offset="0.0756841" stop-color="#B565D8"/>
<stop offset="0.945898" stop-color="#EE609C"/>
</linearGradient>
<linearGradient id="paint14_linear" x1="57.9784" y1="101.443" x2="62.6617" y2="108.238" gradientUnits="userSpaceOnUse">
<stop offset="0.0756841" stop-color="#B565D8"/>
<stop offset="0.945898" stop-color="#EE609C"/>
</linearGradient>
<linearGradient id="paint15_linear" x1="48.4042" y1="98.0998" x2="53.0741" y2="104.906" gradientUnits="userSpaceOnUse">
<stop offset="0.0756841" stop-color="#B565D8"/>
<stop offset="0.945898" stop-color="#EE609C"/>
</linearGradient>
<linearGradient id="paint16_linear" x1="34.6906" y1="97.1669" x2="39.3443" y2="104.015" gradientUnits="userSpaceOnUse">
<stop offset="0.0756841" stop-color="#B565D8"/>
<stop offset="0.945898" stop-color="#EE609C"/>
</linearGradient>
<linearGradient id="paint17_linear" x1="93.4376" y1="129.829" x2="98.1807" y2="136.575" gradientUnits="userSpaceOnUse">
<stop offset="0.0756841" stop-color="#B565D8"/>
<stop offset="0.945898" stop-color="#EE609C"/>
</linearGradient>
<linearGradient id="paint18_linear" x1="87.7471" y1="124.227" x2="92.488" y2="131.005" gradientUnits="userSpaceOnUse">
<stop offset="0.0756841" stop-color="#B565D8"/>
<stop offset="0.945898" stop-color="#EE609C"/>
</linearGradient>
<linearGradient id="paint19_linear" x1="81.9811" y1="118.67" x2="86.7098" y2="125.458" gradientUnits="userSpaceOnUse">
<stop offset="0.0756841" stop-color="#B565D8"/>
<stop offset="0.945898" stop-color="#EE609C"/>
</linearGradient>
<linearGradient id="paint20_linear" x1="75.9309" y1="113.278" x2="80.6498" y2="120.073" gradientUnits="userSpaceOnUse">
<stop offset="0.0756841" stop-color="#B565D8"/>
<stop offset="0.945898" stop-color="#EE609C"/>
</linearGradient>
<linearGradient id="paint21_linear" x1="69.3864" y1="108.173" x2="74.0827" y2="114.958" gradientUnits="userSpaceOnUse">
<stop offset="0.0756841" stop-color="#B565D8"/>
<stop offset="0.945898" stop-color="#EE609C"/>
</linearGradient>
<linearGradient id="paint22_linear" x1="90.5894" y1="127.03" x2="95.3381" y2="133.801" gradientUnits="userSpaceOnUse">
<stop offset="0.0756841" stop-color="#B565D8"/>
<stop offset="0.945898" stop-color="#EE609C"/>
</linearGradient>
<linearGradient id="paint23_linear" x1="84.8868" y1="121.435" x2="89.6211" y2="128.219" gradientUnits="userSpaceOnUse">
<stop offset="0.0756841" stop-color="#B565D8"/>
<stop offset="0.945898" stop-color="#EE609C"/>
</linearGradient>
<linearGradient id="paint24_linear" x1="79.0051" y1="115.945" x2="83.7286" y2="122.737" gradientUnits="userSpaceOnUse">
<stop offset="0.0756841" stop-color="#B565D8"/>
<stop offset="0.945898" stop-color="#EE609C"/>
</linearGradient>
<linearGradient id="paint25_linear" x1="72.7326" y1="110.682" x2="77.4473" y2="117.482" gradientUnits="userSpaceOnUse">
<stop offset="0.0756841" stop-color="#B565D8"/>
<stop offset="0.945898" stop-color="#EE609C"/>
</linearGradient>
<linearGradient id="paint26_linear" x1="65.8395" y1="105.781" x2="70.5319" y2="112.569" gradientUnits="userSpaceOnUse">
<stop offset="0.0756841" stop-color="#B565D8"/>
<stop offset="0.945898" stop-color="#EE609C"/>
</linearGradient>
<linearGradient id="paint27_linear" x1="119.654" y1="150.226" x2="124.597" y2="156.793" gradientUnits="userSpaceOnUse">
<stop offset="0.0756841" stop-color="#B565D8"/>
<stop offset="0.945898" stop-color="#EE609C"/>
</linearGradient>
<linearGradient id="paint28_linear" x1="112.042" y1="145.742" x2="116.897" y2="152.391" gradientUnits="userSpaceOnUse">
<stop offset="0.0756841" stop-color="#B565D8"/>
<stop offset="0.945898" stop-color="#EE609C"/>
</linearGradient>
<linearGradient id="paint29_linear" x1="105.363" y1="140.716" x2="110.165" y2="147.412" gradientUnits="userSpaceOnUse">
<stop offset="0.0756841" stop-color="#B565D8"/>
<stop offset="0.945898" stop-color="#EE609C"/>
</linearGradient>
<linearGradient id="paint30_linear" x1="99.2415" y1="135.364" x2="104.009" y2="142.09" gradientUnits="userSpaceOnUse">
<stop offset="0.0756841" stop-color="#B565D8"/>
<stop offset="0.945898" stop-color="#EE609C"/>
</linearGradient>
<linearGradient id="paint31_linear" x1="124.001" y1="152.153" x2="129.014" y2="158.651" gradientUnits="userSpaceOnUse">
<stop offset="0.0756841" stop-color="#B565D8"/>
<stop offset="0.945898" stop-color="#EE609C"/>
</linearGradient>
<linearGradient id="paint32_linear" x1="115.688" y1="148.077" x2="120.581" y2="154.691" gradientUnits="userSpaceOnUse">
<stop offset="0.0756841" stop-color="#B565D8"/>
<stop offset="0.945898" stop-color="#EE609C"/>
</linearGradient>
<linearGradient id="paint33_linear" x1="108.613" y1="143.281" x2="113.439" y2="149.956" gradientUnits="userSpaceOnUse">
<stop offset="0.0756841" stop-color="#B565D8"/>
<stop offset="0.945898" stop-color="#EE609C"/>
</linearGradient>
<linearGradient id="paint34_linear" x1="102.243" y1="138.075" x2="107.026" y2="144.788" gradientUnits="userSpaceOnUse">
<stop offset="0.0756841" stop-color="#B565D8"/>
<stop offset="0.945898" stop-color="#EE609C"/>
</linearGradient>
<linearGradient id="paint35_linear" x1="96.3116" y1="132.614" x2="101.08" y2="139.368" gradientUnits="userSpaceOnUse">
<stop offset="0.0756841" stop-color="#B565D8"/>
<stop offset="0.945898" stop-color="#EE609C"/>
</linearGradient>
<linearGradient id="paint36_linear" x1="128.85" y1="153.787" x2="133.982" y2="160.194" gradientUnits="userSpaceOnUse">
<stop offset="0.0756841" stop-color="#B565D8"/>
<stop offset="0.945898" stop-color="#EE609C"/>
</linearGradient>
<linearGradient id="paint37_linear" x1="141.392" y1="155.401" x2="147.044" y2="161.115" gradientUnits="userSpaceOnUse">
<stop offset="0.0756841" stop-color="#B565D8"/>
<stop offset="0.945898" stop-color="#EE609C"/>
</linearGradient>
<linearGradient id="paint38_linear" x1="134.442" y1="154.991" x2="139.725" y2="161.19" gradientUnits="userSpaceOnUse">
<stop offset="0.0756841" stop-color="#B565D8"/>
<stop offset="0.945898" stop-color="#EE609C"/>
</linearGradient>
<linearGradient id="paint39_linear" x1="31.7821" y1="27.5556" x2="37.8527" y2="32.2344" gradientUnits="userSpaceOnUse">
<stop offset="0.0756841" stop-color="#B565D8"/>
<stop offset="0.945898" stop-color="#EE609C"/>
</linearGradient>
<linearGradient id="paint40_linear" x1="25.1704" y1="35.8596" x2="30.5307" y2="41.9619" gradientUnits="userSpaceOnUse">
<stop offset="0.0756841" stop-color="#B565D8"/>
<stop offset="0.945898" stop-color="#EE609C"/>
</linearGradient>
<linearGradient id="paint41_linear" x1="24.2852" y1="80.9385" x2="29.0029" y2="87.7356" gradientUnits="userSpaceOnUse">
<stop offset="0.0756841" stop-color="#B565D8"/>
<stop offset="0.945898" stop-color="#EE609C"/>
</linearGradient>
<linearGradient id="paint42_linear" x1="21.593" y1="73.5924" x2="26.3525" y2="80.3546" gradientUnits="userSpaceOnUse">
<stop offset="0.0756841" stop-color="#B565D8"/>
<stop offset="0.945898" stop-color="#EE609C"/>
</linearGradient>
<linearGradient id="paint43_linear" x1="19.8843" y1="65.6753" x2="24.6828" y2="72.3741" gradientUnits="userSpaceOnUse">
<stop offset="0.0756841" stop-color="#B565D8"/>
<stop offset="0.945898" stop-color="#EE609C"/>
</linearGradient>
<linearGradient id="paint44_linear" x1="19.3783" y1="57.0569" x2="24.2536" y2="63.6871" gradientUnits="userSpaceOnUse">
<stop offset="0.0756841" stop-color="#B565D8"/>
<stop offset="0.945898" stop-color="#EE609C"/>
</linearGradient>
<linearGradient id="paint45_linear" x1="20.5822" y1="47.4422" x2="25.5915" y2="53.9441" gradientUnits="userSpaceOnUse">
<stop offset="0.0756841" stop-color="#B565D8"/>
<stop offset="0.945898" stop-color="#EE609C"/>
</linearGradient>
<linearGradient id="paint46_linear" x1="22.8227" y1="77.3332" x2="27.5599" y2="84.1141" gradientUnits="userSpaceOnUse">
<stop offset="0.0756841" stop-color="#B565D8"/>
<stop offset="0.945898" stop-color="#EE609C"/>
</linearGradient>
<linearGradient id="paint47_linear" x1="20.6078" y1="69.7092" x2="25.3925" y2="76.4501" gradientUnits="userSpaceOnUse">
<stop offset="0.0756841" stop-color="#B565D8"/>
<stop offset="0.945898" stop-color="#EE609C"/>
</linearGradient>
<linearGradient id="paint48_linear" x1="19.4601" y1="61.4658" x2="24.2928" y2="68.1345" gradientUnits="userSpaceOnUse">
<stop offset="0.0756841" stop-color="#B565D8"/>
<stop offset="0.945898" stop-color="#EE609C"/>
</linearGradient>
<linearGradient id="paint49_linear" x1="19.7078" y1="52.4087" x2="24.6388" y2="58.987" gradientUnits="userSpaceOnUse">
<stop offset="0.0756841" stop-color="#B565D8"/>
<stop offset="0.945898" stop-color="#EE609C"/>
</linearGradient>
<linearGradient id="paint50_linear" x1="22.2115" y1="42.039" x2="27.3422" y2="48.4142" gradientUnits="userSpaceOnUse">
<stop offset="0.0756841" stop-color="#B565D8"/>
<stop offset="0.945898" stop-color="#EE609C"/>
</linearGradient>
<linearGradient id="paint51_linear" x1="46.9533" y1="112.315" x2="52.3244" y2="113.38" gradientUnits="userSpaceOnUse">
<stop offset="0.0756841" stop-color="#B565D8"/>
<stop offset="0.945898" stop-color="#EE609C"/>
</linearGradient>
<linearGradient id="paint52_linear" x1="40.4403" y1="107.192" x2="46.377" y2="109.264" gradientUnits="userSpaceOnUse">
<stop offset="0.0756841" stop-color="#B565D8"/>
<stop offset="0.945898" stop-color="#EE609C"/>
</linearGradient>
<linearGradient id="paint53_linear" x1="27.8654" y1="87.768" x2="32.5512" y2="94.5908" gradientUnits="userSpaceOnUse">
<stop offset="0.0756841" stop-color="#B565D8"/>
<stop offset="0.945898" stop-color="#EE609C"/>
</linearGradient>
<linearGradient id="paint54_linear" x1="43.602" y1="109.808" x2="49.3395" y2="111.446" gradientUnits="userSpaceOnUse">
<stop offset="0.0756841" stop-color="#B565D8"/>
<stop offset="0.945898" stop-color="#EE609C"/>
</linearGradient>
<linearGradient id="paint55_linear" x1="37.4635" y1="104.468" x2="43.508" y2="106.852" gradientUnits="userSpaceOnUse">
<stop offset="0.0756841" stop-color="#B565D8"/>
<stop offset="0.945898" stop-color="#EE609C"/>
</linearGradient>
<linearGradient id="paint56_linear" x1="29.9506" y1="91.0123" x2="34.6238" y2="97.8453" gradientUnits="userSpaceOnUse">
<stop offset="0.0756841" stop-color="#B565D8"/>
<stop offset="0.945898" stop-color="#EE609C"/>
</linearGradient>
<linearGradient id="paint57_linear" x1="25.9657" y1="84.4183" x2="30.6663" y2="91.2292" gradientUnits="userSpaceOnUse">
<stop offset="0.0756841" stop-color="#B565D8"/>
<stop offset="0.945898" stop-color="#EE609C"/>
</linearGradient>
<linearGradient id="paint58_linear" x1="54.2618" y1="116.975" x2="57.7829" y2="116.672" gradientUnits="userSpaceOnUse">
<stop offset="0.0756841" stop-color="#B565D8"/>
<stop offset="0.945898" stop-color="#EE609C"/>
</linearGradient>
<linearGradient id="paint59_linear" x1="58.2326" y1="119.119" x2="59.9062" y2="118.576" gradientUnits="userSpaceOnUse">
<stop offset="0.0756841" stop-color="#B565D8"/>
<stop offset="0.945898" stop-color="#EE609C"/>
</linearGradient>
<linearGradient id="paint60_linear" x1="50.505" y1="114.704" x2="55.2057" y2="115.077" gradientUnits="userSpaceOnUse">
<stop offset="0.0756841" stop-color="#B565D8"/>
<stop offset="0.945898" stop-color="#EE609C"/>
</linearGradient>
</defs>
</svg>
