<svg width="32" height="32" viewBox="0 0 32 32" fill="none" xmlns="http://www.w3.org/2000/svg">
<path d="M16.0001 2.66675C8.64008 2.66675 2.66675 8.64008 2.66675 16.0001C2.66675 23.3601 8.64008 29.3334 16.0001 29.3334C23.3601 29.3334 29.3334 23.3601 29.3334 16.0001C29.3334 8.64008 23.3601 2.66675 16.0001 2.66675ZM16.0001 6.66675C18.2134 6.66675 20.0001 8.45341 20.0001 10.6667C20.0001 12.8801 18.2134 14.6667 16.0001 14.6667C13.7867 14.6667 12.0001 12.8801 12.0001 10.6667C12.0001 8.45341 13.7867 6.66675 16.0001 6.66675ZM16.0001 25.6001C14.4159 25.6001 12.8563 25.2081 11.4605 24.4589C10.0646 23.7098 8.87578 22.6269 8.00008 21.3067C8.04008 18.6534 13.3334 17.2001 16.0001 17.2001C18.6534 17.2001 23.9601 18.6534 24.0001 21.3067C23.1244 22.6269 21.9356 23.7098 20.5397 24.4589C19.1438 25.2081 17.5843 25.6001 16.0001 25.6001Z" fill="white"/>
</svg>
