<svg width="43" height="43" viewBox="0 0 43 43" fill="none" xmlns="http://www.w3.org/2000/svg">
<circle cx="21.4523" cy="21.4523" r="21.4523" fill="white" fill-opacity="0.5"/>
<circle cx="21.4518" cy="21.454" r="18.5172" fill="#3561B5"/>
<path fill-rule="evenodd" clip-rule="evenodd" d="M16.685 17.6837C16.8524 17.4061 17.775 16.3982 18.4325 16.4287C18.6292 16.4455 18.803 16.5639 18.9443 16.7019H18.9449C19.2687 17.0192 20.1979 18.2167 20.25 18.4688C20.3788 19.0871 19.6415 19.4435 19.867 20.0667C20.4418 21.4734 21.4324 22.4638 22.8397 23.0381C23.4624 23.2641 23.8189 22.5274 24.4372 22.6556C24.6894 22.7083 25.8875 23.6369 26.2043 23.9612V23.9612C26.3417 24.1019 26.4613 24.2763 26.4776 24.473C26.502 25.1658 25.4316 26.1008 25.2229 26.2203C24.7307 26.573 24.0884 26.5664 23.3054 26.2024C21.1205 25.2934 17.6288 21.8678 16.7029 19.6005C16.3486 18.822 16.3247 18.1754 16.685 17.6837Z" stroke="white" stroke-width="1.5" stroke-linecap="round" stroke-linejoin="round"/>
<path d="M22.8091 16.5603C24.7677 16.7777 26.3141 18.3226 26.5342 20.2807" stroke="white" stroke-width="1.5" stroke-linecap="round" stroke-linejoin="round"/>
<path d="M22.8091 18.4348C23.7455 18.6173 24.4772 19.349 24.6597 20.2855" stroke="white" stroke-width="1.5" stroke-linecap="round" stroke-linejoin="round"/>
</svg>
