<svg width="26" height="26" viewBox="0 0 26 26" fill="none" xmlns="http://www.w3.org/2000/svg">
<path d="M13 0C20.179 0 26 5.82098 26 13C26 20.179 20.179 26 13 26C5.82098 26 0 20.179 0 13C0 5.82098 5.82098 0 13 0ZM8.51094 13.1886L15.6493 18.3538C15.8031 18.4641 16.0179 18.3538 16.0179 18.1652V16.8042C16.0179 16.5083 15.8757 16.2268 15.6348 16.0527L11.4156 13L15.6348 9.94732C15.8757 9.77321 16.0179 9.49464 16.0179 9.19576V7.83482C16.0179 7.6462 15.8031 7.53594 15.6493 7.6462L8.51094 12.8114C8.38326 12.9042 8.38326 13.0958 8.51094 13.1886Z" fill="#D5D5D5"/>
</svg>
