<svg width="80" height="80" viewBox="0 0 80 80" fill="none" xmlns="http://www.w3.org/2000/svg">
<circle cx="39.5477" cy="39.5477" r="39.5477" fill="#9F91F5" fill-opacity="0.38"/>
<circle cx="39.5467" cy="39.5509" r="34.1368" fill="url(#paint0_linear)"/>
<path d="M52.8844 33.575C52.1833 31.9017 51.1633 30.3807 49.8813 29.0969C48.6031 27.8109 47.0848 26.7884 45.4125 26.0875C43.6994 25.3661 41.8588 24.9962 40 25H39.9375C38.0469 25.0094 36.2188 25.3844 34.4969 26.1219C32.839 26.83 31.3349 27.8542 30.0688 29.1375C28.7992 30.4184 27.7909 31.9341 27.1 33.6C26.3829 35.3324 26.0195 37.1907 26.0313 39.0657C26.0407 41.2344 26.5594 43.3875 27.5282 45.3125V50.0625C27.5282 50.8563 28.1719 51.5 28.9625 51.5H33.7063C35.6403 52.4759 37.7744 52.9894 39.9407 53H40.0063C41.875 53 43.6844 52.6375 45.3907 51.9282C47.0544 51.2357 48.5671 50.2251 49.8438 48.9532C51.1313 47.675 52.1438 46.1813 52.8532 44.5157C53.5875 42.7907 53.9625 40.9563 53.9719 39.0625C53.9782 37.1594 53.6094 35.3125 52.8844 33.575ZM33.7625 40.5C32.9375 40.5 32.2657 39.8282 32.2657 39C32.2657 38.1719 32.9375 37.5 33.7625 37.5C34.5875 37.5 35.2594 38.1719 35.2594 39C35.2594 39.8282 34.5907 40.5 33.7625 40.5ZM40 40.5C39.175 40.5 38.5032 39.8282 38.5032 39C38.5032 38.1719 39.175 37.5 40 37.5C40.825 37.5 41.4969 38.1719 41.4969 39C41.4969 39.8282 40.825 40.5 40 40.5ZM46.2375 40.5C45.4125 40.5 44.7407 39.8282 44.7407 39C44.7407 38.1719 45.4125 37.5 46.2375 37.5C47.0625 37.5 47.7344 38.1719 47.7344 39C47.7344 39.8282 47.0625 40.5 46.2375 40.5Z" fill="white"/>
<defs>
<linearGradient id="paint0_linear" x1="7.48931" y1="-8.24072" x2="81.252" y2="-4.52486" gradientUnits="userSpaceOnUse">
<stop offset="0.0756841" stop-color="#B565D8"/>
<stop offset="0.945898" stop-color="#EE609C"/>
</linearGradient>
</defs>
</svg>
