<svg width="28" height="27" viewBox="0 0 28 27" fill="none" xmlns="http://www.w3.org/2000/svg">
<path d="M14 0C6.75195 0 0.875 5.87695 0.875 13.125C0.875 20.373 6.75195 26.25 14 26.25C21.248 26.25 27.125 20.373 27.125 13.125C27.125 5.87695 21.248 0 14 0ZM18.5322 13.3154L11.3252 18.5303C11.1699 18.6416 10.9531 18.5303 10.9531 18.3398V16.9658C10.9531 16.667 11.0967 16.3828 11.3398 16.207L15.5996 13.125L11.3398 10.043C11.0967 9.86719 10.9531 9.58594 10.9531 9.28418V7.91016C10.9531 7.71973 11.1699 7.6084 11.3252 7.71973L18.5322 12.9346C18.6611 13.0283 18.6611 13.2217 18.5322 13.3154Z" fill="#D5D5D5"/>
</svg>
