<svg width="64" height="64" viewBox="0 0 64 64" fill="none" xmlns="http://www.w3.org/2000/svg">
<path d="M22 60.3V46.5L11.7 54.1C14.6 56.8 18.1 58.9 22 60.3" fill="#2A5F9E"/>
<path d="M42 60.2999C45.9 58.8999 49.4 56.7999 52.3 54.0999L42 46.3999V60.2999Z" fill="#2A5F9E"/>
<path d="M3.69995 42C3.99995 43 4.39995 43.9 4.89995 44.9L8.79995 42H3.69995Z" fill="#2A5F9E"/>
<path d="M55.2 42L59.0999 44.9C59.4999 44 59.8999 43 60.2999 42H55.2Z" fill="#2A5F9E"/>
<path d="M23.5001 38H2.6001C2.9001 39.4 3.3001 40.7 3.7001 42H8.8001L4.9001 44.9C5.7001 46.6 6.6001 48.1 7.7001 49.6L18.0001 42H22.0001V44L10.3001 52.6L11.7001 54L22.0001 46.5V60.3C23.3001 60.8 24.6001 61.1 26.0001 61.4V38H23.5001Z" fill="white"/>
<path d="M61.4 38H38V61.4C39.4 61.1 40.7 60.7 42 60.3V46.5L52.3 54C53.7 52.7 54.9 51.3 56.1 49.8L45.4 42H52.2L58.3 46.5C58.6 46 58.9 45.4 59.1 44.9L55.2 42H60.3C60.7 40.7 61.1 39.4 61.4 38" fill="white"/>
<path d="M7.69995 49.6001C8.49995 50.7001 9.29995 51.7001 10.2 52.7001L22 44.1001V42.1001H18L7.69995 49.6001Z" fill="#ED4C5C"/>
<path d="M45.5 42L56.2 49.8C56.6 49.3 56.9 48.8 57.3 48.3C57.4 48.2 57.4 48.1 57.5 48.1C57.8 47.6 58.2 47 58.5 46.5L52.2 42H45.5Z" fill="#ED4C5C"/>
<path d="M42 3.69995V17.5L52.3 9.89995C49.4 7.19995 45.9 5.09995 42 3.69995Z" fill="#2A5F9E"/>
<path d="M22 3.69995C18.1 5.09995 14.6 7.19995 11.7 9.89995L22 17.6V3.69995Z" fill="#2A5F9E"/>
<path d="M60.2999 21.9999C59.9999 20.9999 59.5999 20.0999 59.0999 19.0999L55.2 21.9999H60.2999" fill="#2A5F9E"/>
<path d="M8.79995 21.9999L4.89995 19.0999C4.49995 20.0999 4.09995 20.9999 3.69995 21.9999H8.79995Z" fill="#2A5F9E"/>
<path d="M40.5 26.0001H61.3C61 24.6001 60.6 23.3001 60.2 22.0001H55.1L59 19.1001C58.2 17.4001 57.3 15.9001 56.2 14.4001L46 22.0001H42V20.0001L53.7 11.4001L52.3 10.0001L42 17.5001V3.7001C40.7 3.2001 39.4 2.9001 38 2.6001V26.0001H40.5Z" fill="white"/>
<path d="M2.6001 26.0001H26.0001V2.6001C24.6001 2.9001 23.3001 3.3001 22.0001 3.7001V17.5001L11.7001 10.0001C10.3001 11.3001 9.1001 12.7001 7.9001 14.2001L18.6001 22.0001H11.8001L5.7001 17.5001C5.4001 18.0001 5.1001 18.6001 4.9001 19.1001L8.8001 22.0001H3.7001C3.3001 23.3001 2.9001 24.6001 2.6001 26.0001Z" fill="white"/>
<path d="M56.3 14.4C55.5 13.3 54.7 12.3 53.8 11.3L42 19.9V21.9H46L56.3 14.4" fill="#ED4C5C"/>
<path d="M18.5001 22L7.9001 14.2C7.5001 14.7 7.2001 15.2 6.8001 15.7C6.7001 15.8 6.7001 15.9 6.6001 15.9C6.3001 16.4 5.9001 17 5.6001 17.5L11.7001 22H18.5001Z" fill="#ED4C5C"/>
<path d="M61.4 26H38V2.6C36.1 2.2 34.1 2 32 2C29.9 2 27.9 2.2 26 2.6V26H2.6C2.2 27.9 2 29.9 2 32C2 34.1 2.2 36.1 2.6 38H26V61.4C27.9 61.8 29.9 62 32 62C34.1 62 36.1 61.8 38 61.4V38H61.4C61.8 36.1 62 34.1 62 32C62 29.9 61.8 27.9 61.4 26Z" fill="#ED4C5C"/>
</svg>
