<svg width="24" height="24" viewBox="0 0 24 24" fill="none" xmlns="http://www.w3.org/2000/svg">
<g opacity="0.5" clip-path="url(#clip0)">
<path opacity="0.5" d="M12.052 6.7741e-06C5.394 -0.00699323 -0.00299875 5.41201 1.25009e-06 11.976C0.00300125 18.654 5.475 23.981 11.978 24C18.513 24.02 24.035 18.694 24 12.002C23.991 10.337 23.47 6.63101 22.16 6.72601C20.18 6.87101 20.001 10.846 19.783 12.133C19.366 14.593 18.437 17.213 16.83 19.123C14.95 21.482 12.133 22.757 9.168 22.281C5.618 21.717 3.275 19.003 2.488 17.08C1.735 15.357 1.453 12.918 2.418 10.756C3.578 7.99001 6.152 6.12401 8.698 5.17201C10.704 4.34501 12.801 4.02101 14.055 3.79701C16.571 3.29701 16.91 2.33401 16.869 1.64801C16.854 1.39601 16.613 0.924007 16.084 0.705007C15.03 0.269007 13.268 0.00100677 12.052 6.7741e-06ZM17.15 1.34201C17.289 1.74001 17.238 2.19201 17.002 2.59801C16.677 3.15801 16.03 3.64801 15.105 3.88801C13.469 4.31601 12.129 4.44201 10.765 4.84801C9.453 5.23801 7.368 5.86601 5.449 7.40001C5.181 8.24201 5.108 9.29201 5.08 10.062C5.23 15.076 9.637 18.946 14.25 18.744C15.103 18.707 16.171 18.483 17.162 18.064C17.7228 17.2241 18.188 16.3242 18.549 15.381L18.551 15.379V15.377C18.975 14.347 19.157 13.541 19.351 12.584C19.671 11.019 19.553 9.70401 20.363 7.82601C20.614 7.24401 21.073 6.71301 21.621 6.48001C21.871 6.37501 22.143 6.34701 22.411 6.40801C21.521 3.93701 19.296 2.08201 17.151 1.34201H17.15Z" fill="white"/>
</g>
<defs>
<clipPath id="clip0">
<rect width="24" height="24" fill="white"/>
</clipPath>
</defs>
</svg>
