<svg width="24" height="24" viewBox="0 0 24 24" fill="none" xmlns="http://www.w3.org/2000/svg">
<g opacity="0.5">
<path opacity="0.5" d="M10.53 10.73C10.43 10.42 10.34 10.12 10.24 9.81005C10.14 9.50005 10.05 9.21005 9.97 8.92005C9.89 8.64005 9.82 8.38005 9.75 8.14005H9.73C9.64 8.57005 9.53 9.00005 9.39 9.43005C9.24 9.91005 9.09 10.41 8.93 10.91C8.79 11.42 8.64 11.89 8.49 12.31H11.03C10.97 12.099 10.89 11.85 10.8 11.589C10.71 11.32 10.62 11.03 10.53 10.73ZM19.75 0.300049H4.25C1.9 0.300049 0 2.20005 0 4.55005V19.4501C0 21.8001 1.9 23.7001 4.25 23.7001H19.75C22.1 23.7001 24 21.8001 24 19.4501V4.55005C24 2.20005 22.1 0.300049 19.75 0.300049ZM14.7 16.83H12.609C12.54 16.84 12.47 16.79 12.45 16.72L11.63 14.34H7.91L7.15 16.6901C7.13 16.7801 7.05 16.84 6.96 16.831H5.08C4.97 16.831 4.94 16.77 4.97 16.651L8.19 7.38005C8.22 7.28005 8.25 7.17005 8.29 7.05005C8.33 6.84005 8.35 6.62005 8.35 6.40005C8.34 6.35005 8.38 6.30005 8.43 6.29005H11.02C11.1 6.29005 11.14 6.32005 11.15 6.37005L14.8 16.67C14.83 16.779 14.8 16.83 14.7 16.83ZM18.1 16.68C18.1 16.7901 18.061 16.84 17.971 16.84H16.01C15.91 16.84 15.86 16.7791 15.86 16.68V8.98005C15.86 8.88005 15.901 8.84005 15.991 8.84005H17.971C18.061 8.84005 18.1 8.89005 18.1 8.98005V16.68ZM17.891 7.65005C17.7729 7.76999 17.6305 7.86327 17.4734 7.92364C17.3163 7.98401 17.148 8.01006 16.98 8.00005C16.65 8.01005 16.33 7.88005 16.089 7.65005C15.8599 7.39954 15.7379 7.06935 15.749 6.73005C15.739 6.39005 15.869 6.07005 16.108 5.84005C16.35 5.61005 16.67 5.49005 17 5.49005C17.391 5.49005 17.689 5.61005 17.91 5.84005C18.13 6.08005 18.25 6.40005 18.24 6.73005C18.25 7.07005 18.13 7.40005 17.891 7.65005Z" fill="white"/>
</g>
</svg>
