<svg width="107" height="305" viewBox="0 0 107 305" fill="none" xmlns="http://www.w3.org/2000/svg">
<path d="M93.0943 57.0126L101.632 52.9967C102.21 52.7244 102.188 51.7544 101.582 50.829L69.8355 2.19917C69.2324 1.27371 68.2736 0.74289 67.6955 1.01525L59.1579 5.03114C58.5799 5.3035 58.6021 6.27342 59.208 7.19889L90.9544 55.8287C91.5602 56.7541 92.5162 57.285 93.0943 57.0126Z" fill="url(#paint0_linear)"/>
<path d="M60.0027 6.89875L69.0072 2.66052L76.1497 13.5993L67.1424 17.8375L60.0027 6.89875Z" fill="url(#paint1_linear)"/>
<path d="M68.1931 19.4439L77.1976 15.2057L84.3401 26.1445L75.3328 30.3799L68.1931 19.4439Z" fill="url(#paint2_linear)"/>
<path d="M76.3526 31.9419L85.3571 27.7064L92.4995 38.6424L83.4922 42.8807L76.3526 31.9419Z" fill="url(#paint3_linear)"/>
<path d="M84.5401 44.487L93.5473 40.2488L100.687 51.1876L91.6825 55.423L84.5401 44.487Z" fill="url(#paint4_linear)"/>
<path d="M92.594 57.0515L103.936 58.669C104.703 58.7774 105.053 58.0909 104.72 57.1321L87.2191 6.78202C86.8856 5.82321 85.9935 4.95889 85.2292 4.84772L73.8875 3.23025C73.1204 3.12186 72.7702 3.80832 73.1037 4.76713L90.6041 55.1172C90.9376 56.076 91.8298 56.9404 92.594 57.0515Z" fill="url(#paint5_linear)"/>
<path d="M74.1319 4.97009L86.0934 6.67372L90.0315 17.9988L78.0672 16.2952L74.1319 4.97009Z" fill="url(#paint6_linear)"/>
<path d="M78.6453 17.957L90.6096 19.6607L94.5449 30.9857L82.5834 29.2821L78.6453 17.957Z" fill="url(#paint7_linear)"/>
<path d="M83.1449 30.8969L95.1065 32.6033L99.0417 43.9283L87.0802 42.2247L83.1449 30.8969Z" fill="url(#paint8_linear)"/>
<path d="M87.6583 43.8866L99.6198 45.5902L103.558 56.9153L91.5936 55.2117L87.6583 43.8866Z" fill="url(#paint9_linear)"/>
<path d="M92.0715 56.9043L104.439 64.0467C105.275 64.5303 105.951 64.244 105.951 63.4075V19.5217C105.951 18.6852 105.273 17.618 104.439 17.1344L92.0715 9.99477C91.235 9.5112 90.5597 9.79745 90.5597 10.634V54.5197C90.5569 55.3535 91.235 56.4235 92.0715 56.9043Z" fill="url(#paint10_linear)"/>
<path d="M91.6573 11.3176L104.7 18.8492V28.7208L91.6573 21.1892V11.3176Z" fill="url(#paint11_linear)"/>
<path d="M91.6573 22.64L104.7 30.1688V40.0404L91.6573 32.5088V22.64Z" fill="url(#paint12_linear)"/>
<path d="M91.6573 33.9178L104.7 41.4494V51.321L91.6573 43.7894V33.9178Z" fill="url(#paint13_linear)"/>
<path d="M91.6573 45.2401L104.7 52.7716V62.6405L91.6573 55.1117V45.2401Z" fill="url(#paint14_linear)"/>
<path d="M92.6942 57.2433L101.232 53.2274C101.81 52.9551 101.788 51.9851 101.182 51.0597L69.4353 2.42988C68.8323 1.50442 67.8735 0.973602 67.2954 1.24596L58.7578 5.26185C58.1797 5.53421 58.202 6.50414 58.8078 7.4296L90.5542 56.0594C91.1601 56.9849 92.1161 57.5157 92.6942 57.2433Z" fill="url(#paint15_linear)"/>
<path d="M59.6028 7.12946L68.6101 2.89124L75.7498 13.83L66.7453 18.0682L59.6028 7.12946Z" fill="#F518A5"/>
<path d="M67.7928 19.6746L76.7972 15.4364L83.9397 26.3752L74.9324 30.6106L67.7928 19.6746Z" fill="#D8089D"/>
<path d="M75.9524 32.1725L84.9597 27.937L92.0994 38.873L83.0921 43.1112L75.9524 32.1725Z" fill="#E02DD2"/>
<path d="M84.1426 44.7177L93.1471 40.4795L100.29 51.4183L91.2823 55.6537L84.1426 44.7177Z" fill="#B514BE"/>
<path d="M92.1966 57.2795L103.538 58.8969C104.305 59.0053 104.656 58.3189 104.322 57.3601L86.8217 7.00995C86.4882 6.05114 85.596 5.18682 84.8318 5.07566L73.49 3.46096C72.723 3.35258 72.3728 4.03903 72.7063 4.99784L90.2039 55.3479C90.5374 56.3068 91.4295 57.1711 92.1966 57.2795Z" fill="url(#paint16_linear)"/>
<path d="M73.7318 5.20068L85.6961 6.90431L89.6313 18.2294L77.6698 16.5258L73.7318 5.20068Z" fill="#48CAFF"/>
<path d="M78.248 18.1877L90.2095 19.8914L94.1448 31.2165L82.1833 29.5128L78.248 18.1877Z" fill="#3A80F8"/>
<path d="M82.7447 31.1276L94.7062 32.834L98.6443 44.1591L86.68 42.4527L82.7447 31.1276Z" fill="#2E54FF"/>
<path d="M87.2581 44.1173L99.2224 45.8209L103.158 57.146L91.1962 55.4424L87.2581 44.1173Z" fill="#093CAF"/>
<path d="M91.6714 57.135L104.039 64.2746C104.875 64.7582 105.551 64.4719 105.551 63.6354V19.7496C105.551 18.9131 104.872 17.8459 104.039 17.3623L91.6714 10.2227C90.8349 9.7391 90.1595 10.0254 90.1595 10.8619V54.7477C90.1595 55.5842 90.8349 56.6542 91.6714 57.135Z" fill="url(#paint17_linear)"/>
<path d="M91.2573 11.5483L104.303 19.0799V28.9515L91.2573 21.4199V11.5483Z" fill="#4F7FFE"/>
<path d="M91.2573 22.8678L104.303 30.3993V40.2709L91.2573 32.7394V22.8678Z" fill="#4A48F0"/>
<path d="M91.2573 34.1484L104.303 41.68V51.5516L91.2573 44.02V34.1484Z" fill="#422FC3"/>
<path d="M91.2573 45.4708L104.303 52.9996V62.8712L91.2573 55.3424V45.4708Z" fill="#281E76"/>
<path d="M90.6819 53.447H93.3555V56.9738H90.6819V53.447Z" fill="#3CA3BA"/>
<path d="M90.5485 53.9362C90.0927 54.3947 90.3317 55.373 91.0821 56.1178C91.8325 56.8626 92.8107 57.0961 93.2693 56.6347C93.7251 56.1762 93.4861 55.1979 92.7357 54.4531C91.9826 53.7083 91.0043 53.4748 90.5485 53.9362Z" fill="#3CA3BA"/>
<path d="M90.5568 53.9444C90.1038 54.4002 90.34 55.3729 91.0876 56.115C91.8352 56.857 92.8079 57.0877 93.2609 56.6291C93.7139 56.1733 93.4777 55.2006 92.7301 54.4586C91.9825 53.7166 91.0098 53.4859 90.5568 53.9444Z" fill="#3DA4BA"/>
<path d="M90.5652 53.9528C90.115 54.4058 90.3512 55.373 91.0905 56.1094C91.8325 56.8459 92.7996 57.0766 93.2499 56.6208C93.7001 56.1678 93.4639 55.2007 92.7246 54.4642C91.9826 53.7277 91.0154 53.497 90.5652 53.9528Z" fill="#3EA4BB"/>
<path d="M90.5735 53.9583C90.126 54.4086 90.3595 55.3702 91.096 56.1011C91.8324 56.832 92.794 57.0599 93.2415 56.6097C93.6889 56.1594 93.4555 55.1978 92.719 54.4669C91.9825 53.736 91.0209 53.5081 90.5735 53.9583Z" fill="#3FA5BB"/>
<path d="M90.5818 53.9666C90.1371 54.4141 90.3706 55.3673 91.1015 56.0955C91.8352 56.8236 92.7885 57.0487 93.2359 56.6013C93.6806 56.1538 93.4471 55.2006 92.7162 54.4724C91.9825 53.7443 91.0265 53.5192 90.5818 53.9666Z" fill="#40A5BC"/>
<path d="M90.5903 53.975C90.1484 54.4196 90.3791 55.3673 91.1073 56.0927C91.8354 56.8153 92.7859 57.0404 93.2278 56.5957C93.6696 56.1511 93.439 55.2034 92.7108 54.478C91.9799 53.7554 91.0322 53.5303 90.5903 53.975Z" fill="#41A6BC"/>
<path d="M90.5986 53.9834C90.1595 54.4253 90.3874 55.3674 91.1128 56.0872C91.8353 56.807 92.7802 57.0294 93.2194 56.5875C93.6585 56.1456 93.4306 55.2034 92.7052 54.4836C91.9798 53.7638 91.0377 53.5415 90.5986 53.9834Z" fill="#42A6BD"/>
<path d="M90.6068 53.9917C90.1705 54.4308 90.3984 55.3674 91.1182 56.0817C91.838 56.7959 92.7745 57.0182 93.2109 56.5764C93.6472 56.1372 93.4193 55.2007 92.6995 54.4864C91.9797 53.775 91.0431 53.5526 90.6068 53.9917Z" fill="#43A7BD"/>
<path d="M91.1197 56.0766C90.4053 55.367 90.1786 54.4369 90.6135 53.9992C91.0483 53.5614 91.9799 53.7817 92.6943 54.4912C93.4087 55.2008 93.6353 56.1309 93.2005 56.5687C92.7657 57.0065 91.8341 56.7861 91.1197 56.0766Z" fill="#44A7BD"/>
<path d="M90.6207 54.0084C90.1899 54.4419 90.415 55.3674 91.1237 56.0705C91.8324 56.7764 92.7579 56.996 93.1914 56.5596C93.6222 56.1261 93.3971 55.2006 92.6884 54.4975C91.9797 53.7944 91.0543 53.5748 90.6207 54.0084Z" fill="#45A8BE"/>
<path d="M90.6292 54.0167C90.2012 54.4474 90.4236 55.3673 91.1295 56.0677C91.8354 56.768 92.7553 56.9848 93.1833 56.554C93.6113 56.1233 93.3889 55.2034 92.683 54.503C91.9771 53.8027 91.06 53.5859 90.6292 54.0167Z" fill="#46A9BE"/>
<path d="M90.6374 54.025C90.2122 54.453 90.4345 55.3646 91.1349 56.0621C91.8352 56.7569 92.7496 56.9737 93.1748 56.5457C93.6 56.1177 93.3777 55.2062 92.6773 54.5086C91.977 53.8138 91.0654 53.597 90.6374 54.025Z" fill="#47A9BF"/>
<path d="M90.6457 54.0333C90.2233 54.4585 90.4428 55.3645 91.1404 56.0565C91.8352 56.7485 92.744 56.9625 93.1664 56.5373C93.5888 56.1121 93.3693 55.2061 92.6717 54.5141C91.9769 53.8221 91.0709 53.6081 90.6457 54.0333Z" fill="#48AABF"/>
<path d="M90.6541 54.0417C90.2345 54.4641 90.454 55.3645 91.146 56.051C91.838 56.7375 92.7385 56.9514 93.1581 56.529C93.5778 56.1066 93.3582 55.2061 92.6662 54.5197C91.977 53.8332 91.0766 53.6192 90.6541 54.0417Z" fill="#49AABF"/>
<path d="M90.6625 54.0501C90.2457 54.4697 90.4624 55.3646 91.1489 56.0455C91.8353 56.7264 92.7302 56.9404 93.1499 56.5207C93.5668 56.1011 93.35 55.2062 92.6635 54.5253C91.9771 53.8416 91.0822 53.6304 90.6625 54.0501Z" fill="#4AABC0"/>
<path d="M90.6707 54.0584C90.2566 54.4753 90.4734 55.3646 91.1543 56.0427C91.838 56.7209 92.7273 56.9321 93.1414 56.5124C93.5555 56.0955 93.3387 55.2062 92.6578 54.5281C91.9769 53.8528 91.0876 53.6415 90.6707 54.0584Z" fill="#4BABC0"/>
<path d="M90.6792 54.0667C90.2679 54.4808 90.4819 55.3646 91.16 56.0371C91.8381 56.7097 92.7219 56.9209 93.1332 56.504C93.5446 56.0899 93.3306 55.2062 92.6524 54.5336C91.9771 53.861 91.0933 53.6526 90.6792 54.0667Z" fill="#4CACC1"/>
<path d="M90.6874 54.0751C90.2789 54.4864 90.4929 55.3618 91.1654 56.0316C91.838 56.7014 92.7162 56.907 93.1248 56.4957C93.5333 56.0844 93.3193 55.209 92.6467 54.5392C91.9742 53.8722 91.0987 53.6637 90.6874 54.0751Z" fill="#4DACC1"/>
<path d="M90.6957 54.0835C90.2899 54.492 90.5012 55.3619 91.1709 56.0261C91.8407 56.6903 92.7106 56.896 93.1163 56.4874C93.5221 56.0789 93.3109 55.209 92.6411 54.5448C91.9741 53.8806 91.1042 53.6749 90.6957 54.0835Z" fill="#4EADC2"/>
<path d="M90.7043 54.0917C90.3013 54.4975 90.5125 55.3618 91.1767 56.0205C91.841 56.6791 92.7053 56.8848 93.111 56.479C93.514 56.0733 93.3028 55.209 92.6386 54.5503C91.9744 53.8889 91.11 53.686 90.7043 54.0917Z" fill="#4FAEC2"/>
<path d="M90.7125 54.1001C90.3123 54.5031 90.5208 55.3618 91.1794 56.0177C91.8381 56.6736 92.6996 56.8765 93.0998 56.4735C93.5 56.0705 93.2916 55.2118 92.6329 54.5559C91.9743 53.9 91.1155 53.6971 90.7125 54.1001Z" fill="#50AEC2"/>
<path d="M90.7207 54.1084C90.3233 54.5086 90.5317 55.3618 91.1848 56.0121C91.8407 56.6624 92.6939 56.8653 93.0914 56.4651C93.4888 56.0649 93.2803 55.2117 92.6272 54.5614C91.9741 53.9083 91.1209 53.7082 90.7207 54.1084Z" fill="#51AFC3"/>
<path d="M90.7292 54.1167C90.3346 54.5142 90.5403 55.3618 91.1906 56.0066C91.8409 56.6513 92.6886 56.8542 93.0832 56.454C93.4778 56.0566 93.2722 55.2089 92.6219 54.5642C91.9743 53.9194 91.1267 53.7193 90.7292 54.1167Z" fill="#52AFC3"/>
<path d="M90.7374 54.125C90.3456 54.5197 90.5512 55.3617 91.196 56.001C91.8408 56.6429 92.6828 56.843 93.0747 56.4456C93.4666 56.051 93.2609 55.2089 92.6162 54.5697C91.9714 53.9277 91.1321 53.7304 90.7374 54.125Z" fill="#53B0C4"/>
<path d="M90.7459 54.1334C90.3568 54.5253 90.5597 55.3591 91.2016 55.9983C91.8436 56.6347 92.6774 56.832 93.0692 56.4401C93.4583 56.0483 93.2554 55.2145 92.6135 54.5753C91.9715 53.9361 91.1349 53.7388 90.7459 54.1334Z" fill="#54B0C4"/>
<path d="M91.2059 55.989C90.5689 55.3563 90.3663 54.5273 90.7536 54.1374C91.1408 53.7475 91.9711 53.9444 92.6082 54.5772C93.2453 55.2099 93.4478 56.039 93.0606 56.4288C92.6734 56.8187 91.843 56.6218 91.2059 55.989Z" fill="#55B1C4"/>
<path d="M90.7625 54.1502C90.379 54.5365 90.5791 55.3591 91.21 55.9872C91.8409 56.6153 92.6663 56.8098 93.0498 56.4235C93.4333 56.0372 93.2332 55.2146 92.6024 54.5865C91.9715 53.9584 91.1461 53.7611 90.7625 54.1502Z" fill="#56B2C5"/>
<path d="M90.771 54.1584C90.3902 54.542 90.5903 55.359 91.2156 55.9816C91.8437 56.6041 92.6608 56.7986 93.0416 56.4151C93.4223 56.0316 93.2222 55.2145 92.5969 54.592C91.9716 53.9667 91.1517 53.7721 90.771 54.1584Z" fill="#57B2C5"/>
<path d="M90.7793 54.1668C90.4013 54.5475 90.5986 55.3591 91.2211 55.976C91.8437 56.5958 92.6552 56.7875 93.0332 56.4068C93.4111 56.0261 93.2138 55.2145 92.5913 54.5976C91.9715 53.9778 91.1572 53.7833 90.7793 54.1668Z" fill="#58B3C6"/>
<path d="M91.2274 55.9686C90.6088 55.3542 90.4116 54.5498 90.787 54.1719C91.1623 53.794 91.968 53.9857 92.5866 54.6001C93.2051 55.2145 93.4023 56.0189 93.0269 56.3967C92.6516 56.7746 91.8459 56.5829 91.2274 55.9686Z" fill="#59B3C6"/>
<path d="M90.7959 54.1807C90.4235 54.5559 90.618 55.3535 91.2322 55.9649C91.8464 56.5735 92.6468 56.7653 93.0192 56.3873C93.3916 56.0122 93.1971 55.2145 92.5829 54.6031C91.9687 53.9973 91.1683 53.8055 90.7959 54.1807Z" fill="#5AB4C7"/>
<path d="M90.8041 54.189C90.4345 54.5614 90.6263 55.3534 91.2377 55.9593C91.8463 56.5651 92.6412 56.7514 93.0108 56.3789C93.3804 56.0065 93.1887 55.2145 92.5773 54.6086C91.9686 54.0055 91.1738 53.8166 90.8041 54.189Z" fill="#5BB4C7"/>
<path d="M90.8126 54.1974C90.4457 54.567 90.6375 55.3535 91.2406 55.9538C91.8464 56.5541 92.6329 56.7403 92.9998 56.3707C93.3666 56.0011 93.1749 55.2145 92.5718 54.6142C91.9687 54.0139 91.1794 53.8277 90.8126 54.1974Z" fill="#5CB5C7"/>
<path d="M90.8208 54.2057C90.4568 54.5726 90.6457 55.3535 91.246 55.9483C91.8463 56.543 92.6273 56.7292 92.9914 56.3624C93.3554 55.9955 93.1664 55.2146 92.5661 54.6198C91.9686 54.0251 91.1849 53.8389 90.8208 54.2057Z" fill="#5DB5C8"/>
<path d="M90.8292 54.214C90.4679 54.5781 90.6569 55.3535 91.2516 55.9454C91.8464 56.5374 92.6217 56.7208 92.9858 56.3567C93.3471 55.9927 93.1581 55.2173 92.5634 54.6253C91.9686 54.0334 91.1905 53.8499 90.8292 54.214Z" fill="#5EB6C8"/>
<path d="M91.2568 55.9377C90.6666 55.3515 90.4792 54.5831 90.8383 54.2216C91.1974 53.86 91.967 54.0422 92.5572 54.6284C93.1475 55.2147 93.3349 55.983 92.9758 56.3446C92.6167 56.7061 91.8471 56.524 91.2568 55.9377Z" fill="#5FB7C9"/>
<path d="M90.8459 54.2307C90.4901 54.5892 90.6763 55.3534 91.2628 55.9343C91.8492 56.5151 92.6134 56.6985 92.9692 56.34C93.3249 55.9815 93.1387 55.2173 92.5523 54.6364C91.9659 54.0528 91.2016 53.8721 90.8459 54.2307Z" fill="#60B7C9"/>
<path d="M90.8542 54.239C90.5012 54.5947 90.6846 55.3507 91.2683 55.9287C91.8491 56.5068 92.6078 56.6847 92.9608 56.3289C93.3137 55.9732 93.1303 55.2173 92.5467 54.6392C91.9658 54.0639 91.2071 53.8833 90.8542 54.239Z" fill="#61B8C9"/>
<path d="M90.8626 54.2474C90.5124 54.6004 90.6958 55.3507 91.2711 55.9232C91.8492 56.4957 92.5995 56.6736 92.9497 56.3207C93.2999 55.9677 93.1165 55.2173 92.5412 54.6448C91.9659 54.0723 91.2128 53.8945 90.8626 54.2474Z" fill="#62B8CA"/>
<path d="M90.871 54.2556C90.5236 54.6058 90.7042 55.3506 91.2767 55.9204C91.8492 56.4901 92.5941 56.6652 92.9442 56.315C93.2944 55.9648 93.111 55.22 92.5385 54.6503C91.966 54.0833 91.2184 53.9055 90.871 54.2556Z" fill="#63B9CA"/>
<path d="M90.8792 54.2641C90.5346 54.6114 90.7152 55.3507 91.2822 55.9149C91.8491 56.479 92.5912 56.6541 92.9358 56.3067C93.2804 55.9593 93.0997 55.2201 92.5328 54.6559C91.9658 54.0917 91.2238 53.9167 90.8792 54.2641Z" fill="#64B9CB"/>
<path d="M90.8875 54.2724C90.5456 54.617 90.7235 55.3507 91.2877 55.9093C91.8518 56.4679 92.5855 56.643 92.9274 56.2984C93.2692 55.9538 93.0913 55.2201 92.5272 54.6615C91.963 54.1029 91.2293 53.9278 90.8875 54.2724Z" fill="#65BACB"/>
<path d="M90.8959 54.2807C90.5568 54.6225 90.7347 55.3507 91.2933 55.9037C91.8519 56.4596 92.5801 56.6319 92.9191 56.29C93.2582 55.9482 93.0803 55.22 92.5217 54.667C91.9631 54.1112 91.235 53.9389 90.8959 54.2807Z" fill="#66BACC"/>
<path d="M90.9042 54.289C90.5679 54.6281 90.743 55.3507 91.2988 55.901C91.8546 56.4512 92.5744 56.6235 92.9107 56.2845C93.247 55.9454 93.0719 55.2228 92.5161 54.6726C91.963 54.1223 91.2404 53.95 90.9042 54.289Z" fill="#67BBCC"/>
<path d="M90.9125 54.2974C90.579 54.6337 90.7541 55.348 91.3016 55.8955C91.8518 56.4402 92.5661 56.6097 92.9024 56.2734C93.2359 55.9372 93.0608 55.2229 92.5133 54.6754C91.963 54.1307 91.246 53.9612 90.9125 54.2974Z" fill="#68BCCC"/>
<path d="M90.9208 54.3057C90.59 54.6392 90.7623 55.3479 91.3071 55.8899C91.8518 56.4318 92.5633 56.5985 92.894 56.265C93.2247 55.9315 93.0524 55.2229 92.5077 54.6809C91.9629 54.139 91.2515 53.9722 90.9208 54.3057Z" fill="#69BCCD"/>
<path d="M90.9292 54.3141C90.6013 54.6448 90.7736 55.3479 91.3127 55.8843C91.8519 56.4207 92.5578 56.5874 92.8857 56.2567C93.2137 55.926 93.0414 55.2229 92.5022 54.6865C91.963 54.1501 91.2571 53.9834 90.9292 54.3141Z" fill="#6ABDCD"/>
<path d="M90.9377 54.3224C90.6126 54.6503 90.7821 55.3479 91.3185 55.8787C91.8548 56.4095 92.5524 56.5763 92.8776 56.2483C93.2027 55.9204 93.0332 55.2228 92.4968 54.692C91.9604 54.1584 91.2629 53.9944 90.9377 54.3224Z" fill="#6BBDCE"/>
<path d="M90.9458 54.3307C90.6234 54.6559 90.793 55.3479 91.3238 55.8759C91.8546 56.404 92.5466 56.568 92.8718 56.2428C93.1942 55.9176 93.0246 55.2256 92.4938 54.6976C91.9602 54.1695 91.2682 54.0056 90.9458 54.3307Z" fill="#6CBECE"/>
<path d="M90.9543 54.3391C90.6347 54.6615 90.8015 55.348 91.3295 55.8704C91.8548 56.3929 92.544 56.5569 92.8636 56.2345C93.1832 55.9121 93.0165 55.2257 92.4884 54.7032C91.9604 54.1779 91.2739 54.0168 90.9543 54.3391Z" fill="#6DBECE"/>
<path d="M90.9625 54.3474C90.6457 54.667 90.8124 55.3451 91.3321 55.8648C91.8546 56.3845 92.5355 56.5457 92.8523 56.2261C93.1692 55.9065 93.0024 55.2284 92.4827 54.7087C91.9602 54.189 91.2793 54.0278 90.9625 54.3474Z" fill="#6EBFCF"/>
<path d="M90.971 54.3558C90.657 54.6726 90.8209 55.3452 91.3379 55.8593C91.8548 56.3734 92.5301 56.5319 92.8442 56.215C93.1582 55.8982 92.9943 55.2256 92.4773 54.7115C91.9604 54.1974 91.2851 54.0389 90.971 54.3558Z" fill="#6FBFCF"/>
<path d="M90.9793 54.3641C90.668 54.6782 90.8292 55.3452 91.3434 55.8538C91.8575 56.3623 92.5245 56.5208 92.8358 56.2067C93.147 55.8927 92.9859 55.2257 92.4717 54.7171C91.9603 54.2085 91.2906 54.0501 90.9793 54.3641Z" fill="#70C0D0"/>
<path d="M90.9876 54.3724C90.6791 54.6837 90.8403 55.3451 91.3489 55.8509C91.8575 56.3567 92.519 56.5124 92.8302 56.2011C93.1387 55.8898 92.9775 55.2284 92.4689 54.7226C91.9576 54.2168 91.2961 54.0611 90.9876 54.3724Z" fill="#71C1D0"/>
<path d="M90.9959 54.3808C90.6902 54.6893 90.8486 55.3451 91.3544 55.8454C91.8575 56.3456 92.5161 56.5013 92.8218 56.1928C93.1275 55.8843 92.9691 55.2284 92.4633 54.7282C91.9575 54.2279 91.3016 54.0723 90.9959 54.3808Z" fill="#72C1D1"/>
<path d="M91.0043 54.3891C90.7014 54.6948 90.8598 55.3451 91.3573 55.8398C91.8575 56.3345 92.5078 56.4901 92.8108 56.1844C93.1137 55.8787 92.9553 55.2284 92.4578 54.7337C91.9576 54.2362 91.3073 54.0833 91.0043 54.3891Z" fill="#73C2D1"/>
<path d="M91.0126 54.3974C90.7124 54.7003 90.8681 55.3451 91.3628 55.8342C91.8575 56.3261 92.5022 56.479 92.8024 56.1761C93.1025 55.8731 92.9469 55.2284 92.4522 54.7392C91.9575 54.2473 91.3127 54.0945 91.0126 54.3974Z" fill="#74C2D1"/>
<path d="M91.021 54.4029C90.7237 54.7031 90.8793 55.3395 91.3684 55.8259C91.8576 56.3122 92.4968 56.4651 92.7941 56.1649C93.0915 55.8648 92.9359 55.2284 92.4467 54.742C91.9576 54.2556 91.3184 54.1056 91.021 54.4029Z" fill="#75C3D2"/>
<path d="M91.3725 55.8212C90.8868 55.3388 90.7325 54.7067 91.0278 54.4094C91.3231 54.1121 91.9562 54.2622 92.4419 54.7446C92.9276 55.227 93.0819 55.8591 92.7866 56.1564C92.4913 56.4536 91.8582 56.3036 91.3725 55.8212Z" fill="#76C3D2"/>
<path d="M91.0376 54.4197C90.7458 54.7143 90.8987 55.3396 91.3795 55.8176C91.8603 56.2956 92.4884 56.4429 92.7802 56.1483C93.072 55.8537 92.9191 55.2284 92.4383 54.7504C91.9548 54.2752 91.3295 54.1279 91.0376 54.4197Z" fill="#77C4D3"/>
<path d="M91.0459 54.428C90.7569 54.7198 90.907 55.3396 91.385 55.812C91.8602 56.2845 92.4827 56.4318 92.7718 56.14C93.0608 55.8481 92.9107 55.2284 92.4327 54.7559C91.9547 54.2835 91.3349 54.1362 91.0459 54.428Z" fill="#78C4D3"/>
<path d="M91.0543 54.4364C90.7681 54.7254 90.9182 55.3396 91.3878 55.8065C91.8603 56.2762 92.4745 56.4207 92.7607 56.1316C93.047 55.8426 92.8969 55.2284 92.4272 54.7615C91.9548 54.2946 91.3406 54.1473 91.0543 54.4364Z" fill="#79C5D3"/>
<path d="M91.0626 54.4448C90.7791 54.731 90.9264 55.3397 91.3933 55.8038C91.8602 56.2679 92.4689 56.4124 92.7523 56.1262C93.0358 55.8399 92.8885 55.2313 92.4216 54.7671C91.9547 54.303 91.3461 54.1585 91.0626 54.4448Z" fill="#7AC6D4"/>
<path d="M91.071 54.453C90.7903 54.7365 90.9375 55.3368 91.3989 55.7981C91.8602 56.2595 92.4633 56.4012 92.7468 56.1177C93.0275 55.8342 92.8802 55.2339 92.4188 54.7726C91.9547 54.314 91.3516 54.1695 91.071 54.453Z" fill="#7BC6D4"/>
<path d="M91.0795 54.4614C90.8016 54.7421 90.9461 55.3368 91.4046 55.7926C91.8632 56.2484 92.4607 56.3901 92.7386 56.1094C93.0165 55.8288 92.872 55.234 92.4135 54.7782C91.9549 54.3224 91.3574 54.1807 91.0795 54.4614Z" fill="#7CC7D5"/>
<path d="M91.4077 55.7887C90.9547 55.3387 90.811 54.7488 91.0868 54.4711C91.3627 54.1934 91.9535 54.3331 92.4065 54.7831C92.8596 55.233 93.0032 55.8229 92.7274 56.1006C92.4516 56.3783 91.8607 56.2386 91.4077 55.7887Z" fill="#7DC7D5"/>
<path d="M91.4134 55.7821C90.9648 55.3365 90.822 54.7528 91.0946 54.4783C91.3672 54.2039 91.9518 54.3427 92.4005 54.7883C92.8492 55.234 92.9919 55.8177 92.7194 56.0921C92.4468 56.3665 91.8621 56.2278 91.4134 55.7821Z" fill="#7EC8D6"/>
<path d="M91.1043 54.4864C90.8348 54.7588 90.9765 55.3368 91.4184 55.7787C91.8631 56.2206 92.4411 56.3568 92.7107 56.0844C92.9803 55.8121 92.8385 55.234 92.3967 54.7921C91.952 54.353 91.3739 54.214 91.1043 54.4864Z" fill="#7FC8D6"/>
<path d="M91.1128 54.4947C90.846 54.7643 90.9849 55.3368 91.424 55.7731C91.8631 56.2094 92.4357 56.3456 92.7052 56.076C92.972 55.8064 92.8331 55.2339 92.394 54.7976C91.9521 54.3613 91.3796 54.2251 91.1128 54.4947Z" fill="#80C9D6"/>
<path d="M91.121 54.503C90.8569 54.7698 90.9959 55.3368 91.4294 55.7676C91.8658 56.1983 92.4327 56.3345 92.6967 56.0677C92.9608 55.8009 92.8218 55.234 92.3883 54.8032C91.9519 54.3724 91.385 54.2362 91.121 54.503Z" fill="#81CAD7"/>
<path d="M91.1292 54.5114C90.868 54.7755 91.0042 55.3341 91.4349 55.7621C91.8657 56.1901 92.4271 56.3235 92.6883 56.0594C92.9496 55.7954 92.8134 55.2368 92.3826 54.8088C91.9519 54.3808 91.3905 54.2474 91.1292 54.5114Z" fill="#82CAD7"/>
<path d="M91.4389 55.7572C91.0131 55.3343 90.8774 54.7805 91.136 54.5202C91.3945 54.2599 91.9492 54.3918 92.375 54.8147C92.8008 55.2376 92.9364 55.7914 92.6779 56.0517C92.4194 56.312 91.8647 56.1801 91.4389 55.7572Z" fill="#83CBD8"/>
<path d="M91.1433 54.5281C90.8876 54.7865 91.021 55.334 91.4434 55.7537C91.8658 56.1733 92.4133 56.3012 92.669 56.0455C92.9247 55.787 92.7913 55.2395 92.3689 54.8199C91.9492 54.4002 91.4017 54.2696 91.1433 54.5281Z" fill="#84CBD8"/>
<path d="M91.1517 54.5364C90.8988 54.792 91.0294 55.334 91.4463 55.7481C91.8631 56.1622 92.4051 56.29 92.6607 56.0343C92.9137 55.7786 92.783 55.2367 92.3662 54.8226C91.9493 54.4085 91.4073 54.2807 91.1517 54.5364Z" fill="#85CCD8"/>
<path d="M91.1599 54.5447C90.9097 54.7976 91.0404 55.334 91.4517 55.7425C91.863 56.1511 92.4021 56.2789 92.6523 56.026C92.9024 55.7731 92.7718 55.2367 92.3605 54.8282C91.9491 54.4196 91.4128 54.2918 91.1599 54.5447Z" fill="#86CCD9"/>
<path d="M91.1684 54.5531C90.921 54.8032 91.0489 55.3341 91.4574 55.737C91.8659 56.1428 92.3968 56.2679 92.6441 56.0177C92.8915 55.7676 92.7636 55.2368 92.3551 54.8338C91.9493 54.4281 91.4185 54.303 91.1684 54.5531Z" fill="#87CDD9"/>
<path d="M91.1766 54.5615C90.932 54.8088 91.0598 55.3313 91.4628 55.7315C91.8658 56.1317 92.3911 56.2568 92.6356 56.0094C92.8802 55.7621 92.7523 55.2396 92.3494 54.8394C91.9492 54.4392 91.4239 54.3141 91.1766 54.5615Z" fill="#88CDDA"/>
<path d="M91.1851 54.5698C90.9433 54.8143 91.0684 55.3313 91.4686 55.7287C91.866 56.1233 92.3857 56.2484 92.6275 56.0038C92.8693 55.7592 92.7442 55.2423 92.344 54.8449C91.9466 54.4475 91.4296 54.3252 91.1851 54.5698Z" fill="#89CEDA"/>
<path d="M91.1934 54.5781C90.9544 54.8199 91.0795 55.3313 91.4741 55.7231C91.8688 56.115 92.3801 56.2373 92.6219 55.9955C92.8609 55.7537 92.7359 55.2423 92.3412 54.8505C91.9466 54.4586 91.4352 54.3363 91.1934 54.5781Z" fill="#8ACFDB"/>
<path d="M91.2017 54.5864C90.9654 54.8254 91.0877 55.3312 91.4768 55.7175C91.8659 56.1038 92.3745 56.2233 92.6107 55.9871C92.8469 55.7481 92.7247 55.2423 92.3356 54.856C91.9465 54.4669 91.4379 54.3474 91.2017 54.5864Z" fill="#8BCFDB"/>
<path d="M91.2099 54.5948C90.9764 54.831 91.0987 55.3312 91.4822 55.712C91.8657 56.0927 92.3688 56.2122 92.6022 55.976C92.8357 55.7398 92.7134 55.2395 92.3299 54.8588C91.9463 54.478 91.4433 54.3585 91.2099 54.5948Z" fill="#8CD0DB"/>
<path d="M91.2184 54.603C90.9877 54.8365 91.1072 55.3312 91.488 55.7091C91.8687 56.0871 92.3634 56.2038 92.5941 55.9704C92.8247 55.7369 92.7052 55.2422 92.3245 54.8643C91.9465 54.4863 91.4491 54.3696 91.2184 54.603Z" fill="#8DD0DC"/>
<path d="M91.2266 54.6114C90.9987 54.8421 91.1182 55.3312 91.4934 55.7036C91.8686 56.076 92.3577 56.1927 92.5856 55.9621C92.8135 55.7314 92.694 55.2423 92.3188 54.8699C91.9464 54.4975 91.4545 54.3807 91.2266 54.6114Z" fill="#8FD1DC"/>
<path d="M91.235 54.6198C91.0099 54.8477 91.1266 55.3285 91.499 55.6981C91.8686 56.0677 92.3522 56.1817 92.5801 55.9538C92.8052 55.7259 92.6885 55.2451 92.3161 54.8755C91.9437 54.5059 91.4601 54.3919 91.235 54.6198Z" fill="#90D1DD"/>
<path d="M91.2432 54.6282C91.0209 54.8533 91.1376 55.3285 91.5044 55.6926C91.8713 56.0566 92.3493 56.1706 92.5716 55.9455C92.794 55.7204 92.6772 55.2451 92.3104 54.8811C91.9435 54.517 91.4655 54.403 91.2432 54.6282Z" fill="#91D2DD"/>
<path d="M91.2517 54.6337C91.0321 54.856 91.1461 55.3257 91.5074 55.6842C91.8687 56.0427 92.3411 56.1567 92.5607 55.9343C92.7802 55.712 92.6663 55.2423 92.305 54.8838C91.9437 54.5253 91.4712 54.4141 91.2517 54.6337Z" fill="#92D2DD"/>
<path d="M91.2601 54.642C91.0433 54.8615 91.1573 55.3256 91.513 55.6814C91.8715 56.0371 92.3357 56.1455 92.5524 55.9287C92.7692 55.7092 92.6553 55.2451 92.2995 54.8893C91.9438 54.5336 91.4769 54.4252 91.2601 54.642Z" fill="#93D3DE"/>
<path d="M91.2684 54.6503C91.0544 54.8671 91.1656 55.3257 91.5185 55.6758C91.8715 56.026 92.33 56.1344 92.544 55.9204C92.758 55.7036 92.6469 55.2451 92.2939 54.8949C91.9437 54.5447 91.4824 54.4363 91.2684 54.6503Z" fill="#94D4DE"/>
<path d="M91.2767 54.6586C91.0655 54.8726 91.1767 55.3256 91.5241 55.6702C91.8715 56.0148 92.3245 56.1232 92.5385 55.9092C92.7497 55.6952 92.6385 55.2422 92.2911 54.8976C91.9437 54.553 91.4879 54.4474 91.2767 54.6586Z" fill="#95D4DF"/>
<path d="M91.285 54.667C91.0766 54.8782 91.185 55.3228 91.5296 55.6647C91.8742 56.0065 92.3216 56.1121 92.5301 55.9009C92.7385 55.6897 92.6301 55.245 92.2855 54.9032C91.9409 54.5641 91.4934 54.4585 91.285 54.667Z" fill="#96D5DF"/>
<path d="M91.2932 54.6754C91.0875 54.8838 91.1959 55.3229 91.535 55.6592C91.874 55.9955 92.3159 56.1011 92.5216 55.8926C92.7272 55.6842 92.6189 55.2451 92.2798 54.9088C91.9407 54.5725 91.4989 54.4697 91.2932 54.6754Z" fill="#97D5E0"/>
<path d="M91.3017 54.6837C91.0988 54.8894 91.2044 55.3229 91.5379 55.6564C91.8714 55.9872 92.3078 56.0928 92.5106 55.8871C92.7135 55.6815 92.6079 55.2479 92.2744 54.9144C91.9409 54.5837 91.5046 54.4808 91.3017 54.6837Z" fill="#98D6E0"/>
<path d="M91.3101 54.692C91.11 54.8949 91.2156 55.3229 91.5436 55.6508C91.8743 55.9788 92.3023 56.0788 92.5024 55.8787C92.7025 55.6758 92.5969 55.2478 92.2689 54.9199C91.941 54.592 91.5102 54.4919 91.3101 54.692Z" fill="#99D6E0"/>
<path d="M91.3183 54.7004C91.121 54.9005 91.2238 55.3229 91.549 55.6453C91.8741 55.9677 92.2966 56.0677 92.4967 55.8704C92.694 55.6703 92.5912 55.2479 92.266 54.9255C91.9408 54.6031 91.5156 54.5031 91.3183 54.7004Z" fill="#9AD7E1"/>
<path d="M91.3267 54.7087C91.1322 54.906 91.235 55.3228 91.5546 55.6397C91.8742 55.9593 92.2939 56.0565 92.4884 55.862C92.683 55.6647 92.5802 55.2478 92.2605 54.931C91.9409 54.6114 91.5213 54.5141 91.3267 54.7087Z" fill="#9BD7E1"/>
<path d="M91.335 54.717C91.1433 54.9116 91.2433 55.3229 91.5601 55.6341C91.877 55.9482 92.2883 56.0455 92.48 55.8509C92.6718 55.6564 92.5717 55.2451 92.2549 54.9338C91.9381 54.6225 91.5268 54.5225 91.335 54.717Z" fill="#9CD8E2"/>
<path d="M91.3433 54.7254C91.1543 54.9172 91.2516 55.3202 91.5656 55.6314C91.8769 55.9399 92.2827 56.0372 92.4716 55.8454C92.6606 55.6537 92.5633 55.2507 92.2493 54.9394C91.938 54.6309 91.5323 54.5337 91.3433 54.7254Z" fill="#9DD9E2"/>
<path d="M91.3517 54.7337C91.1655 54.9227 91.2628 55.3201 91.5685 55.6258C91.8742 55.9315 92.2744 56.026 92.4606 55.837C92.6468 55.6481 92.5495 55.2506 92.2438 54.9449C91.9381 54.6392 91.5379 54.5447 91.3517 54.7337Z" fill="#9ED9E2"/>
<path d="M91.3599 54.7421C91.1765 54.9283 91.271 55.3201 91.5739 55.6203C91.8768 55.9204 92.2715 56.0149 92.4549 55.8287C92.6383 55.6425 92.5438 55.2507 92.2409 54.9505C91.938 54.6504 91.5433 54.5559 91.3599 54.7421Z" fill="#9FDAE3"/>
<path d="M91.3683 54.7503C91.1877 54.9338 91.2822 55.3201 91.5795 55.6147C91.8769 55.9093 92.266 56.001 92.4466 55.8203C92.6273 55.6369 92.5328 55.2506 92.2354 54.956C91.938 54.6586 91.549 54.5669 91.3683 54.7503Z" fill="#A0DAE3"/>
<path d="M91.3768 54.7587C91.199 54.9393 91.2907 55.3201 91.5853 55.6119C91.8771 55.9037 92.2606 55.9927 92.4385 55.8148C92.6163 55.6341 92.5246 55.2534 92.23 54.9616C91.9355 54.6698 91.5547 54.5781 91.3768 54.7587Z" fill="#A1DBE4"/>
<path d="M91.385 54.7671C91.2099 54.945 91.3017 55.3202 91.5907 55.6064C91.8797 55.8927 92.2549 55.9816 92.43 55.8065C92.6051 55.6287 92.5134 55.2535 92.2243 54.9672C91.9353 54.6782 91.5601 54.5892 91.385 54.7671Z" fill="#A2DBE4"/>
<path d="M91.5938 55.6014C91.3095 55.3191 91.2194 54.949 91.3925 54.7747C91.5655 54.6005 91.9362 54.6881 92.2205 54.9704C92.5047 55.2527 92.5948 55.6228 92.4217 55.7971C92.2487 55.9713 91.878 55.8837 91.5938 55.6014Z" fill="#A3DCE5"/>
<path d="M91.5997 55.5919C91.3198 55.3139 91.2306 54.95 91.4004 54.779C91.5703 54.608 91.9348 54.6948 92.2147 54.9727C92.4946 55.2507 92.5838 55.6147 92.414 55.7857C92.2441 55.9566 91.8796 55.8699 91.5997 55.5919Z" fill="#A4DDE5"/>
<path d="M91.4101 54.7921C91.2434 54.9616 91.3295 55.3174 91.6047 55.5897C91.8798 55.8621 92.2383 55.9482 92.4051 55.7787C92.5718 55.6092 92.4857 55.2534 92.2105 54.9811C91.9354 54.7087 91.5769 54.6226 91.4101 54.7921Z" fill="#A5DDE5"/>
<path d="M91.4183 54.8004C91.2544 54.9671 91.3405 55.3173 91.6101 55.5869C91.8797 55.8565 92.2326 55.9398 92.3966 55.7731C92.5606 55.6063 92.4744 55.2562 92.2048 54.9866C91.9353 54.717 91.5823 54.6336 91.4183 54.8004Z" fill="#A6DEE6"/>
<path d="M91.4266 54.8087C91.2654 54.9699 91.3488 55.3173 91.6156 55.5813C91.8824 55.8454 92.227 55.926 92.3882 55.7648C92.5494 55.6008 92.466 55.2562 92.1992 54.9922C91.9352 54.7281 91.5878 54.6448 91.4266 54.8087Z" fill="#A7DEE6"/>
<path d="M91.435 54.8171C91.2766 54.9756 91.36 55.3174 91.6212 55.5759C91.8825 55.8343 92.2215 55.9149 92.38 55.7565C92.5384 55.5981 92.455 55.2563 92.1938 54.9978C91.9325 54.7366 91.5935 54.656 91.435 54.8171Z" fill="#A8DFE7"/>
<path d="M91.4434 54.8254C91.2878 54.981 91.3684 55.3173 91.6241 55.5702C91.8798 55.8259 92.2161 55.9037 92.3717 55.7481C92.5273 55.5924 92.4467 55.2561 92.191 55.0032C91.9326 54.7476 91.5991 54.667 91.4434 54.8254Z" fill="#A9DFE7"/>
<path d="M91.4516 54.8338C91.2988 54.9866 91.3794 55.3146 91.6295 55.5647C91.8824 55.8148 92.2103 55.8926 92.3632 55.7398C92.5161 55.5869 92.4355 55.259 92.1853 55.0089C91.9324 54.756 91.6045 54.6782 91.4516 54.8338Z" fill="#AAE0E7"/>
<path d="M91.4602 54.8421C91.3101 54.9922 91.3879 55.3146 91.6352 55.5619C91.8826 55.8065 92.205 55.8843 92.355 55.7315C92.5051 55.5814 92.4273 55.259 92.18 55.0117C91.9326 54.7671 91.6102 54.6893 91.4602 54.8421Z" fill="#ABE0E8"/>
<path d="M91.4683 54.8477C91.3211 54.995 91.3989 55.3118 91.6407 55.5536C91.8824 55.7954 92.1993 55.8704 92.3466 55.7203C92.4939 55.573 92.416 55.2562 92.1742 55.0144C91.9325 54.7754 91.6156 54.7004 91.4683 54.8477Z" fill="#ACE1E8"/>
<path d="M91.4766 54.856C91.3321 55.0005 91.4071 55.3117 91.6461 55.548C91.8852 55.7842 92.1936 55.8592 92.3382 55.7119C92.4827 55.5674 92.4076 55.2562 92.1686 55.0199C91.9324 54.7837 91.6211 54.7114 91.4766 54.856Z" fill="#ADE2E9"/>
<path d="M91.485 54.8643C91.3432 55.0061 91.4183 55.3118 91.6517 55.5424C91.8852 55.7731 92.1909 55.8454 92.3326 55.7036C92.4743 55.5619 92.3993 55.2562 92.1659 55.0255C91.9296 54.7948 91.6267 54.7226 91.485 54.8643Z" fill="#AEE2E9"/>
<path d="M91.4935 54.8727C91.3545 55.0117 91.4268 55.3118 91.6546 55.5369C91.8825 55.7648 92.1827 55.8343 92.3217 55.6954C92.4606 55.5564 92.3883 55.2562 92.1605 55.0311C91.9298 54.8032 91.6324 54.7338 91.4935 54.8727Z" fill="#AFE3EA"/>
<path d="M91.5017 54.881C91.3655 55.0171 91.4377 55.309 91.6601 55.5341C91.8852 55.7564 92.177 55.8259 92.3132 55.6897C92.4493 55.5535 92.3771 55.2617 92.1548 55.0366C91.9296 54.8143 91.6378 54.7448 91.5017 54.881Z" fill="#B0E3EA"/>
<path d="M91.5102 54.8894C91.3768 55.0228 91.4462 55.309 91.6658 55.5286C91.8854 55.7481 92.1716 55.8148 92.305 55.6814C92.4384 55.548 92.3689 55.2618 92.1494 55.0422C91.9298 54.8227 91.6436 54.756 91.5102 54.8894Z" fill="#B1E4EA"/>
<path d="M91.5184 54.8977C91.3877 55.0283 91.4572 55.309 91.6712 55.523C91.8852 55.737 92.1659 55.8037 92.2965 55.6703C92.4271 55.5397 92.3577 55.259 92.1437 55.045C91.9297 54.8338 91.649 54.7671 91.5184 54.8977Z" fill="#B2E4EB"/>
<path d="M91.5268 54.906C91.3989 55.0338 91.4656 55.309 91.6769 55.5174C91.8881 55.7259 92.1632 55.7926 92.2911 55.6619C92.4189 55.5341 92.3522 55.259 92.141 55.0505C91.9298 54.8421 91.6546 54.7782 91.5268 54.906Z" fill="#B3E5EB"/>
<path d="M91.5351 54.9144C91.41 55.0394 91.4739 55.309 91.6824 55.5146C91.888 55.7203 92.1576 55.7842 92.2827 55.6564C92.4077 55.5313 92.3438 55.2617 92.1354 55.0561C91.9269 54.8532 91.6601 54.7893 91.5351 54.9144Z" fill="#B4E5EC"/>
<path d="M91.5435 54.9228C91.4212 55.045 91.4851 55.3091 91.6852 55.5092C91.8881 55.7093 92.1493 55.7704 92.2716 55.6481C92.3939 55.5258 92.33 55.2618 92.1299 55.0617C91.9298 54.8616 91.6658 54.8005 91.5435 54.9228Z" fill="#B5E6EC"/>
<path d="M91.5517 54.931C91.4322 55.0505 91.4934 55.309 91.6907 55.5035C91.888 55.698 92.1437 55.7592 92.2632 55.6397C92.3827 55.5202 92.3216 55.2617 92.1243 55.0672C91.9269 54.8726 91.6712 54.8115 91.5517 54.931Z" fill="#B6E7EC"/>
<path d="M91.5602 54.9394C91.4435 55.0561 91.5046 55.3062 91.6964 55.498C91.8881 55.6898 92.1382 55.7481 92.255 55.6314C92.3717 55.5147 92.3106 55.2646 92.1188 55.0728C91.927 54.881 91.6769 54.8227 91.5602 54.9394Z" fill="#B7E7ED"/>
<path d="M91.5684 54.9478C91.4544 55.0617 91.5128 55.3063 91.7018 55.4925C91.8907 55.6787 92.1353 55.737 92.2493 55.6231C92.3632 55.5091 92.3048 55.2646 92.1159 55.0784C91.9269 54.8922 91.6823 54.8338 91.5684 54.9478Z" fill="#B8E8ED"/>
<path d="M91.5768 54.956C91.4656 55.0672 91.524 55.3062 91.7074 55.4896C91.8908 55.6703 92.1298 55.7286 92.241 55.6147C92.3522 55.5035 92.2938 55.2645 92.1104 55.0811C91.927 54.9004 91.688 54.8449 91.5768 54.956Z" fill="#B9E8EE"/>
<path d="M91.5851 54.9644C91.4767 55.0728 91.5323 55.3062 91.7129 55.4841C91.8908 55.662 92.1242 55.7175 92.2326 55.6064C92.341 55.498 92.2854 55.2645 92.1048 55.0867C91.9241 54.9116 91.6935 54.856 91.5851 54.9644Z" fill="#BAE9EE"/>
<path d="M91.5935 54.9727C91.4879 55.0783 91.5435 55.3062 91.7158 55.4785C91.8909 55.6508 92.116 55.7064 92.2216 55.598C92.3272 55.4924 92.2716 55.2645 92.0993 55.0922C91.9242 54.9199 91.6991 54.8671 91.5935 54.9727Z" fill="#BBE9EF"/>
<path d="M91.6019 54.9811C91.4991 55.0839 91.5519 55.3062 91.7214 55.473C91.8909 55.6425 92.1105 55.6926 92.2161 55.5897C92.3189 55.4869 92.2661 55.2646 92.0966 55.0978C91.9243 54.9283 91.7047 54.8783 91.6019 54.9811Z" fill="#BCEAEF"/>
<path d="M91.6101 54.9894C91.51 55.0895 91.5628 55.3063 91.7268 55.4675C91.8908 55.6314 92.1076 55.6815 92.2076 55.5814C92.3077 55.4814 92.2549 55.2646 92.0909 55.1034C91.9241 54.9394 91.7101 54.8894 91.6101 54.9894Z" fill="#BDEAEF"/>
<path d="M91.6184 54.9977C91.5211 55.095 91.5711 55.3034 91.7323 55.4646C91.8935 55.623 92.1019 55.6731 92.1992 55.5758C92.2965 55.4785 92.2465 55.2701 92.0853 55.1089C91.9241 54.9477 91.7156 54.9005 91.6184 54.9977Z" fill="#BEEBF0"/>
<path d="M91.6268 55.0061C91.5323 55.1006 91.5823 55.3035 91.738 55.4591C91.8936 55.6147 92.0965 55.662 92.191 55.5675C92.2855 55.473 92.2354 55.2701 92.0798 55.1145C91.9242 54.9588 91.7213 54.9116 91.6268 55.0061Z" fill="#BFECF0"/>
<path d="M91.6324 55.0144C91.5407 55.1061 91.5879 55.3034 91.7408 55.4535C91.8909 55.6036 92.0882 55.6508 92.1799 55.5591C92.2716 55.4674 92.2244 55.2701 92.0715 55.12C91.9214 54.9671 91.7269 54.9199 91.6324 55.0144Z" fill="#C0ECF1"/>
<path d="M91.6407 55.0227C91.5518 55.1117 91.599 55.3034 91.7435 55.4479C91.8908 55.5925 92.0798 55.6397 92.1715 55.548C92.2605 55.4591 92.2132 55.2673 92.0687 55.1228C91.9214 54.9783 91.7324 54.931 91.6407 55.0227Z" fill="#C1EDF1"/>
<path d="M91.649 55.0311C91.5628 55.1172 91.6073 55.3034 91.749 55.4424C91.8908 55.5841 92.077 55.6286 92.1631 55.5397C92.2493 55.4535 92.2048 55.2673 92.0631 55.1284C91.9213 54.9894 91.7379 54.9422 91.649 55.0311Z" fill="#C2EDF1"/>
<path d="M91.6574 55.0395C91.574 55.1229 91.6185 55.3035 91.7547 55.4397C91.8909 55.5759 92.0715 55.6176 92.1549 55.5342C92.2383 55.4508 92.1938 55.2702 92.0576 55.134C91.9214 54.9978 91.7408 54.9533 91.6574 55.0395Z" fill="#C3EEF2"/>
<path d="M91.6657 55.0478C91.5851 55.1284 91.6268 55.3007 91.7602 55.4341C91.8936 55.5647 92.0659 55.6064 92.1465 55.5258C92.2271 55.4452 92.1854 55.2729 92.052 55.1395C91.9214 55.0061 91.7463 54.9644 91.6657 55.0478Z" fill="#C4EEF2"/>
<path d="M91.6741 55.0561C91.5963 55.1339 91.638 55.3007 91.7658 55.4285C91.8937 55.5564 92.0604 55.5953 92.1383 55.5175C92.2161 55.4397 92.1744 55.2729 92.0465 55.1451C91.9215 55.0172 91.7519 54.9755 91.6741 55.0561Z" fill="#C5EFF3"/>
<path d="M91.6823 55.0644C91.6073 55.1395 91.6462 55.3006 91.7712 55.4229C91.8935 55.5452 92.0547 55.5841 92.1325 55.5091C92.2076 55.434 92.1687 55.2729 92.0436 55.1506C91.9185 55.0255 91.7573 54.9866 91.6823 55.0644Z" fill="#C6EFF3"/>
<path d="M91.6907 55.0728C91.6185 55.145 91.6574 55.3007 91.7741 55.4202C91.8936 55.5397 92.0492 55.5758 92.1215 55.5035C92.1938 55.4313 92.1548 55.2757 92.0381 55.1561C91.9186 55.0366 91.763 54.9977 91.6907 55.0728Z" fill="#C7F0F4"/>
<path d="M91.699 55.0783C91.6295 55.1478 91.6656 55.2979 91.7796 55.4118C91.8935 55.5257 92.0436 55.5619 92.1131 55.4896C92.1826 55.4201 92.1464 55.2701 92.0325 55.1561C91.9186 55.045 91.7685 55.0088 91.699 55.0783Z" fill="#C8F1F4"/>
<path d="M91.7074 55.0867C91.6407 55.1534 91.6769 55.2979 91.7853 55.4063C91.8964 55.5147 92.0382 55.548 92.1049 55.4813C92.1716 55.4146 92.1354 55.2701 92.027 55.1617C91.9186 55.0534 91.7741 55.02 91.7074 55.0867Z" fill="#C9F1F4"/>
<path d="M91.7157 55.0951C91.6518 55.159 91.6851 55.2979 91.7908 55.4008C91.8964 55.5036 92.0325 55.537 92.0965 55.473C92.1604 55.4091 92.127 55.2701 92.0214 55.1673C91.9186 55.0645 91.7796 55.0311 91.7157 55.0951Z" fill="#CAF2F5"/>
<path d="M91.7241 55.1033C91.663 55.1645 91.6935 55.2951 91.7964 55.3952C91.8964 55.4952 92.027 55.5258 92.091 55.4646C92.1549 55.4035 92.1215 55.2729 92.0187 55.1728C91.9187 55.0728 91.7853 55.0422 91.7241 55.1033Z" fill="#CBF2F5"/>
<path d="M91.7323 55.1117C91.674 55.1701 91.7045 55.2951 91.8018 55.3924C91.8991 55.4869 92.0241 55.5175 92.0825 55.4591C92.1409 55.4007 92.1103 55.2757 92.013 55.1784C91.9157 55.0839 91.7907 55.0533 91.7323 55.1117Z" fill="#CCF3F6"/>
<path d="M91.7408 55.12C91.6852 55.1756 91.713 55.2951 91.8047 55.3868C91.8965 55.4785 92.016 55.5063 92.0715 55.4507C92.1271 55.3951 92.0993 55.2756 92.0076 55.1839C91.9159 55.0922 91.7964 55.0644 91.7408 55.12Z" fill="#CDF3F6"/>
<path d="M91.749 55.1283C91.6962 55.1812 91.724 55.2951 91.8102 55.3813C91.8963 55.4674 92.0103 55.4952 92.0631 55.4424C92.1159 55.3896 92.0881 55.2756 92.0019 55.1895C91.9158 55.1033 91.8018 55.0755 91.749 55.1283Z" fill="#CEF4F6"/>
<path d="M91.7575 55.1367C91.7075 55.1868 91.7325 55.2952 91.8159 55.3757C91.8993 55.4563 92.0049 55.4841 92.0549 55.4313C92.1049 55.3813 92.0799 55.2729 91.9965 55.1923C91.9159 55.1117 91.8076 55.0867 91.7575 55.1367Z" fill="#CFF5F7"/>
<path d="M91.7659 55.1451C91.7186 55.1924 91.7436 55.2952 91.8215 55.3702C91.8993 55.448 92.0021 55.4703 92.0493 55.423C92.0966 55.3758 92.0716 55.2729 91.9938 55.1979C91.9159 55.1229 91.8131 55.0979 91.7659 55.1451Z" fill="#D0F5F7"/>
<path d="M91.7741 55.1534C91.7297 55.1979 91.7519 55.2923 91.8269 55.3674C91.8992 55.4396 91.9965 55.4619 92.0409 55.4174C92.0854 55.3729 92.0632 55.2784 91.9881 55.2034C91.9159 55.1312 91.8186 55.1089 91.7741 55.1534Z" fill="#D1F6F8"/>
<path d="M91.7826 55.1617C91.7409 55.2034 91.7631 55.2923 91.8326 55.3618C91.9021 55.4313 91.991 55.4507 92.0327 55.409C92.0744 55.3673 92.0522 55.2784 91.9827 55.2089C91.9132 55.1394 91.8243 55.12 91.7826 55.1617Z" fill="#D2F6F8"/>
<path d="M91.7908 55.17C91.7519 55.2089 91.7714 55.2923 91.8353 55.3562C91.8992 55.4202 91.9826 55.4396 92.0215 55.4007C92.0604 55.3618 92.041 55.2784 91.977 55.2145C91.9131 55.1506 91.8297 55.1311 91.7908 55.17Z" fill="#D3F7F9"/>
<path d="M91.799 55.1784C91.7629 55.2145 91.7823 55.2923 91.8407 55.3507C91.8991 55.4091 91.9769 55.4285 92.013 55.3924C92.0491 55.3563 92.0297 55.2784 91.9713 55.2201C91.913 55.1617 91.8352 55.1423 91.799 55.1784Z" fill="#D4F7F9"/>
<path d="M91.8074 55.1868C91.7741 55.2201 91.7908 55.2924 91.8464 55.3452C91.9019 55.4008 91.9742 55.4175 92.0075 55.3841C92.0409 55.3508 92.0242 55.2785 91.9686 55.2257C91.9131 55.1701 91.8408 55.1534 91.8074 55.1868Z" fill="#D5F8F9"/>
<path d="M91.8159 55.1951C91.7853 55.2256 91.802 55.2923 91.852 55.3424C91.902 55.3924 91.9687 55.4091 91.9993 55.3785C92.0299 55.3479 92.0132 55.2812 91.9632 55.2312C91.9131 55.1784 91.8465 55.1645 91.8159 55.1951Z" fill="#D6F8FA"/>
<path d="M91.8242 55.2034C91.7964 55.2312 91.8103 55.2924 91.8575 55.3368C91.902 55.3813 91.9631 55.3952 91.9909 55.3674C92.0187 55.3396 92.0048 55.2785 91.9576 55.234C91.9131 55.1895 91.8519 55.1756 91.8242 55.2034Z" fill="#D7F9FA"/>
<path d="M91.8326 55.2117C91.8076 55.2367 91.8215 55.2895 91.8632 55.3312C91.9048 55.3729 91.9576 55.384 91.9827 55.359C92.0077 55.334 91.9938 55.2812 91.9521 55.2395C91.9104 55.1978 91.8576 55.1867 91.8326 55.2117Z" fill="#D8FAFB"/>
<path d="M91.8408 55.2201C91.8186 55.2423 91.8297 55.2895 91.8659 55.3257C91.902 55.3618 91.9492 55.3729 91.9715 55.3507C91.9937 55.3285 91.9826 55.2812 91.9465 55.2451C91.9103 55.2089 91.8631 55.1978 91.8408 55.2201Z" fill="#D9FAFB"/>
<path d="M91.8492 55.2284C91.8297 55.2478 91.8408 55.2895 91.8714 55.3228C91.9048 55.3534 91.9465 55.3645 91.9659 55.3451C91.9854 55.3256 91.9742 55.2839 91.9437 55.2506C91.9103 55.2172 91.8686 55.2089 91.8492 55.2284Z" fill="#DAFBFB"/>
<path d="M91.8575 55.2367C91.8408 55.2534 91.8491 55.2895 91.8769 55.3173C91.9047 55.3451 91.9408 55.3534 91.9575 55.3368C91.9742 55.3201 91.9659 55.284 91.9381 55.2562C91.9103 55.2284 91.8741 55.22 91.8575 55.2367Z" fill="#DBFBFC"/>
<path d="M91.8659 55.2451C91.852 55.259 91.8603 55.2896 91.8826 55.3118C91.9048 55.3341 91.9354 55.3424 91.9493 55.3285C91.9632 55.3146 91.9548 55.284 91.9326 55.2618C91.9104 55.2368 91.8798 55.2312 91.8659 55.2451Z" fill="#DCFCFC"/>
<path d="M91.8742 55.2535C91.8631 55.2646 91.8686 55.2896 91.8881 55.3063C91.9075 55.3257 91.9297 55.3313 91.9409 55.3202C91.952 55.3091 91.9464 55.284 91.927 55.2674C91.9075 55.2507 91.8853 55.2424 91.8742 55.2535Z" fill="#DDFCFD"/>
<path d="M91.8826 55.2618C91.8742 55.2701 91.8798 55.2868 91.8937 55.3007C91.9076 55.3146 91.9243 55.3173 91.9326 55.309C91.9409 55.3007 91.9354 55.284 91.9215 55.2701C91.9076 55.2562 91.8909 55.2534 91.8826 55.2618Z" fill="#DEFDFD"/>
<path d="M91.8908 55.2701C91.8852 55.2757 91.888 55.2868 91.8963 55.2979C91.9047 55.3062 91.9186 55.309 91.9241 55.3035C91.9297 55.2979 91.9269 55.2868 91.9186 55.2757C91.9074 55.2673 91.8963 55.2645 91.8908 55.2701Z" fill="#DFFDFE"/>
<path d="M91.8987 55.2785C91.8959 55.2813 91.8987 55.287 91.9016 55.2927C91.9073 55.2984 91.913 55.2984 91.9158 55.2956C91.9187 55.2927 91.9158 55.287 91.913 55.2813C91.9073 55.2756 91.9016 55.2756 91.8987 55.2785Z" fill="#E0FEFE"/>
<path d="M91.1487 54.8255C91.1487 54.4559 91.4489 54.328 91.8185 54.542C92.1881 54.756 92.4883 55.2285 92.4883 55.5981C92.4883 55.9677 92.1881 56.0956 91.8185 55.8816C91.4489 55.6676 91.1487 55.1951 91.1487 54.8255Z" fill="url(#paint18_linear)"/>
<path d="M9.99194 286.23C9.99194 286.23 8.86915 289.957 8.53565 291.341C8.32999 292.191 8.75521 294.487 9.11372 296.132C9.35273 297.232 10.1976 298.1 11.2926 298.364C13.2602 298.836 15.3335 298.461 17.0093 297.33L32.3114 286.994C33.1229 286.446 33.3897 285.374 32.9284 284.509L32.5171 283.734C31.864 282.511 30.4716 281.889 29.1265 282.228C25.6664 283.103 19.2327 284.568 16.9537 283.979C13.7744 283.164 9.99194 286.23 9.99194 286.23Z" fill="url(#paint19_linear)"/>
<path d="M9.51667 275.146C9.51667 275.146 9.56113 286.091 9.98078 287.628C10.4004 289.162 15.3779 289.106 16.7119 285.813C17.843 283.023 18.4656 273.924 18.4656 273.924L9.51667 275.146Z" fill="url(#paint20_linear)"/>
<path d="M29.4238 292.355C29.4238 292.355 27.8786 295.929 27.3895 297.263C27.0893 298.083 27.245 300.415 27.4117 302.09C27.5229 303.213 28.2594 304.172 29.3182 304.558C31.2164 305.256 33.3202 305.122 35.1183 304.191L51.5098 295.69C52.3797 295.24 52.766 294.206 52.4103 293.294L52.0907 292.477C51.5849 291.185 50.2731 290.41 48.8974 290.59C45.3596 291.063 38.8007 291.774 36.6052 290.926C33.537 289.745 29.4238 292.355 29.4238 292.355Z" fill="url(#paint21_linear)"/>
<path d="M28.4039 282.486C28.4039 282.486 28.4483 293.431 28.868 294.967C29.2877 296.501 34.2651 296.446 35.6019 293.153C36.733 290.362 37.3528 281.263 37.3528 281.263L28.4039 282.486Z" fill="url(#paint22_linear)"/>
<path d="M3.99449 165.603C3.99449 165.603 9.20265 208.558 7.40453 219.905C3.99449 241.416 8.20769 275.146 8.20769 275.146C12.0541 277.542 16.0866 277.525 19.2549 275.146C19.2549 275.146 24.2379 203.441 33.1562 188.228V164.094L21.2837 151.129L8.49674 148.878C4.60035 150.59 3.2719 161.409 3.99449 165.603Z" fill="url(#paint23_linear)"/>
<path d="M54.8865 160.62C54.8865 160.62 52.8438 189.921 48.5889 219.383C44.5841 247.11 38.381 274.832 37.4945 282.975C37.3611 284.193 36.7052 285.274 35.688 285.955C34.3373 286.858 32.1585 287.717 29.1375 287.1C27.9925 286.866 27.1504 285.88 27.0309 284.715C26.1055 275.672 25.6219 234.434 25.6525 226.989C25.683 218.579 18.4655 169.013 18.4655 169.013L20.8195 148.878L54.8865 160.62Z" fill="url(#paint24_linear)"/>
<path d="M36.6746 78.665C36.6746 78.665 46.2349 83.2896 50.1174 91.4075C53.9971 99.5254 54.8865 160.617 54.8865 160.617C54.8865 160.617 42.3552 167.665 35.1377 163.974C27.923 160.286 36.6746 78.665 36.6746 78.665Z" fill="url(#paint25_linear)"/>
<path d="M36.6747 78.6651C36.6747 78.6651 45.6264 82.7255 50.1175 97.4689C54.2557 111.054 45.6069 177.25 45.5152 171.85C45.5152 171.85 46.1572 182.703 39.6706 185.135C33.1868 187.567 13.6632 185.082 3.80551 177.787C3.80551 177.787 -0.774559 178.17 0.114773 153.672C1.00411 129.174 4.28352 84.5653 10.3643 79.296C16.4424 74.0239 22.9123 71.8062 36.6747 78.6651Z" fill="url(#paint26_linear)"/>
<path d="M39.6704 65.0639L38.2697 78.6707C38.1613 79.7267 37.3442 80.5772 36.2993 80.7523C31.5191 81.5582 27.8895 79.8991 25.719 78.4039C24.2572 77.3978 23.618 75.5636 24.0487 73.8433L26.5555 63.816L39.6704 65.0639Z" fill="url(#paint27_linear)"/>
<path d="M41.2964 39.8207C41.2964 39.8207 49.4644 55.1033 49.3476 59.9474C49.2309 64.7887 39.7651 70.3193 36.7163 69.9691C33.6676 69.6189 22.8928 63.5214 21.1169 59.7834C19.3382 56.0482 30.5688 35.2768 41.2964 39.8207Z" fill="url(#paint28_linear)"/>
<path d="M16.6202 41.9774C15.289 44.159 16.1088 48.9808 13.0934 52.1658C10.9701 54.4058 14.3607 57.7574 20.1497 63.7188C25.9359 69.6828 30.4938 68.4433 33.4036 67.4539C36.3133 66.4646 35.474 58.4217 35.6852 54.0334C35.8965 49.6423 36.8469 46.5157 41.2797 43.7894C45.7125 41.063 47.4828 34.6459 42.547 34.0762C37.6084 33.5065 36.4384 36.0216 33.0145 36.3634C29.5878 36.7025 21.7338 33.5954 16.6202 41.9774Z" fill="url(#paint29_linear)"/>
<path d="M70.811 92.9333C85.0404 87.9503 89.8539 70.9835 89.8539 70.9835C89.8539 70.9835 89.1229 65.2973 88.4282 62.9462C87.4832 59.7501 85.9992 56.1094 92.4774 58.5717C98.9556 61.0313 106.148 51.4626 106.148 51.4626C109.327 58.9052 100.392 64.9305 98.2414 67.1343C96.0903 69.3382 96.0431 75.6942 96.0431 75.6942C91.5881 93.5142 83.5007 103.35 74.5462 108.486C69.352 101.185 70.1802 96.046 70.811 92.9333Z" fill="url(#paint30_linear)"/>
<path d="M39.0896 86.1466C52.852 94.8398 63.1821 95.6069 70.8137 92.9333C70.1801 96.046 69.3547 101.185 74.5461 108.483C55.356 119.488 32.1695 108.897 32.1695 108.897C25.6245 91.3742 39.0896 86.1466 39.0896 86.1466Z" fill="url(#paint31_linear)"/>
<defs>
<linearGradient id="paint0_linear" x1="84.5538" y1="75.2287" x2="90.7861" y2="62.3107" gradientUnits="userSpaceOnUse">
<stop stop-color="#C1FFFF"/>
<stop offset="1" stop-color="#56ABFF"/>
</linearGradient>
<linearGradient id="paint1_linear" x1="61.524" y1="17.809" x2="71.9071" y2="5.82857" gradientUnits="userSpaceOnUse">
<stop stop-color="#C1FFFF"/>
<stop offset="1" stop-color="#56ABFF"/>
</linearGradient>
<linearGradient id="paint2_linear" x1="72.4094" y1="27.2428" x2="82.7924" y2="15.2624" gradientUnits="userSpaceOnUse">
<stop stop-color="#C1FFFF"/>
<stop offset="1" stop-color="#56ABFF"/>
</linearGradient>
<linearGradient id="paint3_linear" x1="83.2551" y1="36.6427" x2="93.6382" y2="24.6623" gradientUnits="userSpaceOnUse">
<stop stop-color="#C1FFFF"/>
<stop offset="1" stop-color="#56ABFF"/>
</linearGradient>
<linearGradient id="paint4_linear" x1="94.1403" y1="46.0764" x2="104.523" y2="34.096" gradientUnits="userSpaceOnUse">
<stop stop-color="#C1FFFF"/>
<stop offset="1" stop-color="#56ABFF"/>
</linearGradient>
<linearGradient id="paint5_linear" x1="71.5531" y1="76.2746" x2="79.8056" y2="67.0119" gradientUnits="userSpaceOnUse">
<stop stop-color="#C1FFFF"/>
<stop offset="1" stop-color="#56ABFF"/>
</linearGradient>
<linearGradient id="paint6_linear" x1="70.1332" y1="25.2704" x2="80.5163" y2="13.29" gradientUnits="userSpaceOnUse">
<stop stop-color="#C1FFFF"/>
<stop offset="1" stop-color="#56ABFF"/>
</linearGradient>
<linearGradient id="paint7_linear" x1="79.1391" y1="33.0756" x2="89.5223" y2="21.095" gradientUnits="userSpaceOnUse">
<stop stop-color="#C1FFFF"/>
<stop offset="1" stop-color="#56ABFF"/>
</linearGradient>
<linearGradient id="paint8_linear" x1="88.1129" y1="40.8526" x2="98.4959" y2="28.8721" gradientUnits="userSpaceOnUse">
<stop stop-color="#C1FFFF"/>
<stop offset="1" stop-color="#56ABFF"/>
</linearGradient>
<linearGradient id="paint9_linear" x1="97.1188" y1="48.6577" x2="107.502" y2="36.6772" gradientUnits="userSpaceOnUse">
<stop stop-color="#C1FFFF"/>
<stop offset="1" stop-color="#56ABFF"/>
</linearGradient>
<linearGradient id="paint10_linear" x1="67.5782" y1="54.703" x2="77.3974" y2="47.9033" gradientUnits="userSpaceOnUse">
<stop stop-color="#C1FFFF"/>
<stop offset="1" stop-color="#56ABFF"/>
</linearGradient>
<linearGradient id="paint11_linear" x1="83.5501" y1="36.8983" x2="93.9331" y2="24.9179" gradientUnits="userSpaceOnUse">
<stop stop-color="#C1FFFF"/>
<stop offset="1" stop-color="#56ABFF"/>
</linearGradient>
<linearGradient id="paint12_linear" x1="89.153" y1="41.7542" x2="99.5359" y2="29.7738" gradientUnits="userSpaceOnUse">
<stop stop-color="#C1FFFF"/>
<stop offset="1" stop-color="#56ABFF"/>
</linearGradient>
<linearGradient id="paint13_linear" x1="94.7355" y1="46.5926" x2="105.119" y2="34.6121" gradientUnits="userSpaceOnUse">
<stop stop-color="#C1FFFF"/>
<stop offset="1" stop-color="#56ABFF"/>
</linearGradient>
<linearGradient id="paint14_linear" x1="100.338" y1="51.4483" x2="110.722" y2="39.4678" gradientUnits="userSpaceOnUse">
<stop stop-color="#C1FFFF"/>
<stop offset="1" stop-color="#56ABFF"/>
</linearGradient>
<linearGradient id="paint15_linear" x1="67.6466" y1="10.3288" x2="84.29" y2="45.7062" gradientUnits="userSpaceOnUse">
<stop stop-color="#B8E7FF"/>
<stop offset="0.368" stop-color="#B5E5FF"/>
<stop offset="0.6008" stop-color="#ADE0FF"/>
<stop offset="0.7959" stop-color="#9ED6FF"/>
<stop offset="0.9694" stop-color="#89C8FF"/>
<stop offset="1" stop-color="#85C5FF"/>
</linearGradient>
<linearGradient id="paint16_linear" x1="83.1975" y1="15.8864" x2="75.899" y2="67.099" gradientUnits="userSpaceOnUse">
<stop stop-color="#B8E7FF"/>
<stop offset="1" stop-color="#85C5FF"/>
</linearGradient>
<linearGradient id="paint17_linear" x1="98.8009" y1="12.2467" x2="96.671" y2="68.5549" gradientUnits="userSpaceOnUse">
<stop stop-color="#B8E7FF"/>
<stop offset="0.368" stop-color="#B5E5FF"/>
<stop offset="0.6008" stop-color="#ADE0FF"/>
<stop offset="0.7959" stop-color="#9ED6FF"/>
<stop offset="0.9694" stop-color="#89C8FF"/>
<stop offset="1" stop-color="#85C5FF"/>
</linearGradient>
<linearGradient id="paint18_linear" x1="91.3241" y1="55.5173" x2="92.9513" y2="54.5114" gradientUnits="userSpaceOnUse">
<stop stop-color="#3CA3BA"/>
<stop offset="1" stop-color="#0F0F4F"/>
</linearGradient>
<linearGradient id="paint19_linear" x1="21.0289" y1="271.434" x2="20.7667" y2="292.945" gradientUnits="userSpaceOnUse">
<stop stop-color="#2D1B84"/>
<stop offset="1" stop-color="#190F4A"/>
</linearGradient>
<linearGradient id="paint20_linear" x1="9.51597" y1="281.261" x2="18.4647" y2="281.261" gradientUnits="userSpaceOnUse">
<stop stop-color="#FBD860"/>
<stop offset="1" stop-color="#F79D53"/>
</linearGradient>
<linearGradient id="paint21_linear" x1="42.0936" y1="278.931" x2="39.3527" y2="300.267" gradientUnits="userSpaceOnUse">
<stop stop-color="#2D1B84"/>
<stop offset="1" stop-color="#190F4A"/>
</linearGradient>
<linearGradient id="paint22_linear" x1="28.404" y1="288.599" x2="37.3521" y2="288.599" gradientUnits="userSpaceOnUse">
<stop stop-color="#FBD860"/>
<stop offset="1" stop-color="#F79D53"/>
</linearGradient>
<linearGradient id="paint23_linear" x1="-28.0996" y1="293.394" x2="42.7924" y2="154.204" gradientUnits="userSpaceOnUse">
<stop stop-color="#B514BE"/>
<stop offset="1" stop-color="#651879"/>
</linearGradient>
<linearGradient id="paint24_linear" x1="-29.4206" y1="327.865" x2="44.7315" y2="186.557" gradientUnits="userSpaceOnUse">
<stop stop-color="#B514BE"/>
<stop offset="1" stop-color="#651879"/>
</linearGradient>
<linearGradient id="paint25_linear" x1="-21.599" y1="77.7894" x2="25.9608" y2="113.541" gradientUnits="userSpaceOnUse">
<stop stop-color="#FDEF67"/>
<stop offset="0.538" stop-color="#F8AE52"/>
<stop offset="1" stop-color="#F67554"/>
</linearGradient>
<linearGradient id="paint26_linear" x1="36.7888" y1="142.967" x2="-38.3223" y2="75.072" gradientUnits="userSpaceOnUse">
<stop offset="0.00362319" stop-color="#48CAFF"/>
<stop offset="1" stop-color="#C3F3FF"/>
</linearGradient>
<linearGradient id="paint27_linear" x1="16.0767" y1="94.5152" x2="64.8699" y2="25.7847" gradientUnits="userSpaceOnUse">
<stop stop-color="#FBD860"/>
<stop offset="1" stop-color="#F79D53"/>
</linearGradient>
<linearGradient id="paint28_linear" x1="37.2111" y1="98.1174" x2="32.7197" y2="13.9484" gradientUnits="userSpaceOnUse">
<stop stop-color="#FBD860"/>
<stop offset="1" stop-color="#F79D53"/>
</linearGradient>
<linearGradient id="paint29_linear" x1="16.8839" y1="60.665" x2="46.4604" y2="37.2008" gradientUnits="userSpaceOnUse">
<stop offset="0.00540541" stop-color="#860048"/>
<stop offset="1" stop-color="#370041"/>
</linearGradient>
<linearGradient id="paint30_linear" x1="106.825" y1="79.9746" x2="70.3425" y2="79.9746" gradientUnits="userSpaceOnUse">
<stop stop-color="#FBD860"/>
<stop offset="1" stop-color="#F79D53"/>
</linearGradient>
<linearGradient id="paint31_linear" x1="96.2606" y1="141.388" x2="21.1491" y2="73.4919" gradientUnits="userSpaceOnUse">
<stop offset="0.00362319" stop-color="#48CAFF"/>
<stop offset="1" stop-color="#C3F3FF"/>
</linearGradient>
</defs>
</svg>
