<svg width="119" height="300" viewBox="0 0 119 300" fill="none" xmlns="http://www.w3.org/2000/svg">
<path d="M110.626 97.0121C110.626 97.0121 97.7244 126.783 89.7869 122.813C81.8493 118.843 75.894 86.0955 75.894 86.0955C75.894 86.0955 100.704 80.143 110.626 97.0121Z" fill="url(#paint0_linear)"/>
<path d="M65.7073 281.761C65.7073 281.761 64.6281 287.866 64.0999 293.91C63.8926 296.273 65.7129 298.323 68.0843 298.422C76.1326 298.758 93.3482 299.411 99.5279 299.132C100.457 299.09 101.064 298.141 100.721 297.275C100.434 296.551 99.8772 295.966 99.1701 295.642L70.7311 282.573L65.7073 281.761Z" fill="url(#paint1_linear)"/>
<path d="M64.8241 278.174L65.6903 285.478C65.6903 285.478 70.6715 287.798 74.0737 285.186L72.0119 277.046L64.8241 278.174Z" fill="url(#paint2_linear)"/>
<path d="M65.4773 140.872C65.1024 142.78 63.4694 236.044 73.4376 277.839C73.5994 278.52 73.2558 279.225 72.6055 279.489C71.0776 280.113 68.0786 281.019 64.4861 281.139C63.3729 281.176 62.3761 280.454 62.0637 279.386C59.2152 269.688 45.558 221.106 43.7774 174.693C41.7866 122.833 43.7774 172.926 43.7774 172.926L44.9446 140.869L65.4773 140.872Z" fill="url(#paint3_linear)"/>
<path d="M32.9941 284.947C32.9941 284.947 31.2759 288.028 29.6146 296.219C29.3136 297.698 30.3473 299.112 31.8496 299.26C34.5078 299.521 38.5973 299.857 41.8774 299.834C43.3882 299.822 44.5668 298.508 44.385 297.008C44.0215 294.018 42.8912 289.113 39.3981 285.291L32.9941 284.947Z" fill="url(#paint4_linear)"/>
<path d="M31.4861 275.552L33.5109 286.597C33.5109 286.597 35.5131 288.085 39.4719 287.006L38.5064 275.124L31.4861 275.552Z" fill="url(#paint5_linear)"/>
<path d="M26.0165 143.735C17.863 192.942 27.7857 265.354 31.1312 279.528C31.3356 280.397 32.0371 281.062 32.9146 281.207C34.4084 281.454 36.8678 281.656 39.2931 280.951C40.128 280.71 40.7159 279.954 40.75 279.085C41.1987 267.626 40.3922 197.284 47.9889 169.484C48.3752 168.076 49.2357 166.846 50.4256 166L65.1705 155.517L66.3008 138.572L26.0165 143.735Z" fill="url(#paint6_linear)"/>
<path d="M78.8703 52.3544C49.0994 49.3782 26.576 56.9125 26.576 56.9125C19.2916 99.4119 25.3037 148.432 25.3037 148.432C44.2204 153.393 65.5596 145.399 65.5596 145.399C68.7034 127.635 83.3716 77.6439 83.3716 77.6439C95.3107 76.1615 86.3706 53.107 78.8703 52.3544Z" fill="url(#paint7_linear)"/>
<path d="M35.9478 80.5719L26.576 56.9125C26.576 56.9125 3.75154 72.4213 -3.8147e-06 92.0821C4.311 92.4002 12.1606 93.5219 19.8397 97.3984C21.5295 88.1147 35.9478 80.5719 35.9478 80.5719Z" fill="url(#paint8_linear)"/>
<path d="M57.8775 102.837C57.8775 102.837 32.2529 117.318 23.6053 104.953C21.8105 102.385 21.3817 99.8323 21.8247 97.4013C14.1427 93.522 6.296 92.4002 1.985 92.085C0.854706 98.0119 1.45109 104.317 4.93567 110.689C20.081 138.396 61.2712 109.159 61.2712 109.159L57.8775 102.837Z" fill="url(#paint9_linear)"/>
<path d="M54.7991 121.157L68.7829 72.3191C68.9419 71.7653 69.4133 71.3592 69.987 71.2938C72.5202 70.9985 79.8643 70.1692 88.3414 69.4507C98.5538 68.5874 110.41 67.8859 117.496 68.4823C118.504 68.5675 119.112 69.6325 118.663 70.5384C114.633 78.6918 98.0596 111.851 89.7586 122.716C89.4831 123.077 89.0571 123.287 88.6055 123.281L56.1566 122.98C55.2166 122.972 54.5407 122.066 54.7991 121.157Z" fill="url(#paint10_linear)"/>
<path d="M89.7925 65.2165L99.9311 63.5267C100.471 63.4358 100.914 63.9527 100.74 64.4724L99.738 67.514C99.6499 67.7781 99.4199 67.9712 99.1444 68.0081L89.3864 69.3116C88.8809 69.3798 88.4663 68.9197 88.5827 68.4256L89.2047 65.7702C89.27 65.4806 89.5029 65.2647 89.7925 65.2165Z" fill="url(#paint11_linear)"/>
<path d="M82.2015 73.7987L83.0364 69.4479C83.1216 69.0105 83.4794 68.6811 83.9224 68.6357L104.401 66.5568C105.091 66.4858 105.642 67.1192 105.48 67.7922L104.18 73.2136C104.075 73.6481 103.697 73.9605 103.251 73.9832L83.238 74.9914C82.5877 75.0255 82.0793 74.4405 82.2015 73.7987Z" fill="url(#paint12_linear)"/>
<path d="M58.1786 109.357C58.1786 109.357 56.2304 101.346 57.0171 98.506C57.8038 95.6632 59.326 92.0111 64.4009 92.8205C69.4758 93.6327 75.4624 95.7712 75.4624 95.7712C75.4624 95.7712 75.1614 99.4744 71.3019 98.2788L73.6931 100.13C73.6931 100.13 73.3523 103.095 70.0921 101.511L72.3158 103.964C72.3158 103.964 70.9157 106.398 68.5188 104.836C66.1247 103.274 64.9774 110.323 58.1786 109.357Z" fill="url(#paint13_linear)"/>
<path d="M110.178 97.4383C110.178 97.4383 116.085 91.6874 116.928 88.8617C117.772 86.036 118.422 82.1311 113.691 80.1232C108.959 78.1154 102.751 76.7466 102.751 76.7466C102.751 76.7466 101.042 80.0437 104.944 81.0803L101.933 81.3785C101.933 81.3785 100.65 84.0707 104.251 84.4598L101.061 85.3572C101.061 85.3572 100.954 88.1631 103.813 88.1148C106.676 88.0637 103.904 94.6466 110.178 97.4383Z" fill="url(#paint14_linear)"/>
<path d="M56.1992 32.509L48.4235 54.9927C48.2957 55.3647 48.4491 55.7765 48.7927 55.9696C50.9113 57.1425 58.5478 60.5277 67.7492 54.6945C68.7091 54.0868 69.3594 53.0956 69.5071 51.971L72.0261 32.5119H56.1992V32.509Z" fill="url(#paint15_linear)"/>
<path d="M73.1166 11.6866C73.1166 11.6866 81.6534 27.7578 80.56 34.2498C79.4666 40.7419 68.8851 40.2762 59.644 35.0024L53.1888 17.6505L73.1166 11.6866Z" fill="url(#paint16_linear)"/>
<path d="M60.0529 26.4799C60.4278 26.3123 60.567 25.8551 60.3426 25.5114C59.6582 24.4664 58.3774 22.3336 57.9684 20.4677C57.9684 20.4677 56.4349 19.4851 61.8762 18.1816C67.3175 16.8781 75.4311 14.8589 77.1379 10.227C78.8021 5.7115 74.4315 -5.64536 67.4623 3.40264C67.1982 3.74627 66.6785 3.75479 66.4115 3.41116C65.2699 1.92304 62.2652 -1.16396 58.0934 0.707549C54.1913 2.45978 53.7512 5.31959 53.8051 6.75943C53.8221 7.18258 53.4416 7.51201 53.0241 7.43249C51.0504 7.05478 46.3162 6.73387 44.1039 11.5901C42.2835 15.5916 43.4678 17.8579 44.5441 18.9654C44.8934 19.3233 44.7401 19.9168 44.263 20.0616C42.9651 20.4592 41.2924 21.5583 41.46 24.597C41.6928 28.7972 46.3872 28.428 47.7248 28.2349C47.9435 28.2037 48.165 28.2775 48.3127 28.4422C49.46 29.7117 54.6258 35.099 60.2148 35.7465C60.6976 35.8033 61.0753 35.3234 60.9163 34.8633L58.4967 27.8288C58.3831 27.5022 58.5421 27.1444 58.8573 27.0052L60.0529 26.4799Z" fill="url(#paint17_linear)"/>
<path d="M61.0241 27.4795C61.0241 27.4795 54.9467 23.3077 54.5008 26.8207C54.0578 30.3336 59.9733 31.907 62.907 30.5978L61.0241 27.4795Z" fill="url(#paint18_linear)"/>
<defs>
<linearGradient id="paint0_linear" x1="75.8931" y1="104.128" x2="110.627" y2="104.128" gradientUnits="userSpaceOnUse">
<stop stop-color="#F9B776"/>
<stop offset="1" stop-color="#F47960"/>
</linearGradient>
<linearGradient id="paint1_linear" x1="81.8389" y1="228.66" x2="82.5815" y2="310.346" gradientUnits="userSpaceOnUse">
<stop stop-color="#CB236D"/>
<stop offset="1" stop-color="#4C246D"/>
</linearGradient>
<linearGradient id="paint2_linear" x1="64.8252" y1="281.736" x2="74.0755" y2="281.736" gradientUnits="userSpaceOnUse">
<stop stop-color="#F9B776"/>
<stop offset="1" stop-color="#F47960"/>
</linearGradient>
<linearGradient id="paint3_linear" x1="54.3733" y1="316.933" x2="60.6867" y2="147.527" gradientUnits="userSpaceOnUse">
<stop stop-color="#2B3582"/>
<stop offset="1" stop-color="#150E42"/>
</linearGradient>
<linearGradient id="paint4_linear" x1="36.3665" y1="229.074" x2="37.1092" y2="310.76" gradientUnits="userSpaceOnUse">
<stop stop-color="#CB236D"/>
<stop offset="1" stop-color="#4C246D"/>
</linearGradient>
<linearGradient id="paint5_linear" x1="31.4871" y1="281.262" x2="39.4738" y2="281.262" gradientUnits="userSpaceOnUse">
<stop stop-color="#F9B776"/>
<stop offset="1" stop-color="#F47960"/>
</linearGradient>
<linearGradient id="paint6_linear" x1="38.7592" y1="316.351" x2="45.0726" y2="146.945" gradientUnits="userSpaceOnUse">
<stop stop-color="#2B3582"/>
<stop offset="1" stop-color="#150E42"/>
</linearGradient>
<linearGradient id="paint7_linear" x1="59.3184" y1="66.2964" x2="11.2624" y2="192.721" gradientUnits="userSpaceOnUse">
<stop stop-color="#8D55D1"/>
<stop offset="0.9964" stop-color="#1C2873"/>
</linearGradient>
<linearGradient id="paint8_linear" x1="29.6136" y1="55.005" x2="-18.4424" y2="181.429" gradientUnits="userSpaceOnUse">
<stop stop-color="#8D55D1"/>
<stop offset="0.9964" stop-color="#1C2873"/>
</linearGradient>
<linearGradient id="paint9_linear" x1="1.46447" y1="107.348" x2="61.2697" y2="107.348" gradientUnits="userSpaceOnUse">
<stop stop-color="#F9B776"/>
<stop offset="1" stop-color="#F47960"/>
</linearGradient>
<linearGradient id="paint10_linear" x1="66.5497" y1="48.2674" x2="92.7322" y2="109.696" gradientUnits="userSpaceOnUse">
<stop stop-color="#2B3582"/>
<stop offset="1" stop-color="#150E42"/>
</linearGradient>
<linearGradient id="paint11_linear" x1="99.952" y1="43.2299" x2="92.9484" y2="73.9849" gradientUnits="userSpaceOnUse">
<stop stop-color="#2B3582"/>
<stop offset="1" stop-color="#150E42"/>
</linearGradient>
<linearGradient id="paint12_linear" x1="96.2867" y1="56.1308" x2="92.9372" y2="76.2279" gradientUnits="userSpaceOnUse">
<stop stop-color="#2B3582"/>
<stop offset="1" stop-color="#150E42"/>
</linearGradient>
<linearGradient id="paint13_linear" x1="56.8295" y1="101.077" x2="75.4614" y2="101.077" gradientUnits="userSpaceOnUse">
<stop stop-color="#F9B776"/>
<stop offset="1" stop-color="#F47960"/>
</linearGradient>
<linearGradient id="paint14_linear" x1="115.718" y1="91.1404" x2="99.9327" y2="81.2427" gradientUnits="userSpaceOnUse">
<stop stop-color="#F9B776"/>
<stop offset="1" stop-color="#F47960"/>
</linearGradient>
<linearGradient id="paint15_linear" x1="48.3791" y1="45.2602" x2="72.0242" y2="45.2602" gradientUnits="userSpaceOnUse">
<stop stop-color="#F9B776"/>
<stop offset="1" stop-color="#F47960"/>
</linearGradient>
<linearGradient id="paint16_linear" x1="77.6479" y1="30.2174" x2="51.6501" y2="14.3608" gradientUnits="userSpaceOnUse">
<stop stop-color="#F9B776"/>
<stop offset="1" stop-color="#F47960"/>
</linearGradient>
<linearGradient id="paint17_linear" x1="37.8884" y1="-2.35374" x2="71.4746" y2="24.1736" gradientUnits="userSpaceOnUse">
<stop stop-color="#2B3582"/>
<stop offset="1" stop-color="#150E42"/>
</linearGradient>
<linearGradient id="paint18_linear" x1="70.8191" y1="36.131" x2="47.4287" y2="21.8645" gradientUnits="userSpaceOnUse">
<stop stop-color="#F9B776"/>
<stop offset="1" stop-color="#F47960"/>
</linearGradient>
</defs>
</svg>
