<svg width="101" height="275" viewBox="0 0 101 275" fill="none" xmlns="http://www.w3.org/2000/svg">
<path d="M33.8181 238.337C33.8181 238.337 31.8832 240.108 31.2382 242.367C30.5933 244.623 29.9483 246.879 32.5281 247.363C35.108 247.848 37.5246 249.943 39.1357 252.199C40.7468 254.455 44.5665 255.148 48.6442 255.261C51.9507 255.353 52.0296 253.005 51.7058 251.876C51.3847 250.746 47.8387 247.845 45.2589 245.752C42.679 243.657 39.2963 238.339 39.2963 238.339H33.8181V238.337Z" fill="url(#paint0_linear)"/>
<path d="M10.2336 256.448L8.52513 260.615C7.95388 262.011 7.80908 263.54 8.10919 265.017C8.59357 267.412 9.41227 271.016 10.2336 272.564C11.5209 274.981 16.6779 275.434 18.6102 274.644C20.5451 273.854 19.7132 269.068 18.6102 264.022C18.1021 261.697 16.1936 256.446 16.1936 256.446H10.2336V256.448Z" fill="url(#paint1_linear)"/>
<path d="M10.2704 257.441L9.49909 247.995H16.8253L15.796 257.97C15.7986 257.97 12.5844 260.126 10.2704 257.441Z" fill="url(#paint2_linear)"/>
<path d="M33.7917 240.103L32.8914 228.149L41.2469 228.92L39.32 240.103C39.32 240.103 38.2907 241.517 33.7917 240.103Z" fill="url(#paint3_linear)"/>
<path d="M52.0007 120.354C52.0007 120.354 51.3768 198.947 41.5155 232.403C41.5155 232.403 38.7356 234.454 32.1202 231.237C32.1202 231.237 27.6634 165.256 25.6074 157.717C23.5514 150.177 24.4754 127.627 24.4754 127.627L52.0007 120.354Z" fill="url(#paint4_linear)"/>
<path d="M39.1463 73.4743C42.4421 76.0462 59.5981 87.3922 60.7274 87.8424C66.0609 89.9695 83.1826 96.5165 88.3686 95.0765C94.5391 93.3627 85.6255 105.701 85.6255 106.731C85.6255 107.523 67.1454 102.416 58.6583 100.028C55.6915 99.1937 38.0827 92.3071 38.3881 89.2403C38.625 86.8921 37.2746 72.0132 39.1463 73.4743Z" fill="url(#paint5_linear)"/>
<path d="M7.10883 131.236C7.10883 131.236 5.12919 202.445 4.61586 208.871C4.10252 215.297 8.73308 248.893 8.73308 248.893C8.73308 248.893 12.8398 251.852 17.4677 249.23C17.4677 249.23 26.4787 196.999 28.1424 186.226C29.8062 175.452 38.1354 127.896 38.1354 127.896L7.10883 131.236Z" fill="url(#paint6_linear)"/>
<path d="M13.9559 48.7182C13.9559 48.7182 38.5144 38.8701 42.063 40.1495C51.5794 43.5822 52.3455 64.8291 55.773 87.4501C59.2005 110.071 56.4838 122.757 46.862 127.896C37.2403 133.032 20.4687 134.408 18.7549 144.691C17.0412 154.973 2.30184 150.174 1.27517 144.691C0.245865 139.205 -4.38206 56.2577 13.9559 48.7182Z" fill="url(#paint7_linear)"/>
<path d="M24.2701 32.2653L21.3559 46.0069L15.8013 48.0734C15.8013 48.0734 19.342 54.9126 28.8164 54.8994C38.2907 54.8863 41.218 48.3471 37.5247 41.1578L32.2333 40.0337L32.5282 32.2653H24.2701Z" fill="url(#paint8_linear)"/>
<path d="M20.7267 99.778C18.6155 100.652 15.6249 102.555 15.0405 106.441C14.5667 109.581 17.1465 112.375 20.3239 112.369C26.7972 112.361 38.2433 112.54 41.1101 113.841C45.1668 115.681 49.4472 121.341 52.0033 120.354C54.5595 119.364 55.3677 117.247 55.3677 117.247C55.3677 117.247 57.829 116.155 60.9986 117.869C64.1681 119.582 63.6284 116.526 61.7699 115.212C59.9113 113.899 52.0481 110.795 48.5127 109.792C45.5669 108.955 29.7483 102.11 24.5359 99.8412C23.3197 99.3121 21.9508 99.27 20.7267 99.778Z" fill="url(#paint9_linear)"/>
<path d="M80.8107 114.438C81.274 114.104 81.6531 113.667 81.9242 113.164L100.539 78.4549L99.167 77.0834L67.4745 100.357C66.7927 100.857 66.2451 101.523 65.8845 102.289L51.898 129.488C51.3979 130.462 51.49 131.636 52.1428 132.521L52.8299 133.453C53.467 133.779 54.2331 133.719 54.8096 133.3L80.8107 114.438Z" fill="url(#paint10_linear)"/>
<path d="M84.6015 108.171C84.6015 108.171 87.5789 106.731 90.5457 103.988C93.5125 101.244 95.5263 95.195 95.0525 93.1917C94.5813 91.1857 89.9112 87.7319 89.0531 92.3467C88.1975 96.9614 87.2788 103.177 84.6015 108.171Z" fill="url(#paint11_linear)"/>
<path d="M21.3558 97.817C20.9768 97.817 20.6451 97.5379 20.5924 97.1509C18.7681 83.8253 12.9319 64.0447 12.8739 63.8473C12.7529 63.4393 12.9845 63.0102 13.3952 62.8891C13.8085 62.7653 14.2323 63.0023 14.3534 63.4103C14.414 63.6104 20.2791 83.5015 22.1219 96.943C22.1798 97.3642 21.885 97.7538 21.4611 97.8117C21.4243 97.8143 21.3901 97.817 21.3558 97.817Z" fill="url(#paint12_linear)"/>
<path d="M13.6111 112.556C13.4953 112.556 13.3768 112.53 13.2689 112.475C8.63569 110.158 4.30788 94.4078 3.8314 92.6177C3.72083 92.207 3.96566 91.7832 4.37896 91.6726C4.7949 91.5647 5.21345 91.8069 5.32402 92.2176C6.57445 96.8902 10.5627 109.392 13.9612 111.093C14.3429 111.282 14.4982 111.745 14.3061 112.127C14.1666 112.401 13.8954 112.556 13.6111 112.556Z" fill="url(#paint13_linear)"/>
<path d="M2.64416 88.1345C2.64416 88.1345 -3.6396 56.2367 11.6078 50.1898L2.64416 88.1345Z" fill="url(#paint14_linear)"/>
<path d="M40.2571 17.826C40.2571 17.826 42.6553 31.8782 40.2571 38.0488C37.8589 44.2193 33.7443 41.4763 29.6324 40.1048C25.5204 38.7332 18.3206 28.2796 18.3206 28.2796C18.3206 28.2796 26.376 2.57332 40.2571 17.826Z" fill="url(#paint15_linear)"/>
<path d="M41.1943 11.358C40.9231 12.0214 41.1837 12.7795 41.805 13.1375L42.0261 13.7088C42.5184 14.9776 42.2789 16.4176 41.3996 17.4574L40.7231 18.2551C40.7231 18.2551 34.6552 18.2551 32.8782 20.8955C30.9986 23.6886 28.8742 26.4843 25.7389 27.711C23.4855 28.5903 23.0064 31.1385 23.6619 34.6239C24.4016 38.5648 21.5743 36.5088 20.8899 35.2241C20.2054 33.9395 15.9197 26.6554 14.3771 25.3707C13.69 24.7968 12.6791 24.6073 11.7709 24.5704C10.7837 24.531 10.1335 23.5359 10.4994 22.6171L11.2076 20.8297L7.7432 19.1422C5.39765 17.9997 5.61351 14.588 8.08542 13.7509L10.6337 12.8874C11.2707 12.6716 11.6709 12.0424 11.5972 11.3738L11.3234 8.91238C11.047 6.41415 13.59 4.5635 15.8802 5.59281L16.3041 5.78235C17.2518 6.20881 18.3232 5.51647 18.3232 4.47663C18.3232 3.38941 19.4867 2.6997 20.4423 3.22093L21.1031 3.58422C21.9666 4.05543 23.0353 3.53683 23.2012 2.56808L23.4171 1.30448C23.6645 -0.14339 25.6705 -0.325031 26.1733 1.05439L26.3444 1.52034C26.7472 2.62862 28.2424 2.79974 28.8874 1.81255L29.2217 1.29922C29.9851 0.13039 31.8015 0.635828 31.8489 2.03368L31.8595 2.32589C31.899 3.44469 33.152 4.08966 34.0839 3.46576L35.1316 2.76814C36.2083 2.04947 37.6088 3.0156 37.3219 4.27656L37.2113 4.76357C36.9507 5.91134 38.109 6.86693 39.1857 6.39045L40.8705 5.64283C42.0472 5.12159 43.2634 6.29832 42.7764 7.49083L41.1943 11.358Z" fill="url(#paint16_linear)"/>
<defs>
<linearGradient id="paint0_linear" x1="30.6628" y1="246.798" x2="51.8326" y2="246.798" gradientUnits="userSpaceOnUse">
<stop stop-color="#2D1B84"/>
<stop offset="1" stop-color="#190F4A"/>
</linearGradient>
<linearGradient id="paint1_linear" x1="7.95772" y1="265.725" x2="19.7714" y2="265.725" gradientUnits="userSpaceOnUse">
<stop stop-color="#2D1B84"/>
<stop offset="1" stop-color="#190F4A"/>
</linearGradient>
<linearGradient id="paint2_linear" x1="9.49985" y1="253.393" x2="16.8262" y2="253.393" gradientUnits="userSpaceOnUse">
<stop offset="0.3134" stop-color="#E8874E"/>
<stop offset="1" stop-color="#B10043"/>
</linearGradient>
<linearGradient id="paint3_linear" x1="32.893" y1="234.441" x2="41.2477" y2="234.441" gradientUnits="userSpaceOnUse">
<stop offset="0.3134" stop-color="#E8874E"/>
<stop offset="1" stop-color="#B10043"/>
</linearGradient>
<linearGradient id="paint4_linear" x1="64.4229" y1="168.007" x2="12.7523" y2="187.801" gradientUnits="userSpaceOnUse">
<stop stop-color="#49DCCC"/>
<stop offset="0.9964" stop-color="#3CA3BA"/>
</linearGradient>
<linearGradient id="paint5_linear" x1="77.3255" y1="47.1196" x2="49.5623" y2="129.895" gradientUnits="userSpaceOnUse">
<stop offset="0.3134" stop-color="#E8874E"/>
<stop offset="1" stop-color="#B10043"/>
</linearGradient>
<linearGradient id="paint6_linear" x1="36.7576" y1="189.686" x2="-16.9694" y2="186.859" gradientUnits="userSpaceOnUse">
<stop stop-color="#49DCCC"/>
<stop offset="0.9964" stop-color="#3CA3BA"/>
</linearGradient>
<linearGradient id="paint7_linear" x1="65.9251" y1="65.2358" x2="-19.4213" y2="121.791" gradientUnits="userSpaceOnUse">
<stop stop-color="#FDEF67"/>
<stop offset="0.538" stop-color="#F8AE52"/>
<stop offset="1" stop-color="#F67554"/>
</linearGradient>
<linearGradient id="paint8_linear" x1="22.7445" y1="73.8144" x2="29.2569" y2="37.8251" gradientUnits="userSpaceOnUse">
<stop offset="0.3134" stop-color="#E8874E"/>
<stop offset="1" stop-color="#B10043"/>
</linearGradient>
<linearGradient id="paint9_linear" x1="56.9909" y1="82.404" x2="35.3971" y2="117.708" gradientUnits="userSpaceOnUse">
<stop offset="0.3134" stop-color="#E8874E"/>
<stop offset="1" stop-color="#B10043"/>
</linearGradient>
<linearGradient id="paint10_linear" x1="100.537" y1="105.37" x2="51.5778" y2="105.37" gradientUnits="userSpaceOnUse">
<stop stop-color="#2D1B84"/>
<stop offset="1" stop-color="#190F4A"/>
</linearGradient>
<linearGradient id="paint11_linear" x1="95.1211" y1="99.113" x2="84.6014" y2="99.113" gradientUnits="userSpaceOnUse">
<stop offset="0.3134" stop-color="#E8874E"/>
<stop offset="1" stop-color="#B10043"/>
</linearGradient>
<linearGradient id="paint12_linear" x1="13.9183" y1="70.7584" x2="36.0261" y2="130.141" gradientUnits="userSpaceOnUse">
<stop stop-color="#FDEF67"/>
<stop offset="0.538" stop-color="#F8AE52"/>
<stop offset="1" stop-color="#F67554"/>
</linearGradient>
<linearGradient id="paint13_linear" x1="-0.770668" y1="76.227" x2="21.3371" y2="135.609" gradientUnits="userSpaceOnUse">
<stop stop-color="#FDEF67"/>
<stop offset="0.538" stop-color="#F8AE52"/>
<stop offset="1" stop-color="#F67554"/>
</linearGradient>
<linearGradient id="paint14_linear" x1="49.7192" y1="40.7795" x2="-35.6271" y2="97.3344" gradientUnits="userSpaceOnUse">
<stop stop-color="#FDEF67"/>
<stop offset="0.538" stop-color="#F8AE52"/>
<stop offset="1" stop-color="#F67554"/>
</linearGradient>
<linearGradient id="paint15_linear" x1="47.9392" y1="44.6534" x2="28.0593" y2="22.0315" gradientUnits="userSpaceOnUse">
<stop offset="0.3134" stop-color="#E8874E"/>
<stop offset="1" stop-color="#B10043"/>
</linearGradient>
<linearGradient id="paint16_linear" x1="6.10076" y1="18.5131" x2="42.8825" y2="18.5131" gradientUnits="userSpaceOnUse">
<stop offset="0.00540541" stop-color="#860048"/>
<stop offset="1" stop-color="#370041"/>
</linearGradient>
</defs>
</svg>
