<svg width="428" height="428" viewBox="0 0 428 428" fill="none" xmlns="http://www.w3.org/2000/svg">
<path d="M225.61 14.042C225.61 21.3867 219.657 27.3404 212.312 27.3404C204.967 27.3404 199.014 21.3867 199.014 14.042C199.014 6.69731 204.967 0.743652 212.312 0.743652C219.657 0.743652 225.61 6.69731 225.61 14.042Z" fill="url(#paint0_radial)"/>
<path d="M414.004 224.156C406.659 224.156 400.705 218.202 400.705 210.858C400.705 203.513 406.659 197.559 414.004 197.559C421.348 197.559 427.302 203.513 427.302 210.858C427.302 218.202 421.348 224.156 414.004 224.156Z" fill="url(#paint1_radial)"/>
<path d="M404.735 275.511C397.639 273.617 393.422 266.33 395.316 259.233C397.21 252.137 404.498 247.92 411.594 249.814C418.69 251.709 422.907 258.996 421.013 266.093C419.119 273.189 411.831 277.406 404.735 275.511Z" fill="url(#paint2_radial)"/>
<path d="M384.849 323.127C377.752 321.232 373.535 313.945 375.43 306.849C377.324 299.752 384.611 295.535 391.708 297.43C398.804 299.324 403.021 306.611 401.127 313.708C399.232 320.804 391.945 325.021 384.849 323.127Z" fill="url(#paint3_radial)"/>
<path d="M348.553 362.664C343.359 357.47 343.359 349.05 348.553 343.857C353.746 338.664 362.166 338.664 367.36 343.857C372.553 349.05 372.553 357.47 367.36 362.664C362.166 367.857 353.746 367.857 348.553 362.664Z" fill="url(#paint4_radial)"/>
<path d="M305.729 392.401C302.04 386.05 304.198 377.911 310.549 374.222C316.9 370.533 325.039 372.691 328.728 379.042C332.417 385.393 330.259 393.532 323.908 397.221C317.557 400.91 309.418 398.752 305.729 392.401Z" fill="url(#paint5_radial)"/>
<path d="M256.535 410.072C254.614 402.983 258.803 395.679 265.892 393.758C272.981 391.837 280.285 396.026 282.206 403.115C284.127 410.204 279.938 417.508 272.849 419.429C265.76 421.35 258.456 417.161 256.535 410.072Z" fill="url(#paint6_radial)"/>
<path d="M203.547 414.283C203.575 406.939 209.552 401.008 216.897 401.036C224.241 401.065 230.172 407.041 230.143 414.386C230.115 421.731 224.139 427.661 216.794 427.633C209.449 427.605 203.519 421.628 203.547 414.283Z" fill="url(#paint7_radial)"/>
<path d="M152.194 404.804C154.115 397.715 161.419 393.526 168.508 395.447C175.597 397.368 179.786 404.672 177.865 411.761C175.944 418.85 168.64 423.039 161.551 421.118C154.462 419.197 150.273 411.893 152.194 404.804Z" fill="url(#paint8_radial)"/>
<path d="M105.081 382.317C108.77 375.966 116.909 373.808 123.26 377.497C129.611 381.186 131.769 389.324 128.08 395.676C124.391 402.027 116.252 404.184 109.901 400.495C103.55 396.806 101.392 388.668 105.081 382.317Z" fill="url(#paint9_radial)"/>
<path d="M65.3111 348.305C70.5234 343.131 78.9431 343.161 84.1177 348.374C89.2923 353.586 89.2617 362.006 84.0493 367.18C78.837 372.355 70.4173 372.324 65.2427 367.112C60.0682 361.9 60.0988 353.48 65.3111 348.305Z" fill="url(#paint10_radial)"/>
<path d="M35.7929 305.464C42.1575 301.799 50.288 303.986 53.9536 310.351C57.6192 316.716 55.4313 324.846 49.0667 328.512C42.7021 332.177 34.5716 329.989 30.906 323.625C27.2404 317.26 29.4283 309.13 35.7929 305.464Z" fill="url(#paint11_radial)"/>
<path d="M18.3613 256.502C25.4576 254.608 32.7453 258.825 34.6394 265.921C36.5336 273.017 32.3168 280.305 25.2205 282.199C18.1243 284.093 10.8366 279.877 8.94242 272.78C7.04825 265.684 11.2651 258.396 18.3613 256.502Z" fill="url(#paint12_radial)"/>
<path d="M14.2478 203.081C21.5923 203.138 27.4998 209.138 27.4431 216.482C27.3864 223.827 21.387 229.734 14.0425 229.677C6.69799 229.621 0.790471 223.621 0.847174 216.277C0.903877 208.932 6.90332 203.025 14.2478 203.081Z" fill="url(#paint13_radial)"/>
<path d="M23.8891 151.904C30.9708 153.852 35.1322 161.172 33.1843 168.253C31.2363 175.335 23.9169 179.497 16.8352 177.549C9.75351 175.601 5.59208 168.281 7.54003 161.2C9.48798 154.118 16.8074 149.956 23.8891 151.904Z" fill="url(#paint14_radial)"/>
<path d="M46.3028 105.246C52.6402 108.958 54.7681 117.105 51.0557 123.442C47.3433 129.78 39.1969 131.907 32.8595 128.195C26.522 124.483 24.3942 116.336 28.1065 109.999C31.8189 103.661 39.9653 101.534 46.3028 105.246Z" fill="url(#paint15_radial)"/>
<path d="M80.654 65.2142C85.8096 70.4453 85.7484 78.8649 80.5173 84.0205C75.2863 89.1761 66.8667 89.1149 61.7111 83.8838C56.5555 78.6527 56.6167 70.2332 61.8478 65.0776C67.0789 59.922 75.4984 59.9832 80.654 65.2142Z" fill="url(#paint16_radial)"/>
<path d="M123.256 36.0196C126.898 42.3976 124.68 50.52 118.302 54.1621C111.924 57.8043 103.801 55.5865 100.159 49.2084C96.5171 42.8303 98.7349 34.7079 105.113 31.0658C111.491 27.4237 119.613 29.6415 123.256 36.0196Z" fill="url(#paint17_radial)"/>
<path d="M173.309 18.4096C175.149 25.52 170.877 32.7755 163.767 34.6157C156.656 36.456 149.401 32.1839 147.561 25.0735C145.72 17.9631 149.992 10.7076 157.103 8.86737C164.213 7.02714 171.469 11.2992 173.309 18.4096Z" fill="url(#paint18_radial)"/>
<path d="M277.194 24.4145C275.22 31.4888 267.884 35.6224 260.81 33.6476C253.736 31.6729 249.602 24.3377 251.577 17.2634C253.552 10.1892 260.887 6.05554 267.961 8.03033C275.035 10.0051 279.169 17.3403 277.194 24.4145Z" fill="url(#paint19_radial)"/>
<path d="M323.698 46.9289C319.962 53.2526 311.808 55.3505 305.484 51.6148C299.161 47.8791 297.063 39.7249 300.798 33.4012C304.534 27.0775 312.688 24.9796 319.012 28.7153C325.336 32.451 327.434 40.6052 323.698 46.9289Z" fill="url(#paint20_radial)"/>
<path d="M363.739 81.4953C358.489 86.6318 350.07 86.5401 344.933 81.2903C339.796 76.0405 339.888 67.6212 345.138 62.4847C350.388 57.3481 358.807 57.4399 363.944 62.6897C369.08 67.9394 368.988 76.3587 363.739 81.4953Z" fill="url(#paint21_radial)"/>
<path d="M392.862 124.335C386.47 127.954 378.356 125.706 374.737 119.315C371.119 112.923 373.366 104.809 379.758 101.19C386.149 97.5718 394.264 99.8195 397.882 106.211C401.501 112.602 399.253 120.717 392.862 124.335Z" fill="url(#paint22_radial)"/>
<path d="M410.23 174.364C403.113 176.178 395.874 171.878 394.06 164.761C392.247 157.643 396.547 150.404 403.664 148.591C410.782 146.778 418.021 151.077 419.834 158.195C421.647 165.312 417.348 172.551 410.23 174.364Z" fill="url(#paint23_radial)"/>
<defs>
<radialGradient id="paint0_radial" cx="0" cy="0" r="1" gradientUnits="userSpaceOnUse" gradientTransform="translate(205.241 6.80368) scale(19.7735)">
<stop stop-color="white"/>
<stop offset="0.0544" stop-color="#FAE7FE"/>
<stop offset="0.4974" stop-color="#E7CEF6"/>
<stop offset="0.8253" stop-color="#948B9D"/>
<stop offset="1" stop-color="#6D617B"/>
</radialGradient>
<radialGradient id="paint1_radial" cx="0" cy="0" r="1" gradientUnits="userSpaceOnUse" gradientTransform="translate(421.242 203.786) rotate(90) scale(19.7735)">
<stop stop-color="white"/>
<stop offset="0.0544" stop-color="#FAE7FE"/>
<stop offset="0.4974" stop-color="#E7CEF6"/>
<stop offset="0.8253" stop-color="#948B9D"/>
<stop offset="1" stop-color="#6D617B"/>
</radialGradient>
<radialGradient id="paint2_radial" cx="0" cy="0" r="1" gradientUnits="userSpaceOnUse" gradientTransform="translate(416.982 257.698) rotate(104.945) scale(19.7735)">
<stop stop-color="white"/>
<stop offset="0.0544" stop-color="#FAE7FE"/>
<stop offset="0.4974" stop-color="#E7CEF6"/>
<stop offset="0.8253" stop-color="#948B9D"/>
<stop offset="1" stop-color="#6D617B"/>
</radialGradient>
<radialGradient id="paint3_radial" cx="0" cy="0" r="1" gradientUnits="userSpaceOnUse" gradientTransform="translate(397.095 305.313) rotate(104.945) scale(19.7735)">
<stop stop-color="white"/>
<stop offset="0.0544" stop-color="#FAE7FE"/>
<stop offset="0.4974" stop-color="#E7CEF6"/>
<stop offset="0.8253" stop-color="#948B9D"/>
<stop offset="1" stop-color="#6D617B"/>
</radialGradient>
<radialGradient id="paint4_radial" cx="0" cy="0" r="1" gradientUnits="userSpaceOnUse" gradientTransform="translate(368.075 353.379) rotate(135) scale(19.7735)">
<stop stop-color="white"/>
<stop offset="0.0544" stop-color="#FAE7FE"/>
<stop offset="0.4974" stop-color="#E7CEF6"/>
<stop offset="0.8253" stop-color="#948B9D"/>
<stop offset="1" stop-color="#6D617B"/>
</radialGradient>
<radialGradient id="paint5_radial" cx="0" cy="0" r="1" gradientUnits="userSpaceOnUse" gradientTransform="translate(326.979 388.429) rotate(149.85) scale(19.7735)">
<stop stop-color="white"/>
<stop offset="0.0544" stop-color="#FAE7FE"/>
<stop offset="0.4974" stop-color="#E7CEF6"/>
<stop offset="0.8253" stop-color="#948B9D"/>
<stop offset="1" stop-color="#6D617B"/>
</radialGradient>
<radialGradient id="paint6_radial" cx="0" cy="0" r="1" gradientUnits="userSpaceOnUse" gradientTransform="translate(278.089 411.73) rotate(164.837) scale(19.7735)">
<stop stop-color="white"/>
<stop offset="0.0544" stop-color="#FAE7FE"/>
<stop offset="0.4974" stop-color="#E7CEF6"/>
<stop offset="0.8253" stop-color="#948B9D"/>
<stop offset="1" stop-color="#6D617B"/>
</radialGradient>
<radialGradient id="paint7_radial" cx="0" cy="0" r="1" gradientUnits="userSpaceOnUse" gradientTransform="translate(223.888 421.6) rotate(-179.779) scale(19.7735)">
<stop stop-color="white"/>
<stop offset="0.0544" stop-color="#FAE7FE"/>
<stop offset="0.4974" stop-color="#E7CEF6"/>
<stop offset="0.8253" stop-color="#948B9D"/>
<stop offset="1" stop-color="#6D617B"/>
</radialGradient>
<radialGradient id="paint8_radial" cx="0" cy="0" r="1" gradientUnits="userSpaceOnUse" gradientTransform="translate(169.961 417.119) rotate(-164.837) scale(19.7735)">
<stop stop-color="white"/>
<stop offset="0.0544" stop-color="#FAE7FE"/>
<stop offset="0.4974" stop-color="#E7CEF6"/>
<stop offset="0.8253" stop-color="#948B9D"/>
<stop offset="1" stop-color="#6D617B"/>
</radialGradient>
<radialGradient id="paint9_radial" cx="0" cy="0" r="1" gradientUnits="userSpaceOnUse" gradientTransform="translate(119.059 398.807) rotate(-149.85) scale(19.7735)">
<stop stop-color="white"/>
<stop offset="0.0544" stop-color="#FAE7FE"/>
<stop offset="0.4974" stop-color="#E7CEF6"/>
<stop offset="0.8253" stop-color="#948B9D"/>
<stop offset="1" stop-color="#6D617B"/>
</radialGradient>
<radialGradient id="paint10_radial" cx="0" cy="0" r="1" gradientUnits="userSpaceOnUse" gradientTransform="translate(74.5253 367.861) rotate(-134.792) scale(19.7735)">
<stop stop-color="white"/>
<stop offset="0.0544" stop-color="#FAE7FE"/>
<stop offset="0.4974" stop-color="#E7CEF6"/>
<stop offset="0.8253" stop-color="#948B9D"/>
<stop offset="1" stop-color="#6D617B"/>
</radialGradient>
<radialGradient id="paint11_radial" cx="0" cy="0" r="1" gradientUnits="userSpaceOnUse" gradientTransform="translate(39.6865 326.728) rotate(-119.939) scale(19.7735)">
<stop stop-color="white"/>
<stop offset="0.0544" stop-color="#FAE7FE"/>
<stop offset="0.4974" stop-color="#E7CEF6"/>
<stop offset="0.8253" stop-color="#948B9D"/>
<stop offset="1" stop-color="#6D617B"/>
</radialGradient>
<radialGradient id="paint12_radial" cx="0" cy="0" r="1" gradientUnits="userSpaceOnUse" gradientTransform="translate(16.6211 278.05) rotate(-104.945) scale(19.7735)">
<stop stop-color="white"/>
<stop offset="0.0544" stop-color="#FAE7FE"/>
<stop offset="0.4974" stop-color="#E7CEF6"/>
<stop offset="0.8253" stop-color="#948B9D"/>
<stop offset="1" stop-color="#6D617B"/>
</radialGradient>
<radialGradient id="paint13_radial" cx="0" cy="0" r="1" gradientUnits="userSpaceOnUse" gradientTransform="translate(6.85242 223.395) rotate(-89.5577) scale(19.7735)">
<stop stop-color="white"/>
<stop offset="0.0544" stop-color="#FAE7FE"/>
<stop offset="0.4974" stop-color="#E7CEF6"/>
<stop offset="0.8253" stop-color="#948B9D"/>
<stop offset="1" stop-color="#6D617B"/>
</radialGradient>
<radialGradient id="paint14_radial" cx="0" cy="0" r="1" gradientUnits="userSpaceOnUse" gradientTransform="translate(11.5076 169.625) rotate(-74.6201) scale(19.7735)">
<stop stop-color="white"/>
<stop offset="0.0544" stop-color="#FAE7FE"/>
<stop offset="0.4974" stop-color="#E7CEF6"/>
<stop offset="0.8253" stop-color="#948B9D"/>
<stop offset="1" stop-color="#6D617B"/>
</radialGradient>
<radialGradient id="paint15_radial" cx="0" cy="0" r="1" gradientUnits="userSpaceOnUse" gradientTransform="translate(29.7613 119.163) rotate(-59.6388) scale(19.7735)">
<stop stop-color="white"/>
<stop offset="0.0544" stop-color="#FAE7FE"/>
<stop offset="0.4974" stop-color="#E7CEF6"/>
<stop offset="0.8253" stop-color="#948B9D"/>
<stop offset="1" stop-color="#6D617B"/>
</radialGradient>
<radialGradient id="paint16_radial" cx="0" cy="0" r="1" gradientUnits="userSpaceOnUse" gradientTransform="translate(61.0653 74.3574) rotate(-44.5837) scale(19.7735)">
<stop stop-color="white"/>
<stop offset="0.0544" stop-color="#FAE7FE"/>
<stop offset="0.4974" stop-color="#E7CEF6"/>
<stop offset="0.8253" stop-color="#948B9D"/>
<stop offset="1" stop-color="#6D617B"/>
</radialGradient>
<radialGradient id="paint17_radial" cx="0" cy="0" r="1" gradientUnits="userSpaceOnUse" gradientTransform="translate(101.977 39.8348) rotate(-29.7279) scale(19.7735)">
<stop stop-color="white"/>
<stop offset="0.0544" stop-color="#FAE7FE"/>
<stop offset="0.4974" stop-color="#E7CEF6"/>
<stop offset="0.8253" stop-color="#948B9D"/>
<stop offset="1" stop-color="#6D617B"/>
</radialGradient>
<radialGradient id="paint18_radial" cx="0" cy="0" r="1" gradientUnits="userSpaceOnUse" gradientTransform="translate(151.775 16.5058) rotate(-14.5102) scale(19.7735)">
<stop stop-color="white"/>
<stop offset="0.0544" stop-color="#FAE7FE"/>
<stop offset="0.4974" stop-color="#E7CEF6"/>
<stop offset="0.8253" stop-color="#948B9D"/>
<stop offset="1" stop-color="#6D617B"/>
</radialGradient>
<radialGradient id="paint19_radial" cx="0" cy="0" r="1" gradientUnits="userSpaceOnUse" gradientTransform="translate(259.521 11.9659) rotate(15.5971) scale(19.7735)">
<stop stop-color="white"/>
<stop offset="0.0544" stop-color="#FAE7FE"/>
<stop offset="0.4974" stop-color="#E7CEF6"/>
<stop offset="0.8253" stop-color="#948B9D"/>
<stop offset="1" stop-color="#6D617B"/>
</radialGradient>
<radialGradient id="paint20_radial" cx="0" cy="0" r="1" gradientUnits="userSpaceOnUse" gradientTransform="translate(309.842 30.3363) rotate(30.5721) scale(19.7735)">
<stop stop-color="white"/>
<stop offset="0.0544" stop-color="#FAE7FE"/>
<stop offset="0.4974" stop-color="#E7CEF6"/>
<stop offset="0.8253" stop-color="#948B9D"/>
<stop offset="1" stop-color="#6D617B"/>
</radialGradient>
<radialGradient id="paint21_radial" cx="0" cy="0" r="1" gradientUnits="userSpaceOnUse" gradientTransform="translate(354.667 61.8734) rotate(45.6245) scale(19.7735)">
<stop stop-color="white"/>
<stop offset="0.0544" stop-color="#FAE7FE"/>
<stop offset="0.4974" stop-color="#E7CEF6"/>
<stop offset="0.8253" stop-color="#948B9D"/>
<stop offset="1" stop-color="#6D617B"/>
</radialGradient>
<radialGradient id="paint22_radial" cx="0" cy="0" r="1" gradientUnits="userSpaceOnUse" gradientTransform="translate(389.125 103.043) rotate(60.4833) scale(19.7735)">
<stop stop-color="white"/>
<stop offset="0.0544" stop-color="#FAE7FE"/>
<stop offset="0.4974" stop-color="#E7CEF6"/>
<stop offset="0.8253" stop-color="#948B9D"/>
<stop offset="1" stop-color="#6D617B"/>
</radialGradient>
<radialGradient id="paint23_radial" cx="0" cy="0" r="1" gradientUnits="userSpaceOnUse" gradientTransform="translate(412.216 152.838) rotate(75.7074) scale(19.7735)">
<stop stop-color="white"/>
<stop offset="0.0544" stop-color="#FAE7FE"/>
<stop offset="0.4974" stop-color="#E7CEF6"/>
<stop offset="0.8253" stop-color="#948B9D"/>
<stop offset="1" stop-color="#6D617B"/>
</radialGradient>
</defs>
</svg>
