<svg width="369" height="369" viewBox="0 0 369 369" fill="none" xmlns="http://www.w3.org/2000/svg">
<path d="M185 81.8738C185 83.2545 183.881 84.3738 182.5 84.3738C181.119 84.3738 180 83.2545 180 81.8738C180 80.493 181.119 79.3738 182.5 79.3738C183.881 79.3738 185 80.493 185 81.8738Z" fill="url(#paint0_radial)"/>
<path d="M286.172 183.546C284.791 183.546 283.672 182.426 283.672 181.046C283.672 179.665 284.791 178.546 286.172 178.546C287.553 178.546 288.672 179.665 288.672 181.046C288.672 182.426 287.553 183.546 286.172 183.546Z" fill="url(#paint1_radial)"/>
<path d="M282.949 210.03C281.615 209.674 280.822 208.304 281.178 206.97C281.534 205.635 282.904 204.843 284.238 205.199C285.573 205.555 286.365 206.925 286.009 208.259C285.653 209.593 284.283 210.386 282.949 210.03Z" fill="url(#paint2_radial)"/>
<path d="M272.997 234.631C271.801 233.942 271.389 232.414 272.078 231.217C272.767 230.021 274.296 229.61 275.492 230.299C276.689 230.988 277.1 232.516 276.411 233.713C275.722 234.909 274.194 235.321 272.997 234.631Z" fill="url(#paint3_radial)"/>
<path d="M256.878 255.984C255.902 255.007 255.902 253.424 256.878 252.448C257.854 251.472 259.437 251.472 260.414 252.448C261.39 253.424 261.39 255.007 260.414 255.984C259.437 256.96 257.854 256.96 256.878 255.984Z" fill="url(#paint4_radial)"/>
<path d="M235.766 272.475C235.073 271.281 235.478 269.751 236.672 269.058C237.866 268.364 239.396 268.77 240.09 269.964C240.783 271.158 240.378 272.688 239.184 273.381C237.99 274.075 236.46 273.669 235.766 272.475Z" fill="url(#paint5_radial)"/>
<path d="M211.187 282.871C210.826 281.538 211.613 280.165 212.946 279.804C214.279 279.443 215.652 280.23 216.013 281.563C216.374 282.896 215.587 284.269 214.254 284.63C212.921 284.991 211.548 284.203 211.187 282.871Z" fill="url(#paint6_radial)"/>
<path d="M184.535 286.493C184.54 285.113 185.664 283.998 187.044 284.003C188.425 284.008 189.54 285.132 189.535 286.513C189.529 287.893 188.406 289.008 187.025 289.003C185.644 288.998 184.53 287.874 184.535 286.493Z" fill="url(#paint7_radial)"/>
<path d="M158.024 283.154C158.385 281.821 159.758 281.033 161.09 281.395C162.423 281.756 163.211 283.129 162.85 284.462C162.488 285.794 161.115 286.582 159.783 286.221C158.45 285.859 157.662 284.486 158.024 283.154Z" fill="url(#paint8_radial)"/>
<path d="M133.394 273.05C134.087 271.856 135.617 271.45 136.811 272.144C138.005 272.837 138.411 274.367 137.717 275.561C137.024 276.755 135.494 277.161 134.3 276.467C133.106 275.774 132.7 274.244 133.394 273.05Z" fill="url(#paint9_radial)"/>
<path d="M112.215 256.909C113.195 255.937 114.778 255.942 115.75 256.922C116.723 257.902 116.717 259.485 115.737 260.458C114.758 261.431 113.175 261.425 112.202 260.445C111.229 259.465 111.235 257.882 112.215 256.909Z" fill="url(#paint10_radial)"/>
<path d="M95.865 235.833C97.0615 235.144 98.59 235.555 99.2791 236.751C99.9682 237.948 99.5569 239.476 98.3604 240.166C97.1639 240.855 95.6354 240.443 94.9463 239.247C94.2572 238.05 94.6685 236.522 95.865 235.833Z" fill="url(#paint11_radial)"/>
<path d="M85.6201 211.523C86.9541 211.167 88.3241 211.96 88.6802 213.294C89.0363 214.628 88.2436 215.998 86.9095 216.354C85.5755 216.71 84.2055 215.917 83.8494 214.583C83.4933 213.249 84.286 211.879 85.6201 211.523Z" fill="url(#paint12_radial)"/>
<path d="M81.9948 184.447C83.3755 184.457 84.486 185.585 84.4754 186.966C84.4647 188.347 83.3369 189.457 81.9562 189.447C80.5755 189.436 79.4649 188.308 79.4755 186.927C79.4862 185.547 80.6141 184.436 81.9948 184.447Z" fill="url(#paint13_radial)"/>
<path d="M85.4033 158.082C86.7346 158.448 87.5169 159.824 87.1507 161.155C86.7845 162.486 85.4085 163.269 84.0772 162.902C82.7459 162.536 81.9636 161.16 82.3298 159.829C82.696 158.498 84.072 157.715 85.4033 158.082Z" fill="url(#paint14_radial)"/>
<path d="M95.3545 133.85C96.5459 134.548 96.9459 136.079 96.248 137.271C95.5501 138.462 94.0187 138.862 92.8273 138.164C91.6359 137.466 91.2359 135.935 91.9338 134.744C92.6317 133.552 94.1631 133.152 95.3545 133.85Z" fill="url(#paint15_radial)"/>
<path d="M111.77 112.341C112.739 113.324 112.728 114.907 111.744 115.876C110.761 116.845 109.178 116.834 108.209 115.85C107.24 114.867 107.251 113.284 108.235 112.315C109.218 111.346 110.801 111.357 111.77 112.341Z" fill="url(#paint16_radial)"/>
<path d="M132.555 96.2372C133.239 97.4362 132.822 98.9631 131.623 99.6478C130.424 100.333 128.897 99.9156 128.213 98.7166C127.528 97.5175 127.945 95.9906 129.144 95.3059C130.343 94.6212 131.87 95.0381 132.555 96.2372Z" fill="url(#paint17_radial)"/>
<path d="M157.549 85.7793C157.895 87.116 157.092 88.48 155.755 88.8259C154.418 89.1719 153.054 88.3688 152.708 87.032C152.363 85.6953 153.166 84.3314 154.502 83.9854C155.839 83.6395 157.203 84.4426 157.549 85.7793Z" fill="url(#paint18_radial)"/>
<path d="M210.671 85.7909C210.299 87.1208 208.92 87.8979 207.59 87.5267C206.261 87.1554 205.483 85.7765 205.855 84.4466C206.226 83.1167 207.605 82.3396 208.935 82.7108C210.265 83.0821 211.042 84.461 210.671 85.7909Z" fill="url(#paint19_radial)"/>
<path d="M234.803 95.7644C234.101 96.9532 232.568 97.3476 231.379 96.6453C230.19 95.943 229.796 94.4101 230.498 93.2213C231.201 92.0324 232.733 91.6381 233.922 92.3403C235.111 93.0426 235.505 94.5756 234.803 95.7644Z" fill="url(#paint20_radial)"/>
<path d="M256.391 112.331C255.404 113.296 253.821 113.279 252.856 112.292C251.89 111.305 251.907 109.722 252.894 108.757C253.881 107.791 255.464 107.808 256.429 108.795C257.395 109.782 257.378 111.365 256.391 112.331Z" fill="url(#paint21_radial)"/>
<path d="M272.916 133.249C271.714 133.929 270.189 133.507 269.509 132.305C268.828 131.104 269.251 129.578 270.452 128.898C271.654 128.218 273.179 128.64 273.86 129.842C274.54 131.043 274.117 132.569 272.916 133.249Z" fill="url(#paint22_radial)"/>
<path d="M282.807 158.235C281.469 158.575 280.108 157.767 279.767 156.429C279.427 155.091 280.235 153.73 281.573 153.389C282.911 153.048 284.272 153.857 284.613 155.195C284.954 156.533 284.145 157.894 282.807 158.235Z" fill="url(#paint23_radial)"/>
<defs>
<radialGradient id="paint0_radial" cx="0" cy="0" r="1" gradientUnits="userSpaceOnUse" gradientTransform="translate(181.171 80.513) scale(3.71729)">
<stop stop-color="white"/>
<stop offset="0.0544" stop-color="#FAE7FE"/>
<stop offset="0.4974" stop-color="#E7CEF6"/>
<stop offset="0.8253" stop-color="#948B9D"/>
<stop offset="1" stop-color="#6D617B"/>
</radialGradient>
<radialGradient id="paint1_radial" cx="0" cy="0" r="1" gradientUnits="userSpaceOnUse" gradientTransform="translate(287.533 179.716) rotate(90) scale(3.71729)">
<stop stop-color="white"/>
<stop offset="0.0544" stop-color="#FAE7FE"/>
<stop offset="0.4974" stop-color="#E7CEF6"/>
<stop offset="0.8253" stop-color="#948B9D"/>
<stop offset="1" stop-color="#6D617B"/>
</radialGradient>
<radialGradient id="paint2_radial" cx="0" cy="0" r="1" gradientUnits="userSpaceOnUse" gradientTransform="translate(285.251 206.681) rotate(104.945) scale(3.71729)">
<stop stop-color="white"/>
<stop offset="0.0544" stop-color="#FAE7FE"/>
<stop offset="0.4974" stop-color="#E7CEF6"/>
<stop offset="0.8253" stop-color="#948B9D"/>
<stop offset="1" stop-color="#6D617B"/>
</radialGradient>
<radialGradient id="paint3_radial" cx="0" cy="0" r="1" gradientUnits="userSpaceOnUse" gradientTransform="translate(276.087 231.992) rotate(119.939) scale(3.71729)">
<stop stop-color="white"/>
<stop offset="0.0544" stop-color="#FAE7FE"/>
<stop offset="0.4974" stop-color="#E7CEF6"/>
<stop offset="0.8253" stop-color="#948B9D"/>
<stop offset="1" stop-color="#6D617B"/>
</radialGradient>
<radialGradient id="paint4_radial" cx="0" cy="0" r="1" gradientUnits="userSpaceOnUse" gradientTransform="translate(260.548 254.238) rotate(135) scale(3.71729)">
<stop stop-color="white"/>
<stop offset="0.0544" stop-color="#FAE7FE"/>
<stop offset="0.4974" stop-color="#E7CEF6"/>
<stop offset="0.8253" stop-color="#948B9D"/>
<stop offset="1" stop-color="#6D617B"/>
</radialGradient>
<radialGradient id="paint5_radial" cx="0" cy="0" r="1" gradientUnits="userSpaceOnUse" gradientTransform="translate(239.761 271.728) rotate(149.85) scale(3.71729)">
<stop stop-color="white"/>
<stop offset="0.0544" stop-color="#FAE7FE"/>
<stop offset="0.4974" stop-color="#E7CEF6"/>
<stop offset="0.8253" stop-color="#948B9D"/>
<stop offset="1" stop-color="#6D617B"/>
</radialGradient>
<radialGradient id="paint6_radial" cx="0" cy="0" r="1" gradientUnits="userSpaceOnUse" gradientTransform="translate(215.239 283.183) rotate(164.837) scale(3.71729)">
<stop stop-color="white"/>
<stop offset="0.0544" stop-color="#FAE7FE"/>
<stop offset="0.4974" stop-color="#E7CEF6"/>
<stop offset="0.8253" stop-color="#948B9D"/>
<stop offset="1" stop-color="#6D617B"/>
</radialGradient>
<radialGradient id="paint7_radial" cx="0" cy="0" r="1" gradientUnits="userSpaceOnUse" gradientTransform="translate(188.359 287.869) rotate(-179.779) scale(3.71729)">
<stop stop-color="white"/>
<stop offset="0.0544" stop-color="#FAE7FE"/>
<stop offset="0.4974" stop-color="#E7CEF6"/>
<stop offset="0.8253" stop-color="#948B9D"/>
<stop offset="1" stop-color="#6D617B"/>
</radialGradient>
<radialGradient id="paint8_radial" cx="0" cy="0" r="1" gradientUnits="userSpaceOnUse" gradientTransform="translate(161.364 285.469) rotate(-164.837) scale(3.71729)">
<stop stop-color="white"/>
<stop offset="0.0544" stop-color="#FAE7FE"/>
<stop offset="0.4974" stop-color="#E7CEF6"/>
<stop offset="0.8253" stop-color="#948B9D"/>
<stop offset="1" stop-color="#6D617B"/>
</radialGradient>
<radialGradient id="paint9_radial" cx="0" cy="0" r="1" gradientUnits="userSpaceOnUse" gradientTransform="translate(136.022 276.15) rotate(-149.85) scale(3.71729)">
<stop stop-color="white"/>
<stop offset="0.0544" stop-color="#FAE7FE"/>
<stop offset="0.4974" stop-color="#E7CEF6"/>
<stop offset="0.8253" stop-color="#948B9D"/>
<stop offset="1" stop-color="#6D617B"/>
</radialGradient>
<radialGradient id="paint10_radial" cx="0" cy="0" r="1" gradientUnits="userSpaceOnUse" gradientTransform="translate(113.947 260.586) rotate(-134.792) scale(3.71729)">
<stop stop-color="white"/>
<stop offset="0.0544" stop-color="#FAE7FE"/>
<stop offset="0.4974" stop-color="#E7CEF6"/>
<stop offset="0.8253" stop-color="#948B9D"/>
<stop offset="1" stop-color="#6D617B"/>
</radialGradient>
<radialGradient id="paint11_radial" cx="0" cy="0" r="1" gradientUnits="userSpaceOnUse" gradientTransform="translate(96.597 239.83) rotate(-119.939) scale(3.71729)">
<stop stop-color="white"/>
<stop offset="0.0544" stop-color="#FAE7FE"/>
<stop offset="0.4974" stop-color="#E7CEF6"/>
<stop offset="0.8253" stop-color="#948B9D"/>
<stop offset="1" stop-color="#6D617B"/>
</radialGradient>
<radialGradient id="paint12_radial" cx="0" cy="0" r="1" gradientUnits="userSpaceOnUse" gradientTransform="translate(85.2929 215.574) rotate(-104.945) scale(3.71729)">
<stop stop-color="white"/>
<stop offset="0.0544" stop-color="#FAE7FE"/>
<stop offset="0.4974" stop-color="#E7CEF6"/>
<stop offset="0.8253" stop-color="#948B9D"/>
<stop offset="1" stop-color="#6D617B"/>
</radialGradient>
<radialGradient id="paint13_radial" cx="0" cy="0" r="1" gradientUnits="userSpaceOnUse" gradientTransform="translate(80.6045 188.265) rotate(-89.5577) scale(3.71729)">
<stop stop-color="white"/>
<stop offset="0.0544" stop-color="#FAE7FE"/>
<stop offset="0.4974" stop-color="#E7CEF6"/>
<stop offset="0.8253" stop-color="#948B9D"/>
<stop offset="1" stop-color="#6D617B"/>
</radialGradient>
<radialGradient id="paint14_radial" cx="0" cy="0" r="1" gradientUnits="userSpaceOnUse" gradientTransform="translate(83.0757 161.413) rotate(-74.6201) scale(3.71729)">
<stop stop-color="white"/>
<stop offset="0.0544" stop-color="#FAE7FE"/>
<stop offset="0.4974" stop-color="#E7CEF6"/>
<stop offset="0.8253" stop-color="#948B9D"/>
<stop offset="1" stop-color="#6D617B"/>
</radialGradient>
<radialGradient id="paint15_radial" cx="0" cy="0" r="1" gradientUnits="userSpaceOnUse" gradientTransform="translate(92.2448 136.466) rotate(-59.6388) scale(3.71729)">
<stop stop-color="white"/>
<stop offset="0.0544" stop-color="#FAE7FE"/>
<stop offset="0.4974" stop-color="#E7CEF6"/>
<stop offset="0.8253" stop-color="#948B9D"/>
<stop offset="1" stop-color="#6D617B"/>
</radialGradient>
<radialGradient id="paint16_radial" cx="0" cy="0" r="1" gradientUnits="userSpaceOnUse" gradientTransform="translate(108.088 114.059) rotate(-44.5837) scale(3.71729)">
<stop stop-color="white"/>
<stop offset="0.0544" stop-color="#FAE7FE"/>
<stop offset="0.4974" stop-color="#E7CEF6"/>
<stop offset="0.8253" stop-color="#948B9D"/>
<stop offset="1" stop-color="#6D617B"/>
</radialGradient>
<radialGradient id="paint17_radial" cx="0" cy="0" r="1" gradientUnits="userSpaceOnUse" gradientTransform="translate(128.555 96.9544) rotate(-29.7279) scale(3.71729)">
<stop stop-color="white"/>
<stop offset="0.0544" stop-color="#FAE7FE"/>
<stop offset="0.4974" stop-color="#E7CEF6"/>
<stop offset="0.8253" stop-color="#948B9D"/>
<stop offset="1" stop-color="#6D617B"/>
</radialGradient>
<radialGradient id="paint18_radial" cx="0" cy="0" r="1" gradientUnits="userSpaceOnUse" gradientTransform="translate(153.501 85.4214) rotate(-14.5102) scale(3.71729)">
<stop stop-color="white"/>
<stop offset="0.0544" stop-color="#FAE7FE"/>
<stop offset="0.4974" stop-color="#E7CEF6"/>
<stop offset="0.8253" stop-color="#948B9D"/>
<stop offset="1" stop-color="#6D617B"/>
</radialGradient>
<radialGradient id="paint19_radial" cx="0" cy="0" r="1" gradientUnits="userSpaceOnUse" gradientTransform="translate(207.348 83.4507) rotate(15.5971) scale(3.71729)">
<stop stop-color="white"/>
<stop offset="0.0544" stop-color="#FAE7FE"/>
<stop offset="0.4974" stop-color="#E7CEF6"/>
<stop offset="0.8253" stop-color="#948B9D"/>
<stop offset="1" stop-color="#6D617B"/>
</radialGradient>
<radialGradient id="paint20_radial" cx="0" cy="0" r="1" gradientUnits="userSpaceOnUse" gradientTransform="translate(232.198 92.6451) rotate(30.5721) scale(3.71729)">
<stop stop-color="white"/>
<stop offset="0.0544" stop-color="#FAE7FE"/>
<stop offset="0.4974" stop-color="#E7CEF6"/>
<stop offset="0.8253" stop-color="#948B9D"/>
<stop offset="1" stop-color="#6D617B"/>
</radialGradient>
<radialGradient id="paint21_radial" cx="0" cy="0" r="1" gradientUnits="userSpaceOnUse" gradientTransform="translate(254.685 108.642) rotate(45.6245) scale(3.71729)">
<stop stop-color="white"/>
<stop offset="0.0544" stop-color="#FAE7FE"/>
<stop offset="0.4974" stop-color="#E7CEF6"/>
<stop offset="0.8253" stop-color="#948B9D"/>
<stop offset="1" stop-color="#6D617B"/>
</radialGradient>
<radialGradient id="paint22_radial" cx="0" cy="0" r="1" gradientUnits="userSpaceOnUse" gradientTransform="translate(272.213 129.246) rotate(60.4833) scale(3.71729)">
<stop stop-color="white"/>
<stop offset="0.0544" stop-color="#FAE7FE"/>
<stop offset="0.4974" stop-color="#E7CEF6"/>
<stop offset="0.8253" stop-color="#948B9D"/>
<stop offset="1" stop-color="#6D617B"/>
</radialGradient>
<radialGradient id="paint23_radial" cx="0" cy="0" r="1" gradientUnits="userSpaceOnUse" gradientTransform="translate(283.181 154.188) rotate(75.7074) scale(3.71729)">
<stop stop-color="white"/>
<stop offset="0.0544" stop-color="#FAE7FE"/>
<stop offset="0.4974" stop-color="#E7CEF6"/>
<stop offset="0.8253" stop-color="#948B9D"/>
<stop offset="1" stop-color="#6D617B"/>
</radialGradient>
</defs>
</svg>
