<svg width="369" height="369" viewBox="0 0 369 369" fill="none" xmlns="http://www.w3.org/2000/svg">
<path opacity="0.7" d="M188 35.5C188 38.5377 185.538 41 182.5 41C179.462 41 177 38.5377 177 35.5C177 32.4623 179.462 30 182.5 30C185.538 30 188 32.4623 188 35.5Z" fill="url(#paint0_radial)"/>
<path opacity="0.7" d="M332.546 186.546C329.508 186.546 327.046 184.083 327.046 181.046C327.046 178.008 329.508 175.546 332.546 175.546C335.583 175.546 338.046 178.008 338.046 181.046C338.046 184.083 335.583 186.546 332.546 186.546Z" fill="url(#paint1_radial)"/>
<path opacity="0.7" d="M326.98 224.888C324.045 224.104 322.301 221.09 323.085 218.155C323.868 215.221 326.882 213.477 329.817 214.26C332.752 215.043 334.496 218.057 333.713 220.992C332.929 223.927 329.915 225.671 326.98 224.888Z" fill="url(#paint2_radial)"/>
<path opacity="0.7" d="M311.685 260.375C309.053 258.859 308.148 255.497 309.664 252.864C311.18 250.232 314.543 249.327 317.175 250.843C319.808 252.359 320.712 255.722 319.196 258.354C317.68 260.987 314.318 261.891 311.685 260.375Z" fill="url(#paint3_radial)"/>
<path opacity="0.7" d="M287.548 290.896C285.4 288.748 285.4 285.266 287.548 283.118C289.696 280.97 293.178 280.97 295.326 283.118C297.474 285.266 297.474 288.748 295.326 290.896C293.178 293.044 289.696 293.044 287.548 290.896Z" fill="url(#paint4_radial)"/>
<path opacity="0.7" d="M256.464 314.082C254.938 311.455 255.831 308.089 258.458 306.564C261.084 305.038 264.45 305.93 265.976 308.557C267.502 311.184 266.609 314.55 263.982 316.075C261.356 317.601 257.99 316.709 256.464 314.082Z" fill="url(#paint5_radial)"/>
<path opacity="0.7" d="M220.421 328.415C219.626 325.483 221.359 322.462 224.291 321.668C227.223 320.873 230.243 322.606 231.038 325.538C231.833 328.47 230.1 331.49 227.168 332.285C224.236 333.079 221.215 331.347 220.421 328.415Z" fill="url(#paint6_radial)"/>
<path opacity="0.7" d="M181.356 332.855C181.368 329.818 183.839 327.365 186.877 327.376C189.915 327.388 192.367 329.86 192.356 332.898C192.344 335.935 189.872 338.388 186.835 338.376C183.797 338.365 181.344 335.893 181.356 332.855Z" fill="url(#paint7_radial)"/>
<path opacity="0.7" d="M142.999 327.128C143.793 324.197 146.814 322.464 149.746 323.258C152.678 324.053 154.41 327.074 153.616 330.006C152.821 332.937 149.8 334.67 146.868 333.876C143.937 333.081 142.204 330.06 142.999 327.128Z" fill="url(#paint8_radial)"/>
<path opacity="0.7" d="M107.508 311.643C109.033 309.016 112.399 308.124 115.026 309.649C117.653 311.175 118.545 314.541 117.019 317.168C115.494 319.795 112.128 320.687 109.501 319.161C106.874 317.636 105.982 314.27 107.508 311.643Z" fill="url(#paint9_radial)"/>
<path opacity="0.7" d="M77.191 287.452C79.3468 285.312 82.829 285.325 84.9692 287.48C87.1093 289.636 87.0966 293.118 84.9409 295.259C82.7852 297.399 79.3029 297.386 77.1628 295.23C75.0227 293.075 75.0353 289.592 77.191 287.452Z" fill="url(#paint10_radial)"/>
<path opacity="0.7" d="M54.1823 256.377C56.8146 254.861 60.1773 255.766 61.6933 258.398C63.2093 261.031 62.3045 264.393 59.6722 265.909C57.0399 267.425 53.6772 266.521 52.1612 263.888C50.6452 261.256 51.55 257.893 54.1823 256.377Z" fill="url(#paint11_radial)"/>
<path opacity="0.7" d="M40.0413 220.584C42.9762 219.801 45.9903 221.545 46.7737 224.48C47.5571 227.415 45.8131 230.429 42.8782 231.212C39.9433 231.996 36.9292 230.252 36.1458 227.317C35.3624 224.382 37.1064 221.368 40.0413 220.584Z" fill="url(#paint12_radial)"/>
<path opacity="0.7" d="M35.6455 181.089C38.6831 181.112 41.1263 183.594 41.1029 186.631C41.0794 189.669 38.5982 192.112 35.5606 192.088C32.523 192.065 30.0798 189.584 30.1032 186.546C30.1267 183.509 32.608 181.065 35.6455 181.089Z" fill="url(#paint13_radial)"/>
<path opacity="0.7" d="M41.4859 142.89C44.4148 143.695 46.1359 146.723 45.3302 149.652C44.5246 152.58 41.4974 154.302 38.5685 153.496C35.6396 152.69 33.9185 149.663 34.7242 146.734C35.5298 143.805 38.557 142.084 41.4859 142.89Z" fill="url(#paint14_radial)"/>
<path opacity="0.7" d="M56.857 107.822C59.478 109.357 60.3581 112.727 58.8227 115.348C57.2873 117.969 53.9181 118.849 51.297 117.313C48.6759 115.778 47.7959 112.409 49.3313 109.788C50.8667 107.167 54.2359 106.287 56.857 107.822Z" fill="url(#paint15_radial)"/>
<path opacity="0.7" d="M81.3547 77.206C83.487 79.3695 83.4616 82.8517 81.2981 84.984C79.1347 87.1163 75.6525 87.091 73.5202 84.9275C71.3879 82.764 71.4132 79.2818 73.5767 77.1495C75.7402 75.0172 79.2224 75.0425 81.3547 77.206Z" fill="url(#paint16_radial)"/>
<path opacity="0.7" d="M112.164 54.479C113.67 57.1169 112.753 60.4762 110.115 61.9825C107.477 63.4888 104.118 62.5716 102.612 59.9337C101.105 57.2958 102.023 53.9365 104.66 52.4302C107.298 50.9239 110.658 51.8411 112.164 54.479Z" fill="url(#paint17_radial)"/>
<path opacity="0.7" d="M148.834 40.133C149.595 43.0738 147.828 46.0745 144.888 46.8356C141.947 47.5967 138.946 45.8299 138.185 42.8891C137.424 39.9483 139.191 36.9476 142.132 36.1865C145.072 35.4254 148.073 37.1923 148.834 40.133Z" fill="url(#paint18_radial)"/>
<path opacity="0.7" d="M226.029 41.9314C225.212 44.8572 222.178 46.5669 219.252 45.7501C216.327 44.9334 214.617 41.8997 215.434 38.9739C216.25 36.0481 219.284 34.3384 222.21 35.1552C225.136 35.9719 226.845 39.0056 226.029 41.9314Z" fill="url(#paint19_radial)"/>
<path opacity="0.7" d="M260.973 57.3629C259.428 59.9783 256.055 60.846 253.44 59.3009C250.825 57.7559 249.957 54.3835 251.502 51.7681C253.047 49.1527 256.419 48.285 259.035 49.83C261.65 51.3751 262.518 54.7475 260.973 57.3629Z" fill="url(#paint20_radial)"/>
<path opacity="0.7" d="M291.636 82.0432C289.464 84.1676 285.982 84.1296 283.858 81.9584C281.733 79.7871 281.771 76.3051 283.943 74.1807C286.114 72.0563 289.596 72.0942 291.72 74.2654C293.845 76.4367 293.807 79.9187 291.636 82.0432Z" fill="url(#paint21_radial)"/>
<path opacity="0.7" d="M314.333 113.065C311.689 114.561 308.333 113.632 306.837 110.988C305.34 108.345 306.27 104.989 308.913 103.492C311.557 101.996 314.913 102.925 316.409 105.569C317.906 108.212 316.976 111.568 314.333 113.065Z" fill="url(#paint22_radial)"/>
<path opacity="0.7" d="M328.486 149.693C325.543 150.443 322.549 148.665 321.799 145.721C321.049 142.778 322.827 139.784 325.771 139.034C328.714 138.284 331.708 140.062 332.458 143.006C333.208 145.949 331.43 148.943 328.486 149.693Z" fill="url(#paint23_radial)"/>
<defs>
<radialGradient id="paint0_radial" cx="0" cy="0" r="1" gradientUnits="userSpaceOnUse" gradientTransform="translate(179.575 32.5063) scale(8.17804)">
<stop stop-color="white"/>
<stop offset="0.0544" stop-color="#FAE7FE"/>
<stop offset="0.4974" stop-color="#E7CEF6"/>
<stop offset="0.8253" stop-color="#948B9D"/>
<stop offset="1" stop-color="#6D617B"/>
</radialGradient>
<radialGradient id="paint1_radial" cx="0" cy="0" r="1" gradientUnits="userSpaceOnUse" gradientTransform="translate(335.539 178.121) rotate(90) scale(8.17804)">
<stop stop-color="white"/>
<stop offset="0.0544" stop-color="#FAE7FE"/>
<stop offset="0.4974" stop-color="#E7CEF6"/>
<stop offset="0.8253" stop-color="#948B9D"/>
<stop offset="1" stop-color="#6D617B"/>
</radialGradient>
<radialGradient id="paint2_radial" cx="0" cy="0" r="1" gradientUnits="userSpaceOnUse" gradientTransform="translate(332.045 217.52) rotate(104.945) scale(8.17804)">
<stop stop-color="white"/>
<stop offset="0.0544" stop-color="#FAE7FE"/>
<stop offset="0.4974" stop-color="#E7CEF6"/>
<stop offset="0.8253" stop-color="#948B9D"/>
<stop offset="1" stop-color="#6D617B"/>
</radialGradient>
<radialGradient id="paint3_radial" cx="0" cy="0" r="1" gradientUnits="userSpaceOnUse" gradientTransform="translate(318.484 254.569) rotate(119.939) scale(8.17804)">
<stop stop-color="white"/>
<stop offset="0.0544" stop-color="#FAE7FE"/>
<stop offset="0.4974" stop-color="#E7CEF6"/>
<stop offset="0.8253" stop-color="#948B9D"/>
<stop offset="1" stop-color="#6D617B"/>
</radialGradient>
<radialGradient id="paint4_radial" cx="0" cy="0" r="1" gradientUnits="userSpaceOnUse" gradientTransform="translate(295.622 287.056) rotate(135) scale(8.17804)">
<stop stop-color="white"/>
<stop offset="0.0544" stop-color="#FAE7FE"/>
<stop offset="0.4974" stop-color="#E7CEF6"/>
<stop offset="0.8253" stop-color="#948B9D"/>
<stop offset="1" stop-color="#6D617B"/>
</radialGradient>
<radialGradient id="paint5_radial" cx="0" cy="0" r="1" gradientUnits="userSpaceOnUse" gradientTransform="translate(265.253 312.439) rotate(149.85) scale(8.17804)">
<stop stop-color="white"/>
<stop offset="0.0544" stop-color="#FAE7FE"/>
<stop offset="0.4974" stop-color="#E7CEF6"/>
<stop offset="0.8253" stop-color="#948B9D"/>
<stop offset="1" stop-color="#6D617B"/>
</radialGradient>
<radialGradient id="paint6_radial" cx="0" cy="0" r="1" gradientUnits="userSpaceOnUse" gradientTransform="translate(229.335 329.101) rotate(164.837) scale(8.17804)">
<stop stop-color="white"/>
<stop offset="0.0544" stop-color="#FAE7FE"/>
<stop offset="0.4974" stop-color="#E7CEF6"/>
<stop offset="0.8253" stop-color="#948B9D"/>
<stop offset="1" stop-color="#6D617B"/>
</radialGradient>
<radialGradient id="paint7_radial" cx="0" cy="0" r="1" gradientUnits="userSpaceOnUse" gradientTransform="translate(189.769 335.881) rotate(-179.779) scale(8.17804)">
<stop stop-color="white"/>
<stop offset="0.0544" stop-color="#FAE7FE"/>
<stop offset="0.4974" stop-color="#E7CEF6"/>
<stop offset="0.8253" stop-color="#948B9D"/>
<stop offset="1" stop-color="#6D617B"/>
</radialGradient>
<radialGradient id="paint8_radial" cx="0" cy="0" r="1" gradientUnits="userSpaceOnUse" gradientTransform="translate(150.347 332.221) rotate(-164.837) scale(8.17804)">
<stop stop-color="white"/>
<stop offset="0.0544" stop-color="#FAE7FE"/>
<stop offset="0.4974" stop-color="#E7CEF6"/>
<stop offset="0.8253" stop-color="#948B9D"/>
<stop offset="1" stop-color="#6D617B"/>
</radialGradient>
<radialGradient id="paint9_radial" cx="0" cy="0" r="1" gradientUnits="userSpaceOnUse" gradientTransform="translate(113.289 318.463) rotate(-149.85) scale(8.17804)">
<stop stop-color="white"/>
<stop offset="0.0544" stop-color="#FAE7FE"/>
<stop offset="0.4974" stop-color="#E7CEF6"/>
<stop offset="0.8253" stop-color="#948B9D"/>
<stop offset="1" stop-color="#6D617B"/>
</radialGradient>
<radialGradient id="paint10_radial" cx="0" cy="0" r="1" gradientUnits="userSpaceOnUse" gradientTransform="translate(81.0019 295.54) rotate(-134.792) scale(8.17804)">
<stop stop-color="white"/>
<stop offset="0.0544" stop-color="#FAE7FE"/>
<stop offset="0.4974" stop-color="#E7CEF6"/>
<stop offset="0.8253" stop-color="#948B9D"/>
<stop offset="1" stop-color="#6D617B"/>
</radialGradient>
<radialGradient id="paint11_radial" cx="0" cy="0" r="1" gradientUnits="userSpaceOnUse" gradientTransform="translate(55.7927 265.172) rotate(-119.939) scale(8.17804)">
<stop stop-color="white"/>
<stop offset="0.0544" stop-color="#FAE7FE"/>
<stop offset="0.4974" stop-color="#E7CEF6"/>
<stop offset="0.8253" stop-color="#948B9D"/>
<stop offset="1" stop-color="#6D617B"/>
</radialGradient>
<radialGradient id="paint12_radial" cx="0" cy="0" r="1" gradientUnits="userSpaceOnUse" gradientTransform="translate(39.3216 229.496) rotate(-104.945) scale(8.17804)">
<stop stop-color="white"/>
<stop offset="0.0544" stop-color="#FAE7FE"/>
<stop offset="0.4974" stop-color="#E7CEF6"/>
<stop offset="0.8253" stop-color="#948B9D"/>
<stop offset="1" stop-color="#6D617B"/>
</radialGradient>
<radialGradient id="paint13_radial" cx="0" cy="0" r="1" gradientUnits="userSpaceOnUse" gradientTransform="translate(32.5869 189.49) rotate(-89.5577) scale(8.17804)">
<stop stop-color="white"/>
<stop offset="0.0544" stop-color="#FAE7FE"/>
<stop offset="0.4974" stop-color="#E7CEF6"/>
<stop offset="0.8253" stop-color="#948B9D"/>
<stop offset="1" stop-color="#6D617B"/>
</radialGradient>
<radialGradient id="paint14_radial" cx="0" cy="0" r="1" gradientUnits="userSpaceOnUse" gradientTransform="translate(36.3651 150.219) rotate(-74.6201) scale(8.17804)">
<stop stop-color="white"/>
<stop offset="0.0544" stop-color="#FAE7FE"/>
<stop offset="0.4974" stop-color="#E7CEF6"/>
<stop offset="0.8253" stop-color="#948B9D"/>
<stop offset="1" stop-color="#6D617B"/>
</radialGradient>
<radialGradient id="paint15_radial" cx="0" cy="0" r="1" gradientUnits="userSpaceOnUse" gradientTransform="translate(50.0157 113.578) rotate(-59.6388) scale(8.17804)">
<stop stop-color="white"/>
<stop offset="0.0544" stop-color="#FAE7FE"/>
<stop offset="0.4974" stop-color="#E7CEF6"/>
<stop offset="0.8253" stop-color="#948B9D"/>
<stop offset="1" stop-color="#6D617B"/>
</radialGradient>
<radialGradient id="paint16_radial" cx="0" cy="0" r="1" gradientUnits="userSpaceOnUse" gradientTransform="translate(73.2531 80.9875) rotate(-44.5837) scale(8.17804)">
<stop stop-color="white"/>
<stop offset="0.0544" stop-color="#FAE7FE"/>
<stop offset="0.4974" stop-color="#E7CEF6"/>
<stop offset="0.8253" stop-color="#948B9D"/>
<stop offset="1" stop-color="#6D617B"/>
</radialGradient>
<radialGradient id="paint17_radial" cx="0" cy="0" r="1" gradientUnits="userSpaceOnUse" gradientTransform="translate(103.364 56.0569) rotate(-29.7279) scale(8.17804)">
<stop stop-color="white"/>
<stop offset="0.0544" stop-color="#FAE7FE"/>
<stop offset="0.4974" stop-color="#E7CEF6"/>
<stop offset="0.8253" stop-color="#948B9D"/>
<stop offset="1" stop-color="#6D617B"/>
</radialGradient>
<radialGradient id="paint18_radial" cx="0" cy="0" r="1" gradientUnits="userSpaceOnUse" gradientTransform="translate(139.928 39.3457) rotate(-14.5102) scale(8.17804)">
<stop stop-color="white"/>
<stop offset="0.0544" stop-color="#FAE7FE"/>
<stop offset="0.4974" stop-color="#E7CEF6"/>
<stop offset="0.8253" stop-color="#948B9D"/>
<stop offset="1" stop-color="#6D617B"/>
</radialGradient>
<radialGradient id="paint19_radial" cx="0" cy="0" r="1" gradientUnits="userSpaceOnUse" gradientTransform="translate(218.719 36.7829) rotate(15.5971) scale(8.17804)">
<stop stop-color="white"/>
<stop offset="0.0544" stop-color="#FAE7FE"/>
<stop offset="0.4974" stop-color="#E7CEF6"/>
<stop offset="0.8253" stop-color="#948B9D"/>
<stop offset="1" stop-color="#6D617B"/>
</radialGradient>
<radialGradient id="paint20_radial" cx="0" cy="0" r="1" gradientUnits="userSpaceOnUse" gradientTransform="translate(255.242 50.5005) rotate(30.5721) scale(8.17804)">
<stop stop-color="white"/>
<stop offset="0.0544" stop-color="#FAE7FE"/>
<stop offset="0.4974" stop-color="#E7CEF6"/>
<stop offset="0.8253" stop-color="#948B9D"/>
<stop offset="1" stop-color="#6D617B"/>
</radialGradient>
<radialGradient id="paint21_radial" cx="0" cy="0" r="1" gradientUnits="userSpaceOnUse" gradientTransform="translate(287.884 73.9279) rotate(45.6245) scale(8.17804)">
<stop stop-color="white"/>
<stop offset="0.0544" stop-color="#FAE7FE"/>
<stop offset="0.4974" stop-color="#E7CEF6"/>
<stop offset="0.8253" stop-color="#948B9D"/>
<stop offset="1" stop-color="#6D617B"/>
</radialGradient>
<radialGradient id="paint22_radial" cx="0" cy="0" r="1" gradientUnits="userSpaceOnUse" gradientTransform="translate(312.787 104.259) rotate(60.4833) scale(8.17804)">
<stop stop-color="white"/>
<stop offset="0.0544" stop-color="#FAE7FE"/>
<stop offset="0.4974" stop-color="#E7CEF6"/>
<stop offset="0.8253" stop-color="#948B9D"/>
<stop offset="1" stop-color="#6D617B"/>
</radialGradient>
<radialGradient id="paint23_radial" cx="0" cy="0" r="1" gradientUnits="userSpaceOnUse" gradientTransform="translate(329.307 140.79) rotate(75.7074) scale(8.17804)">
<stop stop-color="white"/>
<stop offset="0.0544" stop-color="#FAE7FE"/>
<stop offset="0.4974" stop-color="#E7CEF6"/>
<stop offset="0.8253" stop-color="#948B9D"/>
<stop offset="1" stop-color="#6D617B"/>
</radialGradient>
</defs>
</svg>
